M48
; DRILL file {KiCad 9.0.0} date 2025-04-09T12:57:00-0400
; FORMAT={-:-/ absolute / metric / decimal}
; #@! TF.CreationDate,2025-04-09T12:57:00-04:00
; #@! TF.GenerationSoftware,Kicad,Pcbnew,9.0.0
; #@! TF.FileFunction,Plated,1,4,PTH
FMAT,2
METRIC
; #@! TA.AperFunction,Plated,PTH,ViaDrill
T1C0.300
; #@! TA.AperFunction,Plated,PTH,ComponentDrill
T2C0.500
; #@! TA.AperFunction,Plated,PTH,ComponentDrill
T3C0.900
; #@! TA.AperFunction,Plated,PTH,ComponentDrill
T4C1.000
; #@! TA.AperFunction,Plated,PTH,ComponentDrill
T5C1.100
; #@! TA.AperFunction,Plated,PTH,ComponentDrill
T6C2.300
; #@! TA.AperFunction,Plated,PTH,ComponentDrill
T7C2.500
; #@! TA.AperFunction,Plated,PTH,ComponentDrill
T8C3.000
%
G90
G05
T1
X38.0Y-76.8
X38.0Y-87.1
X38.5Y-54.2
X38.5Y-57.2
X38.6Y-45.0
X38.6Y-48.0
X38.6Y-51.5
X38.7Y-42.3
X40.4Y-87.0
X40.45Y-76.85
X40.8Y-99.2
X40.9Y-72.1
X41.0Y-96.7
X41.1Y-94.0
X41.3Y-170.0
X41.3Y-173.0
X41.3Y-178.5
X41.3Y-181.5
X41.4Y-161.1
X41.4Y-164.1
X41.4Y-167.3
X41.4Y-175.8
X41.5Y-158.4
X41.6Y-143.0
X41.6Y-146.0
X41.6Y-152.2
X41.6Y-155.2
X41.7Y-134.0
X41.7Y-137.0
X41.7Y-140.3
X41.7Y-149.5
X41.8Y-131.3
X41.9Y-125.6
X41.9Y-128.6
X42.0Y-122.9
X42.1Y-83.3
X43.75Y-86.7
X43.8Y-99.2
X43.9Y-84.8
X43.9Y-94.0
X43.9Y-96.7
X44.4Y-173.1
X44.4Y-181.6
X44.5Y-164.2
X44.5Y-167.4
X44.5Y-170.1
X44.5Y-175.9
X44.5Y-178.6
X44.6Y-158.5
X44.6Y-161.2
X44.7Y-51.6
X44.7Y-54.2
X44.7Y-57.2
X44.7Y-146.1
X44.7Y-155.3
X44.8Y-42.4
X44.8Y-45.0
X44.8Y-48.0
X44.8Y-137.1
X44.8Y-140.4
X44.8Y-143.1
X44.8Y-149.6
X44.8Y-152.3
X44.9Y-131.4
X44.9Y-134.1
X45.0Y-128.7
X45.1Y-123.0
X45.1Y-125.7
X45.75Y-84.35
X45.8Y-88.3
X46.4Y-73.4
X47.0Y-93.9
X47.1Y-99.4
X47.2Y-81.7
X47.2Y-96.7
X47.5Y-40.0
X47.5Y-167.4
X47.5Y-170.0
X47.5Y-173.0
X47.5Y-175.9
X47.5Y-178.5
X47.5Y-181.5
X47.6Y-158.5
X47.6Y-161.1
X47.6Y-164.1
X47.7Y-54.3
X47.7Y-57.3
X47.8Y-51.6
X47.8Y-63.8
X47.8Y-115.4
X47.8Y-140.4
X47.8Y-143.0
X47.8Y-146.0
X47.8Y-149.6
X47.8Y-152.2
X47.8Y-155.2
X47.9Y-131.4
X47.9Y-134.0
X47.9Y-137.0
X48.1Y-123.0
X48.1Y-125.6
X48.1Y-128.6
X49.1Y-38.0
X49.4Y-69.0
X49.6Y-93.9
X49.6Y-99.5
X49.7Y-96.8
X50.8Y-57.4
X50.9Y-51.7
X50.9Y-54.4
X50.9Y-100.9
X51.3Y-62.4
X51.3Y-65.4
X51.4Y-59.7
X51.9Y-89.9
X52.2Y-110.2
X53.55Y-116.55
X53.6Y-80.8
X53.6Y-82.7
X53.65Y-112.1
X53.65Y-114.6
X53.7Y-109.8
X53.7Y-119.15
X53.75Y-102.4
X53.75Y-105.55
X53.75Y-107.6
X53.9Y-51.7
X53.9Y-54.3
X53.9Y-57.3
X53.9Y-98.75
X54.0Y-96.75
X54.35Y-93.5
X54.4Y-65.5
X54.5Y-59.8
X54.5Y-62.5
X54.6Y-79.7
X55.95Y-121.6
X56.4Y-45.7
X56.4Y-48.7
X56.4Y-54.2
X56.4Y-57.2
X56.4Y-119.65
X56.5Y-43.0
X56.5Y-51.5
X56.5Y-85.3
X56.6Y-147.05
X56.606Y-150.091
X56.65Y-159.2
X56.7Y-144.2
X56.7Y-174.15
X56.7Y-180.6
X56.75Y-165.6
X56.8Y-91.65
X56.8Y-177.65
X56.85Y-162.5
X56.875Y-104.0
X56.9Y-105.3
X56.9Y-111.6
X56.95Y-102.0
X56.95Y-107.15
X57.0Y-73.1
X57.0Y-87.5
X57.0Y-100.05
X57.0Y-109.2
X57.0Y-113.55
X57.0Y-115.5
X57.05Y-97.85
X57.1Y-95.85
X57.5Y-59.8
X57.5Y-62.4
X57.5Y-65.4
X58.0Y-136.25
X58.55Y-85.4
X58.75Y-94.95
X59.15Y-144.8
X59.15Y-147.2
X59.15Y-150.1
X59.25Y-179.0
X59.35Y-162.6
X59.35Y-165.55
X59.4Y-159.15
X59.4Y-174.1
X59.4Y-180.8
X59.5Y-48.8
X59.5Y-57.3
X59.5Y-72.8
X59.6Y-43.1
X59.6Y-45.8
X59.6Y-51.6
X59.6Y-54.3
X59.6Y-102.8
X59.6Y-120.4
X59.65Y-134.7
X59.7Y-40.2
X59.7Y-115.0
X59.85Y-106.65
X59.85Y-107.95
X59.85Y-117.45
X60.1Y-95.0
X60.15Y-91.4
X60.2Y-116.35
X60.4Y-25.1
X60.4Y-28.1
X60.4Y-103.1
X60.4Y-112.4
X60.45Y-111.05
X60.45Y-113.65
X60.5Y-22.4
X60.5Y-87.5
X60.7Y-79.2
X61.0Y-102.2
X61.0Y-105.5
X61.5Y-32.8
X61.5Y-159.5
X61.6Y-80.5
X61.6Y-132.6
X61.65Y-181.5
X61.7Y-83.3
X61.7Y-135.0
X61.85Y-162.6
X61.85Y-165.6
X61.9Y-174.05
X61.95Y-176.6
X62.05Y-147.15
X62.05Y-150.15
X62.1Y-144.75
X62.2Y-95.0
X62.5Y-69.4
X62.5Y-72.4
X62.6Y-43.1
X62.6Y-45.7
X62.6Y-48.7
X62.6Y-51.6
X62.6Y-54.2
X62.6Y-57.2
X62.6Y-66.7
X62.7Y-37.5
X62.7Y-40.1
X62.8Y-103.8
X62.8Y-106.5
X63.2Y-115.1
X63.2Y-117.8
X63.2Y-119.8
X63.2Y-122.5
X63.2Y-126.8
X63.3Y-107.85
X63.3Y-135.95
X63.5Y-28.2
X63.5Y-76.3
X63.6Y-22.5
X63.6Y-25.2
X63.6Y-73.6
X63.6Y-113.4
X63.95Y-130.25
X64.1Y-132.85
X64.5Y-125.0
X65.0Y-31.0
X65.0Y-162.1
X65.0Y-165.1
X65.05Y-136.45
X65.1Y-159.4
X65.1Y-177.3
X65.1Y-180.3
X65.2Y-174.6
X65.221Y-107.544
X65.3Y-113.4
X65.35Y-128.95
X65.4Y-133.85
X65.5Y-126.0
X65.6Y-45.7
X65.6Y-48.7
X65.6Y-72.5
X65.6Y-147.1
X65.6Y-150.1
X65.7Y-43.0
X65.7Y-69.5
X65.7Y-91.7
X65.7Y-144.4
X65.9Y-95.0
X66.2Y-27.3
X66.2Y-115.1
X66.2Y-117.7
X66.2Y-119.8
X66.2Y-122.4
X66.4Y-103.7
X66.4Y-106.4
X66.5Y-130.1
X66.6Y-22.5
X66.6Y-25.1
X66.6Y-79.4
X66.65Y-134.85
X66.7Y-73.7
X66.7Y-76.4
X66.9Y-113.4
X66.95Y-126.9
X67.2Y-122.85
X67.35Y-120.3
X67.35Y-124.9
X67.4Y-131.85
X67.6Y-118.05
X67.75Y-107.7
X67.9Y-115.1
X67.9Y-128.85
X68.2Y-159.5
X68.2Y-162.2
X68.2Y-180.4
X68.3Y-174.7
X68.3Y-177.4
X68.35Y-133.4
X68.6Y-95.0
X68.7Y-48.8
X68.7Y-72.4
X68.75Y-109.0
X68.8Y-43.1
X68.8Y-45.8
X68.8Y-144.5
X68.8Y-147.2
X69.2Y-66.8
X69.4Y-103.7
X69.4Y-106.3
X69.55Y-112.6
X69.55Y-127.05
X69.7Y-73.7
X69.7Y-76.3
X69.7Y-79.3
X69.7Y-123.0
X69.7Y-129.6
X69.8Y-120.0
X70.1Y-107.75
X70.15Y-110.35
X70.4Y-131.45
X71.1Y-66.8
X71.2Y-159.5
X71.2Y-165.1
X71.25Y-95.0
X71.3Y-174.7
X71.3Y-177.3
X71.3Y-180.3
X71.4Y-125.35
X71.5Y-106.3
X71.566Y-27.709
X71.65Y-116.5
X71.65Y-118.35
X71.75Y-111.1
X71.8Y-43.1
X71.8Y-45.7
X71.8Y-48.7
X71.8Y-144.5
X71.8Y-150.1
X71.85Y-127.05
X71.9Y-64.5
X72.2Y-85.1
X72.4Y-87.9
X72.45Y-107.7
X72.65Y-129.35
X72.7Y-39.1
X72.9Y-31.1
X72.9Y-104.7
X73.5Y-109.6
X73.5Y-118.45
X73.85Y-122.8
X73.85Y-127.05
X73.9Y-116.55
X74.0Y-102.7
X74.0Y-124.8
X74.05Y-95.0
X74.1Y-90.4
X74.1Y-106.8
X74.2Y-66.9
X74.2Y-69.6
X74.4Y-87.7
X74.5Y-41.5
X74.5Y-46.0
X74.5Y-80.35
X74.5Y-83.35
X74.6Y-77.65
X74.7Y-56.9
X74.8Y-85.4
X75.2Y-50.5
X75.2Y-146.7
X75.2Y-152.4
X75.2Y-155.4
X75.2Y-171.3
X75.2Y-174.3
X75.3Y-38.1
X75.3Y-134.7
X75.3Y-137.7
X75.3Y-141.0
X75.3Y-149.7
X75.3Y-162.1
X75.3Y-165.1
X75.3Y-168.6
X75.3Y-179.6
X75.3Y-182.6
X75.4Y-132.0
X75.4Y-159.4
X75.4Y-176.9
X75.6Y-30.6
X75.7Y-27.7
X75.7Y-33.9
X75.7Y-88.55
X75.7Y-94.65
X77.1Y-109.6
X77.2Y-66.9
X77.2Y-69.5
X77.2Y-72.5
X77.2Y-106.6
X77.2Y-107.8
X77.3Y-114.7
X77.6Y-83.45
X77.6Y-86.45
X77.7Y-80.45
X78.1Y-30.6
X78.2Y-109.7
X78.3Y-107.9
X78.3Y-146.8
X78.3Y-174.4
X78.4Y-27.0
X78.4Y-141.1
X78.4Y-149.8
X78.4Y-152.5
X78.4Y-165.2
X78.4Y-168.7
X78.4Y-171.4
X78.4Y-182.7
X78.5Y-159.5
X78.5Y-162.2
X78.5Y-177.0
X78.5Y-179.7
X78.6Y-45.1
X78.6Y-47.9
X78.7Y-42.7
X78.7Y-116.9
X78.7Y-137.8
X78.8Y-118.8
X78.8Y-132.2
X78.8Y-134.7
X78.85Y-91.2
X79.1Y-75.1
X79.8Y-111.0
X79.9Y-109.7
X80.4Y-113.8
X80.6Y-56.0
X80.7Y-77.75
X80.7Y-83.35
X80.7Y-84.75
X80.9Y-58.0
X80.9Y-118.4
X80.9Y-120.5
X80.9Y-123.7
X81.05Y-89.15
X81.1Y-110.2
X81.218Y-114.657
X81.3Y-27.0
X81.4Y-50.5
X81.4Y-141.1
X81.4Y-146.7
X81.4Y-149.8
X81.4Y-152.4
X81.4Y-155.4
X81.4Y-168.7
X81.4Y-171.3
X81.4Y-174.3
X81.5Y-132.1
X81.5Y-134.7
X81.5Y-137.7
X81.5Y-159.5
X81.5Y-162.1
X81.5Y-165.1
X81.5Y-177.0
X81.5Y-179.6
X81.5Y-182.6
X81.6Y-53.4
X81.7Y-37.4
X81.9Y-70.5
X81.95Y-87.4
X82.0Y-57.0
X82.55Y-78.3
X82.75Y-88.85
X82.8Y-84.9
X82.8Y-116.9
X82.8Y-119.6
X82.8Y-121.2
X82.8Y-122.9
X83.5Y-80.5
X84.2Y-41.5
X84.25Y-87.4
X84.3Y-73.35
X84.45Y-107.55
X84.5Y-52.7
X84.5Y-58.5
X84.6Y-152.6
X84.6Y-155.6
X84.7Y-134.8
X84.7Y-137.8
X84.7Y-143.7
X84.7Y-146.7
X84.7Y-149.9
X84.7Y-161.9
X84.7Y-164.9
X84.7Y-171.3
X84.7Y-174.3
X84.8Y-132.1
X84.8Y-159.2
X84.8Y-168.6
X84.8Y-179.5
X84.8Y-182.5
X84.9Y-88.8
X84.9Y-176.8
X85.0Y-64.0
X85.0Y-65.5
X85.0Y-67.0
X85.5Y-73.9
X85.55Y-78.3
X85.55Y-80.9
X85.55Y-83.35
X85.7Y-76.2
X85.9Y-39.9
X86.1Y-52.5
X86.1Y-55.2
X86.1Y-60.6
X86.2Y-21.95
X86.5Y-64.7
X86.5Y-66.2
X86.75Y-84.35
X86.9Y-72.35
X86.95Y-81.95
X87.1Y-67.985
X87.1Y-88.05
X87.2Y-107.45
X87.4Y-28.9
X87.4Y-41.6
X87.6Y-26.8
X87.7Y-155.7
X87.8Y-146.8
X87.8Y-150.0
X87.8Y-152.7
X87.8Y-165.0
X87.8Y-174.4
X87.9Y-132.2
X87.9Y-134.9
X87.9Y-141.1
X87.9Y-143.8
X87.9Y-159.3
X87.9Y-162.0
X87.9Y-168.7
X87.9Y-171.4
X87.9Y-182.6
X87.95Y-72.5
X88.0Y-25.7
X88.0Y-66.2
X88.0Y-176.9
X88.0Y-179.6
X88.1Y-36.0
X88.153Y-38.163
X88.257Y-82.757
X88.472Y-35.028
X88.7Y-76.1
X88.7Y-80.55
X88.8Y-68.05
X88.9Y-28.6
X89.0Y-85.5
X89.1Y-52.5
X89.1Y-55.1
X89.5Y-26.8
X89.9Y-25.7
X89.9Y-72.0
X90.05Y-68.0
X90.2Y-73.8
X90.2Y-84.3
X90.25Y-78.9
X90.4Y-77.5
X90.5Y-33.9
X90.625Y-80.388
X90.655Y-69.255
X90.8Y-150.0
X90.8Y-152.6
X90.8Y-155.6
X90.9Y-132.2
X90.9Y-137.8
X90.9Y-141.1
X90.9Y-143.7
X90.9Y-146.7
X90.9Y-159.3
X90.9Y-161.9
X90.9Y-164.9
X90.9Y-168.7
X90.9Y-171.3
X90.9Y-174.3
X91.0Y-176.9
X91.0Y-179.5
X91.0Y-182.5
X91.1Y-95.0
X91.1Y-97.7
X91.2Y-73.3
X91.2Y-77.9
X91.3Y-72.05
X91.4Y-30.4
X91.4Y-64.9
X91.6Y-85.3
X91.745Y-72.715
X91.8Y-75.65
X91.8Y-76.85
X91.8Y-82.8
X91.825Y-78.85
X92.2Y-93.0
X92.2Y-118.4
X92.2Y-126.4
X92.2Y-129.4
X92.3Y-123.7
X92.4Y-33.9
X92.4Y-73.85
X92.4Y-77.9
X92.5Y-68.5
X92.5Y-88.311
X92.6Y-113.9
X93.0Y-75.0
X93.0Y-76.95
X93.0Y-78.95
X93.0Y-81.6
X93.4Y-52.4
X93.4Y-55.1
X93.4Y-179.4
X93.4Y-182.4
X93.5Y-66.2
X93.5Y-176.7
X93.6Y-33.7
X93.6Y-73.65
X93.6Y-77.9
X93.7Y-34.7
X93.7Y-161.9
X93.7Y-164.9
X93.7Y-171.2
X93.7Y-174.2
X93.8Y-159.2
X93.8Y-168.5
X93.9Y-68.5
X93.9Y-153.0
X93.9Y-156.0
X94.0Y-150.3
X94.1Y-95.0
X94.1Y-97.6
X94.2Y-40.4
X94.2Y-143.7
X94.2Y-146.7
X94.3Y-80.95
X94.3Y-134.9
X94.3Y-137.9
X94.3Y-141.0
X94.35Y-72.0
X94.35Y-76.2
X94.4Y-25.6
X94.4Y-78.65
X94.4Y-91.3
X94.45Y-83.0
X94.55Y-74.25
X94.6Y-132.4
X94.95Y-88.4
X95.0Y-100.1
X95.0Y-102.8
X95.4Y-75.15
X95.4Y-123.8
X95.4Y-126.5
X95.55Y-73.05
X95.9Y-59.3
X95.9Y-62.0
X96.0Y-76.85
X96.0Y-84.45
X96.0Y-113.3
X96.191Y-22.009
X96.275Y-72.275
X96.4Y-24.35
X96.4Y-41.5
X96.4Y-52.4
X96.4Y-55.0
X96.5Y-66.2
X96.5Y-68.8
X96.5Y-182.5
X96.6Y-176.8
X96.6Y-179.5
X96.8Y-74.2
X96.8Y-75.6
X96.8Y-165.0
X96.8Y-174.3
X96.9Y-159.3
X96.9Y-162.0
X96.9Y-168.6
X96.9Y-171.3
X97.0Y-156.1
X97.05Y-85.428
X97.1Y-150.4
X97.1Y-153.1
X97.3Y-146.8
X97.4Y-138.0
X97.4Y-141.1
X97.4Y-143.8
X97.5Y-132.3
X97.5Y-135.0
X97.8Y-93.9
X98.0Y-100.1
X98.0Y-102.7
X98.4Y-123.8
X98.4Y-129.4
X98.5Y-97.0
X98.65Y-92.3
X98.9Y-59.3
X98.9Y-61.9
X98.95Y-72.3
X99.15Y-76.85
X99.2Y-55.4
X99.2Y-57.2
X99.2Y-81.65
X99.35Y-78.8
X99.5Y-52.7
X99.55Y-88.05
X99.6Y-83.75
X99.6Y-85.3
X99.6Y-176.8
X99.6Y-179.4
X99.6Y-182.4
X99.7Y-122.4
X99.8Y-36.0
X99.8Y-41.5
X99.9Y-38.5
X99.9Y-159.3
X99.9Y-161.9
X99.9Y-164.9
X99.9Y-168.6
X99.9Y-171.2
X99.9Y-174.2
X100.0Y-119.8
X100.0Y-127.5
X100.1Y-150.4
X100.1Y-153.0
X100.1Y-156.0
X100.15Y-113.4
X100.2Y-129.3
X100.4Y-141.1
X100.4Y-143.7
X100.4Y-146.7
X100.5Y-132.3
X100.5Y-134.9
X100.5Y-137.9
X100.9Y-94.45
X101.1Y-32.4
X101.1Y-35.4
X101.1Y-100.7
X101.2Y-22.1
X101.2Y-24.2
X101.2Y-27.2
X101.2Y-29.7
X101.7Y-171.2
X101.7Y-174.2
X101.7Y-179.3
X101.7Y-182.3
X101.8Y-161.8
X101.8Y-164.8
X101.8Y-168.5
X101.8Y-176.6
X101.9Y-152.9
X101.9Y-155.9
X101.9Y-159.1
X102.0Y-111.5
X102.0Y-143.8
X102.0Y-146.8
X102.0Y-150.2
X102.1Y-135.0
X102.1Y-138.0
X102.1Y-141.1
X102.2Y-132.3
X102.296Y-96.188
X102.375Y-64.175
X102.4Y-109.9
X102.5Y-54.0
X102.8Y-102.45
X102.8Y-112.1
X102.8Y-113.9
X102.8Y-114.9
X102.85Y-99.35
X102.9Y-60.8
X102.9Y-97.3
X103.4Y-123.7
X103.4Y-126.4
X103.5Y-96.1
X103.55Y-119.0
X103.65Y-92.15
X104.0Y-85.3
X104.1Y-57.4
X104.2Y-35.5
X104.2Y-38.5
X104.2Y-41.2
X104.3Y-27.3
X104.3Y-29.8
X104.3Y-32.5
X104.4Y-22.0
X104.4Y-24.3
X104.4Y-50.0
X104.4Y-53.0
X104.5Y-47.3
X104.6Y-61.1
X104.7Y-95.7
X104.8Y-174.3
X104.8Y-182.4
X104.9Y-164.9
X104.9Y-168.6
X104.9Y-171.3
X104.9Y-176.7
X104.9Y-179.4
X105.0Y-156.0
X105.0Y-159.2
X105.0Y-161.9
X105.1Y-89.2
X105.1Y-120.85
X105.1Y-146.9
X105.1Y-150.3
X105.1Y-153.0
X105.2Y-138.1
X105.2Y-141.2
X105.2Y-143.9
X105.3Y-70.8
X105.3Y-74.8
X105.3Y-77.5
X105.3Y-135.1
X105.4Y-72.2
X105.75Y-94.05
X105.9Y-95.3
X106.2Y-57.4
X106.2Y-89.8
X106.2Y-92.5
X106.4Y-123.7
X106.4Y-126.3
X106.4Y-129.3
X106.5Y-97.8
X106.5Y-101.45
X106.5Y-102.5
X106.5Y-111.0
X106.55Y-96.35
X106.6Y-109.4
X106.65Y-114.75
X106.7Y-112.1
X106.8Y-105.9
X107.0Y-120.3
X107.2Y-38.5
X107.2Y-41.4
X107.3Y-29.8
X107.3Y-32.4
X107.3Y-35.4
X107.4Y-24.2
X107.4Y-27.2
X107.5Y-53.1
X107.519Y-22.1
X107.6Y-47.4
X107.6Y-50.1
X107.9Y-168.6
X107.9Y-171.2
X107.9Y-174.2
X107.9Y-176.7
X107.9Y-179.3
X107.9Y-182.3
X108.0Y-57.3
X108.0Y-159.2
X108.0Y-161.8
X108.0Y-164.8
X108.1Y-89.1
X108.1Y-150.3
X108.1Y-152.9
X108.1Y-155.9
X108.2Y-141.2
X108.2Y-143.8
X108.2Y-146.8
X108.3Y-132.4
X108.3Y-138.0
X109.2Y-89.8
X109.2Y-92.4
X109.4Y-127.9
X109.6Y-57.2
X109.7Y-102.7
X109.75Y-109.4
X109.8Y-85.2
X110.0Y-106.0
X110.0Y-114.8
X110.25Y-107.8
X110.4Y-175.1
X110.4Y-177.8
X110.5Y-75.5
X110.5Y-89.1
X110.6Y-47.4
X110.6Y-50.0
X110.6Y-53.0
X110.6Y-180.5
X110.6Y-183.2
X110.65Y-116.15
X110.9Y-60.8
X111.32Y-106.843
X111.4Y-160.0
X111.4Y-162.7
X111.4Y-164.8
X111.4Y-167.5
X111.6Y-143.7
X111.6Y-146.4
X111.6Y-148.3
X111.6Y-151.0
X111.6Y-152.5
X111.6Y-155.2
X111.8Y-111.9
X112.2Y-108.05
X112.4Y-122.1
X112.4Y-124.8
X112.5Y-109.25
X112.5Y-127.8
X112.5Y-130.5
X112.5Y-132.8
X112.5Y-135.5
X112.6Y-103.1
X112.6Y-117.2
X112.6Y-119.9
X112.8Y-49.8
X112.8Y-52.8
X112.85Y-113.25
X112.9Y-47.1
X112.9Y-105.7
X113.4Y-80.7
X113.4Y-175.1
X113.4Y-177.7
X113.5Y-76.2
X113.5Y-83.0
X113.5Y-89.0
X113.6Y-180.5
X113.6Y-183.1
X113.9Y-67.8
X114.0Y-71.7
X114.0Y-114.1
X115.4Y-122.1
X115.4Y-124.7
X115.5Y-107.4
X115.5Y-127.8
X115.5Y-130.4
X115.5Y-132.8
X115.5Y-135.4
X115.6Y-93.7
X115.6Y-103.1
X115.6Y-105.7
X115.6Y-117.2
X115.6Y-119.8
X115.9Y-52.9
X116.0Y-47.2
X116.0Y-49.9
X116.55Y-113.2
X116.864Y-160.614
X116.9Y-159.0
X116.9Y-177.8
X116.9Y-180.5
X116.98Y-162.536
X117.0Y-92.2
X117.0Y-148.1
X117.0Y-150.1
X117.0Y-164.9
X117.1Y-146.3
X117.2Y-173.7
X117.3Y-77.7
X117.5Y-73.8
X117.5Y-107.5
X117.6Y-79.8
X117.65Y-113.45
X117.7Y-119.9
X117.7Y-122.6
X117.7Y-128.7
X117.7Y-131.8
X117.7Y-134.6
X117.8Y-117.8
X117.9Y-68.6
X117.9Y-93.4
X117.9Y-125.7
X118.2Y-103.1
X118.2Y-105.8
X118.5Y-133.4
X118.6Y-127.0
X118.7Y-108.6
X118.7Y-121.5
X118.7Y-124.3
X118.7Y-130.1
X118.7Y-136.3
X118.8Y-118.9
X118.9Y-81.8
X118.9Y-88.3
X119.0Y-47.2
X119.0Y-49.8
X119.0Y-52.8
X119.0Y-115.0
X119.0Y-116.0
X119.337Y-162.495
X119.4Y-144.4
X119.4Y-147.9
X119.4Y-165.0
X119.4Y-180.9
X119.448Y-160.388
X119.5Y-159.2
X119.5Y-175.9
X119.6Y-145.6
X119.6Y-150.0
X119.7Y-173.6
X119.8Y-71.7
X119.918Y-111.481
X120.0Y-67.1
X120.2Y-123.8
X120.2Y-126.6
X120.2Y-130.3
X120.2Y-135.8
X120.5Y-110.0
X120.5Y-120.0
X120.5Y-133.3
X120.7Y-25.4
X120.7Y-28.4
X120.7Y-33.9
X120.7Y-36.9
X120.8Y-22.7
X120.8Y-31.2
X121.0Y-63.85
X121.0Y-113.0
X121.0Y-117.5
X121.1Y-134.4
X121.2Y-78.5
X121.2Y-103.1
X121.2Y-105.7
X121.2Y-131.5
X121.3Y-128.6
X121.4Y-125.1
X121.522Y-110.978
X121.994Y-112.015
X122.0Y-162.6
X122.1Y-144.3
X122.1Y-145.9
X122.1Y-148.0
X122.1Y-165.1
X122.1Y-173.8
X122.1Y-176.1
X122.2Y-150.8
X122.2Y-160.9
X122.2Y-180.8
X122.3Y-159.3
X122.3Y-178.8
X122.5Y-108.5
X122.8Y-123.5
X122.8Y-125.7
X122.8Y-127.6
X122.8Y-131.6
X122.8Y-136.1
X122.9Y-129.7
X122.9Y-133.9
X123.0Y-63.9
X123.0Y-117.0
X123.2Y-80.3
X123.5Y-109.5
X123.7Y-43.0
X123.7Y-46.0
X123.8Y-28.5
X123.8Y-37.0
X123.8Y-40.3
X123.8Y-51.6
X123.8Y-54.6
X123.9Y-22.8
X123.9Y-25.5
X123.9Y-31.3
X123.9Y-34.0
X123.9Y-48.9
X123.9Y-148.2
X124.0Y-111.0
X124.0Y-144.3
X124.0Y-146.2
X124.0Y-178.9
X124.029Y-164.98
X124.1Y-106.6
X124.165Y-176.129
X124.3Y-102.7
X124.3Y-121.3
X124.3Y-159.3
X124.3Y-161.3
X124.3Y-163.0
X124.5Y-117.0
X124.5Y-118.5
X124.6Y-174.1
X125.1Y-150.2
X125.5Y-90.8
X125.6Y-180.6
X125.8Y-128.6
X125.8Y-131.0
X125.8Y-133.1
X125.8Y-135.6
X126.0Y-63.9
X126.0Y-164.9
X126.8Y-46.1
X126.8Y-97.958
X126.8Y-144.3
X126.8Y-148.1
X126.9Y-22.8
X126.9Y-25.4
X126.9Y-28.4
X126.9Y-31.3
X126.9Y-33.9
X126.9Y-36.9
X126.9Y-40.4
X126.9Y-43.1
X126.9Y-54.7
X126.9Y-100.2
X126.9Y-146.1
X126.9Y-163.0
X127.0Y-49.0
X127.0Y-51.7
X127.0Y-75.7
X127.0Y-174.0
X127.0Y-178.8
X127.1Y-159.3
X127.1Y-161.3
X127.1Y-176.3
X127.3Y-106.5
X127.5Y-107.9
X127.5Y-117.1
X127.8Y-110.1
X128.1Y-180.6
X128.5Y-95.305
X128.6Y-108.2
X128.9Y-109.1
X129.1Y-78.2
X129.4Y-85.5
X129.5Y-89.5
X129.5Y-121.5
X129.6Y-99.7
X129.6Y-103.3
X129.8Y-97.5
X129.9Y-40.4
X129.9Y-43.0
X129.9Y-46.0
X130.0Y-25.6
X130.0Y-28.6
X130.0Y-34.3
X130.0Y-37.3
X130.0Y-49.0
X130.0Y-51.6
X130.0Y-54.6
X130.1Y-22.9
X130.1Y-31.6
X130.2Y-84.0
X130.2Y-124.3
X130.2Y-126.5
X130.2Y-129.0
X130.2Y-186.8
X130.2Y-189.8
X130.3Y-88.0
X130.3Y-178.2
X130.3Y-181.2
X130.3Y-184.1
X130.4Y-175.5
X130.5Y-82.8
X130.5Y-120.1
X130.5Y-168.8
X130.5Y-171.8
X130.6Y-81.9
X130.6Y-109.5
X130.6Y-110.7
X130.6Y-160.1
X130.6Y-163.1
X130.6Y-166.1
X130.7Y-113.0
X130.7Y-157.4
X130.9Y-133.9
X130.9Y-136.9
X130.9Y-142.6
X130.9Y-145.6
X130.9Y-151.2
X130.9Y-154.2
X131.0Y-114.2
X131.0Y-131.2
X131.0Y-139.9
X131.0Y-148.5
X131.7Y-77.1
X132.0Y-72.8
X132.1Y-69.4
X132.4Y-121.6
X132.6Y-116.9
X133.0Y-51.6
X133.0Y-54.6
X133.0Y-59.3
X133.0Y-62.3
X133.1Y-28.7
X133.1Y-37.4
X133.1Y-43.3
X133.1Y-46.3
X133.1Y-48.9
X133.1Y-56.6
X133.2Y-23.0
X133.2Y-25.7
X133.2Y-31.7
X133.2Y-34.4
X133.2Y-40.6
X133.3Y-189.9
X133.4Y-181.3
X133.4Y-184.2
X133.4Y-186.9
X133.5Y-175.6
X133.5Y-178.3
X133.6Y-171.9
X133.7Y-163.2
X133.7Y-166.2
X133.7Y-168.9
X133.8Y-157.5
X133.8Y-160.2
X134.0Y-82.0
X134.0Y-137.0
X134.0Y-145.7
X134.0Y-154.3
X134.1Y-72.0
X134.1Y-131.3
X134.1Y-134.0
X134.1Y-140.0
X134.1Y-142.7
X134.1Y-148.6
X134.1Y-151.3
X134.8Y-69.2
X134.911Y-74.542
X136.1Y-54.7
X136.1Y-62.4
X136.2Y-23.0
X136.2Y-25.6
X136.2Y-28.6
X136.2Y-31.7
X136.2Y-34.3
X136.2Y-37.3
X136.2Y-46.4
X136.2Y-49.0
X136.2Y-51.7
X136.2Y-56.7
X136.2Y-59.4
X136.3Y-40.7
X136.3Y-43.4
X136.4Y-184.2
X136.4Y-186.8
X136.4Y-189.8
X136.5Y-175.6
X136.5Y-178.2
X136.5Y-181.2
X136.7Y-166.2
X136.7Y-168.8
X136.7Y-171.8
X136.8Y-157.5
X136.8Y-160.1
X136.8Y-163.1
X137.1Y-131.3
X137.1Y-133.9
X137.1Y-136.9
X137.1Y-140.0
X137.1Y-142.6
X137.1Y-145.6
X137.1Y-148.6
X137.1Y-151.2
X137.1Y-154.2
X139.2Y-34.3
X139.2Y-37.3
X139.2Y-49.0
X139.2Y-51.6
X139.2Y-54.6
X139.2Y-56.7
X139.2Y-59.3
X139.2Y-62.3
X139.2Y-169.0
X139.2Y-172.0
X139.3Y-31.6
X139.3Y-40.7
X139.3Y-43.3
X139.3Y-46.3
X139.3Y-160.1
X139.3Y-163.1
X139.3Y-166.3
X139.3Y-178.5
X139.3Y-181.5
X139.4Y-157.4
X139.4Y-175.8
X139.5Y-133.9
X139.5Y-136.9
X139.5Y-142.4
X139.5Y-145.4
X139.5Y-151.2
X139.5Y-154.2
X139.6Y-131.2
X139.6Y-139.7
X139.6Y-148.5
X141.2Y-111.0
X141.2Y-113.7
X141.3Y-117.1
X141.3Y-119.8
X141.3Y-122.7
X141.3Y-125.4
X141.3Y-127.6
X141.3Y-130.3
X142.0Y-80.7
X142.3Y-37.4
X142.3Y-172.1
X142.4Y-31.7
X142.4Y-34.4
X142.4Y-93.7
X142.4Y-96.4
X142.4Y-163.2
X142.4Y-166.4
X142.4Y-169.1
X142.4Y-181.6
X142.5Y-99.0
X142.5Y-101.7
X142.5Y-104.9
X142.5Y-107.6
X142.5Y-157.5
X142.5Y-160.2
X142.5Y-175.9
X142.5Y-178.6
X142.6Y-88.6
X142.6Y-91.3
X142.6Y-137.0
X142.6Y-145.5
X142.6Y-154.3
X142.7Y-131.3
X142.7Y-134.0
X142.7Y-139.8
X142.7Y-142.5
X142.7Y-148.6
X142.7Y-151.3
X143.6Y-72.2
X143.635Y-62.206
X143.7Y-59.3
X143.7Y-65.8
X143.7Y-68.7
X143.7Y-75.2
X144.2Y-111.0
X144.2Y-113.6
X144.3Y-117.1
X144.3Y-119.7
X144.3Y-122.7
X144.3Y-125.3
X144.3Y-127.6
X144.3Y-130.2
X145.4Y-31.7
X145.4Y-34.3
X145.4Y-37.3
X145.4Y-93.7
X145.4Y-96.3
X145.4Y-166.4
X145.4Y-169.0
X145.4Y-172.0
X145.5Y-99.0
X145.5Y-101.6
X145.5Y-104.9
X145.5Y-107.5
X145.5Y-157.5
X145.5Y-160.1
X145.5Y-163.1
X145.5Y-175.9
X145.5Y-178.5
X145.5Y-181.5
X145.6Y-88.6
X145.6Y-91.2
X145.7Y-131.3
X145.7Y-133.9
X145.7Y-136.9
X145.7Y-139.8
X145.7Y-142.4
X145.7Y-145.4
X145.7Y-148.6
X145.7Y-151.2
X145.7Y-154.2
T3
X43.4Y-113.0
X45.94Y-113.0
X49.9Y-45.5
X52.44Y-45.5
X66.86Y-62.4
X69.4Y-62.4
X95.23Y-117.5
X97.77Y-117.5
T4
X57.0Y-138.46
X57.0Y-141.0
X57.0Y-153.46
X57.0Y-156.0
X57.0Y-168.46
X57.0Y-171.0
X57.0Y-183.46
X57.0Y-186.0
X59.54Y-138.46
X59.54Y-141.0
X59.54Y-153.46
X59.54Y-156.0
X59.54Y-168.46
X59.54Y-171.0
X59.54Y-183.46
X59.54Y-186.0
X62.08Y-138.46
X62.08Y-141.0
X62.08Y-153.46
X62.08Y-156.0
X62.08Y-168.46
X62.08Y-171.0
X62.08Y-183.46
X62.08Y-186.0
X64.62Y-138.46
X64.62Y-141.0
X64.62Y-153.46
X64.62Y-156.0
X64.62Y-168.46
X64.62Y-171.0
X64.62Y-183.46
X64.62Y-186.0
X67.16Y-138.46
X67.16Y-141.0
X67.16Y-153.46
X67.16Y-156.0
X67.16Y-168.46
X67.16Y-171.0
X67.16Y-183.46
X67.16Y-186.0
X113.3Y-59.0
X113.3Y-61.54
X115.84Y-59.0
X115.84Y-61.54
X116.9Y-138.46
X116.9Y-141.0
X116.9Y-153.46
X116.9Y-156.0
X116.9Y-168.46
X116.9Y-171.0
X116.9Y-183.46
X116.9Y-186.0
X118.38Y-59.0
X118.38Y-61.54
X119.44Y-138.46
X119.44Y-141.0
X119.44Y-153.46
X119.44Y-156.0
X119.44Y-168.46
X119.44Y-171.0
X119.44Y-183.46
X119.44Y-186.0
X120.92Y-59.0
X120.92Y-61.54
X121.98Y-138.46
X121.98Y-141.0
X121.98Y-153.46
X121.98Y-156.0
X121.98Y-168.46
X121.98Y-171.0
X121.98Y-183.46
X121.98Y-186.0
X123.46Y-59.0
X123.46Y-61.54
X124.52Y-138.46
X124.52Y-141.0
X124.52Y-153.46
X124.52Y-156.0
X124.52Y-168.46
X124.52Y-171.0
X124.52Y-183.46
X124.52Y-186.0
X126.0Y-59.0
X126.0Y-61.54
X127.06Y-138.46
X127.06Y-141.0
X127.06Y-153.46
X127.06Y-156.0
X127.06Y-168.46
X127.06Y-171.0
X127.06Y-183.46
X127.06Y-186.0
X128.54Y-59.0
X128.54Y-61.54
T5
X40.44Y-103.0
X40.44Y-107.5
X41.4Y-74.5
X44.1Y-25.0
X44.1Y-35.16
X46.94Y-103.0
X46.94Y-107.5
X51.56Y-74.5
X64.95Y-52.4
X64.95Y-56.9
X69.74Y-24.0
X71.45Y-52.4
X71.45Y-56.9
X79.9Y-24.0
X81.94Y-100.5
X81.94Y-105.0
X82.0Y-91.75
X82.0Y-96.25
X88.44Y-100.5
X88.44Y-105.0
X88.5Y-91.75
X88.5Y-96.25
X93.0Y-106.0
X93.0Y-110.5
X99.5Y-106.0
X99.5Y-110.5
X110.5Y-29.5
X110.5Y-34.0
X110.5Y-38.5
X110.5Y-43.0
X117.0Y-29.5
X117.0Y-34.0
X117.0Y-38.5
X117.0Y-43.0
X132.44Y-93.0
X132.44Y-97.5
X132.44Y-101.0
X132.44Y-105.5
X138.5Y-64.84
X138.5Y-75.0
X138.94Y-93.0
X138.94Y-97.5
X138.94Y-101.0
X138.94Y-105.5
T6
X53.5Y-32.0
T7
X49.0Y-33.0
X58.0Y-33.0
T8
X53.5Y-26.0
T2
X37.65Y-78.7G85X38.35Y-78.7
G05
X37.65Y-85.3G85X38.35Y-85.3
G05
X87.9Y-21.65G85X87.9Y-22.35
G05
X94.5Y-21.65G85X94.5Y-22.35
G05
X146.35Y-78.7G85X145.65Y-78.7
G05
X146.35Y-85.3G85X145.65Y-85.3
G05
M30
