%TF.GenerationSoftware,KiCad,Pcbnew,9.0.0*%
%TF.CreationDate,2025-04-09T12:56:57-04:00*%
%TF.ProjectId,Network_and_Switch,4e657477-6f72-46b5-9f61-6e645f537769,rev?*%
%TF.SameCoordinates,Original*%
%TF.FileFunction,Paste,Bot*%
%TF.FilePolarity,Positive*%
%FSLAX46Y46*%
G04 Gerber Fmt 4.6, Leading zero omitted, Abs format (unit mm)*
G04 Created by KiCad (PCBNEW 9.0.0) date 2025-04-09 12:56:57*
%MOMM*%
%LPD*%
G01*
G04 APERTURE LIST*
G04 Aperture macros list*
%AMRoundRect*
0 Rectangle with rounded corners*
0 $1 Rounding radius*
0 $2 $3 $4 $5 $6 $7 $8 $9 X,Y pos of 4 corners*
0 Add a 4 corners polygon primitive as box body*
4,1,4,$2,$3,$4,$5,$6,$7,$8,$9,$2,$3,0*
0 Add four circle primitives for the rounded corners*
1,1,$1+$1,$2,$3*
1,1,$1+$1,$4,$5*
1,1,$1+$1,$6,$7*
1,1,$1+$1,$8,$9*
0 Add four rect primitives between the rounded corners*
20,1,$1+$1,$2,$3,$4,$5,0*
20,1,$1+$1,$4,$5,$6,$7,0*
20,1,$1+$1,$6,$7,$8,$9,0*
20,1,$1+$1,$8,$9,$2,$3,0*%
G04 Aperture macros list end*
%ADD10RoundRect,0.250000X-0.650000X0.412500X-0.650000X-0.412500X0.650000X-0.412500X0.650000X0.412500X0*%
%ADD11RoundRect,0.250000X-0.400000X-0.625000X0.400000X-0.625000X0.400000X0.625000X-0.400000X0.625000X0*%
%ADD12RoundRect,0.225000X0.225000X0.225000X-0.225000X0.225000X-0.225000X-0.225000X0.225000X-0.225000X0*%
%ADD13RoundRect,0.062500X0.337500X0.062500X-0.337500X0.062500X-0.337500X-0.062500X0.337500X-0.062500X0*%
%ADD14RoundRect,0.062500X0.062500X0.337500X-0.062500X0.337500X-0.062500X-0.337500X0.062500X-0.337500X0*%
%ADD15RoundRect,0.250000X0.400000X0.625000X-0.400000X0.625000X-0.400000X-0.625000X0.400000X-0.625000X0*%
%ADD16RoundRect,0.250000X0.650000X-0.412500X0.650000X0.412500X-0.650000X0.412500X-0.650000X-0.412500X0*%
%ADD17RoundRect,0.250000X-0.412500X-0.650000X0.412500X-0.650000X0.412500X0.650000X-0.412500X0.650000X0*%
%ADD18RoundRect,0.225000X-0.225000X-0.225000X0.225000X-0.225000X0.225000X0.225000X-0.225000X0.225000X0*%
%ADD19RoundRect,0.062500X-0.337500X-0.062500X0.337500X-0.062500X0.337500X0.062500X-0.337500X0.062500X0*%
%ADD20RoundRect,0.062500X-0.062500X-0.337500X0.062500X-0.337500X0.062500X0.337500X-0.062500X0.337500X0*%
%ADD21RoundRect,0.250000X-0.625000X0.400000X-0.625000X-0.400000X0.625000X-0.400000X0.625000X0.400000X0*%
%ADD22RoundRect,0.250000X0.625000X-0.400000X0.625000X0.400000X-0.625000X0.400000X-0.625000X-0.400000X0*%
%ADD23RoundRect,0.225000X-0.225000X0.225000X-0.225000X-0.225000X0.225000X-0.225000X0.225000X0.225000X0*%
%ADD24RoundRect,0.062500X-0.062500X0.337500X-0.062500X-0.337500X0.062500X-0.337500X0.062500X0.337500X0*%
%ADD25RoundRect,0.062500X-0.337500X0.062500X-0.337500X-0.062500X0.337500X-0.062500X0.337500X0.062500X0*%
%ADD26RoundRect,0.250000X0.412500X0.650000X-0.412500X0.650000X-0.412500X-0.650000X0.412500X-0.650000X0*%
G04 APERTURE END LIST*
D10*
%TO.C,C19*%
X135400000Y-93500000D03*
X135400000Y-96625000D03*
%TD*%
D11*
%TO.C,R9*%
X52200000Y-106175000D03*
X55300000Y-106175000D03*
%TD*%
D12*
%TO.C,U15*%
X128004050Y-83120000D03*
X128004050Y-82000000D03*
X128004050Y-80880000D03*
X126884050Y-83120000D03*
X126884050Y-82000000D03*
X126884050Y-80880000D03*
X125764050Y-83120000D03*
X125764050Y-82000000D03*
X125764050Y-80880000D03*
D13*
X129334050Y-80500000D03*
X129334050Y-81000000D03*
X129334050Y-81500000D03*
X129334050Y-82000000D03*
X129334050Y-82500000D03*
X129334050Y-83000000D03*
X129334050Y-83500000D03*
D14*
X128384050Y-84450000D03*
X127884050Y-84450000D03*
X127384050Y-84450000D03*
X126884050Y-84450000D03*
X126384050Y-84450000D03*
X125884050Y-84450000D03*
X125384050Y-84450000D03*
D13*
X124434050Y-83500000D03*
X124434050Y-83000000D03*
X124434050Y-82500000D03*
X124434050Y-82000000D03*
X124434050Y-81500000D03*
X124434050Y-81000000D03*
X124434050Y-80500000D03*
D14*
X125384050Y-79550000D03*
X125884050Y-79550000D03*
X126384050Y-79550000D03*
X126884050Y-79550000D03*
X127384050Y-79550000D03*
X127884050Y-79550000D03*
X128384050Y-79550000D03*
%TD*%
D15*
%TO.C,R7*%
X98500000Y-36000000D03*
X95400000Y-36000000D03*
%TD*%
D16*
%TO.C,C13*%
X55000000Y-104000000D03*
X55000000Y-100875000D03*
%TD*%
D17*
%TO.C,C12*%
X52200000Y-108675000D03*
X55325000Y-108675000D03*
%TD*%
D10*
%TO.C,C10*%
X84900000Y-92500000D03*
X84900000Y-95625000D03*
%TD*%
D18*
%TO.C,U10*%
X56830000Y-80830000D03*
X56830000Y-81950000D03*
X56830000Y-83070000D03*
X57950000Y-80830000D03*
X57950000Y-81950000D03*
X57950000Y-83070000D03*
X59070000Y-80830000D03*
X59070000Y-81950000D03*
X59070000Y-83070000D03*
D19*
X55500000Y-83450000D03*
X55500000Y-82950000D03*
X55500000Y-82450000D03*
X55500000Y-81950000D03*
X55500000Y-81450000D03*
X55500000Y-80950000D03*
X55500000Y-80450000D03*
D20*
X56450000Y-79500000D03*
X56950000Y-79500000D03*
X57450000Y-79500000D03*
X57950000Y-79500000D03*
X58450000Y-79500000D03*
X58950000Y-79500000D03*
X59450000Y-79500000D03*
D19*
X60400000Y-80450000D03*
X60400000Y-80950000D03*
X60400000Y-81450000D03*
X60400000Y-81950000D03*
X60400000Y-82450000D03*
X60400000Y-82950000D03*
X60400000Y-83450000D03*
D20*
X59450000Y-84400000D03*
X58950000Y-84400000D03*
X58450000Y-84400000D03*
X57950000Y-84400000D03*
X57450000Y-84400000D03*
X56950000Y-84400000D03*
X56450000Y-84400000D03*
%TD*%
D10*
%TO.C,C7*%
X67000000Y-32562500D03*
X67000000Y-35687500D03*
%TD*%
D21*
%TO.C,R24*%
X125394050Y-86400000D03*
X125394050Y-89500000D03*
%TD*%
D22*
%TO.C,R16*%
X59450000Y-77500000D03*
X59450000Y-74400000D03*
%TD*%
D16*
%TO.C,C15*%
X52500000Y-104000000D03*
X52500000Y-100875000D03*
%TD*%
%TO.C,C24*%
X105100000Y-103825000D03*
X105100000Y-100700000D03*
%TD*%
D17*
%TO.C,C21*%
X102300000Y-108500000D03*
X105425000Y-108500000D03*
%TD*%
D11*
%TO.C,R28*%
X95450000Y-119800000D03*
X98550000Y-119800000D03*
%TD*%
D23*
%TO.C,U5*%
X92520000Y-36430000D03*
X91400000Y-36430000D03*
X90280000Y-36430000D03*
X92520000Y-37550000D03*
X91400000Y-37550000D03*
X90280000Y-37550000D03*
X92520000Y-38670000D03*
X91400000Y-38670000D03*
X90280000Y-38670000D03*
D24*
X89900000Y-35100000D03*
X90400000Y-35100000D03*
X90900000Y-35100000D03*
X91400000Y-35100000D03*
X91900000Y-35100000D03*
X92400000Y-35100000D03*
X92900000Y-35100000D03*
D25*
X93850000Y-36050000D03*
X93850000Y-36550000D03*
X93850000Y-37050000D03*
X93850000Y-37550000D03*
X93850000Y-38050000D03*
X93850000Y-38550000D03*
X93850000Y-39050000D03*
D24*
X92900000Y-40000000D03*
X92400000Y-40000000D03*
X91900000Y-40000000D03*
X91400000Y-40000000D03*
X90900000Y-40000000D03*
X90400000Y-40000000D03*
X89900000Y-40000000D03*
D25*
X88950000Y-39050000D03*
X88950000Y-38550000D03*
X88950000Y-38050000D03*
X88950000Y-37550000D03*
X88950000Y-37050000D03*
X88950000Y-36550000D03*
X88950000Y-36050000D03*
%TD*%
D11*
%TO.C,R17*%
X102300000Y-106000000D03*
X105400000Y-106000000D03*
%TD*%
D17*
%TO.C,C31*%
X123500000Y-73500000D03*
X126625000Y-73500000D03*
%TD*%
D10*
%TO.C,C32*%
X68400000Y-52950000D03*
X68400000Y-56075000D03*
%TD*%
%TO.C,C1*%
X114060000Y-30375000D03*
X114060000Y-33500000D03*
%TD*%
D26*
%TO.C,C16*%
X46000000Y-67000000D03*
X42875000Y-67000000D03*
%TD*%
D10*
%TO.C,C30*%
X43900000Y-103437500D03*
X43900000Y-106562500D03*
%TD*%
D21*
%TO.C,R2*%
X47500000Y-42500000D03*
X47500000Y-45600000D03*
%TD*%
D10*
%TO.C,C14*%
X84900000Y-101000000D03*
X84900000Y-104125000D03*
%TD*%
D15*
%TO.C,R25*%
X109000000Y-62000000D03*
X105900000Y-62000000D03*
%TD*%
D11*
%TO.C,R8*%
X95400000Y-38500000D03*
X98500000Y-38500000D03*
%TD*%
%TO.C,R18*%
X43400000Y-115500000D03*
X46500000Y-115500000D03*
%TD*%
D10*
%TO.C,C23*%
X135400000Y-101500000D03*
X135400000Y-104625000D03*
%TD*%
D16*
%TO.C,C35*%
X79500000Y-53575000D03*
X79500000Y-50450000D03*
%TD*%
D10*
%TO.C,C5*%
X114060000Y-39500000D03*
X114060000Y-42625000D03*
%TD*%
D26*
%TO.C,C33*%
X79362500Y-55950000D03*
X76237500Y-55950000D03*
%TD*%
%TO.C,C25*%
X126625000Y-69500000D03*
X123500000Y-69500000D03*
%TD*%
D16*
%TO.C,C11*%
X71000000Y-35562500D03*
X71000000Y-32437500D03*
%TD*%
D11*
%TO.C,R26*%
X66900000Y-64850000D03*
X70000000Y-64850000D03*
%TD*%
D17*
%TO.C,C20*%
X43000000Y-71000000D03*
X46125000Y-71000000D03*
%TD*%
D10*
%TO.C,C28*%
X96460000Y-106500000D03*
X96460000Y-109625000D03*
%TD*%
D22*
%TO.C,R23*%
X127894050Y-89500000D03*
X127894050Y-86400000D03*
%TD*%
D16*
%TO.C,C34*%
X76950000Y-53625000D03*
X76950000Y-50500000D03*
%TD*%
D17*
%TO.C,C2*%
X44475000Y-38000000D03*
X47600000Y-38000000D03*
%TD*%
D15*
%TO.C,R27*%
X79400000Y-58450000D03*
X76300000Y-58450000D03*
%TD*%
D21*
%TO.C,R15*%
X57000000Y-74350000D03*
X57000000Y-77450000D03*
%TD*%
D16*
%TO.C,C22*%
X102600000Y-103825000D03*
X102600000Y-100700000D03*
%TD*%
M02*
