%TF.GenerationSoftware,KiCad,Pcbnew,9.0.0*%
%TF.CreationDate,2025-04-09T12:56:57-04:00*%
%TF.ProjectId,Network_and_Switch,4e657477-6f72-46b5-9f61-6e645f537769,rev?*%
%TF.SameCoordinates,Original*%
%TF.FileFunction,Legend,Top*%
%TF.FilePolarity,Positive*%
%FSLAX46Y46*%
G04 Gerber Fmt 4.6, Leading zero omitted, Abs format (unit mm)*
G04 Created by KiCad (PCBNEW 9.0.0) date 2025-04-09 12:56:57*
%MOMM*%
%LPD*%
G01*
G04 APERTURE LIST*
G04 Aperture macros list*
%AMRoundRect*
0 Rectangle with rounded corners*
0 $1 Rounding radius*
0 $2 $3 $4 $5 $6 $7 $8 $9 X,Y pos of 4 corners*
0 Add a 4 corners polygon primitive as box body*
4,1,4,$2,$3,$4,$5,$6,$7,$8,$9,$2,$3,0*
0 Add four circle primitives for the rounded corners*
1,1,$1+$1,$2,$3*
1,1,$1+$1,$4,$5*
1,1,$1+$1,$6,$7*
1,1,$1+$1,$8,$9*
0 Add four rect primitives between the rounded corners*
20,1,$1+$1,$2,$3,$4,$5,0*
20,1,$1+$1,$4,$5,$6,$7,0*
20,1,$1+$1,$6,$7,$8,$9,0*
20,1,$1+$1,$8,$9,$2,$3,0*%
G04 Aperture macros list end*
%ADD10C,0.150000*%
%ADD11C,0.120000*%
%ADD12C,0.152400*%
%ADD13RoundRect,0.375000X-0.375000X0.625000X-0.375000X-0.625000X0.375000X-0.625000X0.375000X0.625000X0*%
%ADD14RoundRect,0.500000X-1.400000X0.500000X-1.400000X-0.500000X1.400000X-0.500000X1.400000X0.500000X0*%
%ADD15C,2.000000*%
%ADD16RoundRect,0.250000X-0.625000X0.400000X-0.625000X-0.400000X0.625000X-0.400000X0.625000X0.400000X0*%
%ADD17R,2.200000X2.200000*%
%ADD18O,2.200000X2.200000*%
%ADD19R,1.800000X1.800000*%
%ADD20C,1.800000*%
%ADD21RoundRect,0.250000X0.400000X0.625000X-0.400000X0.625000X-0.400000X-0.625000X0.400000X-0.625000X0*%
%ADD22R,1.625600X0.609600*%
%ADD23RoundRect,0.150000X0.150000X-0.587500X0.150000X0.587500X-0.150000X0.587500X-0.150000X-0.587500X0*%
%ADD24RoundRect,0.250000X0.412500X0.650000X-0.412500X0.650000X-0.412500X-0.650000X0.412500X-0.650000X0*%
%ADD25R,1.700000X1.700000*%
%ADD26O,1.700000X1.700000*%
%ADD27RoundRect,0.250000X-0.400000X-0.625000X0.400000X-0.625000X0.400000X0.625000X-0.400000X0.625000X0*%
%ADD28RoundRect,0.325000X1.425000X-0.325000X1.425000X0.325000X-1.425000X0.325000X-1.425000X-0.325000X0*%
%ADD29RoundRect,0.100000X-0.575000X0.100000X-0.575000X-0.100000X0.575000X-0.100000X0.575000X0.100000X0*%
%ADD30O,1.600000X0.900000*%
%ADD31RoundRect,0.250000X-0.450000X0.550000X-0.450000X-0.550000X0.450000X-0.550000X0.450000X0.550000X0*%
%ADD32RoundRect,0.250000X-0.700000X0.700000X-0.700000X-0.700000X0.700000X-0.700000X0.700000X0.700000X0*%
%ADD33R,1.500000X0.900000*%
%ADD34R,0.900000X0.900000*%
%ADD35RoundRect,0.250000X0.650000X-0.412500X0.650000X0.412500X-0.650000X0.412500X-0.650000X-0.412500X0*%
%ADD36RoundRect,0.150000X-0.150000X0.587500X-0.150000X-0.587500X0.150000X-0.587500X0.150000X0.587500X0*%
%ADD37RoundRect,0.250000X-0.650000X0.412500X-0.650000X-0.412500X0.650000X-0.412500X0.650000X0.412500X0*%
%ADD38RoundRect,0.375000X0.625000X0.375000X-0.625000X0.375000X-0.625000X-0.375000X0.625000X-0.375000X0*%
%ADD39RoundRect,0.500000X0.500000X1.400000X-0.500000X1.400000X-0.500000X-1.400000X0.500000X-1.400000X0*%
%ADD40RoundRect,0.150000X-0.587500X-0.150000X0.587500X-0.150000X0.587500X0.150000X-0.587500X0.150000X0*%
%ADD41RoundRect,0.250000X0.625000X-0.400000X0.625000X0.400000X-0.625000X0.400000X-0.625000X-0.400000X0*%
%ADD42RoundRect,0.325000X-1.425000X0.325000X-1.425000X-0.325000X1.425000X-0.325000X1.425000X0.325000X0*%
%ADD43RoundRect,0.150000X0.587500X0.150000X-0.587500X0.150000X-0.587500X-0.150000X0.587500X-0.150000X0*%
%ADD44RoundRect,0.100000X0.575000X-0.100000X0.575000X0.100000X-0.575000X0.100000X-0.575000X-0.100000X0*%
%ADD45RoundRect,0.250000X0.450000X-0.550000X0.450000X0.550000X-0.450000X0.550000X-0.450000X-0.550000X0*%
%ADD46RoundRect,0.250000X0.700000X-0.700000X0.700000X0.700000X-0.700000X0.700000X-0.700000X-0.700000X0*%
%ADD47C,1.600000*%
%ADD48R,4.000000X4.000000*%
%ADD49C,3.300000*%
%ADD50C,3.500000*%
%ADD51R,0.900000X1.500000*%
%ADD52R,0.609600X1.625600*%
%ADD53RoundRect,0.100000X0.100000X0.575000X-0.100000X0.575000X-0.100000X-0.575000X0.100000X-0.575000X0*%
%ADD54O,0.900000X1.600000*%
%ADD55RoundRect,0.250000X0.550000X0.450000X-0.550000X0.450000X-0.550000X-0.450000X0.550000X-0.450000X0*%
%ADD56RoundRect,0.250000X0.700000X0.700000X-0.700000X0.700000X-0.700000X-0.700000X0.700000X-0.700000X0*%
%ADD57C,0.600000*%
G04 APERTURE END LIST*
D10*
X73054819Y-35624404D02*
X73864342Y-35624404D01*
X73864342Y-35624404D02*
X73959580Y-35576785D01*
X73959580Y-35576785D02*
X74007200Y-35529166D01*
X74007200Y-35529166D02*
X74054819Y-35433928D01*
X74054819Y-35433928D02*
X74054819Y-35243452D01*
X74054819Y-35243452D02*
X74007200Y-35148214D01*
X74007200Y-35148214D02*
X73959580Y-35100595D01*
X73959580Y-35100595D02*
X73864342Y-35052976D01*
X73864342Y-35052976D02*
X73054819Y-35052976D01*
X74054819Y-34052976D02*
X74054819Y-34624404D01*
X74054819Y-34338690D02*
X73054819Y-34338690D01*
X73054819Y-34338690D02*
X73197676Y-34433928D01*
X73197676Y-34433928D02*
X73292914Y-34529166D01*
X73292914Y-34529166D02*
X73340533Y-34624404D01*
X112416667Y-36907200D02*
X112559524Y-36954819D01*
X112559524Y-36954819D02*
X112797619Y-36954819D01*
X112797619Y-36954819D02*
X112892857Y-36907200D01*
X112892857Y-36907200D02*
X112940476Y-36859580D01*
X112940476Y-36859580D02*
X112988095Y-36764342D01*
X112988095Y-36764342D02*
X112988095Y-36669104D01*
X112988095Y-36669104D02*
X112940476Y-36573866D01*
X112940476Y-36573866D02*
X112892857Y-36526247D01*
X112892857Y-36526247D02*
X112797619Y-36478628D01*
X112797619Y-36478628D02*
X112607143Y-36431009D01*
X112607143Y-36431009D02*
X112511905Y-36383390D01*
X112511905Y-36383390D02*
X112464286Y-36335771D01*
X112464286Y-36335771D02*
X112416667Y-36240533D01*
X112416667Y-36240533D02*
X112416667Y-36145295D01*
X112416667Y-36145295D02*
X112464286Y-36050057D01*
X112464286Y-36050057D02*
X112511905Y-36002438D01*
X112511905Y-36002438D02*
X112607143Y-35954819D01*
X112607143Y-35954819D02*
X112845238Y-35954819D01*
X112845238Y-35954819D02*
X112988095Y-36002438D01*
X113321429Y-35954819D02*
X113559524Y-36954819D01*
X113559524Y-36954819D02*
X113750000Y-36240533D01*
X113750000Y-36240533D02*
X113940476Y-36954819D01*
X113940476Y-36954819D02*
X114178572Y-35954819D01*
X114511905Y-36050057D02*
X114559524Y-36002438D01*
X114559524Y-36002438D02*
X114654762Y-35954819D01*
X114654762Y-35954819D02*
X114892857Y-35954819D01*
X114892857Y-35954819D02*
X114988095Y-36002438D01*
X114988095Y-36002438D02*
X115035714Y-36050057D01*
X115035714Y-36050057D02*
X115083333Y-36145295D01*
X115083333Y-36145295D02*
X115083333Y-36240533D01*
X115083333Y-36240533D02*
X115035714Y-36383390D01*
X115035714Y-36383390D02*
X114464286Y-36954819D01*
X114464286Y-36954819D02*
X115083333Y-36954819D01*
X63704819Y-86842857D02*
X63228628Y-87176190D01*
X63704819Y-87414285D02*
X62704819Y-87414285D01*
X62704819Y-87414285D02*
X62704819Y-87033333D01*
X62704819Y-87033333D02*
X62752438Y-86938095D01*
X62752438Y-86938095D02*
X62800057Y-86890476D01*
X62800057Y-86890476D02*
X62895295Y-86842857D01*
X62895295Y-86842857D02*
X63038152Y-86842857D01*
X63038152Y-86842857D02*
X63133390Y-86890476D01*
X63133390Y-86890476D02*
X63181009Y-86938095D01*
X63181009Y-86938095D02*
X63228628Y-87033333D01*
X63228628Y-87033333D02*
X63228628Y-87414285D01*
X63704819Y-85890476D02*
X63704819Y-86461904D01*
X63704819Y-86176190D02*
X62704819Y-86176190D01*
X62704819Y-86176190D02*
X62847676Y-86271428D01*
X62847676Y-86271428D02*
X62942914Y-86366666D01*
X62942914Y-86366666D02*
X62990533Y-86461904D01*
X63704819Y-84938095D02*
X63704819Y-85509523D01*
X63704819Y-85223809D02*
X62704819Y-85223809D01*
X62704819Y-85223809D02*
X62847676Y-85319047D01*
X62847676Y-85319047D02*
X62942914Y-85414285D01*
X62942914Y-85414285D02*
X62990533Y-85509523D01*
X122838869Y-83317857D02*
X122362678Y-83651190D01*
X122838869Y-83889285D02*
X121838869Y-83889285D01*
X121838869Y-83889285D02*
X121838869Y-83508333D01*
X121838869Y-83508333D02*
X121886488Y-83413095D01*
X121886488Y-83413095D02*
X121934107Y-83365476D01*
X121934107Y-83365476D02*
X122029345Y-83317857D01*
X122029345Y-83317857D02*
X122172202Y-83317857D01*
X122172202Y-83317857D02*
X122267440Y-83365476D01*
X122267440Y-83365476D02*
X122315059Y-83413095D01*
X122315059Y-83413095D02*
X122362678Y-83508333D01*
X122362678Y-83508333D02*
X122362678Y-83889285D01*
X121934107Y-82936904D02*
X121886488Y-82889285D01*
X121886488Y-82889285D02*
X121838869Y-82794047D01*
X121838869Y-82794047D02*
X121838869Y-82555952D01*
X121838869Y-82555952D02*
X121886488Y-82460714D01*
X121886488Y-82460714D02*
X121934107Y-82413095D01*
X121934107Y-82413095D02*
X122029345Y-82365476D01*
X122029345Y-82365476D02*
X122124583Y-82365476D01*
X122124583Y-82365476D02*
X122267440Y-82413095D01*
X122267440Y-82413095D02*
X122838869Y-82984523D01*
X122838869Y-82984523D02*
X122838869Y-82365476D01*
X121838869Y-81746428D02*
X121838869Y-81651190D01*
X121838869Y-81651190D02*
X121886488Y-81555952D01*
X121886488Y-81555952D02*
X121934107Y-81508333D01*
X121934107Y-81508333D02*
X122029345Y-81460714D01*
X122029345Y-81460714D02*
X122219821Y-81413095D01*
X122219821Y-81413095D02*
X122457916Y-81413095D01*
X122457916Y-81413095D02*
X122648392Y-81460714D01*
X122648392Y-81460714D02*
X122743630Y-81508333D01*
X122743630Y-81508333D02*
X122791250Y-81555952D01*
X122791250Y-81555952D02*
X122838869Y-81651190D01*
X122838869Y-81651190D02*
X122838869Y-81746428D01*
X122838869Y-81746428D02*
X122791250Y-81841666D01*
X122791250Y-81841666D02*
X122743630Y-81889285D01*
X122743630Y-81889285D02*
X122648392Y-81936904D01*
X122648392Y-81936904D02*
X122457916Y-81984523D01*
X122457916Y-81984523D02*
X122219821Y-81984523D01*
X122219821Y-81984523D02*
X122029345Y-81936904D01*
X122029345Y-81936904D02*
X121934107Y-81889285D01*
X121934107Y-81889285D02*
X121886488Y-81841666D01*
X121886488Y-81841666D02*
X121838869Y-81746428D01*
X141424819Y-70658094D02*
X140424819Y-70658094D01*
X140424819Y-70658094D02*
X140424819Y-70419999D01*
X140424819Y-70419999D02*
X140472438Y-70277142D01*
X140472438Y-70277142D02*
X140567676Y-70181904D01*
X140567676Y-70181904D02*
X140662914Y-70134285D01*
X140662914Y-70134285D02*
X140853390Y-70086666D01*
X140853390Y-70086666D02*
X140996247Y-70086666D01*
X140996247Y-70086666D02*
X141186723Y-70134285D01*
X141186723Y-70134285D02*
X141281961Y-70181904D01*
X141281961Y-70181904D02*
X141377200Y-70277142D01*
X141377200Y-70277142D02*
X141424819Y-70419999D01*
X141424819Y-70419999D02*
X141424819Y-70658094D01*
X140424819Y-69229523D02*
X140424819Y-69419999D01*
X140424819Y-69419999D02*
X140472438Y-69515237D01*
X140472438Y-69515237D02*
X140520057Y-69562856D01*
X140520057Y-69562856D02*
X140662914Y-69658094D01*
X140662914Y-69658094D02*
X140853390Y-69705713D01*
X140853390Y-69705713D02*
X141234342Y-69705713D01*
X141234342Y-69705713D02*
X141329580Y-69658094D01*
X141329580Y-69658094D02*
X141377200Y-69610475D01*
X141377200Y-69610475D02*
X141424819Y-69515237D01*
X141424819Y-69515237D02*
X141424819Y-69324761D01*
X141424819Y-69324761D02*
X141377200Y-69229523D01*
X141377200Y-69229523D02*
X141329580Y-69181904D01*
X141329580Y-69181904D02*
X141234342Y-69134285D01*
X141234342Y-69134285D02*
X140996247Y-69134285D01*
X140996247Y-69134285D02*
X140901009Y-69181904D01*
X140901009Y-69181904D02*
X140853390Y-69229523D01*
X140853390Y-69229523D02*
X140805771Y-69324761D01*
X140805771Y-69324761D02*
X140805771Y-69515237D01*
X140805771Y-69515237D02*
X140853390Y-69610475D01*
X140853390Y-69610475D02*
X140901009Y-69658094D01*
X140901009Y-69658094D02*
X140996247Y-69705713D01*
X141054819Y-65101904D02*
X140054819Y-65101904D01*
X141054819Y-64530476D02*
X140483390Y-64959047D01*
X140054819Y-64530476D02*
X140626247Y-65101904D01*
X42356667Y-101407200D02*
X42499524Y-101454819D01*
X42499524Y-101454819D02*
X42737619Y-101454819D01*
X42737619Y-101454819D02*
X42832857Y-101407200D01*
X42832857Y-101407200D02*
X42880476Y-101359580D01*
X42880476Y-101359580D02*
X42928095Y-101264342D01*
X42928095Y-101264342D02*
X42928095Y-101169104D01*
X42928095Y-101169104D02*
X42880476Y-101073866D01*
X42880476Y-101073866D02*
X42832857Y-101026247D01*
X42832857Y-101026247D02*
X42737619Y-100978628D01*
X42737619Y-100978628D02*
X42547143Y-100931009D01*
X42547143Y-100931009D02*
X42451905Y-100883390D01*
X42451905Y-100883390D02*
X42404286Y-100835771D01*
X42404286Y-100835771D02*
X42356667Y-100740533D01*
X42356667Y-100740533D02*
X42356667Y-100645295D01*
X42356667Y-100645295D02*
X42404286Y-100550057D01*
X42404286Y-100550057D02*
X42451905Y-100502438D01*
X42451905Y-100502438D02*
X42547143Y-100454819D01*
X42547143Y-100454819D02*
X42785238Y-100454819D01*
X42785238Y-100454819D02*
X42928095Y-100502438D01*
X43261429Y-100454819D02*
X43499524Y-101454819D01*
X43499524Y-101454819D02*
X43690000Y-100740533D01*
X43690000Y-100740533D02*
X43880476Y-101454819D01*
X43880476Y-101454819D02*
X44118572Y-100454819D01*
X44547143Y-101454819D02*
X44737619Y-101454819D01*
X44737619Y-101454819D02*
X44832857Y-101407200D01*
X44832857Y-101407200D02*
X44880476Y-101359580D01*
X44880476Y-101359580D02*
X44975714Y-101216723D01*
X44975714Y-101216723D02*
X45023333Y-101026247D01*
X45023333Y-101026247D02*
X45023333Y-100645295D01*
X45023333Y-100645295D02*
X44975714Y-100550057D01*
X44975714Y-100550057D02*
X44928095Y-100502438D01*
X44928095Y-100502438D02*
X44832857Y-100454819D01*
X44832857Y-100454819D02*
X44642381Y-100454819D01*
X44642381Y-100454819D02*
X44547143Y-100502438D01*
X44547143Y-100502438D02*
X44499524Y-100550057D01*
X44499524Y-100550057D02*
X44451905Y-100645295D01*
X44451905Y-100645295D02*
X44451905Y-100883390D01*
X44451905Y-100883390D02*
X44499524Y-100978628D01*
X44499524Y-100978628D02*
X44547143Y-101026247D01*
X44547143Y-101026247D02*
X44642381Y-101073866D01*
X44642381Y-101073866D02*
X44832857Y-101073866D01*
X44832857Y-101073866D02*
X44928095Y-101026247D01*
X44928095Y-101026247D02*
X44975714Y-100978628D01*
X44975714Y-100978628D02*
X45023333Y-100883390D01*
X43931905Y-109994819D02*
X43931905Y-108994819D01*
X43931905Y-108994819D02*
X44170000Y-108994819D01*
X44170000Y-108994819D02*
X44312857Y-109042438D01*
X44312857Y-109042438D02*
X44408095Y-109137676D01*
X44408095Y-109137676D02*
X44455714Y-109232914D01*
X44455714Y-109232914D02*
X44503333Y-109423390D01*
X44503333Y-109423390D02*
X44503333Y-109566247D01*
X44503333Y-109566247D02*
X44455714Y-109756723D01*
X44455714Y-109756723D02*
X44408095Y-109851961D01*
X44408095Y-109851961D02*
X44312857Y-109947200D01*
X44312857Y-109947200D02*
X44170000Y-109994819D01*
X44170000Y-109994819D02*
X43931905Y-109994819D01*
X44836667Y-108994819D02*
X45503333Y-108994819D01*
X45503333Y-108994819D02*
X45074762Y-109994819D01*
X88807319Y-38666666D02*
X88331128Y-38999999D01*
X88807319Y-39238094D02*
X87807319Y-39238094D01*
X87807319Y-39238094D02*
X87807319Y-38857142D01*
X87807319Y-38857142D02*
X87854938Y-38761904D01*
X87854938Y-38761904D02*
X87902557Y-38714285D01*
X87902557Y-38714285D02*
X87997795Y-38666666D01*
X87997795Y-38666666D02*
X88140652Y-38666666D01*
X88140652Y-38666666D02*
X88235890Y-38714285D01*
X88235890Y-38714285D02*
X88283509Y-38761904D01*
X88283509Y-38761904D02*
X88331128Y-38857142D01*
X88331128Y-38857142D02*
X88331128Y-39238094D01*
X88140652Y-37809523D02*
X88807319Y-37809523D01*
X87759700Y-38047618D02*
X88473985Y-38285713D01*
X88473985Y-38285713D02*
X88473985Y-37666666D01*
X45741905Y-77424819D02*
X45741905Y-76424819D01*
X45741905Y-76424819D02*
X45980000Y-76424819D01*
X45980000Y-76424819D02*
X46122857Y-76472438D01*
X46122857Y-76472438D02*
X46218095Y-76567676D01*
X46218095Y-76567676D02*
X46265714Y-76662914D01*
X46265714Y-76662914D02*
X46313333Y-76853390D01*
X46313333Y-76853390D02*
X46313333Y-76996247D01*
X46313333Y-76996247D02*
X46265714Y-77186723D01*
X46265714Y-77186723D02*
X46218095Y-77281961D01*
X46218095Y-77281961D02*
X46122857Y-77377200D01*
X46122857Y-77377200D02*
X45980000Y-77424819D01*
X45980000Y-77424819D02*
X45741905Y-77424819D01*
X47170476Y-76758152D02*
X47170476Y-77424819D01*
X46932381Y-76377200D02*
X46694286Y-77091485D01*
X46694286Y-77091485D02*
X47313333Y-77091485D01*
X51298095Y-77054819D02*
X51298095Y-76054819D01*
X51869523Y-77054819D02*
X51440952Y-76483390D01*
X51869523Y-76054819D02*
X51298095Y-76626247D01*
X133761905Y-83954819D02*
X133761905Y-84764342D01*
X133761905Y-84764342D02*
X133809524Y-84859580D01*
X133809524Y-84859580D02*
X133857143Y-84907200D01*
X133857143Y-84907200D02*
X133952381Y-84954819D01*
X133952381Y-84954819D02*
X134142857Y-84954819D01*
X134142857Y-84954819D02*
X134238095Y-84907200D01*
X134238095Y-84907200D02*
X134285714Y-84859580D01*
X134285714Y-84859580D02*
X134333333Y-84764342D01*
X134333333Y-84764342D02*
X134333333Y-83954819D01*
X135333333Y-84954819D02*
X134761905Y-84954819D01*
X135047619Y-84954819D02*
X135047619Y-83954819D01*
X135047619Y-83954819D02*
X134952381Y-84097676D01*
X134952381Y-84097676D02*
X134857143Y-84192914D01*
X134857143Y-84192914D02*
X134761905Y-84240533D01*
X136190476Y-84288152D02*
X136190476Y-84954819D01*
X135952381Y-83907200D02*
X135714286Y-84621485D01*
X135714286Y-84621485D02*
X136333333Y-84621485D01*
X88807319Y-36166666D02*
X88331128Y-36499999D01*
X88807319Y-36738094D02*
X87807319Y-36738094D01*
X87807319Y-36738094D02*
X87807319Y-36357142D01*
X87807319Y-36357142D02*
X87854938Y-36261904D01*
X87854938Y-36261904D02*
X87902557Y-36214285D01*
X87902557Y-36214285D02*
X87997795Y-36166666D01*
X87997795Y-36166666D02*
X88140652Y-36166666D01*
X88140652Y-36166666D02*
X88235890Y-36214285D01*
X88235890Y-36214285D02*
X88283509Y-36261904D01*
X88283509Y-36261904D02*
X88331128Y-36357142D01*
X88331128Y-36357142D02*
X88331128Y-36738094D01*
X87807319Y-35833332D02*
X87807319Y-35214285D01*
X87807319Y-35214285D02*
X88188271Y-35547618D01*
X88188271Y-35547618D02*
X88188271Y-35404761D01*
X88188271Y-35404761D02*
X88235890Y-35309523D01*
X88235890Y-35309523D02*
X88283509Y-35261904D01*
X88283509Y-35261904D02*
X88378747Y-35214285D01*
X88378747Y-35214285D02*
X88616842Y-35214285D01*
X88616842Y-35214285D02*
X88712080Y-35261904D01*
X88712080Y-35261904D02*
X88759700Y-35309523D01*
X88759700Y-35309523D02*
X88807319Y-35404761D01*
X88807319Y-35404761D02*
X88807319Y-35690475D01*
X88807319Y-35690475D02*
X88759700Y-35785713D01*
X88759700Y-35785713D02*
X88712080Y-35833332D01*
X115204761Y-91725057D02*
X115109523Y-91677438D01*
X115109523Y-91677438D02*
X115014285Y-91582200D01*
X115014285Y-91582200D02*
X114871428Y-91439342D01*
X114871428Y-91439342D02*
X114776190Y-91391723D01*
X114776190Y-91391723D02*
X114680952Y-91391723D01*
X114728571Y-91629819D02*
X114633333Y-91582200D01*
X114633333Y-91582200D02*
X114538095Y-91486961D01*
X114538095Y-91486961D02*
X114490476Y-91296485D01*
X114490476Y-91296485D02*
X114490476Y-90963152D01*
X114490476Y-90963152D02*
X114538095Y-90772676D01*
X114538095Y-90772676D02*
X114633333Y-90677438D01*
X114633333Y-90677438D02*
X114728571Y-90629819D01*
X114728571Y-90629819D02*
X114919047Y-90629819D01*
X114919047Y-90629819D02*
X115014285Y-90677438D01*
X115014285Y-90677438D02*
X115109523Y-90772676D01*
X115109523Y-90772676D02*
X115157142Y-90963152D01*
X115157142Y-90963152D02*
X115157142Y-91296485D01*
X115157142Y-91296485D02*
X115109523Y-91486961D01*
X115109523Y-91486961D02*
X115014285Y-91582200D01*
X115014285Y-91582200D02*
X114919047Y-91629819D01*
X114919047Y-91629819D02*
X114728571Y-91629819D01*
X116061904Y-90629819D02*
X115585714Y-90629819D01*
X115585714Y-90629819D02*
X115538095Y-91106009D01*
X115538095Y-91106009D02*
X115585714Y-91058390D01*
X115585714Y-91058390D02*
X115680952Y-91010771D01*
X115680952Y-91010771D02*
X115919047Y-91010771D01*
X115919047Y-91010771D02*
X116014285Y-91058390D01*
X116014285Y-91058390D02*
X116061904Y-91106009D01*
X116061904Y-91106009D02*
X116109523Y-91201247D01*
X116109523Y-91201247D02*
X116109523Y-91439342D01*
X116109523Y-91439342D02*
X116061904Y-91534580D01*
X116061904Y-91534580D02*
X116014285Y-91582200D01*
X116014285Y-91582200D02*
X115919047Y-91629819D01*
X115919047Y-91629819D02*
X115680952Y-91629819D01*
X115680952Y-91629819D02*
X115585714Y-91582200D01*
X115585714Y-91582200D02*
X115538095Y-91534580D01*
X74081905Y-21954819D02*
X74081905Y-20954819D01*
X74081905Y-20954819D02*
X74320000Y-20954819D01*
X74320000Y-20954819D02*
X74462857Y-21002438D01*
X74462857Y-21002438D02*
X74558095Y-21097676D01*
X74558095Y-21097676D02*
X74605714Y-21192914D01*
X74605714Y-21192914D02*
X74653333Y-21383390D01*
X74653333Y-21383390D02*
X74653333Y-21526247D01*
X74653333Y-21526247D02*
X74605714Y-21716723D01*
X74605714Y-21716723D02*
X74558095Y-21811961D01*
X74558095Y-21811961D02*
X74462857Y-21907200D01*
X74462857Y-21907200D02*
X74320000Y-21954819D01*
X74320000Y-21954819D02*
X74081905Y-21954819D01*
X75034286Y-21050057D02*
X75081905Y-21002438D01*
X75081905Y-21002438D02*
X75177143Y-20954819D01*
X75177143Y-20954819D02*
X75415238Y-20954819D01*
X75415238Y-20954819D02*
X75510476Y-21002438D01*
X75510476Y-21002438D02*
X75558095Y-21050057D01*
X75558095Y-21050057D02*
X75605714Y-21145295D01*
X75605714Y-21145295D02*
X75605714Y-21240533D01*
X75605714Y-21240533D02*
X75558095Y-21383390D01*
X75558095Y-21383390D02*
X74986667Y-21954819D01*
X74986667Y-21954819D02*
X75605714Y-21954819D01*
X69478095Y-22354819D02*
X69478095Y-21354819D01*
X70049523Y-22354819D02*
X69620952Y-21783390D01*
X70049523Y-21354819D02*
X69478095Y-21926247D01*
X94733333Y-37059580D02*
X94685714Y-37107200D01*
X94685714Y-37107200D02*
X94542857Y-37154819D01*
X94542857Y-37154819D02*
X94447619Y-37154819D01*
X94447619Y-37154819D02*
X94304762Y-37107200D01*
X94304762Y-37107200D02*
X94209524Y-37011961D01*
X94209524Y-37011961D02*
X94161905Y-36916723D01*
X94161905Y-36916723D02*
X94114286Y-36726247D01*
X94114286Y-36726247D02*
X94114286Y-36583390D01*
X94114286Y-36583390D02*
X94161905Y-36392914D01*
X94161905Y-36392914D02*
X94209524Y-36297676D01*
X94209524Y-36297676D02*
X94304762Y-36202438D01*
X94304762Y-36202438D02*
X94447619Y-36154819D01*
X94447619Y-36154819D02*
X94542857Y-36154819D01*
X94542857Y-36154819D02*
X94685714Y-36202438D01*
X94685714Y-36202438D02*
X94733333Y-36250057D01*
X95304762Y-36583390D02*
X95209524Y-36535771D01*
X95209524Y-36535771D02*
X95161905Y-36488152D01*
X95161905Y-36488152D02*
X95114286Y-36392914D01*
X95114286Y-36392914D02*
X95114286Y-36345295D01*
X95114286Y-36345295D02*
X95161905Y-36250057D01*
X95161905Y-36250057D02*
X95209524Y-36202438D01*
X95209524Y-36202438D02*
X95304762Y-36154819D01*
X95304762Y-36154819D02*
X95495238Y-36154819D01*
X95495238Y-36154819D02*
X95590476Y-36202438D01*
X95590476Y-36202438D02*
X95638095Y-36250057D01*
X95638095Y-36250057D02*
X95685714Y-36345295D01*
X95685714Y-36345295D02*
X95685714Y-36392914D01*
X95685714Y-36392914D02*
X95638095Y-36488152D01*
X95638095Y-36488152D02*
X95590476Y-36535771D01*
X95590476Y-36535771D02*
X95495238Y-36583390D01*
X95495238Y-36583390D02*
X95304762Y-36583390D01*
X95304762Y-36583390D02*
X95209524Y-36631009D01*
X95209524Y-36631009D02*
X95161905Y-36678628D01*
X95161905Y-36678628D02*
X95114286Y-36773866D01*
X95114286Y-36773866D02*
X95114286Y-36964342D01*
X95114286Y-36964342D02*
X95161905Y-37059580D01*
X95161905Y-37059580D02*
X95209524Y-37107200D01*
X95209524Y-37107200D02*
X95304762Y-37154819D01*
X95304762Y-37154819D02*
X95495238Y-37154819D01*
X95495238Y-37154819D02*
X95590476Y-37107200D01*
X95590476Y-37107200D02*
X95638095Y-37059580D01*
X95638095Y-37059580D02*
X95685714Y-36964342D01*
X95685714Y-36964342D02*
X95685714Y-36773866D01*
X95685714Y-36773866D02*
X95638095Y-36678628D01*
X95638095Y-36678628D02*
X95590476Y-36631009D01*
X95590476Y-36631009D02*
X95495238Y-36583390D01*
X55077200Y-143801428D02*
X55124819Y-143658571D01*
X55124819Y-143658571D02*
X55124819Y-143420476D01*
X55124819Y-143420476D02*
X55077200Y-143325238D01*
X55077200Y-143325238D02*
X55029580Y-143277619D01*
X55029580Y-143277619D02*
X54934342Y-143230000D01*
X54934342Y-143230000D02*
X54839104Y-143230000D01*
X54839104Y-143230000D02*
X54743866Y-143277619D01*
X54743866Y-143277619D02*
X54696247Y-143325238D01*
X54696247Y-143325238D02*
X54648628Y-143420476D01*
X54648628Y-143420476D02*
X54601009Y-143610952D01*
X54601009Y-143610952D02*
X54553390Y-143706190D01*
X54553390Y-143706190D02*
X54505771Y-143753809D01*
X54505771Y-143753809D02*
X54410533Y-143801428D01*
X54410533Y-143801428D02*
X54315295Y-143801428D01*
X54315295Y-143801428D02*
X54220057Y-143753809D01*
X54220057Y-143753809D02*
X54172438Y-143706190D01*
X54172438Y-143706190D02*
X54124819Y-143610952D01*
X54124819Y-143610952D02*
X54124819Y-143372857D01*
X54124819Y-143372857D02*
X54172438Y-143230000D01*
X54124819Y-142610952D02*
X54124819Y-142515714D01*
X54124819Y-142515714D02*
X54172438Y-142420476D01*
X54172438Y-142420476D02*
X54220057Y-142372857D01*
X54220057Y-142372857D02*
X54315295Y-142325238D01*
X54315295Y-142325238D02*
X54505771Y-142277619D01*
X54505771Y-142277619D02*
X54743866Y-142277619D01*
X54743866Y-142277619D02*
X54934342Y-142325238D01*
X54934342Y-142325238D02*
X55029580Y-142372857D01*
X55029580Y-142372857D02*
X55077200Y-142420476D01*
X55077200Y-142420476D02*
X55124819Y-142515714D01*
X55124819Y-142515714D02*
X55124819Y-142610952D01*
X55124819Y-142610952D02*
X55077200Y-142706190D01*
X55077200Y-142706190D02*
X55029580Y-142753809D01*
X55029580Y-142753809D02*
X54934342Y-142801428D01*
X54934342Y-142801428D02*
X54743866Y-142849047D01*
X54743866Y-142849047D02*
X54505771Y-142849047D01*
X54505771Y-142849047D02*
X54315295Y-142801428D01*
X54315295Y-142801428D02*
X54220057Y-142753809D01*
X54220057Y-142753809D02*
X54172438Y-142706190D01*
X54172438Y-142706190D02*
X54124819Y-142610952D01*
X55220057Y-142087143D02*
X55220057Y-141325238D01*
X55029580Y-140515714D02*
X55077200Y-140563333D01*
X55077200Y-140563333D02*
X55124819Y-140706190D01*
X55124819Y-140706190D02*
X55124819Y-140801428D01*
X55124819Y-140801428D02*
X55077200Y-140944285D01*
X55077200Y-140944285D02*
X54981961Y-141039523D01*
X54981961Y-141039523D02*
X54886723Y-141087142D01*
X54886723Y-141087142D02*
X54696247Y-141134761D01*
X54696247Y-141134761D02*
X54553390Y-141134761D01*
X54553390Y-141134761D02*
X54362914Y-141087142D01*
X54362914Y-141087142D02*
X54267676Y-141039523D01*
X54267676Y-141039523D02*
X54172438Y-140944285D01*
X54172438Y-140944285D02*
X54124819Y-140801428D01*
X54124819Y-140801428D02*
X54124819Y-140706190D01*
X54124819Y-140706190D02*
X54172438Y-140563333D01*
X54172438Y-140563333D02*
X54220057Y-140515714D01*
X55124819Y-139944285D02*
X55077200Y-140039523D01*
X55077200Y-140039523D02*
X55029580Y-140087142D01*
X55029580Y-140087142D02*
X54934342Y-140134761D01*
X54934342Y-140134761D02*
X54648628Y-140134761D01*
X54648628Y-140134761D02*
X54553390Y-140087142D01*
X54553390Y-140087142D02*
X54505771Y-140039523D01*
X54505771Y-140039523D02*
X54458152Y-139944285D01*
X54458152Y-139944285D02*
X54458152Y-139801428D01*
X54458152Y-139801428D02*
X54505771Y-139706190D01*
X54505771Y-139706190D02*
X54553390Y-139658571D01*
X54553390Y-139658571D02*
X54648628Y-139610952D01*
X54648628Y-139610952D02*
X54934342Y-139610952D01*
X54934342Y-139610952D02*
X55029580Y-139658571D01*
X55029580Y-139658571D02*
X55077200Y-139706190D01*
X55077200Y-139706190D02*
X55124819Y-139801428D01*
X55124819Y-139801428D02*
X55124819Y-139944285D01*
X55124819Y-139182380D02*
X54458152Y-139182380D01*
X54553390Y-139182380D02*
X54505771Y-139134761D01*
X54505771Y-139134761D02*
X54458152Y-139039523D01*
X54458152Y-139039523D02*
X54458152Y-138896666D01*
X54458152Y-138896666D02*
X54505771Y-138801428D01*
X54505771Y-138801428D02*
X54601009Y-138753809D01*
X54601009Y-138753809D02*
X55124819Y-138753809D01*
X54601009Y-138753809D02*
X54505771Y-138706190D01*
X54505771Y-138706190D02*
X54458152Y-138610952D01*
X54458152Y-138610952D02*
X54458152Y-138468095D01*
X54458152Y-138468095D02*
X54505771Y-138372856D01*
X54505771Y-138372856D02*
X54601009Y-138325237D01*
X54601009Y-138325237D02*
X55124819Y-138325237D01*
X54458152Y-137849047D02*
X55458152Y-137849047D01*
X54505771Y-137849047D02*
X54458152Y-137753809D01*
X54458152Y-137753809D02*
X54458152Y-137563333D01*
X54458152Y-137563333D02*
X54505771Y-137468095D01*
X54505771Y-137468095D02*
X54553390Y-137420476D01*
X54553390Y-137420476D02*
X54648628Y-137372857D01*
X54648628Y-137372857D02*
X54934342Y-137372857D01*
X54934342Y-137372857D02*
X55029580Y-137420476D01*
X55029580Y-137420476D02*
X55077200Y-137468095D01*
X55077200Y-137468095D02*
X55124819Y-137563333D01*
X55124819Y-137563333D02*
X55124819Y-137753809D01*
X55124819Y-137753809D02*
X55077200Y-137849047D01*
X55220057Y-137182381D02*
X55220057Y-136420476D01*
X54124819Y-135991904D02*
X54124819Y-135896666D01*
X54124819Y-135896666D02*
X54172438Y-135801428D01*
X54172438Y-135801428D02*
X54220057Y-135753809D01*
X54220057Y-135753809D02*
X54315295Y-135706190D01*
X54315295Y-135706190D02*
X54505771Y-135658571D01*
X54505771Y-135658571D02*
X54743866Y-135658571D01*
X54743866Y-135658571D02*
X54934342Y-135706190D01*
X54934342Y-135706190D02*
X55029580Y-135753809D01*
X55029580Y-135753809D02*
X55077200Y-135801428D01*
X55077200Y-135801428D02*
X55124819Y-135896666D01*
X55124819Y-135896666D02*
X55124819Y-135991904D01*
X55124819Y-135991904D02*
X55077200Y-136087142D01*
X55077200Y-136087142D02*
X55029580Y-136134761D01*
X55029580Y-136134761D02*
X54934342Y-136182380D01*
X54934342Y-136182380D02*
X54743866Y-136229999D01*
X54743866Y-136229999D02*
X54505771Y-136229999D01*
X54505771Y-136229999D02*
X54315295Y-136182380D01*
X54315295Y-136182380D02*
X54220057Y-136134761D01*
X54220057Y-136134761D02*
X54172438Y-136087142D01*
X54172438Y-136087142D02*
X54124819Y-135991904D01*
X132407142Y-86534819D02*
X132073809Y-86058628D01*
X131835714Y-86534819D02*
X131835714Y-85534819D01*
X131835714Y-85534819D02*
X132216666Y-85534819D01*
X132216666Y-85534819D02*
X132311904Y-85582438D01*
X132311904Y-85582438D02*
X132359523Y-85630057D01*
X132359523Y-85630057D02*
X132407142Y-85725295D01*
X132407142Y-85725295D02*
X132407142Y-85868152D01*
X132407142Y-85868152D02*
X132359523Y-85963390D01*
X132359523Y-85963390D02*
X132311904Y-86011009D01*
X132311904Y-86011009D02*
X132216666Y-86058628D01*
X132216666Y-86058628D02*
X131835714Y-86058628D01*
X132788095Y-85630057D02*
X132835714Y-85582438D01*
X132835714Y-85582438D02*
X132930952Y-85534819D01*
X132930952Y-85534819D02*
X133169047Y-85534819D01*
X133169047Y-85534819D02*
X133264285Y-85582438D01*
X133264285Y-85582438D02*
X133311904Y-85630057D01*
X133311904Y-85630057D02*
X133359523Y-85725295D01*
X133359523Y-85725295D02*
X133359523Y-85820533D01*
X133359523Y-85820533D02*
X133311904Y-85963390D01*
X133311904Y-85963390D02*
X132740476Y-86534819D01*
X132740476Y-86534819D02*
X133359523Y-86534819D01*
X133740476Y-85630057D02*
X133788095Y-85582438D01*
X133788095Y-85582438D02*
X133883333Y-85534819D01*
X133883333Y-85534819D02*
X134121428Y-85534819D01*
X134121428Y-85534819D02*
X134216666Y-85582438D01*
X134216666Y-85582438D02*
X134264285Y-85630057D01*
X134264285Y-85630057D02*
X134311904Y-85725295D01*
X134311904Y-85725295D02*
X134311904Y-85820533D01*
X134311904Y-85820533D02*
X134264285Y-85963390D01*
X134264285Y-85963390D02*
X133692857Y-86534819D01*
X133692857Y-86534819D02*
X134311904Y-86534819D01*
X114977200Y-173801428D02*
X115024819Y-173658571D01*
X115024819Y-173658571D02*
X115024819Y-173420476D01*
X115024819Y-173420476D02*
X114977200Y-173325238D01*
X114977200Y-173325238D02*
X114929580Y-173277619D01*
X114929580Y-173277619D02*
X114834342Y-173230000D01*
X114834342Y-173230000D02*
X114739104Y-173230000D01*
X114739104Y-173230000D02*
X114643866Y-173277619D01*
X114643866Y-173277619D02*
X114596247Y-173325238D01*
X114596247Y-173325238D02*
X114548628Y-173420476D01*
X114548628Y-173420476D02*
X114501009Y-173610952D01*
X114501009Y-173610952D02*
X114453390Y-173706190D01*
X114453390Y-173706190D02*
X114405771Y-173753809D01*
X114405771Y-173753809D02*
X114310533Y-173801428D01*
X114310533Y-173801428D02*
X114215295Y-173801428D01*
X114215295Y-173801428D02*
X114120057Y-173753809D01*
X114120057Y-173753809D02*
X114072438Y-173706190D01*
X114072438Y-173706190D02*
X114024819Y-173610952D01*
X114024819Y-173610952D02*
X114024819Y-173372857D01*
X114024819Y-173372857D02*
X114072438Y-173230000D01*
X115024819Y-172277619D02*
X115024819Y-172849047D01*
X115024819Y-172563333D02*
X114024819Y-172563333D01*
X114024819Y-172563333D02*
X114167676Y-172658571D01*
X114167676Y-172658571D02*
X114262914Y-172753809D01*
X114262914Y-172753809D02*
X114310533Y-172849047D01*
X115120057Y-172087143D02*
X115120057Y-171325238D01*
X114929580Y-170515714D02*
X114977200Y-170563333D01*
X114977200Y-170563333D02*
X115024819Y-170706190D01*
X115024819Y-170706190D02*
X115024819Y-170801428D01*
X115024819Y-170801428D02*
X114977200Y-170944285D01*
X114977200Y-170944285D02*
X114881961Y-171039523D01*
X114881961Y-171039523D02*
X114786723Y-171087142D01*
X114786723Y-171087142D02*
X114596247Y-171134761D01*
X114596247Y-171134761D02*
X114453390Y-171134761D01*
X114453390Y-171134761D02*
X114262914Y-171087142D01*
X114262914Y-171087142D02*
X114167676Y-171039523D01*
X114167676Y-171039523D02*
X114072438Y-170944285D01*
X114072438Y-170944285D02*
X114024819Y-170801428D01*
X114024819Y-170801428D02*
X114024819Y-170706190D01*
X114024819Y-170706190D02*
X114072438Y-170563333D01*
X114072438Y-170563333D02*
X114120057Y-170515714D01*
X115024819Y-169944285D02*
X114977200Y-170039523D01*
X114977200Y-170039523D02*
X114929580Y-170087142D01*
X114929580Y-170087142D02*
X114834342Y-170134761D01*
X114834342Y-170134761D02*
X114548628Y-170134761D01*
X114548628Y-170134761D02*
X114453390Y-170087142D01*
X114453390Y-170087142D02*
X114405771Y-170039523D01*
X114405771Y-170039523D02*
X114358152Y-169944285D01*
X114358152Y-169944285D02*
X114358152Y-169801428D01*
X114358152Y-169801428D02*
X114405771Y-169706190D01*
X114405771Y-169706190D02*
X114453390Y-169658571D01*
X114453390Y-169658571D02*
X114548628Y-169610952D01*
X114548628Y-169610952D02*
X114834342Y-169610952D01*
X114834342Y-169610952D02*
X114929580Y-169658571D01*
X114929580Y-169658571D02*
X114977200Y-169706190D01*
X114977200Y-169706190D02*
X115024819Y-169801428D01*
X115024819Y-169801428D02*
X115024819Y-169944285D01*
X115024819Y-169182380D02*
X114358152Y-169182380D01*
X114453390Y-169182380D02*
X114405771Y-169134761D01*
X114405771Y-169134761D02*
X114358152Y-169039523D01*
X114358152Y-169039523D02*
X114358152Y-168896666D01*
X114358152Y-168896666D02*
X114405771Y-168801428D01*
X114405771Y-168801428D02*
X114501009Y-168753809D01*
X114501009Y-168753809D02*
X115024819Y-168753809D01*
X114501009Y-168753809D02*
X114405771Y-168706190D01*
X114405771Y-168706190D02*
X114358152Y-168610952D01*
X114358152Y-168610952D02*
X114358152Y-168468095D01*
X114358152Y-168468095D02*
X114405771Y-168372856D01*
X114405771Y-168372856D02*
X114501009Y-168325237D01*
X114501009Y-168325237D02*
X115024819Y-168325237D01*
X114358152Y-167849047D02*
X115358152Y-167849047D01*
X114405771Y-167849047D02*
X114358152Y-167753809D01*
X114358152Y-167753809D02*
X114358152Y-167563333D01*
X114358152Y-167563333D02*
X114405771Y-167468095D01*
X114405771Y-167468095D02*
X114453390Y-167420476D01*
X114453390Y-167420476D02*
X114548628Y-167372857D01*
X114548628Y-167372857D02*
X114834342Y-167372857D01*
X114834342Y-167372857D02*
X114929580Y-167420476D01*
X114929580Y-167420476D02*
X114977200Y-167468095D01*
X114977200Y-167468095D02*
X115024819Y-167563333D01*
X115024819Y-167563333D02*
X115024819Y-167753809D01*
X115024819Y-167753809D02*
X114977200Y-167849047D01*
X115120057Y-167182381D02*
X115120057Y-166420476D01*
X114120057Y-166229999D02*
X114072438Y-166182380D01*
X114072438Y-166182380D02*
X114024819Y-166087142D01*
X114024819Y-166087142D02*
X114024819Y-165849047D01*
X114024819Y-165849047D02*
X114072438Y-165753809D01*
X114072438Y-165753809D02*
X114120057Y-165706190D01*
X114120057Y-165706190D02*
X114215295Y-165658571D01*
X114215295Y-165658571D02*
X114310533Y-165658571D01*
X114310533Y-165658571D02*
X114453390Y-165706190D01*
X114453390Y-165706190D02*
X115024819Y-166277618D01*
X115024819Y-166277618D02*
X115024819Y-165658571D01*
X103154819Y-75833333D02*
X103869104Y-75833333D01*
X103869104Y-75833333D02*
X104011961Y-75880952D01*
X104011961Y-75880952D02*
X104107200Y-75976190D01*
X104107200Y-75976190D02*
X104154819Y-76119047D01*
X104154819Y-76119047D02*
X104154819Y-76214285D01*
X103154819Y-75452380D02*
X103154819Y-74785714D01*
X103154819Y-74785714D02*
X104154819Y-75214285D01*
X41954819Y-82333333D02*
X42669104Y-82333333D01*
X42669104Y-82333333D02*
X42811961Y-82380952D01*
X42811961Y-82380952D02*
X42907200Y-82476190D01*
X42907200Y-82476190D02*
X42954819Y-82619047D01*
X42954819Y-82619047D02*
X42954819Y-82714285D01*
X41954819Y-81952380D02*
X41954819Y-81333333D01*
X41954819Y-81333333D02*
X42335771Y-81666666D01*
X42335771Y-81666666D02*
X42335771Y-81523809D01*
X42335771Y-81523809D02*
X42383390Y-81428571D01*
X42383390Y-81428571D02*
X42431009Y-81380952D01*
X42431009Y-81380952D02*
X42526247Y-81333333D01*
X42526247Y-81333333D02*
X42764342Y-81333333D01*
X42764342Y-81333333D02*
X42859580Y-81380952D01*
X42859580Y-81380952D02*
X42907200Y-81428571D01*
X42907200Y-81428571D02*
X42954819Y-81523809D01*
X42954819Y-81523809D02*
X42954819Y-81809523D01*
X42954819Y-81809523D02*
X42907200Y-81904761D01*
X42907200Y-81904761D02*
X42859580Y-81952380D01*
X112416667Y-27907200D02*
X112559524Y-27954819D01*
X112559524Y-27954819D02*
X112797619Y-27954819D01*
X112797619Y-27954819D02*
X112892857Y-27907200D01*
X112892857Y-27907200D02*
X112940476Y-27859580D01*
X112940476Y-27859580D02*
X112988095Y-27764342D01*
X112988095Y-27764342D02*
X112988095Y-27669104D01*
X112988095Y-27669104D02*
X112940476Y-27573866D01*
X112940476Y-27573866D02*
X112892857Y-27526247D01*
X112892857Y-27526247D02*
X112797619Y-27478628D01*
X112797619Y-27478628D02*
X112607143Y-27431009D01*
X112607143Y-27431009D02*
X112511905Y-27383390D01*
X112511905Y-27383390D02*
X112464286Y-27335771D01*
X112464286Y-27335771D02*
X112416667Y-27240533D01*
X112416667Y-27240533D02*
X112416667Y-27145295D01*
X112416667Y-27145295D02*
X112464286Y-27050057D01*
X112464286Y-27050057D02*
X112511905Y-27002438D01*
X112511905Y-27002438D02*
X112607143Y-26954819D01*
X112607143Y-26954819D02*
X112845238Y-26954819D01*
X112845238Y-26954819D02*
X112988095Y-27002438D01*
X113321429Y-26954819D02*
X113559524Y-27954819D01*
X113559524Y-27954819D02*
X113750000Y-27240533D01*
X113750000Y-27240533D02*
X113940476Y-27954819D01*
X113940476Y-27954819D02*
X114178572Y-26954819D01*
X115083333Y-27954819D02*
X114511905Y-27954819D01*
X114797619Y-27954819D02*
X114797619Y-26954819D01*
X114797619Y-26954819D02*
X114702381Y-27097676D01*
X114702381Y-27097676D02*
X114607143Y-27192914D01*
X114607143Y-27192914D02*
X114511905Y-27240533D01*
X62750057Y-89232738D02*
X62702438Y-89327976D01*
X62702438Y-89327976D02*
X62607200Y-89423214D01*
X62607200Y-89423214D02*
X62464342Y-89566071D01*
X62464342Y-89566071D02*
X62416723Y-89661309D01*
X62416723Y-89661309D02*
X62416723Y-89756547D01*
X62654819Y-89708928D02*
X62607200Y-89804166D01*
X62607200Y-89804166D02*
X62511961Y-89899404D01*
X62511961Y-89899404D02*
X62321485Y-89947023D01*
X62321485Y-89947023D02*
X61988152Y-89947023D01*
X61988152Y-89947023D02*
X61797676Y-89899404D01*
X61797676Y-89899404D02*
X61702438Y-89804166D01*
X61702438Y-89804166D02*
X61654819Y-89708928D01*
X61654819Y-89708928D02*
X61654819Y-89518452D01*
X61654819Y-89518452D02*
X61702438Y-89423214D01*
X61702438Y-89423214D02*
X61797676Y-89327976D01*
X61797676Y-89327976D02*
X61988152Y-89280357D01*
X61988152Y-89280357D02*
X62321485Y-89280357D01*
X62321485Y-89280357D02*
X62511961Y-89327976D01*
X62511961Y-89327976D02*
X62607200Y-89423214D01*
X62607200Y-89423214D02*
X62654819Y-89518452D01*
X62654819Y-89518452D02*
X62654819Y-89708928D01*
X61654819Y-88947023D02*
X61654819Y-88327976D01*
X61654819Y-88327976D02*
X62035771Y-88661309D01*
X62035771Y-88661309D02*
X62035771Y-88518452D01*
X62035771Y-88518452D02*
X62083390Y-88423214D01*
X62083390Y-88423214D02*
X62131009Y-88375595D01*
X62131009Y-88375595D02*
X62226247Y-88327976D01*
X62226247Y-88327976D02*
X62464342Y-88327976D01*
X62464342Y-88327976D02*
X62559580Y-88375595D01*
X62559580Y-88375595D02*
X62607200Y-88423214D01*
X62607200Y-88423214D02*
X62654819Y-88518452D01*
X62654819Y-88518452D02*
X62654819Y-88804166D01*
X62654819Y-88804166D02*
X62607200Y-88899404D01*
X62607200Y-88899404D02*
X62559580Y-88947023D01*
X79773333Y-29134819D02*
X79440000Y-28658628D01*
X79201905Y-29134819D02*
X79201905Y-28134819D01*
X79201905Y-28134819D02*
X79582857Y-28134819D01*
X79582857Y-28134819D02*
X79678095Y-28182438D01*
X79678095Y-28182438D02*
X79725714Y-28230057D01*
X79725714Y-28230057D02*
X79773333Y-28325295D01*
X79773333Y-28325295D02*
X79773333Y-28468152D01*
X79773333Y-28468152D02*
X79725714Y-28563390D01*
X79725714Y-28563390D02*
X79678095Y-28611009D01*
X79678095Y-28611009D02*
X79582857Y-28658628D01*
X79582857Y-28658628D02*
X79201905Y-28658628D01*
X80630476Y-28134819D02*
X80440000Y-28134819D01*
X80440000Y-28134819D02*
X80344762Y-28182438D01*
X80344762Y-28182438D02*
X80297143Y-28230057D01*
X80297143Y-28230057D02*
X80201905Y-28372914D01*
X80201905Y-28372914D02*
X80154286Y-28563390D01*
X80154286Y-28563390D02*
X80154286Y-28944342D01*
X80154286Y-28944342D02*
X80201905Y-29039580D01*
X80201905Y-29039580D02*
X80249524Y-29087200D01*
X80249524Y-29087200D02*
X80344762Y-29134819D01*
X80344762Y-29134819D02*
X80535238Y-29134819D01*
X80535238Y-29134819D02*
X80630476Y-29087200D01*
X80630476Y-29087200D02*
X80678095Y-29039580D01*
X80678095Y-29039580D02*
X80725714Y-28944342D01*
X80725714Y-28944342D02*
X80725714Y-28706247D01*
X80725714Y-28706247D02*
X80678095Y-28611009D01*
X80678095Y-28611009D02*
X80630476Y-28563390D01*
X80630476Y-28563390D02*
X80535238Y-28515771D01*
X80535238Y-28515771D02*
X80344762Y-28515771D01*
X80344762Y-28515771D02*
X80249524Y-28563390D01*
X80249524Y-28563390D02*
X80201905Y-28611009D01*
X80201905Y-28611009D02*
X80154286Y-28706247D01*
X47457142Y-88404819D02*
X47123809Y-87928628D01*
X46885714Y-88404819D02*
X46885714Y-87404819D01*
X46885714Y-87404819D02*
X47266666Y-87404819D01*
X47266666Y-87404819D02*
X47361904Y-87452438D01*
X47361904Y-87452438D02*
X47409523Y-87500057D01*
X47409523Y-87500057D02*
X47457142Y-87595295D01*
X47457142Y-87595295D02*
X47457142Y-87738152D01*
X47457142Y-87738152D02*
X47409523Y-87833390D01*
X47409523Y-87833390D02*
X47361904Y-87881009D01*
X47361904Y-87881009D02*
X47266666Y-87928628D01*
X47266666Y-87928628D02*
X46885714Y-87928628D01*
X48409523Y-88404819D02*
X47838095Y-88404819D01*
X48123809Y-88404819D02*
X48123809Y-87404819D01*
X48123809Y-87404819D02*
X48028571Y-87547676D01*
X48028571Y-87547676D02*
X47933333Y-87642914D01*
X47933333Y-87642914D02*
X47838095Y-87690533D01*
X49266666Y-87738152D02*
X49266666Y-88404819D01*
X49028571Y-87357200D02*
X48790476Y-88071485D01*
X48790476Y-88071485D02*
X49409523Y-88071485D01*
X114977200Y-188801428D02*
X115024819Y-188658571D01*
X115024819Y-188658571D02*
X115024819Y-188420476D01*
X115024819Y-188420476D02*
X114977200Y-188325238D01*
X114977200Y-188325238D02*
X114929580Y-188277619D01*
X114929580Y-188277619D02*
X114834342Y-188230000D01*
X114834342Y-188230000D02*
X114739104Y-188230000D01*
X114739104Y-188230000D02*
X114643866Y-188277619D01*
X114643866Y-188277619D02*
X114596247Y-188325238D01*
X114596247Y-188325238D02*
X114548628Y-188420476D01*
X114548628Y-188420476D02*
X114501009Y-188610952D01*
X114501009Y-188610952D02*
X114453390Y-188706190D01*
X114453390Y-188706190D02*
X114405771Y-188753809D01*
X114405771Y-188753809D02*
X114310533Y-188801428D01*
X114310533Y-188801428D02*
X114215295Y-188801428D01*
X114215295Y-188801428D02*
X114120057Y-188753809D01*
X114120057Y-188753809D02*
X114072438Y-188706190D01*
X114072438Y-188706190D02*
X114024819Y-188610952D01*
X114024819Y-188610952D02*
X114024819Y-188372857D01*
X114024819Y-188372857D02*
X114072438Y-188230000D01*
X115024819Y-187277619D02*
X115024819Y-187849047D01*
X115024819Y-187563333D02*
X114024819Y-187563333D01*
X114024819Y-187563333D02*
X114167676Y-187658571D01*
X114167676Y-187658571D02*
X114262914Y-187753809D01*
X114262914Y-187753809D02*
X114310533Y-187849047D01*
X115120057Y-187087143D02*
X115120057Y-186325238D01*
X114929580Y-185515714D02*
X114977200Y-185563333D01*
X114977200Y-185563333D02*
X115024819Y-185706190D01*
X115024819Y-185706190D02*
X115024819Y-185801428D01*
X115024819Y-185801428D02*
X114977200Y-185944285D01*
X114977200Y-185944285D02*
X114881961Y-186039523D01*
X114881961Y-186039523D02*
X114786723Y-186087142D01*
X114786723Y-186087142D02*
X114596247Y-186134761D01*
X114596247Y-186134761D02*
X114453390Y-186134761D01*
X114453390Y-186134761D02*
X114262914Y-186087142D01*
X114262914Y-186087142D02*
X114167676Y-186039523D01*
X114167676Y-186039523D02*
X114072438Y-185944285D01*
X114072438Y-185944285D02*
X114024819Y-185801428D01*
X114024819Y-185801428D02*
X114024819Y-185706190D01*
X114024819Y-185706190D02*
X114072438Y-185563333D01*
X114072438Y-185563333D02*
X114120057Y-185515714D01*
X115024819Y-184944285D02*
X114977200Y-185039523D01*
X114977200Y-185039523D02*
X114929580Y-185087142D01*
X114929580Y-185087142D02*
X114834342Y-185134761D01*
X114834342Y-185134761D02*
X114548628Y-185134761D01*
X114548628Y-185134761D02*
X114453390Y-185087142D01*
X114453390Y-185087142D02*
X114405771Y-185039523D01*
X114405771Y-185039523D02*
X114358152Y-184944285D01*
X114358152Y-184944285D02*
X114358152Y-184801428D01*
X114358152Y-184801428D02*
X114405771Y-184706190D01*
X114405771Y-184706190D02*
X114453390Y-184658571D01*
X114453390Y-184658571D02*
X114548628Y-184610952D01*
X114548628Y-184610952D02*
X114834342Y-184610952D01*
X114834342Y-184610952D02*
X114929580Y-184658571D01*
X114929580Y-184658571D02*
X114977200Y-184706190D01*
X114977200Y-184706190D02*
X115024819Y-184801428D01*
X115024819Y-184801428D02*
X115024819Y-184944285D01*
X115024819Y-184182380D02*
X114358152Y-184182380D01*
X114453390Y-184182380D02*
X114405771Y-184134761D01*
X114405771Y-184134761D02*
X114358152Y-184039523D01*
X114358152Y-184039523D02*
X114358152Y-183896666D01*
X114358152Y-183896666D02*
X114405771Y-183801428D01*
X114405771Y-183801428D02*
X114501009Y-183753809D01*
X114501009Y-183753809D02*
X115024819Y-183753809D01*
X114501009Y-183753809D02*
X114405771Y-183706190D01*
X114405771Y-183706190D02*
X114358152Y-183610952D01*
X114358152Y-183610952D02*
X114358152Y-183468095D01*
X114358152Y-183468095D02*
X114405771Y-183372856D01*
X114405771Y-183372856D02*
X114501009Y-183325237D01*
X114501009Y-183325237D02*
X115024819Y-183325237D01*
X114358152Y-182849047D02*
X115358152Y-182849047D01*
X114405771Y-182849047D02*
X114358152Y-182753809D01*
X114358152Y-182753809D02*
X114358152Y-182563333D01*
X114358152Y-182563333D02*
X114405771Y-182468095D01*
X114405771Y-182468095D02*
X114453390Y-182420476D01*
X114453390Y-182420476D02*
X114548628Y-182372857D01*
X114548628Y-182372857D02*
X114834342Y-182372857D01*
X114834342Y-182372857D02*
X114929580Y-182420476D01*
X114929580Y-182420476D02*
X114977200Y-182468095D01*
X114977200Y-182468095D02*
X115024819Y-182563333D01*
X115024819Y-182563333D02*
X115024819Y-182753809D01*
X115024819Y-182753809D02*
X114977200Y-182849047D01*
X115120057Y-182182381D02*
X115120057Y-181420476D01*
X114024819Y-181277618D02*
X114024819Y-180658571D01*
X114024819Y-180658571D02*
X114405771Y-180991904D01*
X114405771Y-180991904D02*
X114405771Y-180849047D01*
X114405771Y-180849047D02*
X114453390Y-180753809D01*
X114453390Y-180753809D02*
X114501009Y-180706190D01*
X114501009Y-180706190D02*
X114596247Y-180658571D01*
X114596247Y-180658571D02*
X114834342Y-180658571D01*
X114834342Y-180658571D02*
X114929580Y-180706190D01*
X114929580Y-180706190D02*
X114977200Y-180753809D01*
X114977200Y-180753809D02*
X115024819Y-180849047D01*
X115024819Y-180849047D02*
X115024819Y-181134761D01*
X115024819Y-181134761D02*
X114977200Y-181229999D01*
X114977200Y-181229999D02*
X114929580Y-181277618D01*
X66098095Y-94262200D02*
X66240952Y-94309819D01*
X66240952Y-94309819D02*
X66479047Y-94309819D01*
X66479047Y-94309819D02*
X66574285Y-94262200D01*
X66574285Y-94262200D02*
X66621904Y-94214580D01*
X66621904Y-94214580D02*
X66669523Y-94119342D01*
X66669523Y-94119342D02*
X66669523Y-94024104D01*
X66669523Y-94024104D02*
X66621904Y-93928866D01*
X66621904Y-93928866D02*
X66574285Y-93881247D01*
X66574285Y-93881247D02*
X66479047Y-93833628D01*
X66479047Y-93833628D02*
X66288571Y-93786009D01*
X66288571Y-93786009D02*
X66193333Y-93738390D01*
X66193333Y-93738390D02*
X66145714Y-93690771D01*
X66145714Y-93690771D02*
X66098095Y-93595533D01*
X66098095Y-93595533D02*
X66098095Y-93500295D01*
X66098095Y-93500295D02*
X66145714Y-93405057D01*
X66145714Y-93405057D02*
X66193333Y-93357438D01*
X66193333Y-93357438D02*
X66288571Y-93309819D01*
X66288571Y-93309819D02*
X66526666Y-93309819D01*
X66526666Y-93309819D02*
X66669523Y-93357438D01*
X67288571Y-93309819D02*
X67383809Y-93309819D01*
X67383809Y-93309819D02*
X67479047Y-93357438D01*
X67479047Y-93357438D02*
X67526666Y-93405057D01*
X67526666Y-93405057D02*
X67574285Y-93500295D01*
X67574285Y-93500295D02*
X67621904Y-93690771D01*
X67621904Y-93690771D02*
X67621904Y-93928866D01*
X67621904Y-93928866D02*
X67574285Y-94119342D01*
X67574285Y-94119342D02*
X67526666Y-94214580D01*
X67526666Y-94214580D02*
X67479047Y-94262200D01*
X67479047Y-94262200D02*
X67383809Y-94309819D01*
X67383809Y-94309819D02*
X67288571Y-94309819D01*
X67288571Y-94309819D02*
X67193333Y-94262200D01*
X67193333Y-94262200D02*
X67145714Y-94214580D01*
X67145714Y-94214580D02*
X67098095Y-94119342D01*
X67098095Y-94119342D02*
X67050476Y-93928866D01*
X67050476Y-93928866D02*
X67050476Y-93690771D01*
X67050476Y-93690771D02*
X67098095Y-93500295D01*
X67098095Y-93500295D02*
X67145714Y-93405057D01*
X67145714Y-93405057D02*
X67193333Y-93357438D01*
X67193333Y-93357438D02*
X67288571Y-93309819D01*
X62738094Y-98374104D02*
X63214284Y-98374104D01*
X62642856Y-98659819D02*
X62976189Y-97659819D01*
X62976189Y-97659819D02*
X63309522Y-98659819D01*
X63642856Y-97993152D02*
X63642856Y-98659819D01*
X63642856Y-98088390D02*
X63690475Y-98040771D01*
X63690475Y-98040771D02*
X63785713Y-97993152D01*
X63785713Y-97993152D02*
X63928570Y-97993152D01*
X63928570Y-97993152D02*
X64023808Y-98040771D01*
X64023808Y-98040771D02*
X64071427Y-98136009D01*
X64071427Y-98136009D02*
X64071427Y-98659819D01*
X64404761Y-97993152D02*
X64785713Y-97993152D01*
X64547618Y-97659819D02*
X64547618Y-98516961D01*
X64547618Y-98516961D02*
X64595237Y-98612200D01*
X64595237Y-98612200D02*
X64690475Y-98659819D01*
X64690475Y-98659819D02*
X64785713Y-98659819D01*
X65499999Y-98612200D02*
X65404761Y-98659819D01*
X65404761Y-98659819D02*
X65214285Y-98659819D01*
X65214285Y-98659819D02*
X65119047Y-98612200D01*
X65119047Y-98612200D02*
X65071428Y-98516961D01*
X65071428Y-98516961D02*
X65071428Y-98136009D01*
X65071428Y-98136009D02*
X65119047Y-98040771D01*
X65119047Y-98040771D02*
X65214285Y-97993152D01*
X65214285Y-97993152D02*
X65404761Y-97993152D01*
X65404761Y-97993152D02*
X65499999Y-98040771D01*
X65499999Y-98040771D02*
X65547618Y-98136009D01*
X65547618Y-98136009D02*
X65547618Y-98231247D01*
X65547618Y-98231247D02*
X65071428Y-98326485D01*
X65976190Y-97993152D02*
X65976190Y-98659819D01*
X65976190Y-98088390D02*
X66023809Y-98040771D01*
X66023809Y-98040771D02*
X66119047Y-97993152D01*
X66119047Y-97993152D02*
X66261904Y-97993152D01*
X66261904Y-97993152D02*
X66357142Y-98040771D01*
X66357142Y-98040771D02*
X66404761Y-98136009D01*
X66404761Y-98136009D02*
X66404761Y-98659819D01*
X66880952Y-97993152D02*
X66880952Y-98659819D01*
X66880952Y-98088390D02*
X66928571Y-98040771D01*
X66928571Y-98040771D02*
X67023809Y-97993152D01*
X67023809Y-97993152D02*
X67166666Y-97993152D01*
X67166666Y-97993152D02*
X67261904Y-98040771D01*
X67261904Y-98040771D02*
X67309523Y-98136009D01*
X67309523Y-98136009D02*
X67309523Y-98659819D01*
X68214285Y-98659819D02*
X68214285Y-98136009D01*
X68214285Y-98136009D02*
X68166666Y-98040771D01*
X68166666Y-98040771D02*
X68071428Y-97993152D01*
X68071428Y-97993152D02*
X67880952Y-97993152D01*
X67880952Y-97993152D02*
X67785714Y-98040771D01*
X68214285Y-98612200D02*
X68119047Y-98659819D01*
X68119047Y-98659819D02*
X67880952Y-98659819D01*
X67880952Y-98659819D02*
X67785714Y-98612200D01*
X67785714Y-98612200D02*
X67738095Y-98516961D01*
X67738095Y-98516961D02*
X67738095Y-98421723D01*
X67738095Y-98421723D02*
X67785714Y-98326485D01*
X67785714Y-98326485D02*
X67880952Y-98278866D01*
X67880952Y-98278866D02*
X68119047Y-98278866D01*
X68119047Y-98278866D02*
X68214285Y-98231247D01*
X69404762Y-98374104D02*
X69880952Y-98374104D01*
X69309524Y-98659819D02*
X69642857Y-97659819D01*
X69642857Y-97659819D02*
X69976190Y-98659819D01*
X70309524Y-98659819D02*
X70309524Y-97993152D01*
X70309524Y-98183628D02*
X70357143Y-98088390D01*
X70357143Y-98088390D02*
X70404762Y-98040771D01*
X70404762Y-98040771D02*
X70500000Y-97993152D01*
X70500000Y-97993152D02*
X70595238Y-97993152D01*
X71309524Y-98612200D02*
X71214286Y-98659819D01*
X71214286Y-98659819D02*
X71023810Y-98659819D01*
X71023810Y-98659819D02*
X70928572Y-98612200D01*
X70928572Y-98612200D02*
X70880953Y-98516961D01*
X70880953Y-98516961D02*
X70880953Y-98136009D01*
X70880953Y-98136009D02*
X70928572Y-98040771D01*
X70928572Y-98040771D02*
X71023810Y-97993152D01*
X71023810Y-97993152D02*
X71214286Y-97993152D01*
X71214286Y-97993152D02*
X71309524Y-98040771D01*
X71309524Y-98040771D02*
X71357143Y-98136009D01*
X71357143Y-98136009D02*
X71357143Y-98231247D01*
X71357143Y-98231247D02*
X70880953Y-98326485D01*
X72214286Y-98659819D02*
X72214286Y-98136009D01*
X72214286Y-98136009D02*
X72166667Y-98040771D01*
X72166667Y-98040771D02*
X72071429Y-97993152D01*
X72071429Y-97993152D02*
X71880953Y-97993152D01*
X71880953Y-97993152D02*
X71785715Y-98040771D01*
X72214286Y-98612200D02*
X72119048Y-98659819D01*
X72119048Y-98659819D02*
X71880953Y-98659819D01*
X71880953Y-98659819D02*
X71785715Y-98612200D01*
X71785715Y-98612200D02*
X71738096Y-98516961D01*
X71738096Y-98516961D02*
X71738096Y-98421723D01*
X71738096Y-98421723D02*
X71785715Y-98326485D01*
X71785715Y-98326485D02*
X71880953Y-98278866D01*
X71880953Y-98278866D02*
X72119048Y-98278866D01*
X72119048Y-98278866D02*
X72214286Y-98231247D01*
X50265904Y-85045180D02*
X50265904Y-84235657D01*
X50265904Y-84235657D02*
X50218285Y-84140419D01*
X50218285Y-84140419D02*
X50170666Y-84092800D01*
X50170666Y-84092800D02*
X50075428Y-84045180D01*
X50075428Y-84045180D02*
X49884952Y-84045180D01*
X49884952Y-84045180D02*
X49789714Y-84092800D01*
X49789714Y-84092800D02*
X49742095Y-84140419D01*
X49742095Y-84140419D02*
X49694476Y-84235657D01*
X49694476Y-84235657D02*
X49694476Y-85045180D01*
X49170666Y-84045180D02*
X48980190Y-84045180D01*
X48980190Y-84045180D02*
X48884952Y-84092800D01*
X48884952Y-84092800D02*
X48837333Y-84140419D01*
X48837333Y-84140419D02*
X48742095Y-84283276D01*
X48742095Y-84283276D02*
X48694476Y-84473752D01*
X48694476Y-84473752D02*
X48694476Y-84854704D01*
X48694476Y-84854704D02*
X48742095Y-84949942D01*
X48742095Y-84949942D02*
X48789714Y-84997561D01*
X48789714Y-84997561D02*
X48884952Y-85045180D01*
X48884952Y-85045180D02*
X49075428Y-85045180D01*
X49075428Y-85045180D02*
X49170666Y-84997561D01*
X49170666Y-84997561D02*
X49218285Y-84949942D01*
X49218285Y-84949942D02*
X49265904Y-84854704D01*
X49265904Y-84854704D02*
X49265904Y-84616609D01*
X49265904Y-84616609D02*
X49218285Y-84521371D01*
X49218285Y-84521371D02*
X49170666Y-84473752D01*
X49170666Y-84473752D02*
X49075428Y-84426133D01*
X49075428Y-84426133D02*
X48884952Y-84426133D01*
X48884952Y-84426133D02*
X48789714Y-84473752D01*
X48789714Y-84473752D02*
X48742095Y-84521371D01*
X48742095Y-84521371D02*
X48694476Y-84616609D01*
X114977200Y-143801428D02*
X115024819Y-143658571D01*
X115024819Y-143658571D02*
X115024819Y-143420476D01*
X115024819Y-143420476D02*
X114977200Y-143325238D01*
X114977200Y-143325238D02*
X114929580Y-143277619D01*
X114929580Y-143277619D02*
X114834342Y-143230000D01*
X114834342Y-143230000D02*
X114739104Y-143230000D01*
X114739104Y-143230000D02*
X114643866Y-143277619D01*
X114643866Y-143277619D02*
X114596247Y-143325238D01*
X114596247Y-143325238D02*
X114548628Y-143420476D01*
X114548628Y-143420476D02*
X114501009Y-143610952D01*
X114501009Y-143610952D02*
X114453390Y-143706190D01*
X114453390Y-143706190D02*
X114405771Y-143753809D01*
X114405771Y-143753809D02*
X114310533Y-143801428D01*
X114310533Y-143801428D02*
X114215295Y-143801428D01*
X114215295Y-143801428D02*
X114120057Y-143753809D01*
X114120057Y-143753809D02*
X114072438Y-143706190D01*
X114072438Y-143706190D02*
X114024819Y-143610952D01*
X114024819Y-143610952D02*
X114024819Y-143372857D01*
X114024819Y-143372857D02*
X114072438Y-143230000D01*
X115024819Y-142277619D02*
X115024819Y-142849047D01*
X115024819Y-142563333D02*
X114024819Y-142563333D01*
X114024819Y-142563333D02*
X114167676Y-142658571D01*
X114167676Y-142658571D02*
X114262914Y-142753809D01*
X114262914Y-142753809D02*
X114310533Y-142849047D01*
X115120057Y-142087143D02*
X115120057Y-141325238D01*
X114929580Y-140515714D02*
X114977200Y-140563333D01*
X114977200Y-140563333D02*
X115024819Y-140706190D01*
X115024819Y-140706190D02*
X115024819Y-140801428D01*
X115024819Y-140801428D02*
X114977200Y-140944285D01*
X114977200Y-140944285D02*
X114881961Y-141039523D01*
X114881961Y-141039523D02*
X114786723Y-141087142D01*
X114786723Y-141087142D02*
X114596247Y-141134761D01*
X114596247Y-141134761D02*
X114453390Y-141134761D01*
X114453390Y-141134761D02*
X114262914Y-141087142D01*
X114262914Y-141087142D02*
X114167676Y-141039523D01*
X114167676Y-141039523D02*
X114072438Y-140944285D01*
X114072438Y-140944285D02*
X114024819Y-140801428D01*
X114024819Y-140801428D02*
X114024819Y-140706190D01*
X114024819Y-140706190D02*
X114072438Y-140563333D01*
X114072438Y-140563333D02*
X114120057Y-140515714D01*
X115024819Y-139944285D02*
X114977200Y-140039523D01*
X114977200Y-140039523D02*
X114929580Y-140087142D01*
X114929580Y-140087142D02*
X114834342Y-140134761D01*
X114834342Y-140134761D02*
X114548628Y-140134761D01*
X114548628Y-140134761D02*
X114453390Y-140087142D01*
X114453390Y-140087142D02*
X114405771Y-140039523D01*
X114405771Y-140039523D02*
X114358152Y-139944285D01*
X114358152Y-139944285D02*
X114358152Y-139801428D01*
X114358152Y-139801428D02*
X114405771Y-139706190D01*
X114405771Y-139706190D02*
X114453390Y-139658571D01*
X114453390Y-139658571D02*
X114548628Y-139610952D01*
X114548628Y-139610952D02*
X114834342Y-139610952D01*
X114834342Y-139610952D02*
X114929580Y-139658571D01*
X114929580Y-139658571D02*
X114977200Y-139706190D01*
X114977200Y-139706190D02*
X115024819Y-139801428D01*
X115024819Y-139801428D02*
X115024819Y-139944285D01*
X115024819Y-139182380D02*
X114358152Y-139182380D01*
X114453390Y-139182380D02*
X114405771Y-139134761D01*
X114405771Y-139134761D02*
X114358152Y-139039523D01*
X114358152Y-139039523D02*
X114358152Y-138896666D01*
X114358152Y-138896666D02*
X114405771Y-138801428D01*
X114405771Y-138801428D02*
X114501009Y-138753809D01*
X114501009Y-138753809D02*
X115024819Y-138753809D01*
X114501009Y-138753809D02*
X114405771Y-138706190D01*
X114405771Y-138706190D02*
X114358152Y-138610952D01*
X114358152Y-138610952D02*
X114358152Y-138468095D01*
X114358152Y-138468095D02*
X114405771Y-138372856D01*
X114405771Y-138372856D02*
X114501009Y-138325237D01*
X114501009Y-138325237D02*
X115024819Y-138325237D01*
X114358152Y-137849047D02*
X115358152Y-137849047D01*
X114405771Y-137849047D02*
X114358152Y-137753809D01*
X114358152Y-137753809D02*
X114358152Y-137563333D01*
X114358152Y-137563333D02*
X114405771Y-137468095D01*
X114405771Y-137468095D02*
X114453390Y-137420476D01*
X114453390Y-137420476D02*
X114548628Y-137372857D01*
X114548628Y-137372857D02*
X114834342Y-137372857D01*
X114834342Y-137372857D02*
X114929580Y-137420476D01*
X114929580Y-137420476D02*
X114977200Y-137468095D01*
X114977200Y-137468095D02*
X115024819Y-137563333D01*
X115024819Y-137563333D02*
X115024819Y-137753809D01*
X115024819Y-137753809D02*
X114977200Y-137849047D01*
X115120057Y-137182381D02*
X115120057Y-136420476D01*
X114024819Y-135991904D02*
X114024819Y-135896666D01*
X114024819Y-135896666D02*
X114072438Y-135801428D01*
X114072438Y-135801428D02*
X114120057Y-135753809D01*
X114120057Y-135753809D02*
X114215295Y-135706190D01*
X114215295Y-135706190D02*
X114405771Y-135658571D01*
X114405771Y-135658571D02*
X114643866Y-135658571D01*
X114643866Y-135658571D02*
X114834342Y-135706190D01*
X114834342Y-135706190D02*
X114929580Y-135753809D01*
X114929580Y-135753809D02*
X114977200Y-135801428D01*
X114977200Y-135801428D02*
X115024819Y-135896666D01*
X115024819Y-135896666D02*
X115024819Y-135991904D01*
X115024819Y-135991904D02*
X114977200Y-136087142D01*
X114977200Y-136087142D02*
X114929580Y-136134761D01*
X114929580Y-136134761D02*
X114834342Y-136182380D01*
X114834342Y-136182380D02*
X114643866Y-136229999D01*
X114643866Y-136229999D02*
X114405771Y-136229999D01*
X114405771Y-136229999D02*
X114215295Y-136182380D01*
X114215295Y-136182380D02*
X114120057Y-136134761D01*
X114120057Y-136134761D02*
X114072438Y-136087142D01*
X114072438Y-136087142D02*
X114024819Y-135991904D01*
X67391905Y-59394819D02*
X67391905Y-58394819D01*
X67391905Y-58394819D02*
X67630000Y-58394819D01*
X67630000Y-58394819D02*
X67772857Y-58442438D01*
X67772857Y-58442438D02*
X67868095Y-58537676D01*
X67868095Y-58537676D02*
X67915714Y-58632914D01*
X67915714Y-58632914D02*
X67963333Y-58823390D01*
X67963333Y-58823390D02*
X67963333Y-58966247D01*
X67963333Y-58966247D02*
X67915714Y-59156723D01*
X67915714Y-59156723D02*
X67868095Y-59251961D01*
X67868095Y-59251961D02*
X67772857Y-59347200D01*
X67772857Y-59347200D02*
X67630000Y-59394819D01*
X67630000Y-59394819D02*
X67391905Y-59394819D01*
X68534762Y-58823390D02*
X68439524Y-58775771D01*
X68439524Y-58775771D02*
X68391905Y-58728152D01*
X68391905Y-58728152D02*
X68344286Y-58632914D01*
X68344286Y-58632914D02*
X68344286Y-58585295D01*
X68344286Y-58585295D02*
X68391905Y-58490057D01*
X68391905Y-58490057D02*
X68439524Y-58442438D01*
X68439524Y-58442438D02*
X68534762Y-58394819D01*
X68534762Y-58394819D02*
X68725238Y-58394819D01*
X68725238Y-58394819D02*
X68820476Y-58442438D01*
X68820476Y-58442438D02*
X68868095Y-58490057D01*
X68868095Y-58490057D02*
X68915714Y-58585295D01*
X68915714Y-58585295D02*
X68915714Y-58632914D01*
X68915714Y-58632914D02*
X68868095Y-58728152D01*
X68868095Y-58728152D02*
X68820476Y-58775771D01*
X68820476Y-58775771D02*
X68725238Y-58823390D01*
X68725238Y-58823390D02*
X68534762Y-58823390D01*
X68534762Y-58823390D02*
X68439524Y-58871009D01*
X68439524Y-58871009D02*
X68391905Y-58918628D01*
X68391905Y-58918628D02*
X68344286Y-59013866D01*
X68344286Y-59013866D02*
X68344286Y-59204342D01*
X68344286Y-59204342D02*
X68391905Y-59299580D01*
X68391905Y-59299580D02*
X68439524Y-59347200D01*
X68439524Y-59347200D02*
X68534762Y-59394819D01*
X68534762Y-59394819D02*
X68725238Y-59394819D01*
X68725238Y-59394819D02*
X68820476Y-59347200D01*
X68820476Y-59347200D02*
X68868095Y-59299580D01*
X68868095Y-59299580D02*
X68915714Y-59204342D01*
X68915714Y-59204342D02*
X68915714Y-59013866D01*
X68915714Y-59013866D02*
X68868095Y-58918628D01*
X68868095Y-58918628D02*
X68820476Y-58871009D01*
X68820476Y-58871009D02*
X68725238Y-58823390D01*
X70954819Y-82942857D02*
X70478628Y-83276190D01*
X70954819Y-83514285D02*
X69954819Y-83514285D01*
X69954819Y-83514285D02*
X69954819Y-83133333D01*
X69954819Y-83133333D02*
X70002438Y-83038095D01*
X70002438Y-83038095D02*
X70050057Y-82990476D01*
X70050057Y-82990476D02*
X70145295Y-82942857D01*
X70145295Y-82942857D02*
X70288152Y-82942857D01*
X70288152Y-82942857D02*
X70383390Y-82990476D01*
X70383390Y-82990476D02*
X70431009Y-83038095D01*
X70431009Y-83038095D02*
X70478628Y-83133333D01*
X70478628Y-83133333D02*
X70478628Y-83514285D01*
X70954819Y-81990476D02*
X70954819Y-82561904D01*
X70954819Y-82276190D02*
X69954819Y-82276190D01*
X69954819Y-82276190D02*
X70097676Y-82371428D01*
X70097676Y-82371428D02*
X70192914Y-82466666D01*
X70192914Y-82466666D02*
X70240533Y-82561904D01*
X70050057Y-81609523D02*
X70002438Y-81561904D01*
X70002438Y-81561904D02*
X69954819Y-81466666D01*
X69954819Y-81466666D02*
X69954819Y-81228571D01*
X69954819Y-81228571D02*
X70002438Y-81133333D01*
X70002438Y-81133333D02*
X70050057Y-81085714D01*
X70050057Y-81085714D02*
X70145295Y-81038095D01*
X70145295Y-81038095D02*
X70240533Y-81038095D01*
X70240533Y-81038095D02*
X70383390Y-81085714D01*
X70383390Y-81085714D02*
X70954819Y-81657142D01*
X70954819Y-81657142D02*
X70954819Y-81038095D01*
X55077200Y-158801428D02*
X55124819Y-158658571D01*
X55124819Y-158658571D02*
X55124819Y-158420476D01*
X55124819Y-158420476D02*
X55077200Y-158325238D01*
X55077200Y-158325238D02*
X55029580Y-158277619D01*
X55029580Y-158277619D02*
X54934342Y-158230000D01*
X54934342Y-158230000D02*
X54839104Y-158230000D01*
X54839104Y-158230000D02*
X54743866Y-158277619D01*
X54743866Y-158277619D02*
X54696247Y-158325238D01*
X54696247Y-158325238D02*
X54648628Y-158420476D01*
X54648628Y-158420476D02*
X54601009Y-158610952D01*
X54601009Y-158610952D02*
X54553390Y-158706190D01*
X54553390Y-158706190D02*
X54505771Y-158753809D01*
X54505771Y-158753809D02*
X54410533Y-158801428D01*
X54410533Y-158801428D02*
X54315295Y-158801428D01*
X54315295Y-158801428D02*
X54220057Y-158753809D01*
X54220057Y-158753809D02*
X54172438Y-158706190D01*
X54172438Y-158706190D02*
X54124819Y-158610952D01*
X54124819Y-158610952D02*
X54124819Y-158372857D01*
X54124819Y-158372857D02*
X54172438Y-158230000D01*
X54124819Y-157610952D02*
X54124819Y-157515714D01*
X54124819Y-157515714D02*
X54172438Y-157420476D01*
X54172438Y-157420476D02*
X54220057Y-157372857D01*
X54220057Y-157372857D02*
X54315295Y-157325238D01*
X54315295Y-157325238D02*
X54505771Y-157277619D01*
X54505771Y-157277619D02*
X54743866Y-157277619D01*
X54743866Y-157277619D02*
X54934342Y-157325238D01*
X54934342Y-157325238D02*
X55029580Y-157372857D01*
X55029580Y-157372857D02*
X55077200Y-157420476D01*
X55077200Y-157420476D02*
X55124819Y-157515714D01*
X55124819Y-157515714D02*
X55124819Y-157610952D01*
X55124819Y-157610952D02*
X55077200Y-157706190D01*
X55077200Y-157706190D02*
X55029580Y-157753809D01*
X55029580Y-157753809D02*
X54934342Y-157801428D01*
X54934342Y-157801428D02*
X54743866Y-157849047D01*
X54743866Y-157849047D02*
X54505771Y-157849047D01*
X54505771Y-157849047D02*
X54315295Y-157801428D01*
X54315295Y-157801428D02*
X54220057Y-157753809D01*
X54220057Y-157753809D02*
X54172438Y-157706190D01*
X54172438Y-157706190D02*
X54124819Y-157610952D01*
X55220057Y-157087143D02*
X55220057Y-156325238D01*
X55029580Y-155515714D02*
X55077200Y-155563333D01*
X55077200Y-155563333D02*
X55124819Y-155706190D01*
X55124819Y-155706190D02*
X55124819Y-155801428D01*
X55124819Y-155801428D02*
X55077200Y-155944285D01*
X55077200Y-155944285D02*
X54981961Y-156039523D01*
X54981961Y-156039523D02*
X54886723Y-156087142D01*
X54886723Y-156087142D02*
X54696247Y-156134761D01*
X54696247Y-156134761D02*
X54553390Y-156134761D01*
X54553390Y-156134761D02*
X54362914Y-156087142D01*
X54362914Y-156087142D02*
X54267676Y-156039523D01*
X54267676Y-156039523D02*
X54172438Y-155944285D01*
X54172438Y-155944285D02*
X54124819Y-155801428D01*
X54124819Y-155801428D02*
X54124819Y-155706190D01*
X54124819Y-155706190D02*
X54172438Y-155563333D01*
X54172438Y-155563333D02*
X54220057Y-155515714D01*
X55124819Y-154944285D02*
X55077200Y-155039523D01*
X55077200Y-155039523D02*
X55029580Y-155087142D01*
X55029580Y-155087142D02*
X54934342Y-155134761D01*
X54934342Y-155134761D02*
X54648628Y-155134761D01*
X54648628Y-155134761D02*
X54553390Y-155087142D01*
X54553390Y-155087142D02*
X54505771Y-155039523D01*
X54505771Y-155039523D02*
X54458152Y-154944285D01*
X54458152Y-154944285D02*
X54458152Y-154801428D01*
X54458152Y-154801428D02*
X54505771Y-154706190D01*
X54505771Y-154706190D02*
X54553390Y-154658571D01*
X54553390Y-154658571D02*
X54648628Y-154610952D01*
X54648628Y-154610952D02*
X54934342Y-154610952D01*
X54934342Y-154610952D02*
X55029580Y-154658571D01*
X55029580Y-154658571D02*
X55077200Y-154706190D01*
X55077200Y-154706190D02*
X55124819Y-154801428D01*
X55124819Y-154801428D02*
X55124819Y-154944285D01*
X55124819Y-154182380D02*
X54458152Y-154182380D01*
X54553390Y-154182380D02*
X54505771Y-154134761D01*
X54505771Y-154134761D02*
X54458152Y-154039523D01*
X54458152Y-154039523D02*
X54458152Y-153896666D01*
X54458152Y-153896666D02*
X54505771Y-153801428D01*
X54505771Y-153801428D02*
X54601009Y-153753809D01*
X54601009Y-153753809D02*
X55124819Y-153753809D01*
X54601009Y-153753809D02*
X54505771Y-153706190D01*
X54505771Y-153706190D02*
X54458152Y-153610952D01*
X54458152Y-153610952D02*
X54458152Y-153468095D01*
X54458152Y-153468095D02*
X54505771Y-153372856D01*
X54505771Y-153372856D02*
X54601009Y-153325237D01*
X54601009Y-153325237D02*
X55124819Y-153325237D01*
X54458152Y-152849047D02*
X55458152Y-152849047D01*
X54505771Y-152849047D02*
X54458152Y-152753809D01*
X54458152Y-152753809D02*
X54458152Y-152563333D01*
X54458152Y-152563333D02*
X54505771Y-152468095D01*
X54505771Y-152468095D02*
X54553390Y-152420476D01*
X54553390Y-152420476D02*
X54648628Y-152372857D01*
X54648628Y-152372857D02*
X54934342Y-152372857D01*
X54934342Y-152372857D02*
X55029580Y-152420476D01*
X55029580Y-152420476D02*
X55077200Y-152468095D01*
X55077200Y-152468095D02*
X55124819Y-152563333D01*
X55124819Y-152563333D02*
X55124819Y-152753809D01*
X55124819Y-152753809D02*
X55077200Y-152849047D01*
X55220057Y-152182381D02*
X55220057Y-151420476D01*
X55124819Y-150658571D02*
X55124819Y-151229999D01*
X55124819Y-150944285D02*
X54124819Y-150944285D01*
X54124819Y-150944285D02*
X54267676Y-151039523D01*
X54267676Y-151039523D02*
X54362914Y-151134761D01*
X54362914Y-151134761D02*
X54410533Y-151229999D01*
X66390476Y-50807200D02*
X66533333Y-50854819D01*
X66533333Y-50854819D02*
X66771428Y-50854819D01*
X66771428Y-50854819D02*
X66866666Y-50807200D01*
X66866666Y-50807200D02*
X66914285Y-50759580D01*
X66914285Y-50759580D02*
X66961904Y-50664342D01*
X66961904Y-50664342D02*
X66961904Y-50569104D01*
X66961904Y-50569104D02*
X66914285Y-50473866D01*
X66914285Y-50473866D02*
X66866666Y-50426247D01*
X66866666Y-50426247D02*
X66771428Y-50378628D01*
X66771428Y-50378628D02*
X66580952Y-50331009D01*
X66580952Y-50331009D02*
X66485714Y-50283390D01*
X66485714Y-50283390D02*
X66438095Y-50235771D01*
X66438095Y-50235771D02*
X66390476Y-50140533D01*
X66390476Y-50140533D02*
X66390476Y-50045295D01*
X66390476Y-50045295D02*
X66438095Y-49950057D01*
X66438095Y-49950057D02*
X66485714Y-49902438D01*
X66485714Y-49902438D02*
X66580952Y-49854819D01*
X66580952Y-49854819D02*
X66819047Y-49854819D01*
X66819047Y-49854819D02*
X66961904Y-49902438D01*
X67295238Y-49854819D02*
X67533333Y-50854819D01*
X67533333Y-50854819D02*
X67723809Y-50140533D01*
X67723809Y-50140533D02*
X67914285Y-50854819D01*
X67914285Y-50854819D02*
X68152381Y-49854819D01*
X69057142Y-50854819D02*
X68485714Y-50854819D01*
X68771428Y-50854819D02*
X68771428Y-49854819D01*
X68771428Y-49854819D02*
X68676190Y-49997676D01*
X68676190Y-49997676D02*
X68580952Y-50092914D01*
X68580952Y-50092914D02*
X68485714Y-50140533D01*
X69676190Y-49854819D02*
X69771428Y-49854819D01*
X69771428Y-49854819D02*
X69866666Y-49902438D01*
X69866666Y-49902438D02*
X69914285Y-49950057D01*
X69914285Y-49950057D02*
X69961904Y-50045295D01*
X69961904Y-50045295D02*
X70009523Y-50235771D01*
X70009523Y-50235771D02*
X70009523Y-50473866D01*
X70009523Y-50473866D02*
X69961904Y-50664342D01*
X69961904Y-50664342D02*
X69914285Y-50759580D01*
X69914285Y-50759580D02*
X69866666Y-50807200D01*
X69866666Y-50807200D02*
X69771428Y-50854819D01*
X69771428Y-50854819D02*
X69676190Y-50854819D01*
X69676190Y-50854819D02*
X69580952Y-50807200D01*
X69580952Y-50807200D02*
X69533333Y-50759580D01*
X69533333Y-50759580D02*
X69485714Y-50664342D01*
X69485714Y-50664342D02*
X69438095Y-50473866D01*
X69438095Y-50473866D02*
X69438095Y-50235771D01*
X69438095Y-50235771D02*
X69485714Y-50045295D01*
X69485714Y-50045295D02*
X69533333Y-49950057D01*
X69533333Y-49950057D02*
X69580952Y-49902438D01*
X69580952Y-49902438D02*
X69676190Y-49854819D01*
X83856667Y-98907200D02*
X83999524Y-98954819D01*
X83999524Y-98954819D02*
X84237619Y-98954819D01*
X84237619Y-98954819D02*
X84332857Y-98907200D01*
X84332857Y-98907200D02*
X84380476Y-98859580D01*
X84380476Y-98859580D02*
X84428095Y-98764342D01*
X84428095Y-98764342D02*
X84428095Y-98669104D01*
X84428095Y-98669104D02*
X84380476Y-98573866D01*
X84380476Y-98573866D02*
X84332857Y-98526247D01*
X84332857Y-98526247D02*
X84237619Y-98478628D01*
X84237619Y-98478628D02*
X84047143Y-98431009D01*
X84047143Y-98431009D02*
X83951905Y-98383390D01*
X83951905Y-98383390D02*
X83904286Y-98335771D01*
X83904286Y-98335771D02*
X83856667Y-98240533D01*
X83856667Y-98240533D02*
X83856667Y-98145295D01*
X83856667Y-98145295D02*
X83904286Y-98050057D01*
X83904286Y-98050057D02*
X83951905Y-98002438D01*
X83951905Y-98002438D02*
X84047143Y-97954819D01*
X84047143Y-97954819D02*
X84285238Y-97954819D01*
X84285238Y-97954819D02*
X84428095Y-98002438D01*
X84761429Y-97954819D02*
X84999524Y-98954819D01*
X84999524Y-98954819D02*
X85190000Y-98240533D01*
X85190000Y-98240533D02*
X85380476Y-98954819D01*
X85380476Y-98954819D02*
X85618572Y-97954819D01*
X86428095Y-98288152D02*
X86428095Y-98954819D01*
X86190000Y-97907200D02*
X85951905Y-98621485D01*
X85951905Y-98621485D02*
X86570952Y-98621485D01*
X83916667Y-90157200D02*
X84059524Y-90204819D01*
X84059524Y-90204819D02*
X84297619Y-90204819D01*
X84297619Y-90204819D02*
X84392857Y-90157200D01*
X84392857Y-90157200D02*
X84440476Y-90109580D01*
X84440476Y-90109580D02*
X84488095Y-90014342D01*
X84488095Y-90014342D02*
X84488095Y-89919104D01*
X84488095Y-89919104D02*
X84440476Y-89823866D01*
X84440476Y-89823866D02*
X84392857Y-89776247D01*
X84392857Y-89776247D02*
X84297619Y-89728628D01*
X84297619Y-89728628D02*
X84107143Y-89681009D01*
X84107143Y-89681009D02*
X84011905Y-89633390D01*
X84011905Y-89633390D02*
X83964286Y-89585771D01*
X83964286Y-89585771D02*
X83916667Y-89490533D01*
X83916667Y-89490533D02*
X83916667Y-89395295D01*
X83916667Y-89395295D02*
X83964286Y-89300057D01*
X83964286Y-89300057D02*
X84011905Y-89252438D01*
X84011905Y-89252438D02*
X84107143Y-89204819D01*
X84107143Y-89204819D02*
X84345238Y-89204819D01*
X84345238Y-89204819D02*
X84488095Y-89252438D01*
X84821429Y-89204819D02*
X85059524Y-90204819D01*
X85059524Y-90204819D02*
X85250000Y-89490533D01*
X85250000Y-89490533D02*
X85440476Y-90204819D01*
X85440476Y-90204819D02*
X85678572Y-89204819D01*
X85964286Y-89204819D02*
X86583333Y-89204819D01*
X86583333Y-89204819D02*
X86250000Y-89585771D01*
X86250000Y-89585771D02*
X86392857Y-89585771D01*
X86392857Y-89585771D02*
X86488095Y-89633390D01*
X86488095Y-89633390D02*
X86535714Y-89681009D01*
X86535714Y-89681009D02*
X86583333Y-89776247D01*
X86583333Y-89776247D02*
X86583333Y-90014342D01*
X86583333Y-90014342D02*
X86535714Y-90109580D01*
X86535714Y-90109580D02*
X86488095Y-90157200D01*
X86488095Y-90157200D02*
X86392857Y-90204819D01*
X86392857Y-90204819D02*
X86107143Y-90204819D01*
X86107143Y-90204819D02*
X86011905Y-90157200D01*
X86011905Y-90157200D02*
X85964286Y-90109580D01*
X134356667Y-91407200D02*
X134499524Y-91454819D01*
X134499524Y-91454819D02*
X134737619Y-91454819D01*
X134737619Y-91454819D02*
X134832857Y-91407200D01*
X134832857Y-91407200D02*
X134880476Y-91359580D01*
X134880476Y-91359580D02*
X134928095Y-91264342D01*
X134928095Y-91264342D02*
X134928095Y-91169104D01*
X134928095Y-91169104D02*
X134880476Y-91073866D01*
X134880476Y-91073866D02*
X134832857Y-91026247D01*
X134832857Y-91026247D02*
X134737619Y-90978628D01*
X134737619Y-90978628D02*
X134547143Y-90931009D01*
X134547143Y-90931009D02*
X134451905Y-90883390D01*
X134451905Y-90883390D02*
X134404286Y-90835771D01*
X134404286Y-90835771D02*
X134356667Y-90740533D01*
X134356667Y-90740533D02*
X134356667Y-90645295D01*
X134356667Y-90645295D02*
X134404286Y-90550057D01*
X134404286Y-90550057D02*
X134451905Y-90502438D01*
X134451905Y-90502438D02*
X134547143Y-90454819D01*
X134547143Y-90454819D02*
X134785238Y-90454819D01*
X134785238Y-90454819D02*
X134928095Y-90502438D01*
X135261429Y-90454819D02*
X135499524Y-91454819D01*
X135499524Y-91454819D02*
X135690000Y-90740533D01*
X135690000Y-90740533D02*
X135880476Y-91454819D01*
X135880476Y-91454819D02*
X136118572Y-90454819D01*
X136975714Y-90454819D02*
X136499524Y-90454819D01*
X136499524Y-90454819D02*
X136451905Y-90931009D01*
X136451905Y-90931009D02*
X136499524Y-90883390D01*
X136499524Y-90883390D02*
X136594762Y-90835771D01*
X136594762Y-90835771D02*
X136832857Y-90835771D01*
X136832857Y-90835771D02*
X136928095Y-90883390D01*
X136928095Y-90883390D02*
X136975714Y-90931009D01*
X136975714Y-90931009D02*
X137023333Y-91026247D01*
X137023333Y-91026247D02*
X137023333Y-91264342D01*
X137023333Y-91264342D02*
X136975714Y-91359580D01*
X136975714Y-91359580D02*
X136928095Y-91407200D01*
X136928095Y-91407200D02*
X136832857Y-91454819D01*
X136832857Y-91454819D02*
X136594762Y-91454819D01*
X136594762Y-91454819D02*
X136499524Y-91407200D01*
X136499524Y-91407200D02*
X136451905Y-91359580D01*
X127157142Y-85159580D02*
X127109523Y-85207200D01*
X127109523Y-85207200D02*
X126966666Y-85254819D01*
X126966666Y-85254819D02*
X126871428Y-85254819D01*
X126871428Y-85254819D02*
X126728571Y-85207200D01*
X126728571Y-85207200D02*
X126633333Y-85111961D01*
X126633333Y-85111961D02*
X126585714Y-85016723D01*
X126585714Y-85016723D02*
X126538095Y-84826247D01*
X126538095Y-84826247D02*
X126538095Y-84683390D01*
X126538095Y-84683390D02*
X126585714Y-84492914D01*
X126585714Y-84492914D02*
X126633333Y-84397676D01*
X126633333Y-84397676D02*
X126728571Y-84302438D01*
X126728571Y-84302438D02*
X126871428Y-84254819D01*
X126871428Y-84254819D02*
X126966666Y-84254819D01*
X126966666Y-84254819D02*
X127109523Y-84302438D01*
X127109523Y-84302438D02*
X127157142Y-84350057D01*
X127538095Y-84350057D02*
X127585714Y-84302438D01*
X127585714Y-84302438D02*
X127680952Y-84254819D01*
X127680952Y-84254819D02*
X127919047Y-84254819D01*
X127919047Y-84254819D02*
X128014285Y-84302438D01*
X128014285Y-84302438D02*
X128061904Y-84350057D01*
X128061904Y-84350057D02*
X128109523Y-84445295D01*
X128109523Y-84445295D02*
X128109523Y-84540533D01*
X128109523Y-84540533D02*
X128061904Y-84683390D01*
X128061904Y-84683390D02*
X127490476Y-85254819D01*
X127490476Y-85254819D02*
X128109523Y-85254819D01*
X128966666Y-84254819D02*
X128776190Y-84254819D01*
X128776190Y-84254819D02*
X128680952Y-84302438D01*
X128680952Y-84302438D02*
X128633333Y-84350057D01*
X128633333Y-84350057D02*
X128538095Y-84492914D01*
X128538095Y-84492914D02*
X128490476Y-84683390D01*
X128490476Y-84683390D02*
X128490476Y-85064342D01*
X128490476Y-85064342D02*
X128538095Y-85159580D01*
X128538095Y-85159580D02*
X128585714Y-85207200D01*
X128585714Y-85207200D02*
X128680952Y-85254819D01*
X128680952Y-85254819D02*
X128871428Y-85254819D01*
X128871428Y-85254819D02*
X128966666Y-85207200D01*
X128966666Y-85207200D02*
X129014285Y-85159580D01*
X129014285Y-85159580D02*
X129061904Y-85064342D01*
X129061904Y-85064342D02*
X129061904Y-84826247D01*
X129061904Y-84826247D02*
X129014285Y-84731009D01*
X129014285Y-84731009D02*
X128966666Y-84683390D01*
X128966666Y-84683390D02*
X128871428Y-84635771D01*
X128871428Y-84635771D02*
X128680952Y-84635771D01*
X128680952Y-84635771D02*
X128585714Y-84683390D01*
X128585714Y-84683390D02*
X128538095Y-84731009D01*
X128538095Y-84731009D02*
X128490476Y-84826247D01*
X121778811Y-91725057D02*
X121683573Y-91677438D01*
X121683573Y-91677438D02*
X121588335Y-91582200D01*
X121588335Y-91582200D02*
X121445478Y-91439342D01*
X121445478Y-91439342D02*
X121350240Y-91391723D01*
X121350240Y-91391723D02*
X121255002Y-91391723D01*
X121302621Y-91629819D02*
X121207383Y-91582200D01*
X121207383Y-91582200D02*
X121112145Y-91486961D01*
X121112145Y-91486961D02*
X121064526Y-91296485D01*
X121064526Y-91296485D02*
X121064526Y-90963152D01*
X121064526Y-90963152D02*
X121112145Y-90772676D01*
X121112145Y-90772676D02*
X121207383Y-90677438D01*
X121207383Y-90677438D02*
X121302621Y-90629819D01*
X121302621Y-90629819D02*
X121493097Y-90629819D01*
X121493097Y-90629819D02*
X121588335Y-90677438D01*
X121588335Y-90677438D02*
X121683573Y-90772676D01*
X121683573Y-90772676D02*
X121731192Y-90963152D01*
X121731192Y-90963152D02*
X121731192Y-91296485D01*
X121731192Y-91296485D02*
X121683573Y-91486961D01*
X121683573Y-91486961D02*
X121588335Y-91582200D01*
X121588335Y-91582200D02*
X121493097Y-91629819D01*
X121493097Y-91629819D02*
X121302621Y-91629819D01*
X122588335Y-90629819D02*
X122397859Y-90629819D01*
X122397859Y-90629819D02*
X122302621Y-90677438D01*
X122302621Y-90677438D02*
X122255002Y-90725057D01*
X122255002Y-90725057D02*
X122159764Y-90867914D01*
X122159764Y-90867914D02*
X122112145Y-91058390D01*
X122112145Y-91058390D02*
X122112145Y-91439342D01*
X122112145Y-91439342D02*
X122159764Y-91534580D01*
X122159764Y-91534580D02*
X122207383Y-91582200D01*
X122207383Y-91582200D02*
X122302621Y-91629819D01*
X122302621Y-91629819D02*
X122493097Y-91629819D01*
X122493097Y-91629819D02*
X122588335Y-91582200D01*
X122588335Y-91582200D02*
X122635954Y-91534580D01*
X122635954Y-91534580D02*
X122683573Y-91439342D01*
X122683573Y-91439342D02*
X122683573Y-91201247D01*
X122683573Y-91201247D02*
X122635954Y-91106009D01*
X122635954Y-91106009D02*
X122588335Y-91058390D01*
X122588335Y-91058390D02*
X122493097Y-91010771D01*
X122493097Y-91010771D02*
X122302621Y-91010771D01*
X122302621Y-91010771D02*
X122207383Y-91058390D01*
X122207383Y-91058390D02*
X122159764Y-91106009D01*
X122159764Y-91106009D02*
X122112145Y-91201247D01*
X40957142Y-88404819D02*
X40623809Y-87928628D01*
X40385714Y-88404819D02*
X40385714Y-87404819D01*
X40385714Y-87404819D02*
X40766666Y-87404819D01*
X40766666Y-87404819D02*
X40861904Y-87452438D01*
X40861904Y-87452438D02*
X40909523Y-87500057D01*
X40909523Y-87500057D02*
X40957142Y-87595295D01*
X40957142Y-87595295D02*
X40957142Y-87738152D01*
X40957142Y-87738152D02*
X40909523Y-87833390D01*
X40909523Y-87833390D02*
X40861904Y-87881009D01*
X40861904Y-87881009D02*
X40766666Y-87928628D01*
X40766666Y-87928628D02*
X40385714Y-87928628D01*
X41909523Y-88404819D02*
X41338095Y-88404819D01*
X41623809Y-88404819D02*
X41623809Y-87404819D01*
X41623809Y-87404819D02*
X41528571Y-87547676D01*
X41528571Y-87547676D02*
X41433333Y-87642914D01*
X41433333Y-87642914D02*
X41338095Y-87690533D01*
X42242857Y-87404819D02*
X42861904Y-87404819D01*
X42861904Y-87404819D02*
X42528571Y-87785771D01*
X42528571Y-87785771D02*
X42671428Y-87785771D01*
X42671428Y-87785771D02*
X42766666Y-87833390D01*
X42766666Y-87833390D02*
X42814285Y-87881009D01*
X42814285Y-87881009D02*
X42861904Y-87976247D01*
X42861904Y-87976247D02*
X42861904Y-88214342D01*
X42861904Y-88214342D02*
X42814285Y-88309580D01*
X42814285Y-88309580D02*
X42766666Y-88357200D01*
X42766666Y-88357200D02*
X42671428Y-88404819D01*
X42671428Y-88404819D02*
X42385714Y-88404819D01*
X42385714Y-88404819D02*
X42290476Y-88357200D01*
X42290476Y-88357200D02*
X42242857Y-88309580D01*
X42084819Y-30818094D02*
X41084819Y-30818094D01*
X41084819Y-30818094D02*
X41084819Y-30579999D01*
X41084819Y-30579999D02*
X41132438Y-30437142D01*
X41132438Y-30437142D02*
X41227676Y-30341904D01*
X41227676Y-30341904D02*
X41322914Y-30294285D01*
X41322914Y-30294285D02*
X41513390Y-30246666D01*
X41513390Y-30246666D02*
X41656247Y-30246666D01*
X41656247Y-30246666D02*
X41846723Y-30294285D01*
X41846723Y-30294285D02*
X41941961Y-30341904D01*
X41941961Y-30341904D02*
X42037200Y-30437142D01*
X42037200Y-30437142D02*
X42084819Y-30579999D01*
X42084819Y-30579999D02*
X42084819Y-30818094D01*
X41084819Y-29913332D02*
X41084819Y-29294285D01*
X41084819Y-29294285D02*
X41465771Y-29627618D01*
X41465771Y-29627618D02*
X41465771Y-29484761D01*
X41465771Y-29484761D02*
X41513390Y-29389523D01*
X41513390Y-29389523D02*
X41561009Y-29341904D01*
X41561009Y-29341904D02*
X41656247Y-29294285D01*
X41656247Y-29294285D02*
X41894342Y-29294285D01*
X41894342Y-29294285D02*
X41989580Y-29341904D01*
X41989580Y-29341904D02*
X42037200Y-29389523D01*
X42037200Y-29389523D02*
X42084819Y-29484761D01*
X42084819Y-29484761D02*
X42084819Y-29770475D01*
X42084819Y-29770475D02*
X42037200Y-29865713D01*
X42037200Y-29865713D02*
X41989580Y-29913332D01*
X42454819Y-35421904D02*
X41454819Y-35421904D01*
X42454819Y-34850476D02*
X41883390Y-35279047D01*
X41454819Y-34850476D02*
X42026247Y-35421904D01*
X55077200Y-173801428D02*
X55124819Y-173658571D01*
X55124819Y-173658571D02*
X55124819Y-173420476D01*
X55124819Y-173420476D02*
X55077200Y-173325238D01*
X55077200Y-173325238D02*
X55029580Y-173277619D01*
X55029580Y-173277619D02*
X54934342Y-173230000D01*
X54934342Y-173230000D02*
X54839104Y-173230000D01*
X54839104Y-173230000D02*
X54743866Y-173277619D01*
X54743866Y-173277619D02*
X54696247Y-173325238D01*
X54696247Y-173325238D02*
X54648628Y-173420476D01*
X54648628Y-173420476D02*
X54601009Y-173610952D01*
X54601009Y-173610952D02*
X54553390Y-173706190D01*
X54553390Y-173706190D02*
X54505771Y-173753809D01*
X54505771Y-173753809D02*
X54410533Y-173801428D01*
X54410533Y-173801428D02*
X54315295Y-173801428D01*
X54315295Y-173801428D02*
X54220057Y-173753809D01*
X54220057Y-173753809D02*
X54172438Y-173706190D01*
X54172438Y-173706190D02*
X54124819Y-173610952D01*
X54124819Y-173610952D02*
X54124819Y-173372857D01*
X54124819Y-173372857D02*
X54172438Y-173230000D01*
X54124819Y-172610952D02*
X54124819Y-172515714D01*
X54124819Y-172515714D02*
X54172438Y-172420476D01*
X54172438Y-172420476D02*
X54220057Y-172372857D01*
X54220057Y-172372857D02*
X54315295Y-172325238D01*
X54315295Y-172325238D02*
X54505771Y-172277619D01*
X54505771Y-172277619D02*
X54743866Y-172277619D01*
X54743866Y-172277619D02*
X54934342Y-172325238D01*
X54934342Y-172325238D02*
X55029580Y-172372857D01*
X55029580Y-172372857D02*
X55077200Y-172420476D01*
X55077200Y-172420476D02*
X55124819Y-172515714D01*
X55124819Y-172515714D02*
X55124819Y-172610952D01*
X55124819Y-172610952D02*
X55077200Y-172706190D01*
X55077200Y-172706190D02*
X55029580Y-172753809D01*
X55029580Y-172753809D02*
X54934342Y-172801428D01*
X54934342Y-172801428D02*
X54743866Y-172849047D01*
X54743866Y-172849047D02*
X54505771Y-172849047D01*
X54505771Y-172849047D02*
X54315295Y-172801428D01*
X54315295Y-172801428D02*
X54220057Y-172753809D01*
X54220057Y-172753809D02*
X54172438Y-172706190D01*
X54172438Y-172706190D02*
X54124819Y-172610952D01*
X55220057Y-172087143D02*
X55220057Y-171325238D01*
X55029580Y-170515714D02*
X55077200Y-170563333D01*
X55077200Y-170563333D02*
X55124819Y-170706190D01*
X55124819Y-170706190D02*
X55124819Y-170801428D01*
X55124819Y-170801428D02*
X55077200Y-170944285D01*
X55077200Y-170944285D02*
X54981961Y-171039523D01*
X54981961Y-171039523D02*
X54886723Y-171087142D01*
X54886723Y-171087142D02*
X54696247Y-171134761D01*
X54696247Y-171134761D02*
X54553390Y-171134761D01*
X54553390Y-171134761D02*
X54362914Y-171087142D01*
X54362914Y-171087142D02*
X54267676Y-171039523D01*
X54267676Y-171039523D02*
X54172438Y-170944285D01*
X54172438Y-170944285D02*
X54124819Y-170801428D01*
X54124819Y-170801428D02*
X54124819Y-170706190D01*
X54124819Y-170706190D02*
X54172438Y-170563333D01*
X54172438Y-170563333D02*
X54220057Y-170515714D01*
X55124819Y-169944285D02*
X55077200Y-170039523D01*
X55077200Y-170039523D02*
X55029580Y-170087142D01*
X55029580Y-170087142D02*
X54934342Y-170134761D01*
X54934342Y-170134761D02*
X54648628Y-170134761D01*
X54648628Y-170134761D02*
X54553390Y-170087142D01*
X54553390Y-170087142D02*
X54505771Y-170039523D01*
X54505771Y-170039523D02*
X54458152Y-169944285D01*
X54458152Y-169944285D02*
X54458152Y-169801428D01*
X54458152Y-169801428D02*
X54505771Y-169706190D01*
X54505771Y-169706190D02*
X54553390Y-169658571D01*
X54553390Y-169658571D02*
X54648628Y-169610952D01*
X54648628Y-169610952D02*
X54934342Y-169610952D01*
X54934342Y-169610952D02*
X55029580Y-169658571D01*
X55029580Y-169658571D02*
X55077200Y-169706190D01*
X55077200Y-169706190D02*
X55124819Y-169801428D01*
X55124819Y-169801428D02*
X55124819Y-169944285D01*
X55124819Y-169182380D02*
X54458152Y-169182380D01*
X54553390Y-169182380D02*
X54505771Y-169134761D01*
X54505771Y-169134761D02*
X54458152Y-169039523D01*
X54458152Y-169039523D02*
X54458152Y-168896666D01*
X54458152Y-168896666D02*
X54505771Y-168801428D01*
X54505771Y-168801428D02*
X54601009Y-168753809D01*
X54601009Y-168753809D02*
X55124819Y-168753809D01*
X54601009Y-168753809D02*
X54505771Y-168706190D01*
X54505771Y-168706190D02*
X54458152Y-168610952D01*
X54458152Y-168610952D02*
X54458152Y-168468095D01*
X54458152Y-168468095D02*
X54505771Y-168372856D01*
X54505771Y-168372856D02*
X54601009Y-168325237D01*
X54601009Y-168325237D02*
X55124819Y-168325237D01*
X54458152Y-167849047D02*
X55458152Y-167849047D01*
X54505771Y-167849047D02*
X54458152Y-167753809D01*
X54458152Y-167753809D02*
X54458152Y-167563333D01*
X54458152Y-167563333D02*
X54505771Y-167468095D01*
X54505771Y-167468095D02*
X54553390Y-167420476D01*
X54553390Y-167420476D02*
X54648628Y-167372857D01*
X54648628Y-167372857D02*
X54934342Y-167372857D01*
X54934342Y-167372857D02*
X55029580Y-167420476D01*
X55029580Y-167420476D02*
X55077200Y-167468095D01*
X55077200Y-167468095D02*
X55124819Y-167563333D01*
X55124819Y-167563333D02*
X55124819Y-167753809D01*
X55124819Y-167753809D02*
X55077200Y-167849047D01*
X55220057Y-167182381D02*
X55220057Y-166420476D01*
X54220057Y-166229999D02*
X54172438Y-166182380D01*
X54172438Y-166182380D02*
X54124819Y-166087142D01*
X54124819Y-166087142D02*
X54124819Y-165849047D01*
X54124819Y-165849047D02*
X54172438Y-165753809D01*
X54172438Y-165753809D02*
X54220057Y-165706190D01*
X54220057Y-165706190D02*
X54315295Y-165658571D01*
X54315295Y-165658571D02*
X54410533Y-165658571D01*
X54410533Y-165658571D02*
X54553390Y-165706190D01*
X54553390Y-165706190D02*
X55124819Y-166277618D01*
X55124819Y-166277618D02*
X55124819Y-165658571D01*
X115944819Y-83317857D02*
X115468628Y-83651190D01*
X115944819Y-83889285D02*
X114944819Y-83889285D01*
X114944819Y-83889285D02*
X114944819Y-83508333D01*
X114944819Y-83508333D02*
X114992438Y-83413095D01*
X114992438Y-83413095D02*
X115040057Y-83365476D01*
X115040057Y-83365476D02*
X115135295Y-83317857D01*
X115135295Y-83317857D02*
X115278152Y-83317857D01*
X115278152Y-83317857D02*
X115373390Y-83365476D01*
X115373390Y-83365476D02*
X115421009Y-83413095D01*
X115421009Y-83413095D02*
X115468628Y-83508333D01*
X115468628Y-83508333D02*
X115468628Y-83889285D01*
X115944819Y-82365476D02*
X115944819Y-82936904D01*
X115944819Y-82651190D02*
X114944819Y-82651190D01*
X114944819Y-82651190D02*
X115087676Y-82746428D01*
X115087676Y-82746428D02*
X115182914Y-82841666D01*
X115182914Y-82841666D02*
X115230533Y-82936904D01*
X115944819Y-81889285D02*
X115944819Y-81698809D01*
X115944819Y-81698809D02*
X115897200Y-81603571D01*
X115897200Y-81603571D02*
X115849580Y-81555952D01*
X115849580Y-81555952D02*
X115706723Y-81460714D01*
X115706723Y-81460714D02*
X115516247Y-81413095D01*
X115516247Y-81413095D02*
X115135295Y-81413095D01*
X115135295Y-81413095D02*
X115040057Y-81460714D01*
X115040057Y-81460714D02*
X114992438Y-81508333D01*
X114992438Y-81508333D02*
X114944819Y-81603571D01*
X114944819Y-81603571D02*
X114944819Y-81794047D01*
X114944819Y-81794047D02*
X114992438Y-81889285D01*
X114992438Y-81889285D02*
X115040057Y-81936904D01*
X115040057Y-81936904D02*
X115135295Y-81984523D01*
X115135295Y-81984523D02*
X115373390Y-81984523D01*
X115373390Y-81984523D02*
X115468628Y-81936904D01*
X115468628Y-81936904D02*
X115516247Y-81889285D01*
X115516247Y-81889285D02*
X115563866Y-81794047D01*
X115563866Y-81794047D02*
X115563866Y-81603571D01*
X115563866Y-81603571D02*
X115516247Y-81508333D01*
X115516247Y-81508333D02*
X115468628Y-81460714D01*
X115468628Y-81460714D02*
X115373390Y-81413095D01*
X50431905Y-49414819D02*
X50431905Y-48414819D01*
X50431905Y-48414819D02*
X50670000Y-48414819D01*
X50670000Y-48414819D02*
X50812857Y-48462438D01*
X50812857Y-48462438D02*
X50908095Y-48557676D01*
X50908095Y-48557676D02*
X50955714Y-48652914D01*
X50955714Y-48652914D02*
X51003333Y-48843390D01*
X51003333Y-48843390D02*
X51003333Y-48986247D01*
X51003333Y-48986247D02*
X50955714Y-49176723D01*
X50955714Y-49176723D02*
X50908095Y-49271961D01*
X50908095Y-49271961D02*
X50812857Y-49367200D01*
X50812857Y-49367200D02*
X50670000Y-49414819D01*
X50670000Y-49414819D02*
X50431905Y-49414819D01*
X51955714Y-49414819D02*
X51384286Y-49414819D01*
X51670000Y-49414819D02*
X51670000Y-48414819D01*
X51670000Y-48414819D02*
X51574762Y-48557676D01*
X51574762Y-48557676D02*
X51479524Y-48652914D01*
X51479524Y-48652914D02*
X51384286Y-48700533D01*
X116098095Y-94262200D02*
X116240952Y-94309819D01*
X116240952Y-94309819D02*
X116479047Y-94309819D01*
X116479047Y-94309819D02*
X116574285Y-94262200D01*
X116574285Y-94262200D02*
X116621904Y-94214580D01*
X116621904Y-94214580D02*
X116669523Y-94119342D01*
X116669523Y-94119342D02*
X116669523Y-94024104D01*
X116669523Y-94024104D02*
X116621904Y-93928866D01*
X116621904Y-93928866D02*
X116574285Y-93881247D01*
X116574285Y-93881247D02*
X116479047Y-93833628D01*
X116479047Y-93833628D02*
X116288571Y-93786009D01*
X116288571Y-93786009D02*
X116193333Y-93738390D01*
X116193333Y-93738390D02*
X116145714Y-93690771D01*
X116145714Y-93690771D02*
X116098095Y-93595533D01*
X116098095Y-93595533D02*
X116098095Y-93500295D01*
X116098095Y-93500295D02*
X116145714Y-93405057D01*
X116145714Y-93405057D02*
X116193333Y-93357438D01*
X116193333Y-93357438D02*
X116288571Y-93309819D01*
X116288571Y-93309819D02*
X116526666Y-93309819D01*
X116526666Y-93309819D02*
X116669523Y-93357438D01*
X117621904Y-94309819D02*
X117050476Y-94309819D01*
X117336190Y-94309819D02*
X117336190Y-93309819D01*
X117336190Y-93309819D02*
X117240952Y-93452676D01*
X117240952Y-93452676D02*
X117145714Y-93547914D01*
X117145714Y-93547914D02*
X117050476Y-93595533D01*
X112738094Y-98374104D02*
X113214284Y-98374104D01*
X112642856Y-98659819D02*
X112976189Y-97659819D01*
X112976189Y-97659819D02*
X113309522Y-98659819D01*
X113642856Y-97993152D02*
X113642856Y-98659819D01*
X113642856Y-98088390D02*
X113690475Y-98040771D01*
X113690475Y-98040771D02*
X113785713Y-97993152D01*
X113785713Y-97993152D02*
X113928570Y-97993152D01*
X113928570Y-97993152D02*
X114023808Y-98040771D01*
X114023808Y-98040771D02*
X114071427Y-98136009D01*
X114071427Y-98136009D02*
X114071427Y-98659819D01*
X114404761Y-97993152D02*
X114785713Y-97993152D01*
X114547618Y-97659819D02*
X114547618Y-98516961D01*
X114547618Y-98516961D02*
X114595237Y-98612200D01*
X114595237Y-98612200D02*
X114690475Y-98659819D01*
X114690475Y-98659819D02*
X114785713Y-98659819D01*
X115499999Y-98612200D02*
X115404761Y-98659819D01*
X115404761Y-98659819D02*
X115214285Y-98659819D01*
X115214285Y-98659819D02*
X115119047Y-98612200D01*
X115119047Y-98612200D02*
X115071428Y-98516961D01*
X115071428Y-98516961D02*
X115071428Y-98136009D01*
X115071428Y-98136009D02*
X115119047Y-98040771D01*
X115119047Y-98040771D02*
X115214285Y-97993152D01*
X115214285Y-97993152D02*
X115404761Y-97993152D01*
X115404761Y-97993152D02*
X115499999Y-98040771D01*
X115499999Y-98040771D02*
X115547618Y-98136009D01*
X115547618Y-98136009D02*
X115547618Y-98231247D01*
X115547618Y-98231247D02*
X115071428Y-98326485D01*
X115976190Y-97993152D02*
X115976190Y-98659819D01*
X115976190Y-98088390D02*
X116023809Y-98040771D01*
X116023809Y-98040771D02*
X116119047Y-97993152D01*
X116119047Y-97993152D02*
X116261904Y-97993152D01*
X116261904Y-97993152D02*
X116357142Y-98040771D01*
X116357142Y-98040771D02*
X116404761Y-98136009D01*
X116404761Y-98136009D02*
X116404761Y-98659819D01*
X116880952Y-97993152D02*
X116880952Y-98659819D01*
X116880952Y-98088390D02*
X116928571Y-98040771D01*
X116928571Y-98040771D02*
X117023809Y-97993152D01*
X117023809Y-97993152D02*
X117166666Y-97993152D01*
X117166666Y-97993152D02*
X117261904Y-98040771D01*
X117261904Y-98040771D02*
X117309523Y-98136009D01*
X117309523Y-98136009D02*
X117309523Y-98659819D01*
X118214285Y-98659819D02*
X118214285Y-98136009D01*
X118214285Y-98136009D02*
X118166666Y-98040771D01*
X118166666Y-98040771D02*
X118071428Y-97993152D01*
X118071428Y-97993152D02*
X117880952Y-97993152D01*
X117880952Y-97993152D02*
X117785714Y-98040771D01*
X118214285Y-98612200D02*
X118119047Y-98659819D01*
X118119047Y-98659819D02*
X117880952Y-98659819D01*
X117880952Y-98659819D02*
X117785714Y-98612200D01*
X117785714Y-98612200D02*
X117738095Y-98516961D01*
X117738095Y-98516961D02*
X117738095Y-98421723D01*
X117738095Y-98421723D02*
X117785714Y-98326485D01*
X117785714Y-98326485D02*
X117880952Y-98278866D01*
X117880952Y-98278866D02*
X118119047Y-98278866D01*
X118119047Y-98278866D02*
X118214285Y-98231247D01*
X119404762Y-98374104D02*
X119880952Y-98374104D01*
X119309524Y-98659819D02*
X119642857Y-97659819D01*
X119642857Y-97659819D02*
X119976190Y-98659819D01*
X120309524Y-98659819D02*
X120309524Y-97993152D01*
X120309524Y-98183628D02*
X120357143Y-98088390D01*
X120357143Y-98088390D02*
X120404762Y-98040771D01*
X120404762Y-98040771D02*
X120500000Y-97993152D01*
X120500000Y-97993152D02*
X120595238Y-97993152D01*
X121309524Y-98612200D02*
X121214286Y-98659819D01*
X121214286Y-98659819D02*
X121023810Y-98659819D01*
X121023810Y-98659819D02*
X120928572Y-98612200D01*
X120928572Y-98612200D02*
X120880953Y-98516961D01*
X120880953Y-98516961D02*
X120880953Y-98136009D01*
X120880953Y-98136009D02*
X120928572Y-98040771D01*
X120928572Y-98040771D02*
X121023810Y-97993152D01*
X121023810Y-97993152D02*
X121214286Y-97993152D01*
X121214286Y-97993152D02*
X121309524Y-98040771D01*
X121309524Y-98040771D02*
X121357143Y-98136009D01*
X121357143Y-98136009D02*
X121357143Y-98231247D01*
X121357143Y-98231247D02*
X120880953Y-98326485D01*
X122214286Y-98659819D02*
X122214286Y-98136009D01*
X122214286Y-98136009D02*
X122166667Y-98040771D01*
X122166667Y-98040771D02*
X122071429Y-97993152D01*
X122071429Y-97993152D02*
X121880953Y-97993152D01*
X121880953Y-97993152D02*
X121785715Y-98040771D01*
X122214286Y-98612200D02*
X122119048Y-98659819D01*
X122119048Y-98659819D02*
X121880953Y-98659819D01*
X121880953Y-98659819D02*
X121785715Y-98612200D01*
X121785715Y-98612200D02*
X121738096Y-98516961D01*
X121738096Y-98516961D02*
X121738096Y-98421723D01*
X121738096Y-98421723D02*
X121785715Y-98326485D01*
X121785715Y-98326485D02*
X121880953Y-98278866D01*
X121880953Y-98278866D02*
X122119048Y-98278866D01*
X122119048Y-98278866D02*
X122214286Y-98231247D01*
X55759580Y-82655357D02*
X55807200Y-82702976D01*
X55807200Y-82702976D02*
X55854819Y-82845833D01*
X55854819Y-82845833D02*
X55854819Y-82941071D01*
X55854819Y-82941071D02*
X55807200Y-83083928D01*
X55807200Y-83083928D02*
X55711961Y-83179166D01*
X55711961Y-83179166D02*
X55616723Y-83226785D01*
X55616723Y-83226785D02*
X55426247Y-83274404D01*
X55426247Y-83274404D02*
X55283390Y-83274404D01*
X55283390Y-83274404D02*
X55092914Y-83226785D01*
X55092914Y-83226785D02*
X54997676Y-83179166D01*
X54997676Y-83179166D02*
X54902438Y-83083928D01*
X54902438Y-83083928D02*
X54854819Y-82941071D01*
X54854819Y-82941071D02*
X54854819Y-82845833D01*
X54854819Y-82845833D02*
X54902438Y-82702976D01*
X54902438Y-82702976D02*
X54950057Y-82655357D01*
X55854819Y-81702976D02*
X55854819Y-82274404D01*
X55854819Y-81988690D02*
X54854819Y-81988690D01*
X54854819Y-81988690D02*
X54997676Y-82083928D01*
X54997676Y-82083928D02*
X55092914Y-82179166D01*
X55092914Y-82179166D02*
X55140533Y-82274404D01*
X55283390Y-81131547D02*
X55235771Y-81226785D01*
X55235771Y-81226785D02*
X55188152Y-81274404D01*
X55188152Y-81274404D02*
X55092914Y-81322023D01*
X55092914Y-81322023D02*
X55045295Y-81322023D01*
X55045295Y-81322023D02*
X54950057Y-81274404D01*
X54950057Y-81274404D02*
X54902438Y-81226785D01*
X54902438Y-81226785D02*
X54854819Y-81131547D01*
X54854819Y-81131547D02*
X54854819Y-80941071D01*
X54854819Y-80941071D02*
X54902438Y-80845833D01*
X54902438Y-80845833D02*
X54950057Y-80798214D01*
X54950057Y-80798214D02*
X55045295Y-80750595D01*
X55045295Y-80750595D02*
X55092914Y-80750595D01*
X55092914Y-80750595D02*
X55188152Y-80798214D01*
X55188152Y-80798214D02*
X55235771Y-80845833D01*
X55235771Y-80845833D02*
X55283390Y-80941071D01*
X55283390Y-80941071D02*
X55283390Y-81131547D01*
X55283390Y-81131547D02*
X55331009Y-81226785D01*
X55331009Y-81226785D02*
X55378628Y-81274404D01*
X55378628Y-81274404D02*
X55473866Y-81322023D01*
X55473866Y-81322023D02*
X55664342Y-81322023D01*
X55664342Y-81322023D02*
X55759580Y-81274404D01*
X55759580Y-81274404D02*
X55807200Y-81226785D01*
X55807200Y-81226785D02*
X55854819Y-81131547D01*
X55854819Y-81131547D02*
X55854819Y-80941071D01*
X55854819Y-80941071D02*
X55807200Y-80845833D01*
X55807200Y-80845833D02*
X55759580Y-80798214D01*
X55759580Y-80798214D02*
X55664342Y-80750595D01*
X55664342Y-80750595D02*
X55473866Y-80750595D01*
X55473866Y-80750595D02*
X55378628Y-80798214D01*
X55378628Y-80798214D02*
X55331009Y-80845833D01*
X55331009Y-80845833D02*
X55283390Y-80941071D01*
X141807200Y-104533332D02*
X141854819Y-104390475D01*
X141854819Y-104390475D02*
X141854819Y-104152380D01*
X141854819Y-104152380D02*
X141807200Y-104057142D01*
X141807200Y-104057142D02*
X141759580Y-104009523D01*
X141759580Y-104009523D02*
X141664342Y-103961904D01*
X141664342Y-103961904D02*
X141569104Y-103961904D01*
X141569104Y-103961904D02*
X141473866Y-104009523D01*
X141473866Y-104009523D02*
X141426247Y-104057142D01*
X141426247Y-104057142D02*
X141378628Y-104152380D01*
X141378628Y-104152380D02*
X141331009Y-104342856D01*
X141331009Y-104342856D02*
X141283390Y-104438094D01*
X141283390Y-104438094D02*
X141235771Y-104485713D01*
X141235771Y-104485713D02*
X141140533Y-104533332D01*
X141140533Y-104533332D02*
X141045295Y-104533332D01*
X141045295Y-104533332D02*
X140950057Y-104485713D01*
X140950057Y-104485713D02*
X140902438Y-104438094D01*
X140902438Y-104438094D02*
X140854819Y-104342856D01*
X140854819Y-104342856D02*
X140854819Y-104104761D01*
X140854819Y-104104761D02*
X140902438Y-103961904D01*
X140854819Y-103628570D02*
X141854819Y-103390475D01*
X141854819Y-103390475D02*
X141140533Y-103199999D01*
X141140533Y-103199999D02*
X141854819Y-103009523D01*
X141854819Y-103009523D02*
X140854819Y-102771428D01*
X140854819Y-101961904D02*
X140854819Y-102152380D01*
X140854819Y-102152380D02*
X140902438Y-102247618D01*
X140902438Y-102247618D02*
X140950057Y-102295237D01*
X140950057Y-102295237D02*
X141092914Y-102390475D01*
X141092914Y-102390475D02*
X141283390Y-102438094D01*
X141283390Y-102438094D02*
X141664342Y-102438094D01*
X141664342Y-102438094D02*
X141759580Y-102390475D01*
X141759580Y-102390475D02*
X141807200Y-102342856D01*
X141807200Y-102342856D02*
X141854819Y-102247618D01*
X141854819Y-102247618D02*
X141854819Y-102057142D01*
X141854819Y-102057142D02*
X141807200Y-101961904D01*
X141807200Y-101961904D02*
X141759580Y-101914285D01*
X141759580Y-101914285D02*
X141664342Y-101866666D01*
X141664342Y-101866666D02*
X141426247Y-101866666D01*
X141426247Y-101866666D02*
X141331009Y-101914285D01*
X141331009Y-101914285D02*
X141283390Y-101961904D01*
X141283390Y-101961904D02*
X141235771Y-102057142D01*
X141235771Y-102057142D02*
X141235771Y-102247618D01*
X141235771Y-102247618D02*
X141283390Y-102342856D01*
X141283390Y-102342856D02*
X141331009Y-102390475D01*
X141331009Y-102390475D02*
X141426247Y-102438094D01*
X94916667Y-104407200D02*
X95059524Y-104454819D01*
X95059524Y-104454819D02*
X95297619Y-104454819D01*
X95297619Y-104454819D02*
X95392857Y-104407200D01*
X95392857Y-104407200D02*
X95440476Y-104359580D01*
X95440476Y-104359580D02*
X95488095Y-104264342D01*
X95488095Y-104264342D02*
X95488095Y-104169104D01*
X95488095Y-104169104D02*
X95440476Y-104073866D01*
X95440476Y-104073866D02*
X95392857Y-104026247D01*
X95392857Y-104026247D02*
X95297619Y-103978628D01*
X95297619Y-103978628D02*
X95107143Y-103931009D01*
X95107143Y-103931009D02*
X95011905Y-103883390D01*
X95011905Y-103883390D02*
X94964286Y-103835771D01*
X94964286Y-103835771D02*
X94916667Y-103740533D01*
X94916667Y-103740533D02*
X94916667Y-103645295D01*
X94916667Y-103645295D02*
X94964286Y-103550057D01*
X94964286Y-103550057D02*
X95011905Y-103502438D01*
X95011905Y-103502438D02*
X95107143Y-103454819D01*
X95107143Y-103454819D02*
X95345238Y-103454819D01*
X95345238Y-103454819D02*
X95488095Y-103502438D01*
X95821429Y-103454819D02*
X96059524Y-104454819D01*
X96059524Y-104454819D02*
X96250000Y-103740533D01*
X96250000Y-103740533D02*
X96440476Y-104454819D01*
X96440476Y-104454819D02*
X96678572Y-103454819D01*
X96964286Y-103454819D02*
X97630952Y-103454819D01*
X97630952Y-103454819D02*
X97202381Y-104454819D01*
X95285714Y-114494819D02*
X95285714Y-113494819D01*
X95285714Y-113494819D02*
X95523809Y-113494819D01*
X95523809Y-113494819D02*
X95666666Y-113542438D01*
X95666666Y-113542438D02*
X95761904Y-113637676D01*
X95761904Y-113637676D02*
X95809523Y-113732914D01*
X95809523Y-113732914D02*
X95857142Y-113923390D01*
X95857142Y-113923390D02*
X95857142Y-114066247D01*
X95857142Y-114066247D02*
X95809523Y-114256723D01*
X95809523Y-114256723D02*
X95761904Y-114351961D01*
X95761904Y-114351961D02*
X95666666Y-114447200D01*
X95666666Y-114447200D02*
X95523809Y-114494819D01*
X95523809Y-114494819D02*
X95285714Y-114494819D01*
X96809523Y-114494819D02*
X96238095Y-114494819D01*
X96523809Y-114494819D02*
X96523809Y-113494819D01*
X96523809Y-113494819D02*
X96428571Y-113637676D01*
X96428571Y-113637676D02*
X96333333Y-113732914D01*
X96333333Y-113732914D02*
X96238095Y-113780533D01*
X97428571Y-113494819D02*
X97523809Y-113494819D01*
X97523809Y-113494819D02*
X97619047Y-113542438D01*
X97619047Y-113542438D02*
X97666666Y-113590057D01*
X97666666Y-113590057D02*
X97714285Y-113685295D01*
X97714285Y-113685295D02*
X97761904Y-113875771D01*
X97761904Y-113875771D02*
X97761904Y-114113866D01*
X97761904Y-114113866D02*
X97714285Y-114304342D01*
X97714285Y-114304342D02*
X97666666Y-114399580D01*
X97666666Y-114399580D02*
X97619047Y-114447200D01*
X97619047Y-114447200D02*
X97523809Y-114494819D01*
X97523809Y-114494819D02*
X97428571Y-114494819D01*
X97428571Y-114494819D02*
X97333333Y-114447200D01*
X97333333Y-114447200D02*
X97285714Y-114399580D01*
X97285714Y-114399580D02*
X97238095Y-114304342D01*
X97238095Y-114304342D02*
X97190476Y-114113866D01*
X97190476Y-114113866D02*
X97190476Y-113875771D01*
X97190476Y-113875771D02*
X97238095Y-113685295D01*
X97238095Y-113685295D02*
X97285714Y-113590057D01*
X97285714Y-113590057D02*
X97333333Y-113542438D01*
X97333333Y-113542438D02*
X97428571Y-113494819D01*
X43788095Y-63454819D02*
X43788095Y-64264342D01*
X43788095Y-64264342D02*
X43835714Y-64359580D01*
X43835714Y-64359580D02*
X43883333Y-64407200D01*
X43883333Y-64407200D02*
X43978571Y-64454819D01*
X43978571Y-64454819D02*
X44169047Y-64454819D01*
X44169047Y-64454819D02*
X44264285Y-64407200D01*
X44264285Y-64407200D02*
X44311904Y-64359580D01*
X44311904Y-64359580D02*
X44359523Y-64264342D01*
X44359523Y-64264342D02*
X44359523Y-63454819D01*
X44788095Y-63550057D02*
X44835714Y-63502438D01*
X44835714Y-63502438D02*
X44930952Y-63454819D01*
X44930952Y-63454819D02*
X45169047Y-63454819D01*
X45169047Y-63454819D02*
X45264285Y-63502438D01*
X45264285Y-63502438D02*
X45311904Y-63550057D01*
X45311904Y-63550057D02*
X45359523Y-63645295D01*
X45359523Y-63645295D02*
X45359523Y-63740533D01*
X45359523Y-63740533D02*
X45311904Y-63883390D01*
X45311904Y-63883390D02*
X44740476Y-64454819D01*
X44740476Y-64454819D02*
X45359523Y-64454819D01*
X80679761Y-34500057D02*
X80584523Y-34452438D01*
X80584523Y-34452438D02*
X80489285Y-34357200D01*
X80489285Y-34357200D02*
X80346428Y-34214342D01*
X80346428Y-34214342D02*
X80251190Y-34166723D01*
X80251190Y-34166723D02*
X80155952Y-34166723D01*
X80203571Y-34404819D02*
X80108333Y-34357200D01*
X80108333Y-34357200D02*
X80013095Y-34261961D01*
X80013095Y-34261961D02*
X79965476Y-34071485D01*
X79965476Y-34071485D02*
X79965476Y-33738152D01*
X79965476Y-33738152D02*
X80013095Y-33547676D01*
X80013095Y-33547676D02*
X80108333Y-33452438D01*
X80108333Y-33452438D02*
X80203571Y-33404819D01*
X80203571Y-33404819D02*
X80394047Y-33404819D01*
X80394047Y-33404819D02*
X80489285Y-33452438D01*
X80489285Y-33452438D02*
X80584523Y-33547676D01*
X80584523Y-33547676D02*
X80632142Y-33738152D01*
X80632142Y-33738152D02*
X80632142Y-34071485D01*
X80632142Y-34071485D02*
X80584523Y-34261961D01*
X80584523Y-34261961D02*
X80489285Y-34357200D01*
X80489285Y-34357200D02*
X80394047Y-34404819D01*
X80394047Y-34404819D02*
X80203571Y-34404819D01*
X81584523Y-34404819D02*
X81013095Y-34404819D01*
X81298809Y-34404819D02*
X81298809Y-33404819D01*
X81298809Y-33404819D02*
X81203571Y-33547676D01*
X81203571Y-33547676D02*
X81108333Y-33642914D01*
X81108333Y-33642914D02*
X81013095Y-33690533D01*
X114977200Y-158801428D02*
X115024819Y-158658571D01*
X115024819Y-158658571D02*
X115024819Y-158420476D01*
X115024819Y-158420476D02*
X114977200Y-158325238D01*
X114977200Y-158325238D02*
X114929580Y-158277619D01*
X114929580Y-158277619D02*
X114834342Y-158230000D01*
X114834342Y-158230000D02*
X114739104Y-158230000D01*
X114739104Y-158230000D02*
X114643866Y-158277619D01*
X114643866Y-158277619D02*
X114596247Y-158325238D01*
X114596247Y-158325238D02*
X114548628Y-158420476D01*
X114548628Y-158420476D02*
X114501009Y-158610952D01*
X114501009Y-158610952D02*
X114453390Y-158706190D01*
X114453390Y-158706190D02*
X114405771Y-158753809D01*
X114405771Y-158753809D02*
X114310533Y-158801428D01*
X114310533Y-158801428D02*
X114215295Y-158801428D01*
X114215295Y-158801428D02*
X114120057Y-158753809D01*
X114120057Y-158753809D02*
X114072438Y-158706190D01*
X114072438Y-158706190D02*
X114024819Y-158610952D01*
X114024819Y-158610952D02*
X114024819Y-158372857D01*
X114024819Y-158372857D02*
X114072438Y-158230000D01*
X115024819Y-157277619D02*
X115024819Y-157849047D01*
X115024819Y-157563333D02*
X114024819Y-157563333D01*
X114024819Y-157563333D02*
X114167676Y-157658571D01*
X114167676Y-157658571D02*
X114262914Y-157753809D01*
X114262914Y-157753809D02*
X114310533Y-157849047D01*
X115120057Y-157087143D02*
X115120057Y-156325238D01*
X114929580Y-155515714D02*
X114977200Y-155563333D01*
X114977200Y-155563333D02*
X115024819Y-155706190D01*
X115024819Y-155706190D02*
X115024819Y-155801428D01*
X115024819Y-155801428D02*
X114977200Y-155944285D01*
X114977200Y-155944285D02*
X114881961Y-156039523D01*
X114881961Y-156039523D02*
X114786723Y-156087142D01*
X114786723Y-156087142D02*
X114596247Y-156134761D01*
X114596247Y-156134761D02*
X114453390Y-156134761D01*
X114453390Y-156134761D02*
X114262914Y-156087142D01*
X114262914Y-156087142D02*
X114167676Y-156039523D01*
X114167676Y-156039523D02*
X114072438Y-155944285D01*
X114072438Y-155944285D02*
X114024819Y-155801428D01*
X114024819Y-155801428D02*
X114024819Y-155706190D01*
X114024819Y-155706190D02*
X114072438Y-155563333D01*
X114072438Y-155563333D02*
X114120057Y-155515714D01*
X115024819Y-154944285D02*
X114977200Y-155039523D01*
X114977200Y-155039523D02*
X114929580Y-155087142D01*
X114929580Y-155087142D02*
X114834342Y-155134761D01*
X114834342Y-155134761D02*
X114548628Y-155134761D01*
X114548628Y-155134761D02*
X114453390Y-155087142D01*
X114453390Y-155087142D02*
X114405771Y-155039523D01*
X114405771Y-155039523D02*
X114358152Y-154944285D01*
X114358152Y-154944285D02*
X114358152Y-154801428D01*
X114358152Y-154801428D02*
X114405771Y-154706190D01*
X114405771Y-154706190D02*
X114453390Y-154658571D01*
X114453390Y-154658571D02*
X114548628Y-154610952D01*
X114548628Y-154610952D02*
X114834342Y-154610952D01*
X114834342Y-154610952D02*
X114929580Y-154658571D01*
X114929580Y-154658571D02*
X114977200Y-154706190D01*
X114977200Y-154706190D02*
X115024819Y-154801428D01*
X115024819Y-154801428D02*
X115024819Y-154944285D01*
X115024819Y-154182380D02*
X114358152Y-154182380D01*
X114453390Y-154182380D02*
X114405771Y-154134761D01*
X114405771Y-154134761D02*
X114358152Y-154039523D01*
X114358152Y-154039523D02*
X114358152Y-153896666D01*
X114358152Y-153896666D02*
X114405771Y-153801428D01*
X114405771Y-153801428D02*
X114501009Y-153753809D01*
X114501009Y-153753809D02*
X115024819Y-153753809D01*
X114501009Y-153753809D02*
X114405771Y-153706190D01*
X114405771Y-153706190D02*
X114358152Y-153610952D01*
X114358152Y-153610952D02*
X114358152Y-153468095D01*
X114358152Y-153468095D02*
X114405771Y-153372856D01*
X114405771Y-153372856D02*
X114501009Y-153325237D01*
X114501009Y-153325237D02*
X115024819Y-153325237D01*
X114358152Y-152849047D02*
X115358152Y-152849047D01*
X114405771Y-152849047D02*
X114358152Y-152753809D01*
X114358152Y-152753809D02*
X114358152Y-152563333D01*
X114358152Y-152563333D02*
X114405771Y-152468095D01*
X114405771Y-152468095D02*
X114453390Y-152420476D01*
X114453390Y-152420476D02*
X114548628Y-152372857D01*
X114548628Y-152372857D02*
X114834342Y-152372857D01*
X114834342Y-152372857D02*
X114929580Y-152420476D01*
X114929580Y-152420476D02*
X114977200Y-152468095D01*
X114977200Y-152468095D02*
X115024819Y-152563333D01*
X115024819Y-152563333D02*
X115024819Y-152753809D01*
X115024819Y-152753809D02*
X114977200Y-152849047D01*
X115120057Y-152182381D02*
X115120057Y-151420476D01*
X115024819Y-150658571D02*
X115024819Y-151229999D01*
X115024819Y-150944285D02*
X114024819Y-150944285D01*
X114024819Y-150944285D02*
X114167676Y-151039523D01*
X114167676Y-151039523D02*
X114262914Y-151134761D01*
X114262914Y-151134761D02*
X114310533Y-151229999D01*
X83574819Y-27666666D02*
X83098628Y-27999999D01*
X83574819Y-28238094D02*
X82574819Y-28238094D01*
X82574819Y-28238094D02*
X82574819Y-27857142D01*
X82574819Y-27857142D02*
X82622438Y-27761904D01*
X82622438Y-27761904D02*
X82670057Y-27714285D01*
X82670057Y-27714285D02*
X82765295Y-27666666D01*
X82765295Y-27666666D02*
X82908152Y-27666666D01*
X82908152Y-27666666D02*
X83003390Y-27714285D01*
X83003390Y-27714285D02*
X83051009Y-27761904D01*
X83051009Y-27761904D02*
X83098628Y-27857142D01*
X83098628Y-27857142D02*
X83098628Y-28238094D01*
X82574819Y-26761904D02*
X82574819Y-27238094D01*
X82574819Y-27238094D02*
X83051009Y-27285713D01*
X83051009Y-27285713D02*
X83003390Y-27238094D01*
X83003390Y-27238094D02*
X82955771Y-27142856D01*
X82955771Y-27142856D02*
X82955771Y-26904761D01*
X82955771Y-26904761D02*
X83003390Y-26809523D01*
X83003390Y-26809523D02*
X83051009Y-26761904D01*
X83051009Y-26761904D02*
X83146247Y-26714285D01*
X83146247Y-26714285D02*
X83384342Y-26714285D01*
X83384342Y-26714285D02*
X83479580Y-26761904D01*
X83479580Y-26761904D02*
X83527200Y-26809523D01*
X83527200Y-26809523D02*
X83574819Y-26904761D01*
X83574819Y-26904761D02*
X83574819Y-27142856D01*
X83574819Y-27142856D02*
X83527200Y-27238094D01*
X83527200Y-27238094D02*
X83479580Y-27285713D01*
X89194819Y-117833333D02*
X89909104Y-117833333D01*
X89909104Y-117833333D02*
X90051961Y-117880952D01*
X90051961Y-117880952D02*
X90147200Y-117976190D01*
X90147200Y-117976190D02*
X90194819Y-118119047D01*
X90194819Y-118119047D02*
X90194819Y-118214285D01*
X89623390Y-117214285D02*
X89575771Y-117309523D01*
X89575771Y-117309523D02*
X89528152Y-117357142D01*
X89528152Y-117357142D02*
X89432914Y-117404761D01*
X89432914Y-117404761D02*
X89385295Y-117404761D01*
X89385295Y-117404761D02*
X89290057Y-117357142D01*
X89290057Y-117357142D02*
X89242438Y-117309523D01*
X89242438Y-117309523D02*
X89194819Y-117214285D01*
X89194819Y-117214285D02*
X89194819Y-117023809D01*
X89194819Y-117023809D02*
X89242438Y-116928571D01*
X89242438Y-116928571D02*
X89290057Y-116880952D01*
X89290057Y-116880952D02*
X89385295Y-116833333D01*
X89385295Y-116833333D02*
X89432914Y-116833333D01*
X89432914Y-116833333D02*
X89528152Y-116880952D01*
X89528152Y-116880952D02*
X89575771Y-116928571D01*
X89575771Y-116928571D02*
X89623390Y-117023809D01*
X89623390Y-117023809D02*
X89623390Y-117214285D01*
X89623390Y-117214285D02*
X89671009Y-117309523D01*
X89671009Y-117309523D02*
X89718628Y-117357142D01*
X89718628Y-117357142D02*
X89813866Y-117404761D01*
X89813866Y-117404761D02*
X90004342Y-117404761D01*
X90004342Y-117404761D02*
X90099580Y-117357142D01*
X90099580Y-117357142D02*
X90147200Y-117309523D01*
X90147200Y-117309523D02*
X90194819Y-117214285D01*
X90194819Y-117214285D02*
X90194819Y-117023809D01*
X90194819Y-117023809D02*
X90147200Y-116928571D01*
X90147200Y-116928571D02*
X90099580Y-116880952D01*
X90099580Y-116880952D02*
X90004342Y-116833333D01*
X90004342Y-116833333D02*
X89813866Y-116833333D01*
X89813866Y-116833333D02*
X89718628Y-116880952D01*
X89718628Y-116880952D02*
X89671009Y-116928571D01*
X89671009Y-116928571D02*
X89623390Y-117023809D01*
X137407142Y-86534819D02*
X137073809Y-86058628D01*
X136835714Y-86534819D02*
X136835714Y-85534819D01*
X136835714Y-85534819D02*
X137216666Y-85534819D01*
X137216666Y-85534819D02*
X137311904Y-85582438D01*
X137311904Y-85582438D02*
X137359523Y-85630057D01*
X137359523Y-85630057D02*
X137407142Y-85725295D01*
X137407142Y-85725295D02*
X137407142Y-85868152D01*
X137407142Y-85868152D02*
X137359523Y-85963390D01*
X137359523Y-85963390D02*
X137311904Y-86011009D01*
X137311904Y-86011009D02*
X137216666Y-86058628D01*
X137216666Y-86058628D02*
X136835714Y-86058628D01*
X137788095Y-85630057D02*
X137835714Y-85582438D01*
X137835714Y-85582438D02*
X137930952Y-85534819D01*
X137930952Y-85534819D02*
X138169047Y-85534819D01*
X138169047Y-85534819D02*
X138264285Y-85582438D01*
X138264285Y-85582438D02*
X138311904Y-85630057D01*
X138311904Y-85630057D02*
X138359523Y-85725295D01*
X138359523Y-85725295D02*
X138359523Y-85820533D01*
X138359523Y-85820533D02*
X138311904Y-85963390D01*
X138311904Y-85963390D02*
X137740476Y-86534819D01*
X137740476Y-86534819D02*
X138359523Y-86534819D01*
X139311904Y-86534819D02*
X138740476Y-86534819D01*
X139026190Y-86534819D02*
X139026190Y-85534819D01*
X139026190Y-85534819D02*
X138930952Y-85677676D01*
X138930952Y-85677676D02*
X138835714Y-85772914D01*
X138835714Y-85772914D02*
X138740476Y-85820533D01*
X94733333Y-39509580D02*
X94685714Y-39557200D01*
X94685714Y-39557200D02*
X94542857Y-39604819D01*
X94542857Y-39604819D02*
X94447619Y-39604819D01*
X94447619Y-39604819D02*
X94304762Y-39557200D01*
X94304762Y-39557200D02*
X94209524Y-39461961D01*
X94209524Y-39461961D02*
X94161905Y-39366723D01*
X94161905Y-39366723D02*
X94114286Y-39176247D01*
X94114286Y-39176247D02*
X94114286Y-39033390D01*
X94114286Y-39033390D02*
X94161905Y-38842914D01*
X94161905Y-38842914D02*
X94209524Y-38747676D01*
X94209524Y-38747676D02*
X94304762Y-38652438D01*
X94304762Y-38652438D02*
X94447619Y-38604819D01*
X94447619Y-38604819D02*
X94542857Y-38604819D01*
X94542857Y-38604819D02*
X94685714Y-38652438D01*
X94685714Y-38652438D02*
X94733333Y-38700057D01*
X95209524Y-39604819D02*
X95400000Y-39604819D01*
X95400000Y-39604819D02*
X95495238Y-39557200D01*
X95495238Y-39557200D02*
X95542857Y-39509580D01*
X95542857Y-39509580D02*
X95638095Y-39366723D01*
X95638095Y-39366723D02*
X95685714Y-39176247D01*
X95685714Y-39176247D02*
X95685714Y-38795295D01*
X95685714Y-38795295D02*
X95638095Y-38700057D01*
X95638095Y-38700057D02*
X95590476Y-38652438D01*
X95590476Y-38652438D02*
X95495238Y-38604819D01*
X95495238Y-38604819D02*
X95304762Y-38604819D01*
X95304762Y-38604819D02*
X95209524Y-38652438D01*
X95209524Y-38652438D02*
X95161905Y-38700057D01*
X95161905Y-38700057D02*
X95114286Y-38795295D01*
X95114286Y-38795295D02*
X95114286Y-39033390D01*
X95114286Y-39033390D02*
X95161905Y-39128628D01*
X95161905Y-39128628D02*
X95209524Y-39176247D01*
X95209524Y-39176247D02*
X95304762Y-39223866D01*
X95304762Y-39223866D02*
X95495238Y-39223866D01*
X95495238Y-39223866D02*
X95590476Y-39176247D01*
X95590476Y-39176247D02*
X95638095Y-39128628D01*
X95638095Y-39128628D02*
X95685714Y-39033390D01*
X63059580Y-82042857D02*
X63107200Y-82090476D01*
X63107200Y-82090476D02*
X63154819Y-82233333D01*
X63154819Y-82233333D02*
X63154819Y-82328571D01*
X63154819Y-82328571D02*
X63107200Y-82471428D01*
X63107200Y-82471428D02*
X63011961Y-82566666D01*
X63011961Y-82566666D02*
X62916723Y-82614285D01*
X62916723Y-82614285D02*
X62726247Y-82661904D01*
X62726247Y-82661904D02*
X62583390Y-82661904D01*
X62583390Y-82661904D02*
X62392914Y-82614285D01*
X62392914Y-82614285D02*
X62297676Y-82566666D01*
X62297676Y-82566666D02*
X62202438Y-82471428D01*
X62202438Y-82471428D02*
X62154819Y-82328571D01*
X62154819Y-82328571D02*
X62154819Y-82233333D01*
X62154819Y-82233333D02*
X62202438Y-82090476D01*
X62202438Y-82090476D02*
X62250057Y-82042857D01*
X63154819Y-81090476D02*
X63154819Y-81661904D01*
X63154819Y-81376190D02*
X62154819Y-81376190D01*
X62154819Y-81376190D02*
X62297676Y-81471428D01*
X62297676Y-81471428D02*
X62392914Y-81566666D01*
X62392914Y-81566666D02*
X62440533Y-81661904D01*
X62154819Y-80757142D02*
X62154819Y-80090476D01*
X62154819Y-80090476D02*
X63154819Y-80519047D01*
X77304761Y-40550057D02*
X77209523Y-40502438D01*
X77209523Y-40502438D02*
X77114285Y-40407200D01*
X77114285Y-40407200D02*
X76971428Y-40264342D01*
X76971428Y-40264342D02*
X76876190Y-40216723D01*
X76876190Y-40216723D02*
X76780952Y-40216723D01*
X76828571Y-40454819D02*
X76733333Y-40407200D01*
X76733333Y-40407200D02*
X76638095Y-40311961D01*
X76638095Y-40311961D02*
X76590476Y-40121485D01*
X76590476Y-40121485D02*
X76590476Y-39788152D01*
X76590476Y-39788152D02*
X76638095Y-39597676D01*
X76638095Y-39597676D02*
X76733333Y-39502438D01*
X76733333Y-39502438D02*
X76828571Y-39454819D01*
X76828571Y-39454819D02*
X77019047Y-39454819D01*
X77019047Y-39454819D02*
X77114285Y-39502438D01*
X77114285Y-39502438D02*
X77209523Y-39597676D01*
X77209523Y-39597676D02*
X77257142Y-39788152D01*
X77257142Y-39788152D02*
X77257142Y-40121485D01*
X77257142Y-40121485D02*
X77209523Y-40311961D01*
X77209523Y-40311961D02*
X77114285Y-40407200D01*
X77114285Y-40407200D02*
X77019047Y-40454819D01*
X77019047Y-40454819D02*
X76828571Y-40454819D01*
X77638095Y-39550057D02*
X77685714Y-39502438D01*
X77685714Y-39502438D02*
X77780952Y-39454819D01*
X77780952Y-39454819D02*
X78019047Y-39454819D01*
X78019047Y-39454819D02*
X78114285Y-39502438D01*
X78114285Y-39502438D02*
X78161904Y-39550057D01*
X78161904Y-39550057D02*
X78209523Y-39645295D01*
X78209523Y-39645295D02*
X78209523Y-39740533D01*
X78209523Y-39740533D02*
X78161904Y-39883390D01*
X78161904Y-39883390D02*
X77590476Y-40454819D01*
X77590476Y-40454819D02*
X78209523Y-40454819D01*
X140954819Y-82333333D02*
X141669104Y-82333333D01*
X141669104Y-82333333D02*
X141811961Y-82380952D01*
X141811961Y-82380952D02*
X141907200Y-82476190D01*
X141907200Y-82476190D02*
X141954819Y-82619047D01*
X141954819Y-82619047D02*
X141954819Y-82714285D01*
X141050057Y-81904761D02*
X141002438Y-81857142D01*
X141002438Y-81857142D02*
X140954819Y-81761904D01*
X140954819Y-81761904D02*
X140954819Y-81523809D01*
X140954819Y-81523809D02*
X141002438Y-81428571D01*
X141002438Y-81428571D02*
X141050057Y-81380952D01*
X141050057Y-81380952D02*
X141145295Y-81333333D01*
X141145295Y-81333333D02*
X141240533Y-81333333D01*
X141240533Y-81333333D02*
X141383390Y-81380952D01*
X141383390Y-81380952D02*
X141954819Y-81952380D01*
X141954819Y-81952380D02*
X141954819Y-81333333D01*
X53166666Y-22154819D02*
X53166666Y-22869104D01*
X53166666Y-22869104D02*
X53119047Y-23011961D01*
X53119047Y-23011961D02*
X53023809Y-23107200D01*
X53023809Y-23107200D02*
X52880952Y-23154819D01*
X52880952Y-23154819D02*
X52785714Y-23154819D01*
X54119047Y-22154819D02*
X53642857Y-22154819D01*
X53642857Y-22154819D02*
X53595238Y-22631009D01*
X53595238Y-22631009D02*
X53642857Y-22583390D01*
X53642857Y-22583390D02*
X53738095Y-22535771D01*
X53738095Y-22535771D02*
X53976190Y-22535771D01*
X53976190Y-22535771D02*
X54071428Y-22583390D01*
X54071428Y-22583390D02*
X54119047Y-22631009D01*
X54119047Y-22631009D02*
X54166666Y-22726247D01*
X54166666Y-22726247D02*
X54166666Y-22964342D01*
X54166666Y-22964342D02*
X54119047Y-23059580D01*
X54119047Y-23059580D02*
X54071428Y-23107200D01*
X54071428Y-23107200D02*
X53976190Y-23154819D01*
X53976190Y-23154819D02*
X53738095Y-23154819D01*
X53738095Y-23154819D02*
X53642857Y-23107200D01*
X53642857Y-23107200D02*
X53595238Y-23059580D01*
X123957142Y-85159580D02*
X123909523Y-85207200D01*
X123909523Y-85207200D02*
X123766666Y-85254819D01*
X123766666Y-85254819D02*
X123671428Y-85254819D01*
X123671428Y-85254819D02*
X123528571Y-85207200D01*
X123528571Y-85207200D02*
X123433333Y-85111961D01*
X123433333Y-85111961D02*
X123385714Y-85016723D01*
X123385714Y-85016723D02*
X123338095Y-84826247D01*
X123338095Y-84826247D02*
X123338095Y-84683390D01*
X123338095Y-84683390D02*
X123385714Y-84492914D01*
X123385714Y-84492914D02*
X123433333Y-84397676D01*
X123433333Y-84397676D02*
X123528571Y-84302438D01*
X123528571Y-84302438D02*
X123671428Y-84254819D01*
X123671428Y-84254819D02*
X123766666Y-84254819D01*
X123766666Y-84254819D02*
X123909523Y-84302438D01*
X123909523Y-84302438D02*
X123957142Y-84350057D01*
X124338095Y-84350057D02*
X124385714Y-84302438D01*
X124385714Y-84302438D02*
X124480952Y-84254819D01*
X124480952Y-84254819D02*
X124719047Y-84254819D01*
X124719047Y-84254819D02*
X124814285Y-84302438D01*
X124814285Y-84302438D02*
X124861904Y-84350057D01*
X124861904Y-84350057D02*
X124909523Y-84445295D01*
X124909523Y-84445295D02*
X124909523Y-84540533D01*
X124909523Y-84540533D02*
X124861904Y-84683390D01*
X124861904Y-84683390D02*
X124290476Y-85254819D01*
X124290476Y-85254819D02*
X124909523Y-85254819D01*
X125242857Y-84254819D02*
X125909523Y-84254819D01*
X125909523Y-84254819D02*
X125480952Y-85254819D01*
X91188095Y-43414819D02*
X91188095Y-44224342D01*
X91188095Y-44224342D02*
X91235714Y-44319580D01*
X91235714Y-44319580D02*
X91283333Y-44367200D01*
X91283333Y-44367200D02*
X91378571Y-44414819D01*
X91378571Y-44414819D02*
X91569047Y-44414819D01*
X91569047Y-44414819D02*
X91664285Y-44367200D01*
X91664285Y-44367200D02*
X91711904Y-44319580D01*
X91711904Y-44319580D02*
X91759523Y-44224342D01*
X91759523Y-44224342D02*
X91759523Y-43414819D01*
X92140476Y-43414819D02*
X92759523Y-43414819D01*
X92759523Y-43414819D02*
X92426190Y-43795771D01*
X92426190Y-43795771D02*
X92569047Y-43795771D01*
X92569047Y-43795771D02*
X92664285Y-43843390D01*
X92664285Y-43843390D02*
X92711904Y-43891009D01*
X92711904Y-43891009D02*
X92759523Y-43986247D01*
X92759523Y-43986247D02*
X92759523Y-44224342D01*
X92759523Y-44224342D02*
X92711904Y-44319580D01*
X92711904Y-44319580D02*
X92664285Y-44367200D01*
X92664285Y-44367200D02*
X92569047Y-44414819D01*
X92569047Y-44414819D02*
X92283333Y-44414819D01*
X92283333Y-44414819D02*
X92188095Y-44367200D01*
X92188095Y-44367200D02*
X92140476Y-44319580D01*
X87188094Y-48429104D02*
X87664284Y-48429104D01*
X87092856Y-48714819D02*
X87426189Y-47714819D01*
X87426189Y-47714819D02*
X87759522Y-48714819D01*
X88092856Y-48048152D02*
X88092856Y-48714819D01*
X88092856Y-48143390D02*
X88140475Y-48095771D01*
X88140475Y-48095771D02*
X88235713Y-48048152D01*
X88235713Y-48048152D02*
X88378570Y-48048152D01*
X88378570Y-48048152D02*
X88473808Y-48095771D01*
X88473808Y-48095771D02*
X88521427Y-48191009D01*
X88521427Y-48191009D02*
X88521427Y-48714819D01*
X88854761Y-48048152D02*
X89235713Y-48048152D01*
X88997618Y-47714819D02*
X88997618Y-48571961D01*
X88997618Y-48571961D02*
X89045237Y-48667200D01*
X89045237Y-48667200D02*
X89140475Y-48714819D01*
X89140475Y-48714819D02*
X89235713Y-48714819D01*
X89949999Y-48667200D02*
X89854761Y-48714819D01*
X89854761Y-48714819D02*
X89664285Y-48714819D01*
X89664285Y-48714819D02*
X89569047Y-48667200D01*
X89569047Y-48667200D02*
X89521428Y-48571961D01*
X89521428Y-48571961D02*
X89521428Y-48191009D01*
X89521428Y-48191009D02*
X89569047Y-48095771D01*
X89569047Y-48095771D02*
X89664285Y-48048152D01*
X89664285Y-48048152D02*
X89854761Y-48048152D01*
X89854761Y-48048152D02*
X89949999Y-48095771D01*
X89949999Y-48095771D02*
X89997618Y-48191009D01*
X89997618Y-48191009D02*
X89997618Y-48286247D01*
X89997618Y-48286247D02*
X89521428Y-48381485D01*
X90426190Y-48048152D02*
X90426190Y-48714819D01*
X90426190Y-48143390D02*
X90473809Y-48095771D01*
X90473809Y-48095771D02*
X90569047Y-48048152D01*
X90569047Y-48048152D02*
X90711904Y-48048152D01*
X90711904Y-48048152D02*
X90807142Y-48095771D01*
X90807142Y-48095771D02*
X90854761Y-48191009D01*
X90854761Y-48191009D02*
X90854761Y-48714819D01*
X91330952Y-48048152D02*
X91330952Y-48714819D01*
X91330952Y-48143390D02*
X91378571Y-48095771D01*
X91378571Y-48095771D02*
X91473809Y-48048152D01*
X91473809Y-48048152D02*
X91616666Y-48048152D01*
X91616666Y-48048152D02*
X91711904Y-48095771D01*
X91711904Y-48095771D02*
X91759523Y-48191009D01*
X91759523Y-48191009D02*
X91759523Y-48714819D01*
X92664285Y-48714819D02*
X92664285Y-48191009D01*
X92664285Y-48191009D02*
X92616666Y-48095771D01*
X92616666Y-48095771D02*
X92521428Y-48048152D01*
X92521428Y-48048152D02*
X92330952Y-48048152D01*
X92330952Y-48048152D02*
X92235714Y-48095771D01*
X92664285Y-48667200D02*
X92569047Y-48714819D01*
X92569047Y-48714819D02*
X92330952Y-48714819D01*
X92330952Y-48714819D02*
X92235714Y-48667200D01*
X92235714Y-48667200D02*
X92188095Y-48571961D01*
X92188095Y-48571961D02*
X92188095Y-48476723D01*
X92188095Y-48476723D02*
X92235714Y-48381485D01*
X92235714Y-48381485D02*
X92330952Y-48333866D01*
X92330952Y-48333866D02*
X92569047Y-48333866D01*
X92569047Y-48333866D02*
X92664285Y-48286247D01*
X93854762Y-48429104D02*
X94330952Y-48429104D01*
X93759524Y-48714819D02*
X94092857Y-47714819D01*
X94092857Y-47714819D02*
X94426190Y-48714819D01*
X94759524Y-48714819D02*
X94759524Y-48048152D01*
X94759524Y-48238628D02*
X94807143Y-48143390D01*
X94807143Y-48143390D02*
X94854762Y-48095771D01*
X94854762Y-48095771D02*
X94950000Y-48048152D01*
X94950000Y-48048152D02*
X95045238Y-48048152D01*
X95759524Y-48667200D02*
X95664286Y-48714819D01*
X95664286Y-48714819D02*
X95473810Y-48714819D01*
X95473810Y-48714819D02*
X95378572Y-48667200D01*
X95378572Y-48667200D02*
X95330953Y-48571961D01*
X95330953Y-48571961D02*
X95330953Y-48191009D01*
X95330953Y-48191009D02*
X95378572Y-48095771D01*
X95378572Y-48095771D02*
X95473810Y-48048152D01*
X95473810Y-48048152D02*
X95664286Y-48048152D01*
X95664286Y-48048152D02*
X95759524Y-48095771D01*
X95759524Y-48095771D02*
X95807143Y-48191009D01*
X95807143Y-48191009D02*
X95807143Y-48286247D01*
X95807143Y-48286247D02*
X95330953Y-48381485D01*
X96664286Y-48714819D02*
X96664286Y-48191009D01*
X96664286Y-48191009D02*
X96616667Y-48095771D01*
X96616667Y-48095771D02*
X96521429Y-48048152D01*
X96521429Y-48048152D02*
X96330953Y-48048152D01*
X96330953Y-48048152D02*
X96235715Y-48095771D01*
X96664286Y-48667200D02*
X96569048Y-48714819D01*
X96569048Y-48714819D02*
X96330953Y-48714819D01*
X96330953Y-48714819D02*
X96235715Y-48667200D01*
X96235715Y-48667200D02*
X96188096Y-48571961D01*
X96188096Y-48571961D02*
X96188096Y-48476723D01*
X96188096Y-48476723D02*
X96235715Y-48381485D01*
X96235715Y-48381485D02*
X96330953Y-48333866D01*
X96330953Y-48333866D02*
X96569048Y-48333866D01*
X96569048Y-48333866D02*
X96664286Y-48286247D01*
X92638095Y-27454819D02*
X92638095Y-28264342D01*
X92638095Y-28264342D02*
X92685714Y-28359580D01*
X92685714Y-28359580D02*
X92733333Y-28407200D01*
X92733333Y-28407200D02*
X92828571Y-28454819D01*
X92828571Y-28454819D02*
X93019047Y-28454819D01*
X93019047Y-28454819D02*
X93114285Y-28407200D01*
X93114285Y-28407200D02*
X93161904Y-28359580D01*
X93161904Y-28359580D02*
X93209523Y-28264342D01*
X93209523Y-28264342D02*
X93209523Y-27454819D01*
X94114285Y-27788152D02*
X94114285Y-28454819D01*
X93876190Y-27407200D02*
X93638095Y-28121485D01*
X93638095Y-28121485D02*
X94257142Y-28121485D01*
X72450057Y-89232738D02*
X72402438Y-89327976D01*
X72402438Y-89327976D02*
X72307200Y-89423214D01*
X72307200Y-89423214D02*
X72164342Y-89566071D01*
X72164342Y-89566071D02*
X72116723Y-89661309D01*
X72116723Y-89661309D02*
X72116723Y-89756547D01*
X72354819Y-89708928D02*
X72307200Y-89804166D01*
X72307200Y-89804166D02*
X72211961Y-89899404D01*
X72211961Y-89899404D02*
X72021485Y-89947023D01*
X72021485Y-89947023D02*
X71688152Y-89947023D01*
X71688152Y-89947023D02*
X71497676Y-89899404D01*
X71497676Y-89899404D02*
X71402438Y-89804166D01*
X71402438Y-89804166D02*
X71354819Y-89708928D01*
X71354819Y-89708928D02*
X71354819Y-89518452D01*
X71354819Y-89518452D02*
X71402438Y-89423214D01*
X71402438Y-89423214D02*
X71497676Y-89327976D01*
X71497676Y-89327976D02*
X71688152Y-89280357D01*
X71688152Y-89280357D02*
X72021485Y-89280357D01*
X72021485Y-89280357D02*
X72211961Y-89327976D01*
X72211961Y-89327976D02*
X72307200Y-89423214D01*
X72307200Y-89423214D02*
X72354819Y-89518452D01*
X72354819Y-89518452D02*
X72354819Y-89708928D01*
X71688152Y-88423214D02*
X72354819Y-88423214D01*
X71307200Y-88661309D02*
X72021485Y-88899404D01*
X72021485Y-88899404D02*
X72021485Y-88280357D01*
X90866666Y-25954819D02*
X90866666Y-26669104D01*
X90866666Y-26669104D02*
X90819047Y-26811961D01*
X90819047Y-26811961D02*
X90723809Y-26907200D01*
X90723809Y-26907200D02*
X90580952Y-26954819D01*
X90580952Y-26954819D02*
X90485714Y-26954819D01*
X91866666Y-26954819D02*
X91295238Y-26954819D01*
X91580952Y-26954819D02*
X91580952Y-25954819D01*
X91580952Y-25954819D02*
X91485714Y-26097676D01*
X91485714Y-26097676D02*
X91390476Y-26192914D01*
X91390476Y-26192914D02*
X91295238Y-26240533D01*
X138694819Y-118333333D02*
X139409104Y-118333333D01*
X139409104Y-118333333D02*
X139551961Y-118380952D01*
X139551961Y-118380952D02*
X139647200Y-118476190D01*
X139647200Y-118476190D02*
X139694819Y-118619047D01*
X139694819Y-118619047D02*
X139694819Y-118714285D01*
X138694819Y-117428571D02*
X138694819Y-117619047D01*
X138694819Y-117619047D02*
X138742438Y-117714285D01*
X138742438Y-117714285D02*
X138790057Y-117761904D01*
X138790057Y-117761904D02*
X138932914Y-117857142D01*
X138932914Y-117857142D02*
X139123390Y-117904761D01*
X139123390Y-117904761D02*
X139504342Y-117904761D01*
X139504342Y-117904761D02*
X139599580Y-117857142D01*
X139599580Y-117857142D02*
X139647200Y-117809523D01*
X139647200Y-117809523D02*
X139694819Y-117714285D01*
X139694819Y-117714285D02*
X139694819Y-117523809D01*
X139694819Y-117523809D02*
X139647200Y-117428571D01*
X139647200Y-117428571D02*
X139599580Y-117380952D01*
X139599580Y-117380952D02*
X139504342Y-117333333D01*
X139504342Y-117333333D02*
X139266247Y-117333333D01*
X139266247Y-117333333D02*
X139171009Y-117380952D01*
X139171009Y-117380952D02*
X139123390Y-117428571D01*
X139123390Y-117428571D02*
X139075771Y-117523809D01*
X139075771Y-117523809D02*
X139075771Y-117714285D01*
X139075771Y-117714285D02*
X139123390Y-117809523D01*
X139123390Y-117809523D02*
X139171009Y-117857142D01*
X139171009Y-117857142D02*
X139266247Y-117904761D01*
X55077200Y-188801428D02*
X55124819Y-188658571D01*
X55124819Y-188658571D02*
X55124819Y-188420476D01*
X55124819Y-188420476D02*
X55077200Y-188325238D01*
X55077200Y-188325238D02*
X55029580Y-188277619D01*
X55029580Y-188277619D02*
X54934342Y-188230000D01*
X54934342Y-188230000D02*
X54839104Y-188230000D01*
X54839104Y-188230000D02*
X54743866Y-188277619D01*
X54743866Y-188277619D02*
X54696247Y-188325238D01*
X54696247Y-188325238D02*
X54648628Y-188420476D01*
X54648628Y-188420476D02*
X54601009Y-188610952D01*
X54601009Y-188610952D02*
X54553390Y-188706190D01*
X54553390Y-188706190D02*
X54505771Y-188753809D01*
X54505771Y-188753809D02*
X54410533Y-188801428D01*
X54410533Y-188801428D02*
X54315295Y-188801428D01*
X54315295Y-188801428D02*
X54220057Y-188753809D01*
X54220057Y-188753809D02*
X54172438Y-188706190D01*
X54172438Y-188706190D02*
X54124819Y-188610952D01*
X54124819Y-188610952D02*
X54124819Y-188372857D01*
X54124819Y-188372857D02*
X54172438Y-188230000D01*
X54124819Y-187610952D02*
X54124819Y-187515714D01*
X54124819Y-187515714D02*
X54172438Y-187420476D01*
X54172438Y-187420476D02*
X54220057Y-187372857D01*
X54220057Y-187372857D02*
X54315295Y-187325238D01*
X54315295Y-187325238D02*
X54505771Y-187277619D01*
X54505771Y-187277619D02*
X54743866Y-187277619D01*
X54743866Y-187277619D02*
X54934342Y-187325238D01*
X54934342Y-187325238D02*
X55029580Y-187372857D01*
X55029580Y-187372857D02*
X55077200Y-187420476D01*
X55077200Y-187420476D02*
X55124819Y-187515714D01*
X55124819Y-187515714D02*
X55124819Y-187610952D01*
X55124819Y-187610952D02*
X55077200Y-187706190D01*
X55077200Y-187706190D02*
X55029580Y-187753809D01*
X55029580Y-187753809D02*
X54934342Y-187801428D01*
X54934342Y-187801428D02*
X54743866Y-187849047D01*
X54743866Y-187849047D02*
X54505771Y-187849047D01*
X54505771Y-187849047D02*
X54315295Y-187801428D01*
X54315295Y-187801428D02*
X54220057Y-187753809D01*
X54220057Y-187753809D02*
X54172438Y-187706190D01*
X54172438Y-187706190D02*
X54124819Y-187610952D01*
X55220057Y-187087143D02*
X55220057Y-186325238D01*
X55029580Y-185515714D02*
X55077200Y-185563333D01*
X55077200Y-185563333D02*
X55124819Y-185706190D01*
X55124819Y-185706190D02*
X55124819Y-185801428D01*
X55124819Y-185801428D02*
X55077200Y-185944285D01*
X55077200Y-185944285D02*
X54981961Y-186039523D01*
X54981961Y-186039523D02*
X54886723Y-186087142D01*
X54886723Y-186087142D02*
X54696247Y-186134761D01*
X54696247Y-186134761D02*
X54553390Y-186134761D01*
X54553390Y-186134761D02*
X54362914Y-186087142D01*
X54362914Y-186087142D02*
X54267676Y-186039523D01*
X54267676Y-186039523D02*
X54172438Y-185944285D01*
X54172438Y-185944285D02*
X54124819Y-185801428D01*
X54124819Y-185801428D02*
X54124819Y-185706190D01*
X54124819Y-185706190D02*
X54172438Y-185563333D01*
X54172438Y-185563333D02*
X54220057Y-185515714D01*
X55124819Y-184944285D02*
X55077200Y-185039523D01*
X55077200Y-185039523D02*
X55029580Y-185087142D01*
X55029580Y-185087142D02*
X54934342Y-185134761D01*
X54934342Y-185134761D02*
X54648628Y-185134761D01*
X54648628Y-185134761D02*
X54553390Y-185087142D01*
X54553390Y-185087142D02*
X54505771Y-185039523D01*
X54505771Y-185039523D02*
X54458152Y-184944285D01*
X54458152Y-184944285D02*
X54458152Y-184801428D01*
X54458152Y-184801428D02*
X54505771Y-184706190D01*
X54505771Y-184706190D02*
X54553390Y-184658571D01*
X54553390Y-184658571D02*
X54648628Y-184610952D01*
X54648628Y-184610952D02*
X54934342Y-184610952D01*
X54934342Y-184610952D02*
X55029580Y-184658571D01*
X55029580Y-184658571D02*
X55077200Y-184706190D01*
X55077200Y-184706190D02*
X55124819Y-184801428D01*
X55124819Y-184801428D02*
X55124819Y-184944285D01*
X55124819Y-184182380D02*
X54458152Y-184182380D01*
X54553390Y-184182380D02*
X54505771Y-184134761D01*
X54505771Y-184134761D02*
X54458152Y-184039523D01*
X54458152Y-184039523D02*
X54458152Y-183896666D01*
X54458152Y-183896666D02*
X54505771Y-183801428D01*
X54505771Y-183801428D02*
X54601009Y-183753809D01*
X54601009Y-183753809D02*
X55124819Y-183753809D01*
X54601009Y-183753809D02*
X54505771Y-183706190D01*
X54505771Y-183706190D02*
X54458152Y-183610952D01*
X54458152Y-183610952D02*
X54458152Y-183468095D01*
X54458152Y-183468095D02*
X54505771Y-183372856D01*
X54505771Y-183372856D02*
X54601009Y-183325237D01*
X54601009Y-183325237D02*
X55124819Y-183325237D01*
X54458152Y-182849047D02*
X55458152Y-182849047D01*
X54505771Y-182849047D02*
X54458152Y-182753809D01*
X54458152Y-182753809D02*
X54458152Y-182563333D01*
X54458152Y-182563333D02*
X54505771Y-182468095D01*
X54505771Y-182468095D02*
X54553390Y-182420476D01*
X54553390Y-182420476D02*
X54648628Y-182372857D01*
X54648628Y-182372857D02*
X54934342Y-182372857D01*
X54934342Y-182372857D02*
X55029580Y-182420476D01*
X55029580Y-182420476D02*
X55077200Y-182468095D01*
X55077200Y-182468095D02*
X55124819Y-182563333D01*
X55124819Y-182563333D02*
X55124819Y-182753809D01*
X55124819Y-182753809D02*
X55077200Y-182849047D01*
X55220057Y-182182381D02*
X55220057Y-181420476D01*
X54124819Y-181277618D02*
X54124819Y-180658571D01*
X54124819Y-180658571D02*
X54505771Y-180991904D01*
X54505771Y-180991904D02*
X54505771Y-180849047D01*
X54505771Y-180849047D02*
X54553390Y-180753809D01*
X54553390Y-180753809D02*
X54601009Y-180706190D01*
X54601009Y-180706190D02*
X54696247Y-180658571D01*
X54696247Y-180658571D02*
X54934342Y-180658571D01*
X54934342Y-180658571D02*
X55029580Y-180706190D01*
X55029580Y-180706190D02*
X55077200Y-180753809D01*
X55077200Y-180753809D02*
X55124819Y-180849047D01*
X55124819Y-180849047D02*
X55124819Y-181134761D01*
X55124819Y-181134761D02*
X55077200Y-181229999D01*
X55077200Y-181229999D02*
X55029580Y-181277618D01*
X124328095Y-75654819D02*
X124328095Y-76464342D01*
X124328095Y-76464342D02*
X124375714Y-76559580D01*
X124375714Y-76559580D02*
X124423333Y-76607200D01*
X124423333Y-76607200D02*
X124518571Y-76654819D01*
X124518571Y-76654819D02*
X124709047Y-76654819D01*
X124709047Y-76654819D02*
X124804285Y-76607200D01*
X124804285Y-76607200D02*
X124851904Y-76559580D01*
X124851904Y-76559580D02*
X124899523Y-76464342D01*
X124899523Y-76464342D02*
X124899523Y-75654819D01*
X125804285Y-75654819D02*
X125613809Y-75654819D01*
X125613809Y-75654819D02*
X125518571Y-75702438D01*
X125518571Y-75702438D02*
X125470952Y-75750057D01*
X125470952Y-75750057D02*
X125375714Y-75892914D01*
X125375714Y-75892914D02*
X125328095Y-76083390D01*
X125328095Y-76083390D02*
X125328095Y-76464342D01*
X125328095Y-76464342D02*
X125375714Y-76559580D01*
X125375714Y-76559580D02*
X125423333Y-76607200D01*
X125423333Y-76607200D02*
X125518571Y-76654819D01*
X125518571Y-76654819D02*
X125709047Y-76654819D01*
X125709047Y-76654819D02*
X125804285Y-76607200D01*
X125804285Y-76607200D02*
X125851904Y-76559580D01*
X125851904Y-76559580D02*
X125899523Y-76464342D01*
X125899523Y-76464342D02*
X125899523Y-76226247D01*
X125899523Y-76226247D02*
X125851904Y-76131009D01*
X125851904Y-76131009D02*
X125804285Y-76083390D01*
X125804285Y-76083390D02*
X125709047Y-76035771D01*
X125709047Y-76035771D02*
X125518571Y-76035771D01*
X125518571Y-76035771D02*
X125423333Y-76083390D01*
X125423333Y-76083390D02*
X125375714Y-76131009D01*
X125375714Y-76131009D02*
X125328095Y-76226247D01*
D11*
%TO.C,U1*%
X65690000Y-32362500D02*
X65690000Y-36122500D01*
X65690000Y-36122500D02*
X66950000Y-36122500D01*
X72510000Y-32362500D02*
X72510000Y-36122500D01*
X72510000Y-36122500D02*
X71250000Y-36122500D01*
X72740000Y-31322500D02*
X72410000Y-31082500D01*
X72740000Y-30842500D01*
X72740000Y-31322500D01*
G36*
X72740000Y-31322500D02*
G01*
X72410000Y-31082500D01*
X72740000Y-30842500D01*
X72740000Y-31322500D01*
G37*
%TO.C,SW2*%
X110250000Y-40000000D02*
X110250000Y-41500000D01*
X111500000Y-44000000D02*
X116000000Y-44000000D01*
X116000000Y-37500000D02*
X111500000Y-37500000D01*
X117250000Y-41500000D02*
X117250000Y-40000000D01*
%TO.C,R11*%
X64590000Y-83822936D02*
X64590000Y-85277064D01*
X66410000Y-83822936D02*
X66410000Y-85277064D01*
%TO.C,R20*%
X119474050Y-82097936D02*
X119474050Y-83552064D01*
X121294050Y-82097936D02*
X121294050Y-83552064D01*
%TO.C,D6*%
X137030000Y-67200000D02*
X137030000Y-72640000D01*
X137030000Y-72640000D02*
X139970000Y-72640000D01*
X138500000Y-66180000D02*
X138500000Y-67200000D01*
X138500000Y-73660000D02*
X138500000Y-72640000D01*
X139970000Y-67200000D02*
X137030000Y-67200000D01*
X139970000Y-67980000D02*
X137030000Y-67980000D01*
X139970000Y-68100000D02*
X137030000Y-68100000D01*
X139970000Y-68220000D02*
X137030000Y-68220000D01*
X139970000Y-72640000D02*
X139970000Y-67200000D01*
%TO.C,SW9*%
X40190000Y-104500000D02*
X40190000Y-106000000D01*
X41440000Y-108500000D02*
X45940000Y-108500000D01*
X45940000Y-102000000D02*
X41440000Y-102000000D01*
X47190000Y-106000000D02*
X47190000Y-104500000D01*
%TO.C,D7*%
X42610000Y-111601000D02*
X42610000Y-111920000D01*
X42610000Y-114080000D02*
X42610000Y-114399000D01*
X42610000Y-111601251D02*
G75*
G02*
X46913557Y-111919931I2060000J-1398749D01*
G01*
X42986670Y-111920000D02*
G75*
G02*
X46353294Y-111919943I1683330J-1080000D01*
G01*
X46353294Y-114080057D02*
G75*
G02*
X42986670Y-114080000I-1683294J1080057D01*
G01*
X46913558Y-114080069D02*
G75*
G02*
X42610000Y-114398749I-2243558J1080069D01*
G01*
%TO.C,R4*%
X85677064Y-37590000D02*
X84222936Y-37590000D01*
X85677064Y-39410000D02*
X84222936Y-39410000D01*
%TO.C,D4*%
X42740000Y-74500000D02*
X43760000Y-74500000D01*
X43760000Y-73030000D02*
X43760000Y-75970000D01*
X43760000Y-75970000D02*
X49200000Y-75970000D01*
X48180000Y-75970000D02*
X48180000Y-73030000D01*
X48300000Y-75970000D02*
X48300000Y-73030000D01*
X48420000Y-75970000D02*
X48420000Y-73030000D01*
X49200000Y-73030000D02*
X43760000Y-73030000D01*
X49200000Y-75970000D02*
X49200000Y-73030000D01*
X50220000Y-74500000D02*
X49200000Y-74500000D01*
D12*
%TO.C,U14*%
X134170500Y-81732540D02*
X134170500Y-82362460D01*
X134170500Y-83673100D02*
X135821500Y-83673100D01*
X135821500Y-80421900D02*
X134170500Y-80421900D01*
X135821500Y-81409960D02*
X135821500Y-80421900D01*
X135821500Y-83673100D02*
X135821500Y-82685040D01*
X133873000Y-79278900D02*
G75*
G02*
X133619000Y-79278900I-127000J0D01*
G01*
X133619000Y-79278900D02*
G75*
G02*
X133873000Y-79278900I127000J0D01*
G01*
D11*
%TO.C,R3*%
X85677064Y-35090000D02*
X84222936Y-35090000D01*
X85677064Y-36910000D02*
X84222936Y-36910000D01*
%TO.C,Q5*%
X115440000Y-87687500D02*
X115440000Y-88337500D01*
X115440000Y-88987500D02*
X115440000Y-88337500D01*
X118560000Y-87687500D02*
X118560000Y-88337500D01*
X118560000Y-88987500D02*
X118560000Y-88337500D01*
X115490000Y-89500000D02*
X115160000Y-89740000D01*
X115160000Y-89260000D01*
X115490000Y-89500000D01*
G36*
X115490000Y-89500000D02*
G01*
X115160000Y-89740000D01*
X115160000Y-89260000D01*
X115490000Y-89500000D01*
G37*
%TO.C,D2*%
X71080000Y-24000000D02*
X72100000Y-24000000D01*
X72100000Y-22530000D02*
X72100000Y-25470000D01*
X72100000Y-25470000D02*
X77540000Y-25470000D01*
X72880000Y-22530000D02*
X72880000Y-25470000D01*
X73000000Y-22530000D02*
X73000000Y-25470000D01*
X73120000Y-22530000D02*
X73120000Y-25470000D01*
X77540000Y-22530000D02*
X72100000Y-22530000D01*
X77540000Y-25470000D02*
X77540000Y-22530000D01*
X78560000Y-24000000D02*
X77540000Y-24000000D01*
%TO.C,C8*%
X92173752Y-35590000D02*
X90751248Y-35590000D01*
X92173752Y-37410000D02*
X90751248Y-37410000D01*
%TO.C,S0_Comp_0*%
X55670000Y-137130000D02*
X68490000Y-137130000D01*
X55670000Y-139730000D02*
X55670000Y-137130000D01*
X55670000Y-142330000D02*
X55670000Y-141000000D01*
X57000000Y-142330000D02*
X55670000Y-142330000D01*
X58270000Y-139730000D02*
X55670000Y-139730000D01*
X58270000Y-142330000D02*
X58270000Y-139730000D01*
X58270000Y-142330000D02*
X68490000Y-142330000D01*
X68490000Y-142330000D02*
X68490000Y-137130000D01*
%TO.C,R22*%
X132322936Y-86990000D02*
X133777064Y-86990000D01*
X132322936Y-88810000D02*
X133777064Y-88810000D01*
%TO.C,S1_Comp_2*%
X115570000Y-167130000D02*
X128390000Y-167130000D01*
X115570000Y-169730000D02*
X115570000Y-167130000D01*
X115570000Y-172330000D02*
X115570000Y-171000000D01*
X116900000Y-172330000D02*
X115570000Y-172330000D01*
X118170000Y-169730000D02*
X115570000Y-169730000D01*
X118170000Y-172330000D02*
X118170000Y-169730000D01*
X118170000Y-172330000D02*
X128390000Y-172330000D01*
X128390000Y-172330000D02*
X128390000Y-167130000D01*
%TO.C,J7*%
X104790000Y-65865000D02*
X105710000Y-65865000D01*
X104790000Y-85135000D02*
X104790000Y-65865000D01*
X105710000Y-65865000D02*
X105710000Y-66565000D01*
X105710000Y-66565000D02*
X111210000Y-66565000D01*
X105710000Y-84435000D02*
X105710000Y-85135000D01*
X105710000Y-85135000D02*
X104790000Y-85135000D01*
X110545563Y-84435000D02*
X105710000Y-84435000D01*
X111210000Y-66565000D02*
X111210000Y-83770563D01*
X111210000Y-83770563D02*
X110545563Y-84435000D01*
X111450000Y-81500000D02*
X112200000Y-81066987D01*
X112200000Y-81066987D02*
X112200000Y-81933013D01*
X112200000Y-81933013D02*
X111450000Y-81500000D01*
%TO.C,J3*%
X41410000Y-77740000D02*
X37050000Y-77740000D01*
X41410000Y-77740000D02*
X41410000Y-80240000D01*
X41410000Y-80240000D02*
X41610000Y-80240000D01*
X41410000Y-83760000D02*
X41410000Y-86260000D01*
X41410000Y-86260000D02*
X37050000Y-86260000D01*
X41610000Y-80900000D02*
X41610000Y-80240000D01*
%TO.C,SW1*%
X110250000Y-31000000D02*
X110250000Y-32500000D01*
X111500000Y-35000000D02*
X116000000Y-35000000D01*
X116000000Y-28500000D02*
X111500000Y-28500000D01*
X117250000Y-32500000D02*
X117250000Y-31000000D01*
%TO.C,Q3*%
X67440000Y-88812500D02*
X67440000Y-89462500D01*
X67440000Y-90112500D02*
X67440000Y-89462500D01*
X70560000Y-88812500D02*
X70560000Y-89462500D01*
X70560000Y-90112500D02*
X70560000Y-89462500D01*
X67490000Y-90625000D02*
X67160000Y-90865000D01*
X67160000Y-90385000D01*
X67490000Y-90625000D01*
G36*
X67490000Y-90625000D02*
G01*
X67160000Y-90865000D01*
X67160000Y-90385000D01*
X67490000Y-90625000D01*
G37*
%TO.C,R6*%
X80212936Y-29590000D02*
X81667064Y-29590000D01*
X80212936Y-31410000D02*
X81667064Y-31410000D01*
%TO.C,R14*%
X49777064Y-89040000D02*
X48322936Y-89040000D01*
X49777064Y-90860000D02*
X48322936Y-90860000D01*
%TO.C,S1_Comp_3*%
X115570000Y-182130000D02*
X128390000Y-182130000D01*
X115570000Y-184730000D02*
X115570000Y-182130000D01*
X115570000Y-187330000D02*
X115570000Y-186000000D01*
X116900000Y-187330000D02*
X115570000Y-187330000D01*
X118170000Y-184730000D02*
X115570000Y-184730000D01*
X118170000Y-187330000D02*
X118170000Y-184730000D01*
X118170000Y-187330000D02*
X128390000Y-187330000D01*
X128390000Y-187330000D02*
X128390000Y-182130000D01*
%TO.C,S0*%
X58000000Y-95305000D02*
X58000000Y-102100000D01*
X58000000Y-101615000D02*
X76000000Y-101615000D01*
X58000000Y-126705000D02*
X58000000Y-126350000D01*
X58000000Y-126705000D02*
X76000000Y-126705000D01*
X76000000Y-95305000D02*
X58000000Y-95305000D01*
X76000000Y-95350000D02*
X76000000Y-102100000D01*
X76000000Y-126705000D02*
X76000000Y-126350000D01*
D12*
%TO.C,U9*%
X48678500Y-80121900D02*
X48678500Y-81109960D01*
X48678500Y-82385040D02*
X48678500Y-83373100D01*
X48678500Y-83373100D02*
X50329500Y-83373100D01*
X50329500Y-80121900D02*
X48678500Y-80121900D01*
X50329500Y-82062460D02*
X50329500Y-81432540D01*
X50881000Y-84516100D02*
G75*
G02*
X50627000Y-84516100I-127000J0D01*
G01*
X50627000Y-84516100D02*
G75*
G02*
X50881000Y-84516100I127000J0D01*
G01*
D11*
%TO.C,S1_Comp_0*%
X115570000Y-137130000D02*
X128390000Y-137130000D01*
X115570000Y-139730000D02*
X115570000Y-137130000D01*
X115570000Y-142330000D02*
X115570000Y-141000000D01*
X116900000Y-142330000D02*
X115570000Y-142330000D01*
X118170000Y-139730000D02*
X115570000Y-139730000D01*
X118170000Y-142330000D02*
X118170000Y-139730000D01*
X118170000Y-142330000D02*
X128390000Y-142330000D01*
X128390000Y-142330000D02*
X128390000Y-137130000D01*
%TO.C,D8*%
X66070000Y-61001000D02*
X66070000Y-61320000D01*
X66070000Y-63480000D02*
X66070000Y-63799000D01*
X66070000Y-61001251D02*
G75*
G02*
X70373557Y-61319931I2060000J-1398749D01*
G01*
X66446670Y-61320000D02*
G75*
G02*
X69813294Y-61319943I1683330J-1080000D01*
G01*
X69813294Y-63480057D02*
G75*
G02*
X66446670Y-63480000I-1683294J1080057D01*
G01*
X70373558Y-63480069D02*
G75*
G02*
X66070000Y-63798749I-2243558J1080069D01*
G01*
%TO.C,R12*%
X67590000Y-83822936D02*
X67590000Y-85277064D01*
X69410000Y-83822936D02*
X69410000Y-85277064D01*
%TO.C,S0_Comp_1*%
X55670000Y-152130000D02*
X68490000Y-152130000D01*
X55670000Y-154730000D02*
X55670000Y-152130000D01*
X55670000Y-157330000D02*
X55670000Y-156000000D01*
X57000000Y-157330000D02*
X55670000Y-157330000D01*
X58270000Y-154730000D02*
X55670000Y-154730000D01*
X58270000Y-157330000D02*
X58270000Y-154730000D01*
X58270000Y-157330000D02*
X68490000Y-157330000D01*
X68490000Y-157330000D02*
X68490000Y-152130000D01*
%TO.C,SW10*%
X64700000Y-53900000D02*
X64700000Y-55400000D01*
X65950000Y-57900000D02*
X70450000Y-57900000D01*
X70450000Y-51400000D02*
X65950000Y-51400000D01*
X71700000Y-55400000D02*
X71700000Y-53900000D01*
%TO.C,SW4*%
X81690000Y-102000000D02*
X81690000Y-103500000D01*
X82940000Y-106000000D02*
X87440000Y-106000000D01*
X87440000Y-99500000D02*
X82940000Y-99500000D01*
X88690000Y-103500000D02*
X88690000Y-102000000D01*
%TO.C,SW3*%
X81750000Y-93250000D02*
X81750000Y-94750000D01*
X83000000Y-97250000D02*
X87500000Y-97250000D01*
X87500000Y-90750000D02*
X83000000Y-90750000D01*
X88750000Y-94750000D02*
X88750000Y-93250000D01*
%TO.C,SW5*%
X132190000Y-94500000D02*
X132190000Y-96000000D01*
X133440000Y-98500000D02*
X137940000Y-98500000D01*
X137940000Y-92000000D02*
X133440000Y-92000000D01*
X139190000Y-96000000D02*
X139190000Y-94500000D01*
%TO.C,C26*%
X127024050Y-82273752D02*
X127024050Y-80851248D01*
X128844050Y-82273752D02*
X128844050Y-80851248D01*
%TO.C,Q6*%
X119324050Y-88337500D02*
X119324050Y-87687500D01*
X119324050Y-88337500D02*
X119324050Y-88987500D01*
X122444050Y-88337500D02*
X122444050Y-87687500D01*
X122444050Y-88337500D02*
X122444050Y-88987500D01*
X122724050Y-87415000D02*
X122394050Y-87175000D01*
X122724050Y-86935000D01*
X122724050Y-87415000D01*
G36*
X122724050Y-87415000D02*
G01*
X122394050Y-87175000D01*
X122724050Y-86935000D01*
X122724050Y-87415000D01*
G37*
%TO.C,R13*%
X43277064Y-89040000D02*
X41822936Y-89040000D01*
X43277064Y-90860000D02*
X41822936Y-90860000D01*
%TO.C,D3*%
X42630000Y-27360000D02*
X42630000Y-32800000D01*
X42630000Y-31780000D02*
X45570000Y-31780000D01*
X42630000Y-31900000D02*
X45570000Y-31900000D01*
X42630000Y-32020000D02*
X45570000Y-32020000D01*
X42630000Y-32800000D02*
X45570000Y-32800000D01*
X44100000Y-26340000D02*
X44100000Y-27360000D01*
X44100000Y-33820000D02*
X44100000Y-32800000D01*
X45570000Y-27360000D02*
X42630000Y-27360000D01*
X45570000Y-32800000D02*
X45570000Y-27360000D01*
%TO.C,S0_Comp_2*%
X55670000Y-167130000D02*
X68490000Y-167130000D01*
X55670000Y-169730000D02*
X55670000Y-167130000D01*
X55670000Y-172330000D02*
X55670000Y-171000000D01*
X57000000Y-172330000D02*
X55670000Y-172330000D01*
X58270000Y-169730000D02*
X55670000Y-169730000D01*
X58270000Y-172330000D02*
X58270000Y-169730000D01*
X58270000Y-172330000D02*
X68490000Y-172330000D01*
X68490000Y-172330000D02*
X68490000Y-167130000D01*
%TO.C,R19*%
X116590000Y-82097936D02*
X116590000Y-83552064D01*
X118410000Y-82097936D02*
X118410000Y-83552064D01*
%TO.C,D1*%
X53230000Y-44420000D02*
X53230000Y-44101000D01*
X53230000Y-46899000D02*
X53230000Y-46580000D01*
X48926442Y-44419931D02*
G75*
G02*
X53230000Y-44101251I2243558J-1080069D01*
G01*
X49486706Y-44419943D02*
G75*
G02*
X52853330Y-44420000I1683294J-1080057D01*
G01*
X52853330Y-46580000D02*
G75*
G02*
X49486706Y-46580057I-1683330J1080000D01*
G01*
X53230000Y-46898749D02*
G75*
G02*
X48926443Y-46580069I-2060000J1398749D01*
G01*
%TO.C,S1*%
X108000000Y-95305000D02*
X108000000Y-102100000D01*
X108000000Y-101615000D02*
X126000000Y-101615000D01*
X108000000Y-126705000D02*
X108000000Y-126350000D01*
X108000000Y-126705000D02*
X126000000Y-126705000D01*
X126000000Y-95305000D02*
X108000000Y-95305000D01*
X126000000Y-95350000D02*
X126000000Y-102100000D01*
X126000000Y-126705000D02*
X126000000Y-126350000D01*
%TO.C,C18*%
X59090000Y-81301248D02*
X59090000Y-82723752D01*
X60910000Y-81301248D02*
X60910000Y-82723752D01*
%TO.C,SW6*%
X132190000Y-102500000D02*
X132190000Y-104000000D01*
X133440000Y-106500000D02*
X137940000Y-106500000D01*
X137940000Y-100000000D02*
X133440000Y-100000000D01*
X139190000Y-104000000D02*
X139190000Y-102500000D01*
%TO.C,SW7*%
X92750000Y-107500000D02*
X92750000Y-109000000D01*
X94000000Y-111500000D02*
X98500000Y-111500000D01*
X98500000Y-105000000D02*
X94000000Y-105000000D01*
X99750000Y-109000000D02*
X99750000Y-107500000D01*
%TO.C,D10*%
X94440000Y-116101000D02*
X94440000Y-116420000D01*
X94440000Y-118580000D02*
X94440000Y-118899000D01*
X94440000Y-116101251D02*
G75*
G02*
X98743557Y-116419931I2060000J-1398749D01*
G01*
X94816670Y-116420000D02*
G75*
G02*
X98183294Y-116419943I1683330J-1080000D01*
G01*
X98183294Y-118580057D02*
G75*
G02*
X94816670Y-118580000I-1683294J1080057D01*
G01*
X98743558Y-118580069D02*
G75*
G02*
X94440000Y-118898749I-2243558J1080069D01*
G01*
%TO.C,U2*%
X42640000Y-65590000D02*
X42640000Y-66850000D01*
X42640000Y-72410000D02*
X42640000Y-71150000D01*
X46400000Y-65590000D02*
X42640000Y-65590000D01*
X46400000Y-72410000D02*
X42640000Y-72410000D01*
X47920000Y-72640000D02*
X47440000Y-72640000D01*
X47680000Y-72310000D01*
X47920000Y-72640000D01*
G36*
X47920000Y-72640000D02*
G01*
X47440000Y-72640000D01*
X47680000Y-72310000D01*
X47920000Y-72640000D01*
G37*
%TO.C,Q1*%
X80337500Y-34890000D02*
X79687500Y-34890000D01*
X80337500Y-34890000D02*
X80987500Y-34890000D01*
X80337500Y-38010000D02*
X79687500Y-38010000D01*
X80337500Y-38010000D02*
X80987500Y-38010000D01*
X79175000Y-34940000D02*
X78935000Y-34610000D01*
X79415000Y-34610000D01*
X79175000Y-34940000D01*
G36*
X79175000Y-34940000D02*
G01*
X78935000Y-34610000D01*
X79415000Y-34610000D01*
X79175000Y-34940000D01*
G37*
%TO.C,S1_Comp_1*%
X115570000Y-152130000D02*
X128390000Y-152130000D01*
X115570000Y-154730000D02*
X115570000Y-152130000D01*
X115570000Y-157330000D02*
X115570000Y-156000000D01*
X116900000Y-157330000D02*
X115570000Y-157330000D01*
X118170000Y-154730000D02*
X115570000Y-154730000D01*
X118170000Y-157330000D02*
X118170000Y-154730000D01*
X118170000Y-157330000D02*
X128390000Y-157330000D01*
X128390000Y-157330000D02*
X128390000Y-152130000D01*
%TO.C,R5*%
X84030000Y-29824564D02*
X84030000Y-28370436D01*
X85850000Y-29824564D02*
X85850000Y-28370436D01*
%TO.C,J8*%
X81240000Y-111066987D02*
X81990000Y-111500000D01*
X81240000Y-111933013D02*
X81240000Y-111066987D01*
X81990000Y-111500000D02*
X81240000Y-111933013D01*
X82230000Y-109229437D02*
X82894437Y-108565000D01*
X82230000Y-126435000D02*
X82230000Y-109229437D01*
X82894437Y-108565000D02*
X87730000Y-108565000D01*
X87730000Y-107865000D02*
X88650000Y-107865000D01*
X87730000Y-108565000D02*
X87730000Y-107865000D01*
X87730000Y-126435000D02*
X82230000Y-126435000D01*
X87730000Y-127135000D02*
X87730000Y-126435000D01*
X88650000Y-107865000D02*
X88650000Y-127135000D01*
X88650000Y-127135000D02*
X87730000Y-127135000D01*
%TO.C,R21*%
X137322936Y-86990000D02*
X138777064Y-86990000D01*
X137322936Y-88810000D02*
X138777064Y-88810000D01*
%TO.C,C9*%
X92173752Y-38090000D02*
X90751248Y-38090000D01*
X92173752Y-39910000D02*
X90751248Y-39910000D01*
%TO.C,C17*%
X56590000Y-81301248D02*
X56590000Y-82723752D01*
X58410000Y-81301248D02*
X58410000Y-82723752D01*
%TO.C,Q2*%
X80337500Y-38440000D02*
X79687500Y-38440000D01*
X80337500Y-38440000D02*
X80987500Y-38440000D01*
X80337500Y-41560000D02*
X79687500Y-41560000D01*
X80337500Y-41560000D02*
X80987500Y-41560000D01*
X81740000Y-41840000D02*
X81260000Y-41840000D01*
X81500000Y-41510000D01*
X81740000Y-41840000D01*
G36*
X81740000Y-41840000D02*
G01*
X81260000Y-41840000D01*
X81500000Y-41510000D01*
X81740000Y-41840000D01*
G37*
%TO.C,J2*%
X142390000Y-83100000D02*
X142390000Y-83760000D01*
X142590000Y-77740000D02*
X146950000Y-77740000D01*
X142590000Y-80240000D02*
X142590000Y-77740000D01*
X142590000Y-83760000D02*
X142390000Y-83760000D01*
X142590000Y-86260000D02*
X142590000Y-83760000D01*
X142590000Y-86260000D02*
X146950000Y-86260000D01*
%TO.C,J5*%
X48390000Y-24890000D02*
X51200000Y-24890000D01*
X48390000Y-30950000D02*
X48390000Y-24890000D01*
X48390000Y-38110000D02*
X48390000Y-35050000D01*
X52500000Y-23700000D02*
X54500000Y-23700000D01*
X55800000Y-24890000D02*
X58610000Y-24890000D01*
X58610000Y-24890000D02*
X58610000Y-30950000D01*
X58610000Y-35050000D02*
X58610000Y-38110000D01*
X58610000Y-38110000D02*
X48390000Y-38110000D01*
%TO.C,C27*%
X124524050Y-82273752D02*
X124524050Y-80851248D01*
X126344050Y-82273752D02*
X126344050Y-80851248D01*
%TO.C,U3*%
X82950000Y-45260000D02*
X82950000Y-52010000D01*
X82950000Y-45260000D02*
X100950000Y-45260000D01*
X82950000Y-70010000D02*
X82950000Y-70760000D01*
X82950000Y-70760000D02*
X83700000Y-70760000D01*
X83700000Y-70760000D02*
X85450000Y-70760000D01*
X100200000Y-70760000D02*
X98450000Y-70760000D01*
X100950000Y-45260000D02*
X100950000Y-52010000D01*
X100950000Y-51200000D02*
X82950000Y-51200000D01*
X100950000Y-70010000D02*
X100950000Y-70760000D01*
X100950000Y-70760000D02*
X100200000Y-70760000D01*
D12*
%TO.C,U4*%
X89774400Y-29072550D02*
X89774400Y-30723550D01*
X90762460Y-29072550D02*
X89774400Y-29072550D01*
X91085040Y-30723550D02*
X91714960Y-30723550D01*
X93025600Y-29072550D02*
X92037540Y-29072550D01*
X93025600Y-30723550D02*
X93025600Y-29072550D01*
X88758400Y-31148050D02*
G75*
G02*
X88504400Y-31148050I-127000J0D01*
G01*
X88504400Y-31148050D02*
G75*
G02*
X88758400Y-31148050I127000J0D01*
G01*
D11*
%TO.C,Q4*%
X63490000Y-89462500D02*
X63490000Y-88812500D01*
X63490000Y-89462500D02*
X63490000Y-90112500D01*
X66610000Y-89462500D02*
X66610000Y-88812500D01*
X66610000Y-89462500D02*
X66610000Y-90112500D01*
X66890000Y-88540000D02*
X66560000Y-88300000D01*
X66890000Y-88060000D01*
X66890000Y-88540000D01*
G36*
X66890000Y-88540000D02*
G01*
X66560000Y-88300000D01*
X66890000Y-88060000D01*
X66890000Y-88540000D01*
G37*
%TO.C,J1*%
X86940000Y-25410000D02*
X86940000Y-21050000D01*
X89440000Y-25410000D02*
X86940000Y-25410000D01*
X92300000Y-25610000D02*
X92960000Y-25610000D01*
X92960000Y-25410000D02*
X92960000Y-25610000D01*
X95460000Y-25410000D02*
X92960000Y-25410000D01*
X95460000Y-25410000D02*
X95460000Y-21050000D01*
%TO.C,J6*%
X130740000Y-111566987D02*
X131490000Y-112000000D01*
X130740000Y-112433013D02*
X130740000Y-111566987D01*
X131490000Y-112000000D02*
X130740000Y-112433013D01*
X131730000Y-109729437D02*
X132394437Y-109065000D01*
X131730000Y-126935000D02*
X131730000Y-109729437D01*
X132394437Y-109065000D02*
X137230000Y-109065000D01*
X137230000Y-108365000D02*
X138150000Y-108365000D01*
X137230000Y-109065000D02*
X137230000Y-108365000D01*
X137230000Y-126935000D02*
X131730000Y-126935000D01*
X137230000Y-127635000D02*
X137230000Y-126935000D01*
X138150000Y-108365000D02*
X138150000Y-127635000D01*
X138150000Y-127635000D02*
X137230000Y-127635000D01*
%TO.C,S0_Comp_3*%
X55670000Y-182130000D02*
X68490000Y-182130000D01*
X55670000Y-184730000D02*
X55670000Y-182130000D01*
X55670000Y-187330000D02*
X55670000Y-186000000D01*
X57000000Y-187330000D02*
X55670000Y-187330000D01*
X58270000Y-184730000D02*
X55670000Y-184730000D01*
X58270000Y-187330000D02*
X58270000Y-184730000D01*
X58270000Y-187330000D02*
X68490000Y-187330000D01*
X68490000Y-187330000D02*
X68490000Y-182130000D01*
%TO.C,U6*%
X123180000Y-68290000D02*
X123180000Y-69550000D01*
X123180000Y-75110000D02*
X123180000Y-73850000D01*
X126940000Y-68290000D02*
X123180000Y-68290000D01*
X126940000Y-75110000D02*
X123180000Y-75110000D01*
X128460000Y-75340000D02*
X127980000Y-75340000D01*
X128220000Y-75010000D01*
X128460000Y-75340000D01*
G36*
X128460000Y-75340000D02*
G01*
X127980000Y-75340000D01*
X128220000Y-75010000D01*
X128460000Y-75340000D01*
G37*
%TD*%
%LPC*%
D13*
%TO.C,U1*%
X71400000Y-31062500D03*
X69100000Y-31062500D03*
D14*
X69100000Y-37362500D03*
D13*
X66800000Y-31062500D03*
%TD*%
D15*
%TO.C,SW2*%
X110500000Y-38500000D03*
X117000000Y-38500000D03*
X110500000Y-43000000D03*
X117000000Y-43000000D03*
%TD*%
D16*
%TO.C,R11*%
X65500000Y-83000000D03*
X65500000Y-86100000D03*
%TD*%
%TO.C,R20*%
X120384050Y-81275000D03*
X120384050Y-84375000D03*
%TD*%
D17*
%TO.C,D6*%
X138500000Y-64840000D03*
D18*
X138500000Y-75000000D03*
%TD*%
D15*
%TO.C,SW9*%
X40440000Y-103000000D03*
X46940000Y-103000000D03*
X40440000Y-107500000D03*
X46940000Y-107500000D03*
%TD*%
D19*
%TO.C,D7*%
X43400000Y-113000000D03*
D20*
X45940000Y-113000000D03*
%TD*%
D21*
%TO.C,R4*%
X86500000Y-38500000D03*
X83400000Y-38500000D03*
%TD*%
D17*
%TO.C,D4*%
X51560000Y-74500000D03*
D18*
X41400000Y-74500000D03*
%TD*%
D22*
%TO.C,U14*%
X134000000Y-81095000D03*
X134000000Y-83000000D03*
X135894050Y-82047500D03*
%TD*%
D21*
%TO.C,R3*%
X86500000Y-36000000D03*
X83400000Y-36000000D03*
%TD*%
D23*
%TO.C,Q5*%
X116050000Y-89275000D03*
X117950000Y-89275000D03*
X117000000Y-87400000D03*
%TD*%
D17*
%TO.C,D2*%
X69740000Y-24000000D03*
D18*
X79900000Y-24000000D03*
%TD*%
D24*
%TO.C,C8*%
X93025000Y-36500000D03*
X89900000Y-36500000D03*
%TD*%
D25*
%TO.C,S0_Comp_0*%
X57000000Y-141000000D03*
D26*
X57000000Y-138460000D03*
X59540000Y-141000000D03*
X59540000Y-138460000D03*
X62080000Y-141000000D03*
X62080000Y-138460000D03*
X64620000Y-141000000D03*
X64620000Y-138460000D03*
X67160000Y-141000000D03*
X67160000Y-138460000D03*
%TD*%
D27*
%TO.C,R22*%
X131500000Y-87900000D03*
X134600000Y-87900000D03*
%TD*%
D25*
%TO.C,S1_Comp_2*%
X116900000Y-171000000D03*
D26*
X116900000Y-168460000D03*
X119440000Y-171000000D03*
X119440000Y-168460000D03*
X121980000Y-171000000D03*
X121980000Y-168460000D03*
X124520000Y-171000000D03*
X124520000Y-168460000D03*
X127060000Y-171000000D03*
X127060000Y-168460000D03*
%TD*%
D28*
%TO.C,J7*%
X108000000Y-81500000D03*
X108000000Y-79500000D03*
X108000000Y-77500000D03*
X108000000Y-75500000D03*
X108000000Y-73500000D03*
X108000000Y-71500000D03*
X108000000Y-69500000D03*
%TD*%
D29*
%TO.C,J3*%
X40675000Y-80700000D03*
X40675000Y-81350000D03*
X40675000Y-82000000D03*
X40675000Y-82650000D03*
X40675000Y-83300000D03*
D30*
X38000000Y-78700000D03*
D31*
X40450000Y-78800000D03*
D32*
X38000000Y-80800000D03*
X38000000Y-83200000D03*
D31*
X40450000Y-85200000D03*
D30*
X38000000Y-85300000D03*
%TD*%
D15*
%TO.C,SW1*%
X110500000Y-29500000D03*
X117000000Y-29500000D03*
X110500000Y-34000000D03*
X117000000Y-34000000D03*
%TD*%
D23*
%TO.C,Q3*%
X68050000Y-90400000D03*
X69950000Y-90400000D03*
X69000000Y-88525000D03*
%TD*%
D27*
%TO.C,R6*%
X79390000Y-30500000D03*
X82490000Y-30500000D03*
%TD*%
D21*
%TO.C,R14*%
X50600000Y-89950000D03*
X47500000Y-89950000D03*
%TD*%
D25*
%TO.C,S1_Comp_3*%
X116900000Y-186000000D03*
D26*
X116900000Y-183460000D03*
X119440000Y-186000000D03*
X119440000Y-183460000D03*
X121980000Y-186000000D03*
X121980000Y-183460000D03*
X124520000Y-186000000D03*
X124520000Y-183460000D03*
X127060000Y-186000000D03*
X127060000Y-183460000D03*
%TD*%
D33*
%TO.C,S0*%
X58250000Y-102745000D03*
X58250000Y-104015000D03*
X58250000Y-105285000D03*
X58250000Y-106555000D03*
X58250000Y-107825000D03*
X58250000Y-109095000D03*
X58250000Y-110365000D03*
X58250000Y-111635000D03*
X58250000Y-112905000D03*
X58250000Y-114175000D03*
X58250000Y-115445000D03*
X58250000Y-116715000D03*
X58250000Y-117985000D03*
X58250000Y-119255000D03*
X58250000Y-120525000D03*
X58250000Y-121795000D03*
X58250000Y-123065000D03*
X58250000Y-124335000D03*
X58250000Y-125605000D03*
X75750000Y-125605000D03*
X75750000Y-124335000D03*
X75750000Y-123065000D03*
X75750000Y-121795000D03*
X75750000Y-120525000D03*
X75750000Y-119255000D03*
X75750000Y-117985000D03*
X75750000Y-116715000D03*
X75750000Y-115445000D03*
X75750000Y-114175000D03*
X75750000Y-112905000D03*
X75750000Y-111635000D03*
X75750000Y-110365000D03*
X75750000Y-109095000D03*
X75750000Y-107825000D03*
X75750000Y-106555000D03*
X75750000Y-105285000D03*
X75750000Y-104015000D03*
X75750000Y-102745000D03*
D34*
X64095000Y-109140000D03*
X64100000Y-110540000D03*
X64100000Y-111940000D03*
X65500000Y-109140000D03*
X65500000Y-110540000D03*
X65500000Y-111940000D03*
X66900000Y-109140000D03*
X66900000Y-110540000D03*
X66900000Y-111940000D03*
%TD*%
D22*
%TO.C,U9*%
X50500000Y-82700000D03*
X50500000Y-80795000D03*
X48605950Y-81747500D03*
%TD*%
D25*
%TO.C,S1_Comp_0*%
X116900000Y-141000000D03*
D26*
X116900000Y-138460000D03*
X119440000Y-141000000D03*
X119440000Y-138460000D03*
X121980000Y-141000000D03*
X121980000Y-138460000D03*
X124520000Y-141000000D03*
X124520000Y-138460000D03*
X127060000Y-141000000D03*
X127060000Y-138460000D03*
%TD*%
D19*
%TO.C,D8*%
X66860000Y-62400000D03*
D20*
X69400000Y-62400000D03*
%TD*%
D16*
%TO.C,R12*%
X68500000Y-83000000D03*
X68500000Y-86100000D03*
%TD*%
D25*
%TO.C,S0_Comp_1*%
X57000000Y-156000000D03*
D26*
X57000000Y-153460000D03*
X59540000Y-156000000D03*
X59540000Y-153460000D03*
X62080000Y-156000000D03*
X62080000Y-153460000D03*
X64620000Y-156000000D03*
X64620000Y-153460000D03*
X67160000Y-156000000D03*
X67160000Y-153460000D03*
%TD*%
D15*
%TO.C,SW10*%
X64950000Y-52400000D03*
X71450000Y-52400000D03*
X64950000Y-56900000D03*
X71450000Y-56900000D03*
%TD*%
%TO.C,SW4*%
X81940000Y-100500000D03*
X88440000Y-100500000D03*
X81940000Y-105000000D03*
X88440000Y-105000000D03*
%TD*%
%TO.C,SW3*%
X82000000Y-91750000D03*
X88500000Y-91750000D03*
X82000000Y-96250000D03*
X88500000Y-96250000D03*
%TD*%
%TO.C,SW5*%
X132440000Y-93000000D03*
X138940000Y-93000000D03*
X132440000Y-97500000D03*
X138940000Y-97500000D03*
%TD*%
D35*
%TO.C,C26*%
X127934050Y-83125000D03*
X127934050Y-80000000D03*
%TD*%
D36*
%TO.C,Q6*%
X121834050Y-87400000D03*
X119934050Y-87400000D03*
X120884050Y-89275000D03*
%TD*%
D21*
%TO.C,R13*%
X44100000Y-89950000D03*
X41000000Y-89950000D03*
%TD*%
D17*
%TO.C,D3*%
X44100000Y-35160000D03*
D18*
X44100000Y-25000000D03*
%TD*%
D25*
%TO.C,S0_Comp_2*%
X57000000Y-171000000D03*
D26*
X57000000Y-168460000D03*
X59540000Y-171000000D03*
X59540000Y-168460000D03*
X62080000Y-171000000D03*
X62080000Y-168460000D03*
X64620000Y-171000000D03*
X64620000Y-168460000D03*
X67160000Y-171000000D03*
X67160000Y-168460000D03*
%TD*%
D16*
%TO.C,R19*%
X117500000Y-81275000D03*
X117500000Y-84375000D03*
%TD*%
D19*
%TO.C,D1*%
X52440000Y-45500000D03*
D20*
X49900000Y-45500000D03*
%TD*%
D33*
%TO.C,S1*%
X108250000Y-102745000D03*
X108250000Y-104015000D03*
X108250000Y-105285000D03*
X108250000Y-106555000D03*
X108250000Y-107825000D03*
X108250000Y-109095000D03*
X108250000Y-110365000D03*
X108250000Y-111635000D03*
X108250000Y-112905000D03*
X108250000Y-114175000D03*
X108250000Y-115445000D03*
X108250000Y-116715000D03*
X108250000Y-117985000D03*
X108250000Y-119255000D03*
X108250000Y-120525000D03*
X108250000Y-121795000D03*
X108250000Y-123065000D03*
X108250000Y-124335000D03*
X108250000Y-125605000D03*
X125750000Y-125605000D03*
X125750000Y-124335000D03*
X125750000Y-123065000D03*
X125750000Y-121795000D03*
X125750000Y-120525000D03*
X125750000Y-119255000D03*
X125750000Y-117985000D03*
X125750000Y-116715000D03*
X125750000Y-115445000D03*
X125750000Y-114175000D03*
X125750000Y-112905000D03*
X125750000Y-111635000D03*
X125750000Y-110365000D03*
X125750000Y-109095000D03*
X125750000Y-107825000D03*
X125750000Y-106555000D03*
X125750000Y-105285000D03*
X125750000Y-104015000D03*
X125750000Y-102745000D03*
D34*
X114095000Y-109140000D03*
X114100000Y-110540000D03*
X114100000Y-111940000D03*
X115500000Y-109140000D03*
X115500000Y-110540000D03*
X115500000Y-111940000D03*
X116900000Y-109140000D03*
X116900000Y-110540000D03*
X116900000Y-111940000D03*
%TD*%
D37*
%TO.C,C18*%
X60000000Y-80450000D03*
X60000000Y-83575000D03*
%TD*%
D15*
%TO.C,SW6*%
X132440000Y-101000000D03*
X138940000Y-101000000D03*
X132440000Y-105500000D03*
X138940000Y-105500000D03*
%TD*%
%TO.C,SW7*%
X93000000Y-106000000D03*
X99500000Y-106000000D03*
X93000000Y-110500000D03*
X99500000Y-110500000D03*
%TD*%
D19*
%TO.C,D10*%
X95230000Y-117500000D03*
D20*
X97770000Y-117500000D03*
%TD*%
D38*
%TO.C,U2*%
X47700000Y-71300000D03*
X47700000Y-69000000D03*
D39*
X41400000Y-69000000D03*
D38*
X47700000Y-66700000D03*
%TD*%
D40*
%TO.C,Q1*%
X79400000Y-35500000D03*
X79400000Y-37400000D03*
X81275000Y-36450000D03*
%TD*%
D25*
%TO.C,S1_Comp_1*%
X116900000Y-156000000D03*
D26*
X116900000Y-153460000D03*
X119440000Y-156000000D03*
X119440000Y-153460000D03*
X121980000Y-156000000D03*
X121980000Y-153460000D03*
X124520000Y-156000000D03*
X124520000Y-153460000D03*
X127060000Y-156000000D03*
X127060000Y-153460000D03*
%TD*%
D41*
%TO.C,R5*%
X84940000Y-30647500D03*
X84940000Y-27547500D03*
%TD*%
D42*
%TO.C,J8*%
X85440000Y-111500000D03*
X85440000Y-113500000D03*
X85440000Y-115500000D03*
X85440000Y-117500000D03*
X85440000Y-119500000D03*
X85440000Y-121500000D03*
X85440000Y-123500000D03*
%TD*%
D27*
%TO.C,R21*%
X136500000Y-87900000D03*
X139600000Y-87900000D03*
%TD*%
D24*
%TO.C,C9*%
X93025000Y-39000000D03*
X89900000Y-39000000D03*
%TD*%
D37*
%TO.C,C17*%
X57500000Y-80450000D03*
X57500000Y-83575000D03*
%TD*%
D43*
%TO.C,Q2*%
X81275000Y-40950000D03*
X81275000Y-39050000D03*
X79400000Y-40000000D03*
%TD*%
D44*
%TO.C,J2*%
X143325000Y-83300000D03*
X143325000Y-82650000D03*
X143325000Y-82000000D03*
X143325000Y-81350000D03*
X143325000Y-80700000D03*
D30*
X146000000Y-85300000D03*
D45*
X143550000Y-85200000D03*
D46*
X146000000Y-83200000D03*
X146000000Y-80800000D03*
D45*
X143550000Y-78800000D03*
D30*
X146000000Y-78700000D03*
%TD*%
D47*
%TO.C,J5*%
X53500000Y-35000000D03*
D48*
X53500000Y-26000000D03*
D49*
X53500000Y-32000000D03*
D50*
X49000000Y-33000000D03*
X58000000Y-33000000D03*
%TD*%
D35*
%TO.C,C27*%
X125434050Y-83125000D03*
X125434050Y-80000000D03*
%TD*%
D33*
%TO.C,U3*%
X83200000Y-52750000D03*
X83200000Y-54020000D03*
X83200000Y-55290000D03*
X83200000Y-56560000D03*
X83200000Y-57830000D03*
X83200000Y-59100000D03*
X83200000Y-60370000D03*
X83200000Y-61640000D03*
X83200000Y-62910000D03*
X83200000Y-64180000D03*
X83200000Y-65450000D03*
X83200000Y-66720000D03*
X83200000Y-67990000D03*
X83200000Y-69260000D03*
D51*
X86230000Y-70510000D03*
X87500000Y-70510000D03*
X88770000Y-70510000D03*
X90040000Y-70510000D03*
X91310000Y-70510000D03*
X92580000Y-70510000D03*
X93850000Y-70510000D03*
X95120000Y-70510000D03*
X96390000Y-70510000D03*
X97660000Y-70510000D03*
D33*
X100700000Y-69260000D03*
X100700000Y-67990000D03*
X100700000Y-66720000D03*
X100700000Y-65450000D03*
X100700000Y-64180000D03*
X100700000Y-62910000D03*
X100700000Y-61640000D03*
X100700000Y-60370000D03*
X100700000Y-59100000D03*
X100700000Y-57830000D03*
X100700000Y-56560000D03*
X100700000Y-55290000D03*
X100700000Y-54020000D03*
X100700000Y-52750000D03*
D34*
X89050000Y-59070000D03*
X89050000Y-59070000D03*
X89050000Y-60470000D03*
X89050000Y-61870000D03*
X89050000Y-61870000D03*
X90450000Y-59070000D03*
X90450000Y-60470000D03*
X90450000Y-61870000D03*
X90450000Y-61870000D03*
X91850000Y-59070000D03*
X91850000Y-60470000D03*
X91850000Y-61870000D03*
%TD*%
D52*
%TO.C,U4*%
X90447500Y-30894050D03*
X92352500Y-30894050D03*
X91400000Y-29000000D03*
%TD*%
D36*
%TO.C,Q4*%
X66000000Y-88525000D03*
X64100000Y-88525000D03*
X65050000Y-90400000D03*
%TD*%
D53*
%TO.C,J1*%
X92500000Y-24675000D03*
X91850000Y-24675000D03*
X91200000Y-24675000D03*
X90550000Y-24675000D03*
X89900000Y-24675000D03*
D54*
X94500000Y-22000000D03*
D55*
X94400000Y-24450000D03*
D56*
X92400000Y-22000000D03*
X90000000Y-22000000D03*
D55*
X88000000Y-24450000D03*
D54*
X87900000Y-22000000D03*
%TD*%
D42*
%TO.C,J6*%
X134940000Y-112000000D03*
X134940000Y-114000000D03*
X134940000Y-116000000D03*
X134940000Y-118000000D03*
X134940000Y-120000000D03*
X134940000Y-122000000D03*
X134940000Y-124000000D03*
%TD*%
D25*
%TO.C,S0_Comp_3*%
X57000000Y-186000000D03*
D26*
X57000000Y-183460000D03*
X59540000Y-186000000D03*
X59540000Y-183460000D03*
X62080000Y-186000000D03*
X62080000Y-183460000D03*
X64620000Y-186000000D03*
X64620000Y-183460000D03*
X67160000Y-186000000D03*
X67160000Y-183460000D03*
%TD*%
D38*
%TO.C,U6*%
X128240000Y-74000000D03*
X128240000Y-71700000D03*
D39*
X121940000Y-71700000D03*
D38*
X128240000Y-69400000D03*
%TD*%
D25*
%TO.C,J4*%
X128540000Y-61540000D03*
D26*
X128540000Y-59000000D03*
X126000000Y-61540000D03*
X126000000Y-59000000D03*
X123460000Y-61540000D03*
X123460000Y-59000000D03*
X120920000Y-61540000D03*
X120920000Y-59000000D03*
X118380000Y-61540000D03*
X118380000Y-59000000D03*
X115840000Y-61540000D03*
X115840000Y-59000000D03*
X113300000Y-61540000D03*
X113300000Y-59000000D03*
%TD*%
D57*
X93600000Y-77900000D03*
X91200000Y-77900000D03*
X92400000Y-77900000D03*
%LPD*%
M02*
