%TF.GenerationSoftware,KiCad,Pcbnew,9.0.0*%
%TF.CreationDate,2025-04-09T12:56:57-04:00*%
%TF.ProjectId,Network_and_Switch,4e657477-6f72-46b5-9f61-6e645f537769,rev?*%
%TF.SameCoordinates,Original*%
%TF.FileFunction,Paste,Top*%
%TF.FilePolarity,Positive*%
%FSLAX46Y46*%
G04 Gerber Fmt 4.6, Leading zero omitted, Abs format (unit mm)*
G04 Created by KiCad (PCBNEW 9.0.0) date 2025-04-09 12:56:57*
%MOMM*%
%LPD*%
G01*
G04 APERTURE LIST*
G04 Aperture macros list*
%AMRoundRect*
0 Rectangle with rounded corners*
0 $1 Rounding radius*
0 $2 $3 $4 $5 $6 $7 $8 $9 X,Y pos of 4 corners*
0 Add a 4 corners polygon primitive as box body*
4,1,4,$2,$3,$4,$5,$6,$7,$8,$9,$2,$3,0*
0 Add four circle primitives for the rounded corners*
1,1,$1+$1,$2,$3*
1,1,$1+$1,$4,$5*
1,1,$1+$1,$6,$7*
1,1,$1+$1,$8,$9*
0 Add four rect primitives between the rounded corners*
20,1,$1+$1,$2,$3,$4,$5,0*
20,1,$1+$1,$4,$5,$6,$7,0*
20,1,$1+$1,$6,$7,$8,$9,0*
20,1,$1+$1,$8,$9,$2,$3,0*%
G04 Aperture macros list end*
%ADD10RoundRect,0.375000X-0.375000X0.625000X-0.375000X-0.625000X0.375000X-0.625000X0.375000X0.625000X0*%
%ADD11RoundRect,0.500000X-1.400000X0.500000X-1.400000X-0.500000X1.400000X-0.500000X1.400000X0.500000X0*%
%ADD12RoundRect,0.250000X-0.625000X0.400000X-0.625000X-0.400000X0.625000X-0.400000X0.625000X0.400000X0*%
%ADD13RoundRect,0.250000X0.400000X0.625000X-0.400000X0.625000X-0.400000X-0.625000X0.400000X-0.625000X0*%
%ADD14R,1.625600X0.609600*%
%ADD15RoundRect,0.150000X0.150000X-0.587500X0.150000X0.587500X-0.150000X0.587500X-0.150000X-0.587500X0*%
%ADD16RoundRect,0.250000X0.412500X0.650000X-0.412500X0.650000X-0.412500X-0.650000X0.412500X-0.650000X0*%
%ADD17RoundRect,0.250000X-0.400000X-0.625000X0.400000X-0.625000X0.400000X0.625000X-0.400000X0.625000X0*%
%ADD18RoundRect,0.325000X1.425000X-0.325000X1.425000X0.325000X-1.425000X0.325000X-1.425000X-0.325000X0*%
%ADD19RoundRect,0.100000X-0.575000X0.100000X-0.575000X-0.100000X0.575000X-0.100000X0.575000X0.100000X0*%
%ADD20O,1.600000X0.900000*%
%ADD21RoundRect,0.250000X-0.450000X0.550000X-0.450000X-0.550000X0.450000X-0.550000X0.450000X0.550000X0*%
%ADD22RoundRect,0.250000X-0.700000X0.700000X-0.700000X-0.700000X0.700000X-0.700000X0.700000X0.700000X0*%
%ADD23R,1.500000X0.900000*%
%ADD24R,0.900000X0.900000*%
%ADD25RoundRect,0.250000X0.650000X-0.412500X0.650000X0.412500X-0.650000X0.412500X-0.650000X-0.412500X0*%
%ADD26RoundRect,0.150000X-0.150000X0.587500X-0.150000X-0.587500X0.150000X-0.587500X0.150000X0.587500X0*%
%ADD27RoundRect,0.250000X-0.650000X0.412500X-0.650000X-0.412500X0.650000X-0.412500X0.650000X0.412500X0*%
%ADD28RoundRect,0.375000X0.625000X0.375000X-0.625000X0.375000X-0.625000X-0.375000X0.625000X-0.375000X0*%
%ADD29RoundRect,0.500000X0.500000X1.400000X-0.500000X1.400000X-0.500000X-1.400000X0.500000X-1.400000X0*%
%ADD30RoundRect,0.150000X-0.587500X-0.150000X0.587500X-0.150000X0.587500X0.150000X-0.587500X0.150000X0*%
%ADD31RoundRect,0.250000X0.625000X-0.400000X0.625000X0.400000X-0.625000X0.400000X-0.625000X-0.400000X0*%
%ADD32RoundRect,0.325000X-1.425000X0.325000X-1.425000X-0.325000X1.425000X-0.325000X1.425000X0.325000X0*%
%ADD33RoundRect,0.150000X0.587500X0.150000X-0.587500X0.150000X-0.587500X-0.150000X0.587500X-0.150000X0*%
%ADD34RoundRect,0.100000X0.575000X-0.100000X0.575000X0.100000X-0.575000X0.100000X-0.575000X-0.100000X0*%
%ADD35RoundRect,0.250000X0.450000X-0.550000X0.450000X0.550000X-0.450000X0.550000X-0.450000X-0.550000X0*%
%ADD36RoundRect,0.250000X0.700000X-0.700000X0.700000X0.700000X-0.700000X0.700000X-0.700000X-0.700000X0*%
%ADD37R,0.900000X1.500000*%
%ADD38R,0.609600X1.625600*%
%ADD39RoundRect,0.100000X0.100000X0.575000X-0.100000X0.575000X-0.100000X-0.575000X0.100000X-0.575000X0*%
%ADD40O,0.900000X1.600000*%
%ADD41RoundRect,0.250000X0.550000X0.450000X-0.550000X0.450000X-0.550000X-0.450000X0.550000X-0.450000X0*%
%ADD42RoundRect,0.250000X0.700000X0.700000X-0.700000X0.700000X-0.700000X-0.700000X0.700000X-0.700000X0*%
G04 APERTURE END LIST*
D10*
%TO.C,U1*%
X71400000Y-31062500D03*
X69100000Y-31062500D03*
D11*
X69100000Y-37362500D03*
D10*
X66800000Y-31062500D03*
%TD*%
D12*
%TO.C,R11*%
X65500000Y-83000000D03*
X65500000Y-86100000D03*
%TD*%
%TO.C,R20*%
X120384050Y-81275000D03*
X120384050Y-84375000D03*
%TD*%
D13*
%TO.C,R4*%
X86500000Y-38500000D03*
X83400000Y-38500000D03*
%TD*%
D14*
%TO.C,U14*%
X134000000Y-81095000D03*
X134000000Y-83000000D03*
X135894050Y-82047500D03*
%TD*%
D13*
%TO.C,R3*%
X86500000Y-36000000D03*
X83400000Y-36000000D03*
%TD*%
D15*
%TO.C,Q5*%
X116050000Y-89275000D03*
X117950000Y-89275000D03*
X117000000Y-87400000D03*
%TD*%
D16*
%TO.C,C8*%
X93025000Y-36500000D03*
X89900000Y-36500000D03*
%TD*%
D17*
%TO.C,R22*%
X131500000Y-87900000D03*
X134600000Y-87900000D03*
%TD*%
D18*
%TO.C,J7*%
X108000000Y-81500000D03*
X108000000Y-79500000D03*
X108000000Y-77500000D03*
X108000000Y-75500000D03*
X108000000Y-73500000D03*
X108000000Y-71500000D03*
X108000000Y-69500000D03*
%TD*%
D19*
%TO.C,J3*%
X40675000Y-80700000D03*
X40675000Y-81350000D03*
X40675000Y-82000000D03*
X40675000Y-82650000D03*
X40675000Y-83300000D03*
D20*
X38000000Y-78700000D03*
D21*
X40450000Y-78800000D03*
D22*
X38000000Y-80800000D03*
X38000000Y-83200000D03*
D21*
X40450000Y-85200000D03*
D20*
X38000000Y-85300000D03*
%TD*%
D15*
%TO.C,Q3*%
X68050000Y-90400000D03*
X69950000Y-90400000D03*
X69000000Y-88525000D03*
%TD*%
D17*
%TO.C,R6*%
X79390000Y-30500000D03*
X82490000Y-30500000D03*
%TD*%
D13*
%TO.C,R14*%
X50600000Y-89950000D03*
X47500000Y-89950000D03*
%TD*%
D23*
%TO.C,S0*%
X58250000Y-102745000D03*
X58250000Y-104015000D03*
X58250000Y-105285000D03*
X58250000Y-106555000D03*
X58250000Y-107825000D03*
X58250000Y-109095000D03*
X58250000Y-110365000D03*
X58250000Y-111635000D03*
X58250000Y-112905000D03*
X58250000Y-114175000D03*
X58250000Y-115445000D03*
X58250000Y-116715000D03*
X58250000Y-117985000D03*
X58250000Y-119255000D03*
X58250000Y-120525000D03*
X58250000Y-121795000D03*
X58250000Y-123065000D03*
X58250000Y-124335000D03*
X58250000Y-125605000D03*
X75750000Y-125605000D03*
X75750000Y-124335000D03*
X75750000Y-123065000D03*
X75750000Y-121795000D03*
X75750000Y-120525000D03*
X75750000Y-119255000D03*
X75750000Y-117985000D03*
X75750000Y-116715000D03*
X75750000Y-115445000D03*
X75750000Y-114175000D03*
X75750000Y-112905000D03*
X75750000Y-111635000D03*
X75750000Y-110365000D03*
X75750000Y-109095000D03*
X75750000Y-107825000D03*
X75750000Y-106555000D03*
X75750000Y-105285000D03*
X75750000Y-104015000D03*
X75750000Y-102745000D03*
D24*
X64095000Y-109140000D03*
X64100000Y-110540000D03*
X64100000Y-111940000D03*
X65500000Y-109140000D03*
X65500000Y-110540000D03*
X65500000Y-111940000D03*
X66900000Y-109140000D03*
X66900000Y-110540000D03*
X66900000Y-111940000D03*
%TD*%
D14*
%TO.C,U9*%
X50500000Y-82700000D03*
X50500000Y-80795000D03*
X48605950Y-81747500D03*
%TD*%
D12*
%TO.C,R12*%
X68500000Y-83000000D03*
X68500000Y-86100000D03*
%TD*%
D25*
%TO.C,C26*%
X127934050Y-83125000D03*
X127934050Y-80000000D03*
%TD*%
D26*
%TO.C,Q6*%
X121834050Y-87400000D03*
X119934050Y-87400000D03*
X120884050Y-89275000D03*
%TD*%
D13*
%TO.C,R13*%
X44100000Y-89950000D03*
X41000000Y-89950000D03*
%TD*%
D12*
%TO.C,R19*%
X117500000Y-81275000D03*
X117500000Y-84375000D03*
%TD*%
D23*
%TO.C,S1*%
X108250000Y-102745000D03*
X108250000Y-104015000D03*
X108250000Y-105285000D03*
X108250000Y-106555000D03*
X108250000Y-107825000D03*
X108250000Y-109095000D03*
X108250000Y-110365000D03*
X108250000Y-111635000D03*
X108250000Y-112905000D03*
X108250000Y-114175000D03*
X108250000Y-115445000D03*
X108250000Y-116715000D03*
X108250000Y-117985000D03*
X108250000Y-119255000D03*
X108250000Y-120525000D03*
X108250000Y-121795000D03*
X108250000Y-123065000D03*
X108250000Y-124335000D03*
X108250000Y-125605000D03*
X125750000Y-125605000D03*
X125750000Y-124335000D03*
X125750000Y-123065000D03*
X125750000Y-121795000D03*
X125750000Y-120525000D03*
X125750000Y-119255000D03*
X125750000Y-117985000D03*
X125750000Y-116715000D03*
X125750000Y-115445000D03*
X125750000Y-114175000D03*
X125750000Y-112905000D03*
X125750000Y-111635000D03*
X125750000Y-110365000D03*
X125750000Y-109095000D03*
X125750000Y-107825000D03*
X125750000Y-106555000D03*
X125750000Y-105285000D03*
X125750000Y-104015000D03*
X125750000Y-102745000D03*
D24*
X114095000Y-109140000D03*
X114100000Y-110540000D03*
X114100000Y-111940000D03*
X115500000Y-109140000D03*
X115500000Y-110540000D03*
X115500000Y-111940000D03*
X116900000Y-109140000D03*
X116900000Y-110540000D03*
X116900000Y-111940000D03*
%TD*%
D27*
%TO.C,C18*%
X60000000Y-80450000D03*
X60000000Y-83575000D03*
%TD*%
D28*
%TO.C,U2*%
X47700000Y-71300000D03*
X47700000Y-69000000D03*
D29*
X41400000Y-69000000D03*
D28*
X47700000Y-66700000D03*
%TD*%
D30*
%TO.C,Q1*%
X79400000Y-35500000D03*
X79400000Y-37400000D03*
X81275000Y-36450000D03*
%TD*%
D31*
%TO.C,R5*%
X84940000Y-30647500D03*
X84940000Y-27547500D03*
%TD*%
D32*
%TO.C,J8*%
X85440000Y-111500000D03*
X85440000Y-113500000D03*
X85440000Y-115500000D03*
X85440000Y-117500000D03*
X85440000Y-119500000D03*
X85440000Y-121500000D03*
X85440000Y-123500000D03*
%TD*%
D17*
%TO.C,R21*%
X136500000Y-87900000D03*
X139600000Y-87900000D03*
%TD*%
D16*
%TO.C,C9*%
X93025000Y-39000000D03*
X89900000Y-39000000D03*
%TD*%
D27*
%TO.C,C17*%
X57500000Y-80450000D03*
X57500000Y-83575000D03*
%TD*%
D33*
%TO.C,Q2*%
X81275000Y-40950000D03*
X81275000Y-39050000D03*
X79400000Y-40000000D03*
%TD*%
D34*
%TO.C,J2*%
X143325000Y-83300000D03*
X143325000Y-82650000D03*
X143325000Y-82000000D03*
X143325000Y-81350000D03*
X143325000Y-80700000D03*
D20*
X146000000Y-85300000D03*
D35*
X143550000Y-85200000D03*
D36*
X146000000Y-83200000D03*
X146000000Y-80800000D03*
D35*
X143550000Y-78800000D03*
D20*
X146000000Y-78700000D03*
%TD*%
D25*
%TO.C,C27*%
X125434050Y-83125000D03*
X125434050Y-80000000D03*
%TD*%
D23*
%TO.C,U3*%
X83200000Y-52750000D03*
X83200000Y-54020000D03*
X83200000Y-55290000D03*
X83200000Y-56560000D03*
X83200000Y-57830000D03*
X83200000Y-59100000D03*
X83200000Y-60370000D03*
X83200000Y-61640000D03*
X83200000Y-62910000D03*
X83200000Y-64180000D03*
X83200000Y-65450000D03*
X83200000Y-66720000D03*
X83200000Y-67990000D03*
X83200000Y-69260000D03*
D37*
X86230000Y-70510000D03*
X87500000Y-70510000D03*
X88770000Y-70510000D03*
X90040000Y-70510000D03*
X91310000Y-70510000D03*
X92580000Y-70510000D03*
X93850000Y-70510000D03*
X95120000Y-70510000D03*
X96390000Y-70510000D03*
X97660000Y-70510000D03*
D23*
X100700000Y-69260000D03*
X100700000Y-67990000D03*
X100700000Y-66720000D03*
X100700000Y-65450000D03*
X100700000Y-64180000D03*
X100700000Y-62910000D03*
X100700000Y-61640000D03*
X100700000Y-60370000D03*
X100700000Y-59100000D03*
X100700000Y-57830000D03*
X100700000Y-56560000D03*
X100700000Y-55290000D03*
X100700000Y-54020000D03*
X100700000Y-52750000D03*
D24*
X89050000Y-59070000D03*
X89050000Y-59070000D03*
X89050000Y-60470000D03*
X89050000Y-61870000D03*
X89050000Y-61870000D03*
X90450000Y-59070000D03*
X90450000Y-60470000D03*
X90450000Y-61870000D03*
X90450000Y-61870000D03*
X91850000Y-59070000D03*
X91850000Y-60470000D03*
X91850000Y-61870000D03*
%TD*%
D38*
%TO.C,U4*%
X90447500Y-30894050D03*
X92352500Y-30894050D03*
X91400000Y-29000000D03*
%TD*%
D26*
%TO.C,Q4*%
X66000000Y-88525000D03*
X64100000Y-88525000D03*
X65050000Y-90400000D03*
%TD*%
D39*
%TO.C,J1*%
X92500000Y-24675000D03*
X91850000Y-24675000D03*
X91200000Y-24675000D03*
X90550000Y-24675000D03*
X89900000Y-24675000D03*
D40*
X94500000Y-22000000D03*
D41*
X94400000Y-24450000D03*
D42*
X92400000Y-22000000D03*
X90000000Y-22000000D03*
D41*
X88000000Y-24450000D03*
D40*
X87900000Y-22000000D03*
%TD*%
D32*
%TO.C,J6*%
X134940000Y-112000000D03*
X134940000Y-114000000D03*
X134940000Y-116000000D03*
X134940000Y-118000000D03*
X134940000Y-120000000D03*
X134940000Y-122000000D03*
X134940000Y-124000000D03*
%TD*%
D28*
%TO.C,U6*%
X128240000Y-74000000D03*
X128240000Y-71700000D03*
D29*
X121940000Y-71700000D03*
D28*
X128240000Y-69400000D03*
%TD*%
M02*
