%TF.GenerationSoftware,KiCad,Pcbnew,9.0.0*%
%TF.CreationDate,2025-03-28T11:35:54-04:00*%
%TF.ProjectId,Compute Node,436f6d70-7574-4652-904e-6f64652e6b69,rev?*%
%TF.SameCoordinates,Original*%
%TF.FileFunction,Copper,L1,Top*%
%TF.FilePolarity,Positive*%
%FSLAX46Y46*%
G04 Gerber Fmt 4.6, Leading zero omitted, Abs format (unit mm)*
G04 Created by KiCad (PCBNEW 9.0.0) date 2025-03-28 11:35:54*
%MOMM*%
%LPD*%
G01*
G04 APERTURE LIST*
G04 Aperture macros list*
%AMRoundRect*
0 Rectangle with rounded corners*
0 $1 Rounding radius*
0 $2 $3 $4 $5 $6 $7 $8 $9 X,Y pos of 4 corners*
0 Add a 4 corners polygon primitive as box body*
4,1,4,$2,$3,$4,$5,$6,$7,$8,$9,$2,$3,0*
0 Add four circle primitives for the rounded corners*
1,1,$1+$1,$2,$3*
1,1,$1+$1,$4,$5*
1,1,$1+$1,$6,$7*
1,1,$1+$1,$8,$9*
0 Add four rect primitives between the rounded corners*
20,1,$1+$1,$2,$3,$4,$5,0*
20,1,$1+$1,$4,$5,$6,$7,0*
20,1,$1+$1,$6,$7,$8,$9,0*
20,1,$1+$1,$8,$9,$2,$3,0*%
G04 Aperture macros list end*
%TA.AperFunction,ComponentPad*%
%ADD10R,1.700000X1.700000*%
%TD*%
%TA.AperFunction,ComponentPad*%
%ADD11O,1.700000X1.700000*%
%TD*%
%TA.AperFunction,SMDPad,CuDef*%
%ADD12RoundRect,0.250000X-0.412500X-0.650000X0.412500X-0.650000X0.412500X0.650000X-0.412500X0.650000X0*%
%TD*%
%TA.AperFunction,ComponentPad*%
%ADD13C,2.000000*%
%TD*%
%TA.AperFunction,SMDPad,CuDef*%
%ADD14RoundRect,0.250000X-0.400000X-0.625000X0.400000X-0.625000X0.400000X0.625000X-0.400000X0.625000X0*%
%TD*%
%TA.AperFunction,SMDPad,CuDef*%
%ADD15RoundRect,0.250000X0.400000X0.625000X-0.400000X0.625000X-0.400000X-0.625000X0.400000X-0.625000X0*%
%TD*%
%TA.AperFunction,SMDPad,CuDef*%
%ADD16RoundRect,0.100000X0.100000X0.575000X-0.100000X0.575000X-0.100000X-0.575000X0.100000X-0.575000X0*%
%TD*%
%TA.AperFunction,HeatsinkPad*%
%ADD17O,0.900000X1.600000*%
%TD*%
%TA.AperFunction,SMDPad,CuDef*%
%ADD18RoundRect,0.250000X0.550000X0.450000X-0.550000X0.450000X-0.550000X-0.450000X0.550000X-0.450000X0*%
%TD*%
%TA.AperFunction,SMDPad,CuDef*%
%ADD19RoundRect,0.250000X0.700000X0.700000X-0.700000X0.700000X-0.700000X-0.700000X0.700000X-0.700000X0*%
%TD*%
%TA.AperFunction,SMDPad,CuDef*%
%ADD20RoundRect,0.250000X0.412500X0.650000X-0.412500X0.650000X-0.412500X-0.650000X0.412500X-0.650000X0*%
%TD*%
%TA.AperFunction,SMDPad,CuDef*%
%ADD21RoundRect,0.150000X0.587500X0.150000X-0.587500X0.150000X-0.587500X-0.150000X0.587500X-0.150000X0*%
%TD*%
%TA.AperFunction,SMDPad,CuDef*%
%ADD22R,1.625600X0.609600*%
%TD*%
%TA.AperFunction,ComponentPad*%
%ADD23R,2.200000X2.200000*%
%TD*%
%TA.AperFunction,ComponentPad*%
%ADD24O,2.200000X2.200000*%
%TD*%
%TA.AperFunction,SMDPad,CuDef*%
%ADD25RoundRect,0.062500X-0.062500X0.337500X-0.062500X-0.337500X0.062500X-0.337500X0.062500X0.337500X0*%
%TD*%
%TA.AperFunction,SMDPad,CuDef*%
%ADD26RoundRect,0.062500X-0.337500X0.062500X-0.337500X-0.062500X0.337500X-0.062500X0.337500X0.062500X0*%
%TD*%
%TA.AperFunction,HeatsinkPad*%
%ADD27R,3.350000X3.350000*%
%TD*%
%TA.AperFunction,SMDPad,CuDef*%
%ADD28R,1.500000X0.900000*%
%TD*%
%TA.AperFunction,SMDPad,CuDef*%
%ADD29R,0.900000X0.900000*%
%TD*%
%TA.AperFunction,SMDPad,CuDef*%
%ADD30RoundRect,0.375000X-0.625000X-0.375000X0.625000X-0.375000X0.625000X0.375000X-0.625000X0.375000X0*%
%TD*%
%TA.AperFunction,SMDPad,CuDef*%
%ADD31RoundRect,0.500000X-0.500000X-1.400000X0.500000X-1.400000X0.500000X1.400000X-0.500000X1.400000X0*%
%TD*%
%TA.AperFunction,ComponentPad*%
%ADD32R,1.800000X1.800000*%
%TD*%
%TA.AperFunction,ComponentPad*%
%ADD33C,1.800000*%
%TD*%
%TA.AperFunction,SMDPad,CuDef*%
%ADD34RoundRect,0.150000X-0.150000X0.587500X-0.150000X-0.587500X0.150000X-0.587500X0.150000X0.587500X0*%
%TD*%
%TA.AperFunction,ViaPad*%
%ADD35C,0.600000*%
%TD*%
%TA.AperFunction,Conductor*%
%ADD36C,0.200000*%
%TD*%
%TA.AperFunction,Conductor*%
%ADD37C,1.000000*%
%TD*%
%TA.AperFunction,Conductor*%
%ADD38C,0.140000*%
%TD*%
G04 APERTURE END LIST*
D10*
%TO.P,J3,1,Pin_1*%
%TO.N,MOSI*%
X63540000Y-81960000D03*
D11*
%TO.P,J3,2,Pin_2*%
%TO.N,EXT_5V*%
X63540000Y-84500000D03*
%TO.P,J3,3,Pin_3*%
%TO.N,MISO*%
X61000000Y-81960000D03*
%TO.P,J3,4,Pin_4*%
%TO.N,EXT_5V*%
X61000000Y-84500000D03*
%TO.P,J3,5,Pin_5*%
%TO.N,SCLK*%
X58460000Y-81960000D03*
%TO.P,J3,6,Pin_6*%
%TO.N,GND*%
X58460000Y-84500000D03*
%TO.P,J3,7,Pin_7*%
%TO.N,CS*%
X55920000Y-81960000D03*
%TO.P,J3,8,Pin_8*%
%TO.N,GND*%
X55920000Y-84500000D03*
%TO.P,J3,9,Pin_9*%
%TO.N,ACK*%
X53380000Y-81960000D03*
%TO.P,J3,10,Pin_10*%
%TO.N,GND*%
X53380000Y-84500000D03*
%TD*%
D12*
%TO.P,C9,1*%
%TO.N,GND*%
X40375000Y-70500000D03*
%TO.P,C9,2*%
%TO.N,EN*%
X43500000Y-70500000D03*
%TD*%
D13*
%TO.P,SW2,1,1*%
%TO.N,GND*%
X38500000Y-42000000D03*
X45000000Y-42000000D03*
%TO.P,SW2,2,2*%
%TO.N,IO0*%
X38500000Y-46500000D03*
X45000000Y-46500000D03*
%TD*%
D14*
%TO.P,R9,1*%
%TO.N,Net-(U1-32K_XP{slash}GPIO32{slash}ADC1_CH4)*%
X49900000Y-38000000D03*
%TO.P,R9,2*%
%TO.N,Net-(D3-A)*%
X53000000Y-38000000D03*
%TD*%
D15*
%TO.P,R2,1*%
%TO.N,DTR*%
X47000000Y-25500000D03*
%TO.P,R2,2*%
%TO.N,Net-(Q1-B)*%
X43900000Y-25500000D03*
%TD*%
D16*
%TO.P,J2,1,VBUS*%
%TO.N,VBUS*%
X60850000Y-20025000D03*
%TO.P,J2,2,D-*%
%TO.N,Net-(J2-D-)*%
X60200000Y-20025000D03*
%TO.P,J2,3,D+*%
%TO.N,Net-(J2-D+)*%
X59550000Y-20025000D03*
%TO.P,J2,4,ID*%
%TO.N,unconnected-(J2-ID-Pad4)*%
X58900000Y-20025000D03*
%TO.P,J2,5,GND*%
%TO.N,GND*%
X58250000Y-20025000D03*
D17*
%TO.P,J2,6,Shield*%
X62850000Y-17350000D03*
D18*
X62750000Y-19800000D03*
D19*
X60750000Y-17350000D03*
X58350000Y-17350000D03*
D18*
X56350000Y-19800000D03*
D17*
X56250000Y-17350000D03*
%TD*%
D12*
%TO.P,C10,1*%
%TO.N,GND*%
X40375000Y-61500000D03*
%TO.P,C10,2*%
%TO.N,Net-(U1-32K_XN{slash}GPIO33{slash}ADC1_CH5)*%
X43500000Y-61500000D03*
%TD*%
D14*
%TO.P,R3,1*%
%TO.N,RTS*%
X43900000Y-21500000D03*
%TO.P,R3,2*%
%TO.N,Net-(Q2-B)*%
X47000000Y-21500000D03*
%TD*%
D20*
%TO.P,C5,1*%
%TO.N,VDD33*%
X79000000Y-50000000D03*
%TO.P,C5,2*%
%TO.N,GND*%
X75875000Y-50000000D03*
%TD*%
D14*
%TO.P,R7,1*%
%TO.N,Net-(U3-~{SUSPEND})*%
X57900000Y-38000000D03*
%TO.P,R7,2*%
%TO.N,GND*%
X61000000Y-38000000D03*
%TD*%
D20*
%TO.P,C2,1*%
%TO.N,VDD33*%
X79000000Y-59000000D03*
%TO.P,C2,2*%
%TO.N,GND*%
X75875000Y-59000000D03*
%TD*%
D21*
%TO.P,Q1,1,B*%
%TO.N,Net-(Q1-B)*%
X40000000Y-27000000D03*
%TO.P,Q1,2,E*%
%TO.N,RTS*%
X40000000Y-25100000D03*
%TO.P,Q1,3,C*%
%TO.N,EN*%
X38125000Y-26050000D03*
%TD*%
D20*
%TO.P,C6,1*%
%TO.N,VDD33*%
X79000000Y-45500000D03*
%TO.P,C6,2*%
%TO.N,GND*%
X75875000Y-45500000D03*
%TD*%
D13*
%TO.P,SW1,1,1*%
%TO.N,GND*%
X38500000Y-31500000D03*
X45000000Y-31500000D03*
%TO.P,SW1,2,2*%
%TO.N,EN*%
X38500000Y-36000000D03*
X45000000Y-36000000D03*
%TD*%
D22*
%TO.P,U5,1,1*%
%TO.N,GND*%
X69105950Y-24547500D03*
%TO.P,U5,2,2*%
%TO.N,VBUS*%
X69105950Y-26452500D03*
%TO.P,U5,3,3*%
%TO.N,GND*%
X71000000Y-25500000D03*
%TD*%
D12*
%TO.P,C3,1*%
%TO.N,GND*%
X40375000Y-66000000D03*
%TO.P,C3,2*%
%TO.N,EN*%
X43500000Y-66000000D03*
%TD*%
D23*
%TO.P,D2,1,K*%
%TO.N,EXT_5V*%
X79000000Y-17500000D03*
D24*
%TO.P,D2,2,A*%
%TO.N,VBUS*%
X68840000Y-17500000D03*
%TD*%
D25*
%TO.P,U3,1,~{DCD}*%
%TO.N,unconnected-(U3-~{DCD}-Pad1)*%
X60850000Y-29400000D03*
%TO.P,U3,2,~{RI}/CLK*%
%TO.N,unconnected-(U3-~{RI}{slash}CLK-Pad2)*%
X60350000Y-29400000D03*
%TO.P,U3,3,GND*%
%TO.N,GND*%
X59850000Y-29400000D03*
%TO.P,U3,4,D+*%
%TO.N,Net-(J2-D+)*%
X59350000Y-29400000D03*
%TO.P,U3,5,D-*%
%TO.N,Net-(J2-D-)*%
X58850000Y-29400000D03*
%TO.P,U3,6,VDD*%
%TO.N,VDD33*%
X58350000Y-29400000D03*
%TO.P,U3,7,VREGIN*%
X57850000Y-29400000D03*
D26*
%TO.P,U3,8,VBUS*%
%TO.N,Net-(U3-VBUS)*%
X56900000Y-30350000D03*
%TO.P,U3,9,~{RST}*%
%TO.N,Net-(U3-~{RST})*%
X56900000Y-30850000D03*
%TO.P,U3,10,NC*%
%TO.N,unconnected-(U3-NC-Pad10)*%
X56900000Y-31350000D03*
%TO.P,U3,11,~{SUSPEND}*%
%TO.N,Net-(U3-~{SUSPEND})*%
X56900000Y-31850000D03*
%TO.P,U3,12,SUSPEND*%
%TO.N,unconnected-(U3-SUSPEND-Pad12)*%
X56900000Y-32350000D03*
%TO.P,U3,13,CHREN*%
%TO.N,unconnected-(U3-CHREN-Pad13)*%
X56900000Y-32850000D03*
%TO.P,U3,14,CHR1*%
%TO.N,unconnected-(U3-CHR1-Pad14)*%
X56900000Y-33350000D03*
D25*
%TO.P,U3,15,CHR0*%
%TO.N,unconnected-(U3-CHR0-Pad15)*%
X57850000Y-34300000D03*
%TO.P,U3,16,~{WAKEUP}/GPIO.3*%
%TO.N,unconnected-(U3-~{WAKEUP}{slash}GPIO.3-Pad16)*%
X58350000Y-34300000D03*
%TO.P,U3,17,RS485/GPIO.2*%
%TO.N,unconnected-(U3-RS485{slash}GPIO.2-Pad17)*%
X58850000Y-34300000D03*
%TO.P,U3,18,~{RXT}/GPIO.1*%
%TO.N,unconnected-(U3-~{RXT}{slash}GPIO.1-Pad18)*%
X59350000Y-34300000D03*
%TO.P,U3,19,~{TXT}/GPIO.0*%
%TO.N,unconnected-(U3-~{TXT}{slash}GPIO.0-Pad19)*%
X59850000Y-34300000D03*
%TO.P,U3,20,GPIO.6*%
%TO.N,unconnected-(U3-GPIO.6-Pad20)*%
X60350000Y-34300000D03*
%TO.P,U3,21,GPIO.5*%
%TO.N,unconnected-(U3-GPIO.5-Pad21)*%
X60850000Y-34300000D03*
D26*
%TO.P,U3,22,GPIO.4*%
%TO.N,unconnected-(U3-GPIO.4-Pad22)*%
X61800000Y-33350000D03*
%TO.P,U3,23,~{CTS}*%
%TO.N,unconnected-(U3-~{CTS}-Pad23)*%
X61800000Y-32850000D03*
%TO.P,U3,24,~{RTS}*%
%TO.N,RTS*%
X61800000Y-32350000D03*
%TO.P,U3,25,RXD*%
%TO.N,TX*%
X61800000Y-31850000D03*
%TO.P,U3,26,TXD*%
%TO.N,RX*%
X61800000Y-31350000D03*
%TO.P,U3,27,~{DSR}*%
%TO.N,unconnected-(U3-~{DSR}-Pad27)*%
X61800000Y-30850000D03*
%TO.P,U3,28,~{DTR}*%
%TO.N,DTR*%
X61800000Y-30350000D03*
D27*
%TO.P,U3,29,GND*%
%TO.N,GND*%
X59350000Y-31850000D03*
%TD*%
D20*
%TO.P,C7,1*%
%TO.N,VDD33*%
X79000000Y-63500000D03*
%TO.P,C7,2*%
%TO.N,GND*%
X75875000Y-63500000D03*
%TD*%
D28*
%TO.P,U1,1,GND*%
%TO.N,GND*%
X51000000Y-52105000D03*
%TO.P,U1,2,3V3*%
%TO.N,VDD33*%
X51000000Y-53375000D03*
%TO.P,U1,3,EN/CHIP_PU*%
%TO.N,EN*%
X51000000Y-54645000D03*
%TO.P,U1,4,SENSOR_VP/GPIO36/ADC1_CH0*%
%TO.N,unconnected-(U1-SENSOR_VP{slash}GPIO36{slash}ADC1_CH0-Pad4)*%
X51000000Y-55915000D03*
%TO.P,U1,5,SENSOR_VN/GPIO39/ADC1_CH3*%
%TO.N,unconnected-(U1-SENSOR_VN{slash}GPIO39{slash}ADC1_CH3-Pad5)*%
X51000000Y-57185000D03*
%TO.P,U1,6,GPIO34/ADC1_CH6*%
%TO.N,unconnected-(U1-GPIO34{slash}ADC1_CH6-Pad6)*%
X51000000Y-58455000D03*
%TO.P,U1,7,GPIO35/ADC1_CH7*%
%TO.N,unconnected-(U1-GPIO35{slash}ADC1_CH7-Pad7)*%
X51000000Y-59725000D03*
%TO.P,U1,8,32K_XP/GPIO32/ADC1_CH4*%
%TO.N,Net-(U1-32K_XP{slash}GPIO32{slash}ADC1_CH4)*%
X51000000Y-60995000D03*
%TO.P,U1,9,32K_XN/GPIO33/ADC1_CH5*%
%TO.N,Net-(U1-32K_XN{slash}GPIO33{slash}ADC1_CH5)*%
X51000000Y-62265000D03*
%TO.P,U1,10,DAC_1/ADC2_CH8/GPIO25*%
%TO.N,unconnected-(U1-DAC_1{slash}ADC2_CH8{slash}GPIO25-Pad10)*%
X51000000Y-63535000D03*
%TO.P,U1,11,DAC_2/ADC2_CH9/GPIO26*%
%TO.N,unconnected-(U1-DAC_2{slash}ADC2_CH9{slash}GPIO26-Pad11)*%
X51000000Y-64805000D03*
%TO.P,U1,12,ADC2_CH7/GPIO27*%
%TO.N,unconnected-(U1-ADC2_CH7{slash}GPIO27-Pad12)*%
X51000000Y-66075000D03*
%TO.P,U1,13,MTMS/GPIO14/ADC2_CH6*%
%TO.N,SCLK*%
X51000000Y-67345000D03*
%TO.P,U1,14,MTDI/GPIO12/ADC2_CH5*%
%TO.N,MISO*%
X51000000Y-68615000D03*
%TO.P,U1,15,GND*%
%TO.N,GND*%
X51000000Y-69885000D03*
%TO.P,U1,16,MTCK/GPIO13/ADC2_CH4*%
%TO.N,MOSI*%
X51000000Y-71155000D03*
%TO.P,U1,17*%
%TO.N,N/C*%
X51000000Y-72425000D03*
%TO.P,U1,18*%
X51000000Y-73695000D03*
%TO.P,U1,19*%
X51000000Y-74965000D03*
%TO.P,U1,20*%
X68500000Y-74965000D03*
%TO.P,U1,21*%
X68500000Y-73695000D03*
%TO.P,U1,22*%
X68500000Y-72425000D03*
%TO.P,U1,23,MTDO/GPIO15/ADC2_CH3*%
%TO.N,CS*%
X68500000Y-71155000D03*
%TO.P,U1,24,ADC2_CH2/GPIO2*%
%TO.N,ACK*%
X68500000Y-69885000D03*
%TO.P,U1,25,GPIO0/BOOT/ADC2_CH1*%
%TO.N,IO0*%
X68500000Y-68615000D03*
%TO.P,U1,26,ADC2_CH0/GPIO4*%
%TO.N,unconnected-(U1-ADC2_CH0{slash}GPIO4-Pad26)*%
X68500000Y-67345000D03*
%TO.P,U1,27*%
%TO.N,N/C*%
X68500000Y-66075000D03*
%TO.P,U1,28*%
X68500000Y-64805000D03*
%TO.P,U1,29,GPIO5*%
%TO.N,unconnected-(U1-GPIO5-Pad29)*%
X68500000Y-63535000D03*
%TO.P,U1,30,GPIO18*%
%TO.N,unconnected-(U1-GPIO18-Pad30)*%
X68500000Y-62265000D03*
%TO.P,U1,31,GPIO19*%
%TO.N,unconnected-(U1-GPIO19-Pad31)*%
X68500000Y-60995000D03*
%TO.P,U1,32*%
%TO.N,N/C*%
X68500000Y-59725000D03*
%TO.P,U1,33,GPIO21*%
%TO.N,unconnected-(U1-GPIO21-Pad33)*%
X68500000Y-58455000D03*
%TO.P,U1,34,U0RXD/GPIO3*%
%TO.N,TX*%
X68500000Y-57185000D03*
%TO.P,U1,35,U0TXD/GPIO1*%
%TO.N,RX*%
X68500000Y-55915000D03*
%TO.P,U1,36,GPIO22*%
%TO.N,unconnected-(U1-GPIO22-Pad36)*%
X68500000Y-54645000D03*
%TO.P,U1,37,GPIO23*%
%TO.N,unconnected-(U1-GPIO23-Pad37)*%
X68500000Y-53375000D03*
%TO.P,U1,38,GND*%
%TO.N,GND*%
X68500000Y-52105000D03*
D29*
%TO.P,U1,39,GND_THERMAL*%
X56845000Y-58500000D03*
X56850000Y-59900000D03*
X56850000Y-61300000D03*
X58250000Y-58500000D03*
X58250000Y-59900000D03*
X58250000Y-61300000D03*
X59650000Y-58500000D03*
X59650000Y-59900000D03*
X59650000Y-61300000D03*
%TD*%
D20*
%TO.P,C1,1*%
%TO.N,EXT_5V*%
X79000000Y-68000000D03*
%TO.P,C1,2*%
%TO.N,GND*%
X75875000Y-68000000D03*
%TD*%
D22*
%TO.P,U4,1,1*%
%TO.N,Net-(J2-D+)*%
X63504000Y-24649450D03*
%TO.P,U4,2,2*%
%TO.N,Net-(J2-D-)*%
X63504000Y-26554450D03*
%TO.P,U4,3,3*%
%TO.N,GND*%
X65398050Y-25601950D03*
%TD*%
D30*
%TO.P,U2,1,GND*%
%TO.N,GND*%
X74200000Y-29700000D03*
%TO.P,U2,2,VO*%
%TO.N,VDD33*%
X74200000Y-32000000D03*
D31*
X80500000Y-32000000D03*
D30*
%TO.P,U2,3,VI*%
%TO.N,EXT_5V*%
X74200000Y-34300000D03*
%TD*%
D15*
%TO.P,R8,1*%
%TO.N,VDD33*%
X41000000Y-21500000D03*
%TO.P,R8,2*%
%TO.N,EN*%
X37900000Y-21500000D03*
%TD*%
D14*
%TO.P,R6,1*%
%TO.N,VDD33*%
X49900000Y-41500000D03*
%TO.P,R6,2*%
%TO.N,Net-(U3-~{RST})*%
X53000000Y-41500000D03*
%TD*%
D12*
%TO.P,C4,1*%
%TO.N,GND*%
X40375000Y-75000000D03*
%TO.P,C4,2*%
%TO.N,IO0*%
X43500000Y-75000000D03*
%TD*%
D14*
%TO.P,R5,1*%
%TO.N,GND*%
X37900000Y-17500000D03*
%TO.P,R5,2*%
%TO.N,Net-(U3-VBUS)*%
X41000000Y-17500000D03*
%TD*%
D13*
%TO.P,SW3,1,1*%
%TO.N,GND*%
X38500000Y-52500000D03*
X45000000Y-52500000D03*
%TO.P,SW3,2,2*%
%TO.N,Net-(U1-32K_XN{slash}GPIO33{slash}ADC1_CH5)*%
X38500000Y-57000000D03*
X45000000Y-57000000D03*
%TD*%
D32*
%TO.P,D3,1,K*%
%TO.N,GND*%
X49810000Y-31850000D03*
D33*
%TO.P,D3,2,A*%
%TO.N,Net-(D3-A)*%
X52350000Y-31850000D03*
%TD*%
D34*
%TO.P,Q2,1,B*%
%TO.N,Net-(Q2-B)*%
X51950000Y-23625000D03*
%TO.P,Q2,2,E*%
%TO.N,DTR*%
X50050000Y-23625000D03*
%TO.P,Q2,3,C*%
%TO.N,IO0*%
X51000000Y-25500000D03*
%TD*%
D20*
%TO.P,C8,1*%
%TO.N,VDD33*%
X79000000Y-54500000D03*
%TO.P,C8,2*%
%TO.N,GND*%
X75875000Y-54500000D03*
%TD*%
D15*
%TO.P,R4,1*%
%TO.N,Net-(U3-VBUS)*%
X47000000Y-17500000D03*
%TO.P,R4,2*%
%TO.N,VBUS*%
X43900000Y-17500000D03*
%TD*%
D32*
%TO.P,D1,1,K*%
%TO.N,GND*%
X65810000Y-31850000D03*
D33*
%TO.P,D1,2,A*%
%TO.N,Net-(D1-A)*%
X68350000Y-31850000D03*
%TD*%
D15*
%TO.P,R1,1*%
%TO.N,EXT_5V*%
X68500000Y-38000000D03*
%TO.P,R1,2*%
%TO.N,Net-(D1-A)*%
X65400000Y-38000000D03*
%TD*%
D35*
%TO.N,ACK*%
X68600000Y-69900000D03*
%TO.N,*%
X61000000Y-26500000D03*
X61000000Y-25000000D03*
%TO.N,GND*%
X59650000Y-61300000D03*
X52600000Y-76100000D03*
X65500000Y-25500000D03*
X58700000Y-78400000D03*
X76000000Y-63500000D03*
X70900000Y-34800000D03*
X70900000Y-40400000D03*
X47800000Y-71100000D03*
X52800000Y-79000000D03*
X70800000Y-56300000D03*
X49100000Y-66500000D03*
X47000000Y-68000000D03*
X76000000Y-54500000D03*
X76000000Y-50000000D03*
X62500000Y-36700000D03*
X59350000Y-31850000D03*
X64600000Y-43700000D03*
X56400000Y-73500000D03*
X48500000Y-77500000D03*
X58500000Y-23500000D03*
X73100000Y-52000000D03*
X57400000Y-79600000D03*
X56000000Y-20000000D03*
X76000000Y-59000000D03*
X68900000Y-42500000D03*
X70900000Y-31500000D03*
X59650000Y-58500000D03*
X49200000Y-71100000D03*
X61000000Y-36100000D03*
X58000000Y-25000000D03*
X52700000Y-72200000D03*
X58100000Y-27000000D03*
X38000000Y-17500000D03*
X56850000Y-59900000D03*
X56845000Y-58500000D03*
X47700000Y-73100000D03*
X58900000Y-74900000D03*
X72400000Y-42100000D03*
X61000000Y-28000000D03*
X58250000Y-59900000D03*
X57000000Y-22000000D03*
X54600000Y-79500000D03*
X63000000Y-20000000D03*
X46000000Y-73400000D03*
X73100000Y-49300000D03*
X49200000Y-73100000D03*
X40500000Y-75000000D03*
X51000000Y-52000000D03*
X40500000Y-70500000D03*
X54500000Y-71800000D03*
X76000000Y-68000000D03*
X73100000Y-44100000D03*
X66300000Y-54400000D03*
X66300000Y-56800000D03*
X54200000Y-73800000D03*
X53000000Y-70400000D03*
X47000000Y-75900000D03*
X63800000Y-31900000D03*
X71000000Y-25500000D03*
X40500000Y-66000000D03*
X46100000Y-70300000D03*
X59650000Y-59900000D03*
X62400000Y-79500000D03*
X72500000Y-54600000D03*
X66300000Y-52100000D03*
X63200000Y-41700000D03*
X49000000Y-70000000D03*
X59800000Y-77000000D03*
X56850000Y-61300000D03*
X62300000Y-21700000D03*
X62500000Y-39800000D03*
X60000000Y-79700000D03*
X58500000Y-22000000D03*
X54800000Y-76100000D03*
X40500000Y-61500000D03*
X58250000Y-58500000D03*
X60000000Y-23500000D03*
X61100000Y-78300000D03*
X73100000Y-46800000D03*
X71000000Y-52000000D03*
X74000000Y-29500000D03*
X57000000Y-23500000D03*
X58250000Y-61300000D03*
X50200000Y-78900000D03*
X76000000Y-45500000D03*
X69000000Y-24500000D03*
X64200000Y-35600000D03*
%TO.N,VDD33*%
X79000000Y-54500000D03*
X51000000Y-53500000D03*
X79000000Y-63500000D03*
X79000000Y-59000000D03*
X79000000Y-50000000D03*
X56500000Y-25000000D03*
X80500000Y-32000000D03*
X50000000Y-41500000D03*
X74000000Y-32000000D03*
X79000000Y-45500000D03*
X41000000Y-21500000D03*
%TO.N,IO0*%
X68500000Y-68615000D03*
X43500000Y-75000000D03*
%TO.N,Net-(U1-32K_XN{slash}GPIO33{slash}ADC1_CH5)*%
X51000000Y-62265000D03*
X43500000Y-61500000D03*
%TO.N,CS*%
X68500000Y-71155000D03*
%TO.N,RTS*%
X43900000Y-21500000D03*
X62500000Y-35500000D03*
%TO.N,DTR*%
X50050000Y-23625000D03*
X63500000Y-29500000D03*
%TD*%
D36*
%TO.N,ACK*%
X68585000Y-69885000D02*
X68600000Y-69900000D01*
X68500000Y-69885000D02*
X68585000Y-69885000D01*
%TO.N,GND*%
X58250000Y-20025000D02*
X58250000Y-21750000D01*
X49115000Y-69885000D02*
X51000000Y-69885000D01*
X70895000Y-52105000D02*
X71000000Y-52000000D01*
X49000000Y-70000000D02*
X49115000Y-69885000D01*
X68500000Y-52105000D02*
X70895000Y-52105000D01*
X58250000Y-21750000D02*
X58500000Y-22000000D01*
D37*
X62850000Y-17350000D02*
X56250000Y-17350000D01*
D36*
X59850000Y-29400000D02*
X59850000Y-28984202D01*
X59850000Y-28984202D02*
X60834202Y-28000000D01*
X60834202Y-28000000D02*
X61000000Y-28000000D01*
X61000000Y-38000000D02*
X61000000Y-36100000D01*
D37*
%TO.N,EXT_5V*%
X83500000Y-78500000D02*
X77500000Y-84500000D01*
X82000000Y-17500000D02*
X83500000Y-19000000D01*
X82000000Y-38000000D02*
X74500000Y-38000000D01*
X83500000Y-38000000D02*
X83500000Y-63500000D01*
X74500000Y-38000000D02*
X68500000Y-38000000D01*
X79000000Y-17500000D02*
X82000000Y-17500000D01*
X75000000Y-38000000D02*
X74500000Y-38000000D01*
X74200000Y-37200000D02*
X75000000Y-38000000D01*
X83500000Y-63500000D02*
X79000000Y-68000000D01*
X83500000Y-19000000D02*
X83500000Y-38000000D01*
X83500000Y-63500000D02*
X83500000Y-78500000D01*
X63540000Y-84500000D02*
X61000000Y-84500000D01*
X83500000Y-36500000D02*
X82000000Y-38000000D01*
X77500000Y-84500000D02*
X63540000Y-84500000D01*
X74200000Y-34300000D02*
X74200000Y-37200000D01*
D36*
%TO.N,VDD33*%
X57500000Y-26000000D02*
X56500000Y-25000000D01*
X57850000Y-28850000D02*
X57500000Y-28500000D01*
X57850000Y-29400000D02*
X58350000Y-29400000D01*
X57500000Y-28500000D02*
X57500000Y-26000000D01*
X57850000Y-29400000D02*
X57850000Y-28850000D01*
%TO.N,EN*%
X43500000Y-66000000D02*
X48000000Y-61500000D01*
X38500000Y-36000000D02*
X37199000Y-34699000D01*
X43500000Y-70500000D02*
X43500000Y-66000000D01*
X48000000Y-61500000D02*
X48000000Y-56695000D01*
X48000000Y-56695000D02*
X50050000Y-54645000D01*
X37199000Y-47038892D02*
X37199000Y-37301000D01*
X45000000Y-36000000D02*
X38500000Y-36000000D01*
X51000000Y-54645000D02*
X44805108Y-54645000D01*
X38125000Y-25625000D02*
X37900000Y-25400000D01*
X37199000Y-34699000D02*
X37199000Y-26976000D01*
X37199000Y-37301000D02*
X38500000Y-36000000D01*
X50050000Y-54645000D02*
X51000000Y-54645000D01*
X37199000Y-26976000D02*
X38125000Y-26050000D01*
X37900000Y-25400000D02*
X37900000Y-21500000D01*
X38500000Y-36000000D02*
X38000000Y-36000000D01*
X44805108Y-54645000D02*
X37199000Y-47038892D01*
X38125000Y-26050000D02*
X38125000Y-25625000D01*
%TO.N,IO0*%
X42536500Y-61798608D02*
X39038892Y-58301000D01*
X38535160Y-20324000D02*
X38903468Y-20692308D01*
X39163500Y-25709032D02*
X39163500Y-26390968D01*
X51000000Y-25500000D02*
X47169946Y-29330054D01*
X68500000Y-68615000D02*
X67968000Y-68615000D01*
X43500000Y-75000000D02*
X42536500Y-74036500D01*
X40169946Y-29330054D02*
X46301000Y-35461108D01*
X42536500Y-74036500D02*
X42536500Y-61798608D01*
X38903468Y-25449000D02*
X39163500Y-25709032D01*
X37961108Y-58301000D02*
X36798000Y-57137892D01*
X45000000Y-46500000D02*
X38500000Y-46500000D01*
X47169946Y-29330054D02*
X40169946Y-29330054D01*
X38903468Y-26651000D02*
X38903468Y-28063576D01*
X46301000Y-45199000D02*
X45000000Y-46500000D01*
X36798000Y-20790840D02*
X37264840Y-20324000D01*
X46301000Y-35461108D02*
X46301000Y-45199000D01*
X38903468Y-28063576D02*
X40169946Y-29330054D01*
X36798000Y-57137892D02*
X36798000Y-20790840D01*
X39163500Y-26390968D02*
X38903468Y-26651000D01*
X39038892Y-58301000D02*
X37961108Y-58301000D01*
X37264840Y-20324000D02*
X38535160Y-20324000D01*
X38903468Y-20692308D02*
X38903468Y-25449000D01*
%TO.N,Net-(U1-32K_XN{slash}GPIO33{slash}ADC1_CH5)*%
X45000000Y-57000000D02*
X38500000Y-57000000D01*
X43500000Y-61500000D02*
X43500000Y-58500000D01*
X43500000Y-58500000D02*
X45000000Y-57000000D01*
%TO.N,Net-(D1-A)*%
X65400000Y-38000000D02*
X65400000Y-34800000D01*
X65400000Y-34800000D02*
X68350000Y-31850000D01*
%TO.N,VBUS*%
X45076000Y-16324000D02*
X43900000Y-17500000D01*
X68840000Y-17500000D02*
X67740001Y-18599999D01*
X49912160Y-18601000D02*
X47635160Y-16324000D01*
X63851000Y-19114840D02*
X63535160Y-18799000D01*
X60850000Y-20025000D02*
X60850000Y-19350001D01*
X69105950Y-26452500D02*
X63851000Y-21197550D01*
X61964840Y-18799000D02*
X60850000Y-19913840D01*
X60100999Y-18601000D02*
X49912160Y-18601000D01*
X67740001Y-25086551D02*
X69105950Y-26452500D01*
X67740001Y-18599999D02*
X67740001Y-25086551D01*
X63535160Y-18799000D02*
X61964840Y-18799000D01*
X60850000Y-19350001D02*
X60100999Y-18601000D01*
X47635160Y-16324000D02*
X45076000Y-16324000D01*
X63851000Y-21197550D02*
X63851000Y-19114840D01*
X60850000Y-19913840D02*
X60850000Y-20025000D01*
%TO.N,Net-(D3-A)*%
X53000000Y-38500000D02*
X53000000Y-32500000D01*
X53000000Y-32500000D02*
X52350000Y-31850000D01*
D38*
%TO.N,SCLK*%
X49155000Y-67345000D02*
X47000000Y-69500000D01*
X47000000Y-69500000D02*
X47000000Y-74500000D01*
X47000000Y-74500000D02*
X50500000Y-78000000D01*
X54500000Y-78000000D02*
X58460000Y-81960000D01*
X50500000Y-78000000D02*
X54500000Y-78000000D01*
X51000000Y-67345000D02*
X49155000Y-67345000D01*
%TO.N,MISO*%
X57951667Y-78911667D02*
X61000000Y-81960000D01*
X57348147Y-78308147D02*
X57951667Y-78911667D01*
X57263293Y-78223292D02*
X57348147Y-78308147D01*
X55353314Y-77000000D02*
X55678726Y-77000000D01*
X51233000Y-77000000D02*
X54478726Y-77000000D01*
X56040000Y-77000000D02*
X56499619Y-77459619D01*
X48399000Y-74166000D02*
X51233000Y-77000000D01*
X48399000Y-69751057D02*
X48399000Y-74166000D01*
X54753314Y-77274588D02*
X55078726Y-77274588D01*
X55678726Y-77000000D02*
X56040000Y-77000000D01*
X56830019Y-78317156D02*
X56923882Y-78223292D01*
X51000000Y-68615000D02*
X49535057Y-68615000D01*
X56499619Y-77799030D02*
X56405755Y-77892893D01*
X56405755Y-78232304D02*
X56490607Y-78317156D01*
X49535057Y-68615000D02*
X48399000Y-69751057D01*
X56490607Y-78317156D02*
G75*
G03*
X56830019Y-78317156I169706J169704D01*
G01*
X54478726Y-77000000D02*
G75*
G02*
X54616000Y-77137294I-26J-137300D01*
G01*
X56499619Y-77459619D02*
G75*
G02*
X56499595Y-77799006I-169719J-169681D01*
G01*
X55078726Y-77274588D02*
G75*
G03*
X55215988Y-77137294I-26J137288D01*
G01*
X56923882Y-78223292D02*
G75*
G02*
X57263293Y-78223291I169706J-169707D01*
G01*
X55216020Y-77137294D02*
G75*
G02*
X55353314Y-77000020I137280J-6D01*
G01*
X56405755Y-77892893D02*
G75*
G03*
X56405753Y-78232305I169745J-169707D01*
G01*
X54616020Y-77137294D02*
G75*
G03*
X54753314Y-77274580I137280J-6D01*
G01*
%TO.N,MOSI*%
X57836995Y-75371263D02*
X57394129Y-75814130D01*
X56375898Y-75135309D02*
X56102736Y-75408470D01*
X58072951Y-76832362D02*
X57799738Y-77105575D01*
X58836625Y-77256625D02*
X58921478Y-77341478D01*
X57799738Y-77444986D02*
X57884590Y-77529838D01*
X60148500Y-78568500D02*
X63540000Y-81960000D01*
X57394129Y-75814130D02*
X57394130Y-75814130D01*
X58685508Y-76219804D02*
X58242656Y-76662657D01*
X56527000Y-75832733D02*
X56800161Y-75559571D01*
X56102736Y-75747881D02*
X56187588Y-75832733D01*
X52735000Y-71155000D02*
X56375898Y-74795898D01*
X58242656Y-76662657D02*
X58242657Y-76662657D01*
X58224002Y-77529838D02*
X58497214Y-77256625D01*
X51000000Y-71155000D02*
X52735000Y-71155000D01*
X50468000Y-71155000D02*
X51000000Y-71155000D01*
X56800161Y-75559571D02*
X56969866Y-75389866D01*
X57818393Y-76238392D02*
X57818393Y-76238393D01*
X57394130Y-75814130D02*
X56951246Y-76257013D01*
X58600656Y-75795540D02*
X58685508Y-75880392D01*
X57752143Y-74946999D02*
X57836995Y-75031851D01*
X56969866Y-75389866D02*
X57412731Y-74946998D01*
X58242657Y-76662657D02*
X58072951Y-76832362D01*
X57375510Y-76681276D02*
X57818393Y-76238392D01*
X56951246Y-76596424D02*
X57036098Y-76681276D01*
X57818393Y-76238393D02*
X58261244Y-75795539D01*
X58921478Y-77341478D02*
X60148500Y-78568500D01*
X58261244Y-75795539D02*
G75*
G02*
X58600606Y-75795589I169656J-169661D01*
G01*
X56187588Y-75832733D02*
G75*
G03*
X56527000Y-75832733I169706J169704D01*
G01*
X58685508Y-75880392D02*
G75*
G02*
X58685510Y-76219806I-169708J-169708D01*
G01*
X57036098Y-76681276D02*
G75*
G03*
X57375510Y-76681276I169706J169704D01*
G01*
X57412731Y-74946998D02*
G75*
G02*
X57752106Y-74947035I169669J-169702D01*
G01*
X58497214Y-77256625D02*
G75*
G02*
X58836625Y-77256625I169705J-169707D01*
G01*
X57799738Y-77105575D02*
G75*
G03*
X57799718Y-77445006I169662J-169725D01*
G01*
X56951246Y-76257013D02*
G75*
G03*
X56951264Y-76596406I169754J-169687D01*
G01*
X56102736Y-75408470D02*
G75*
G03*
X56102711Y-75747906I169664J-169730D01*
G01*
X57836995Y-75031851D02*
G75*
G02*
X57837038Y-75371306I-169695J-169749D01*
G01*
X56375898Y-74795898D02*
G75*
G02*
X56375895Y-75135305I-169698J-169702D01*
G01*
X57884590Y-77529838D02*
G75*
G03*
X58224002Y-77529838I169706J169704D01*
G01*
D36*
%TO.N,Net-(J2-D+)*%
X60059951Y-26682385D02*
X59590000Y-26682385D01*
X59350000Y-28122385D02*
X59350000Y-28242385D01*
X60775795Y-21921245D02*
X61094368Y-21602669D01*
X61518634Y-22026935D02*
X61200058Y-22345508D01*
X60351142Y-22345899D02*
X60606090Y-22090950D01*
X62048586Y-23194036D02*
X61878880Y-23363741D01*
X61200059Y-22345509D02*
X60775423Y-22770144D01*
X62642555Y-23788003D02*
X62727407Y-23872857D01*
X62048213Y-24042935D02*
X62303144Y-23788003D01*
X60299975Y-27522385D02*
X60299975Y-27642385D01*
X62388356Y-22345148D02*
X62473208Y-22430000D01*
X63044035Y-24189485D02*
X63504000Y-24649450D01*
X62473208Y-22769412D02*
X62048585Y-23194036D01*
X60059975Y-25482385D02*
X59590000Y-25482385D01*
X59590000Y-24882385D02*
X60059975Y-24882385D01*
X59350000Y-28349717D02*
X59350000Y-29400000D01*
X60299951Y-26322385D02*
X60299951Y-26442385D01*
X62048585Y-23194036D02*
X62048586Y-23194036D01*
X61623949Y-23958083D02*
X61708801Y-24042935D01*
X61624322Y-22769771D02*
X61624322Y-22769772D01*
X60181827Y-21666688D02*
X59926878Y-21921636D01*
X59350000Y-25722385D02*
X59350000Y-25842385D01*
X59590000Y-26082385D02*
X60059951Y-26082385D01*
X59350000Y-28242385D02*
X59350000Y-28349717D01*
X59350000Y-26922385D02*
X59350000Y-27042385D01*
X59550000Y-20695450D02*
X60181827Y-21327277D01*
X62727407Y-23872857D02*
X63044035Y-24189485D01*
X59550000Y-20699999D02*
X59350000Y-20899999D01*
X59550000Y-20025000D02*
X59550000Y-20695450D01*
X60775423Y-23109555D02*
X60860275Y-23194407D01*
X59550000Y-20025000D02*
X59550000Y-20699999D01*
X61199687Y-23194407D02*
X61624322Y-22769771D01*
X60059975Y-27882385D02*
X59590000Y-27882385D01*
X60606090Y-22090950D02*
X60775795Y-21921245D01*
X59926878Y-22261047D02*
X60011730Y-22345899D01*
X61878880Y-23363741D02*
X61623949Y-23618672D01*
X60299975Y-25122385D02*
X60299975Y-25242385D01*
X59350000Y-20899999D02*
X59350000Y-24642385D01*
X61433782Y-21602671D02*
X61518634Y-21687523D01*
X61624322Y-22769772D02*
X62048944Y-22345147D01*
X59590000Y-27282385D02*
X60059975Y-27282385D01*
X61200058Y-22345508D02*
X61200059Y-22345509D01*
X61623949Y-23618672D02*
G75*
G03*
X61623926Y-23958105I169751J-169728D01*
G01*
X60299951Y-26442385D02*
G75*
G02*
X60059951Y-26682351I-239951J-15D01*
G01*
X60299975Y-27642385D02*
G75*
G02*
X60059975Y-27882375I-239975J-15D01*
G01*
X62473208Y-22430000D02*
G75*
G02*
X62473202Y-22769406I-169708J-169700D01*
G01*
X60181827Y-21327277D02*
G75*
G02*
X60181845Y-21666705I-169727J-169723D01*
G01*
X61094368Y-21602669D02*
G75*
G02*
X61433808Y-21602645I169732J-169731D01*
G01*
X59590000Y-25482385D02*
G75*
G03*
X59349985Y-25722385I0J-240015D01*
G01*
X61518634Y-21687523D02*
G75*
G02*
X61518605Y-22026906I-169734J-169677D01*
G01*
X60775423Y-22770144D02*
G75*
G03*
X60775472Y-23109505I169677J-169656D01*
G01*
X60860275Y-23194407D02*
G75*
G03*
X61199687Y-23194407I169706J169704D01*
G01*
X59926878Y-21921636D02*
G75*
G03*
X59926919Y-22261005I169722J-169664D01*
G01*
X59350000Y-25842385D02*
G75*
G03*
X59590000Y-26082400I240000J-15D01*
G01*
X60059975Y-24882385D02*
G75*
G02*
X60300015Y-25122385I25J-240015D01*
G01*
X59350000Y-24642385D02*
G75*
G03*
X59590000Y-24882400I240000J-15D01*
G01*
X60011730Y-22345899D02*
G75*
G03*
X60351142Y-22345899I169706J169704D01*
G01*
X60059951Y-26082385D02*
G75*
G02*
X60300015Y-26322385I49J-240015D01*
G01*
X60059975Y-27282385D02*
G75*
G02*
X60300015Y-27522385I25J-240015D01*
G01*
X60299975Y-25242385D02*
G75*
G02*
X60059975Y-25482375I-239975J-15D01*
G01*
X61708801Y-24042935D02*
G75*
G03*
X62048213Y-24042935I169706J169704D01*
G01*
X62303144Y-23788003D02*
G75*
G02*
X62642555Y-23788002I169706J-169707D01*
G01*
X59350000Y-27042385D02*
G75*
G03*
X59590000Y-27282400I240000J-15D01*
G01*
X62048944Y-22345147D02*
G75*
G02*
X62388307Y-22345197I169656J-169753D01*
G01*
X59590000Y-26682385D02*
G75*
G03*
X59349985Y-26922385I0J-240015D01*
G01*
X59590000Y-27882385D02*
G75*
G03*
X59349985Y-28122385I0J-240015D01*
G01*
%TO.N,Net-(J2-D-)*%
X59898999Y-19049000D02*
X57981130Y-19049000D01*
X57981130Y-19049000D02*
X57749000Y-19281130D01*
X66511850Y-26207750D02*
X66511850Y-24996150D01*
X66165150Y-26554450D02*
X66511850Y-26207750D01*
X57749000Y-19281130D02*
X57749000Y-23749000D01*
X60200000Y-20699999D02*
X60200000Y-20025000D01*
X62516700Y-21001000D02*
X60501001Y-21001000D01*
X58850000Y-24850000D02*
X58850000Y-29400000D01*
X66511850Y-24996150D02*
X62516700Y-21001000D01*
X57749000Y-23749000D02*
X58850000Y-24850000D01*
X63504000Y-26554450D02*
X66165150Y-26554450D01*
X60200000Y-20025000D02*
X60200000Y-19350001D01*
X60200000Y-19350001D02*
X59898999Y-19049000D01*
X60501001Y-21001000D02*
X60200000Y-20699999D01*
%TO.N,Net-(Q1-B)*%
X42400000Y-27000000D02*
X43900000Y-25500000D01*
X40000000Y-27000000D02*
X42400000Y-27000000D01*
%TO.N,RTS*%
X62500000Y-32634202D02*
X62500000Y-35500000D01*
X40000000Y-25100000D02*
X43600000Y-21500000D01*
X43600000Y-21500000D02*
X43900000Y-21500000D01*
X61800000Y-32350000D02*
X62215798Y-32350000D01*
X62215798Y-32350000D02*
X62500000Y-32634202D01*
%TO.N,DTR*%
X61800000Y-30350000D02*
X62650000Y-30350000D01*
X48175000Y-25500000D02*
X50050000Y-23625000D01*
X47000000Y-25500000D02*
X48175000Y-25500000D01*
X62650000Y-30350000D02*
X63500000Y-29500000D01*
%TO.N,Net-(Q2-B)*%
X47000000Y-21500000D02*
X49825000Y-21500000D01*
X49825000Y-21500000D02*
X51950000Y-23625000D01*
%TO.N,Net-(U3-VBUS)*%
X56900000Y-26400000D02*
X48000000Y-17500000D01*
X47000000Y-17500000D02*
X45824000Y-18676000D01*
X45824000Y-18676000D02*
X42176000Y-18676000D01*
X42176000Y-18676000D02*
X41000000Y-17500000D01*
X56900000Y-30350000D02*
X56900000Y-26400000D01*
X48000000Y-17500000D02*
X47000000Y-17500000D01*
%TO.N,Net-(U3-~{RST})*%
X56900000Y-30850000D02*
X56484202Y-30850000D01*
X56484202Y-30850000D02*
X53951000Y-33383202D01*
X53951000Y-40549000D02*
X53000000Y-41500000D01*
X53951000Y-33383202D02*
X53951000Y-40549000D01*
%TO.N,Net-(U3-~{SUSPEND})*%
X56199000Y-32135202D02*
X56199000Y-36299000D01*
X56484202Y-31850000D02*
X56199000Y-32135202D01*
X56199000Y-36299000D02*
X57900000Y-38000000D01*
X56900000Y-31850000D02*
X56484202Y-31850000D01*
%TO.N,Net-(U1-32K_XP{slash}GPIO32{slash}ADC1_CH4)*%
X48500000Y-50500000D02*
X49305000Y-51305000D01*
X52005000Y-60995000D02*
X51000000Y-60995000D01*
X49500000Y-38000000D02*
X48500000Y-39000000D01*
X52002000Y-51305000D02*
X52500000Y-51803000D01*
X52500000Y-60500000D02*
X52005000Y-60995000D01*
X49305000Y-51305000D02*
X52002000Y-51305000D01*
X49900000Y-38000000D02*
X49500000Y-38000000D01*
X52500000Y-51803000D02*
X52500000Y-60500000D01*
X48500000Y-39000000D02*
X48500000Y-50500000D01*
%TO.N,TX*%
X67091680Y-40940663D02*
X66962984Y-40811967D01*
X64843151Y-40615316D02*
X64714459Y-40486623D01*
X66130089Y-42417027D02*
X66387476Y-42159640D01*
X67449000Y-51354000D02*
X67449000Y-56666000D01*
X67301388Y-43073552D02*
X69551000Y-45323164D01*
X65486620Y-41773557D02*
X65039809Y-42220368D01*
X64396271Y-40168435D02*
X63101000Y-38873164D01*
X66448210Y-40811967D02*
X65744006Y-41516170D01*
X69551000Y-51354000D02*
X67449000Y-51354000D01*
X65744008Y-41516172D02*
X65486620Y-41773557D01*
X63101000Y-32601000D02*
X62350000Y-31850000D01*
X63101000Y-38873164D02*
X63101000Y-32601000D01*
X64396341Y-41576900D02*
X64843152Y-41130090D01*
X66387476Y-42159640D02*
X66387477Y-42159641D01*
X65811969Y-43507315D02*
X65683272Y-43378618D01*
X64525037Y-42220369D02*
X64396342Y-42091674D01*
X65683271Y-42863844D02*
X66130089Y-42417027D01*
X69551000Y-45323164D02*
X69551000Y-51354000D01*
X64714459Y-40486623D02*
X64396271Y-40168435D01*
X65744006Y-41516170D02*
X65744008Y-41516172D01*
X66773560Y-43060498D02*
X66326741Y-43507314D01*
X67968000Y-57185000D02*
X68500000Y-57185000D01*
X62350000Y-31850000D02*
X61800000Y-31850000D01*
X66387477Y-42159641D02*
X67091680Y-41455437D01*
X67449000Y-56666000D02*
X67968000Y-57185000D01*
X67288334Y-43060498D02*
X67301388Y-43073552D01*
X66962984Y-40811967D02*
G75*
G03*
X66448210Y-40811967I-257387J-257388D01*
G01*
X65683272Y-43378618D02*
G75*
G02*
X65683240Y-42863814I257428J257418D01*
G01*
X64843152Y-41130090D02*
G75*
G03*
X64843154Y-40615312I-257352J257390D01*
G01*
X64396342Y-42091674D02*
G75*
G02*
X64396354Y-41576914I257358J257374D01*
G01*
X66326741Y-43507314D02*
G75*
G02*
X65812014Y-43507270I-257341J257414D01*
G01*
X67288334Y-43060498D02*
G75*
G03*
X66773560Y-43060498I-257387J-257388D01*
G01*
X65039809Y-42220368D02*
G75*
G02*
X64525014Y-42220392I-257409J257368D01*
G01*
X67091680Y-41455437D02*
G75*
G03*
X67091630Y-40940713I-257380J257337D01*
G01*
%TO.N,RX*%
X69551000Y-34462160D02*
X69551000Y-31352529D01*
X72000000Y-43311160D02*
X68188840Y-39500000D01*
X72000000Y-53365000D02*
X72000000Y-43311160D01*
X68847471Y-30649000D02*
X63064798Y-30649000D01*
X62363798Y-31350000D02*
X61800000Y-31350000D01*
X69450000Y-55915000D02*
X72000000Y-53365000D01*
X67500000Y-39500000D02*
X67000000Y-39000000D01*
X69551000Y-31352529D02*
X68847471Y-30649000D01*
X67000000Y-37013160D02*
X69551000Y-34462160D01*
X68500000Y-55915000D02*
X69450000Y-55915000D01*
X68188840Y-39500000D02*
X67500000Y-39500000D01*
X67000000Y-39000000D02*
X67000000Y-37013160D01*
X63064798Y-30649000D02*
X62363798Y-31350000D01*
%TD*%
M02*
