%TF.GenerationSoftware,KiCad,Pcbnew,9.0.0*%
%TF.CreationDate,2025-03-28T11:35:54-04:00*%
%TF.ProjectId,Compute Node,436f6d70-7574-4652-904e-6f64652e6b69,rev?*%
%TF.SameCoordinates,Original*%
%TF.FileFunction,Copper,L2,Inr*%
%TF.FilePolarity,Positive*%
%FSLAX46Y46*%
G04 Gerber Fmt 4.6, Leading zero omitted, Abs format (unit mm)*
G04 Created by KiCad (PCBNEW 9.0.0) date 2025-03-28 11:35:54*
%MOMM*%
%LPD*%
G01*
G04 APERTURE LIST*
%TA.AperFunction,ComponentPad*%
%ADD10R,1.700000X1.700000*%
%TD*%
%TA.AperFunction,ComponentPad*%
%ADD11O,1.700000X1.700000*%
%TD*%
%TA.AperFunction,ComponentPad*%
%ADD12C,2.000000*%
%TD*%
%TA.AperFunction,HeatsinkPad*%
%ADD13O,0.900000X1.600000*%
%TD*%
%TA.AperFunction,ComponentPad*%
%ADD14R,2.200000X2.200000*%
%TD*%
%TA.AperFunction,ComponentPad*%
%ADD15O,2.200000X2.200000*%
%TD*%
%TA.AperFunction,ComponentPad*%
%ADD16R,1.800000X1.800000*%
%TD*%
%TA.AperFunction,ComponentPad*%
%ADD17C,1.800000*%
%TD*%
%TA.AperFunction,ViaPad*%
%ADD18C,0.600000*%
%TD*%
%TA.AperFunction,Conductor*%
%ADD19C,1.000000*%
%TD*%
%TA.AperFunction,Conductor*%
%ADD20C,0.200000*%
%TD*%
G04 APERTURE END LIST*
D10*
%TO.N,MOSI*%
%TO.C,J3*%
X63540000Y-81960000D03*
D11*
%TO.N,EXT_5V*%
X63540000Y-84500000D03*
%TO.N,MISO*%
X61000000Y-81960000D03*
%TO.N,EXT_5V*%
X61000000Y-84500000D03*
%TO.N,SCLK*%
X58460000Y-81960000D03*
%TO.N,GND*%
X58460000Y-84500000D03*
%TO.N,CS*%
X55920000Y-81960000D03*
%TO.N,GND*%
X55920000Y-84500000D03*
%TO.N,ACK*%
X53380000Y-81960000D03*
%TO.N,GND*%
X53380000Y-84500000D03*
%TD*%
D12*
%TO.N,GND*%
%TO.C,SW2*%
X38500000Y-42000000D03*
X45000000Y-42000000D03*
%TO.N,IO0*%
X38500000Y-46500000D03*
X45000000Y-46500000D03*
%TD*%
D13*
%TO.N,GND*%
%TO.C,J2*%
X62850000Y-17350000D03*
X56250000Y-17350000D03*
%TD*%
D12*
%TO.N,GND*%
%TO.C,SW1*%
X38500000Y-31500000D03*
X45000000Y-31500000D03*
%TO.N,EN*%
X38500000Y-36000000D03*
X45000000Y-36000000D03*
%TD*%
D14*
%TO.N,EXT_5V*%
%TO.C,D2*%
X79000000Y-17500000D03*
D15*
%TO.N,VBUS*%
X68840000Y-17500000D03*
%TD*%
D12*
%TO.N,GND*%
%TO.C,SW3*%
X38500000Y-52500000D03*
X45000000Y-52500000D03*
%TO.N,Net-(U1-32K_XN{slash}GPIO33{slash}ADC1_CH5)*%
X38500000Y-57000000D03*
X45000000Y-57000000D03*
%TD*%
D16*
%TO.N,GND*%
%TO.C,D3*%
X49810000Y-31850000D03*
D17*
%TO.N,Net-(D3-A)*%
X52350000Y-31850000D03*
%TD*%
D16*
%TO.N,GND*%
%TO.C,D1*%
X65810000Y-31850000D03*
D17*
%TO.N,Net-(D1-A)*%
X68350000Y-31850000D03*
%TD*%
D18*
%TO.N,ACK*%
X68600000Y-69900000D03*
%TO.N,*%
X61000000Y-26500000D03*
X61000000Y-25000000D03*
%TO.N,GND*%
X59650000Y-61300000D03*
X52600000Y-76100000D03*
X65500000Y-25500000D03*
X58700000Y-78400000D03*
X76000000Y-63500000D03*
X70900000Y-34800000D03*
X70900000Y-40400000D03*
X47800000Y-71100000D03*
X52800000Y-79000000D03*
X70800000Y-56300000D03*
X49100000Y-66500000D03*
X47000000Y-68000000D03*
X76000000Y-54500000D03*
X76000000Y-50000000D03*
X62500000Y-36700000D03*
X59350000Y-31850000D03*
X64600000Y-43700000D03*
X56400000Y-73500000D03*
X48500000Y-77500000D03*
X58500000Y-23500000D03*
X73100000Y-52000000D03*
X57400000Y-79600000D03*
X56000000Y-20000000D03*
X76000000Y-59000000D03*
X68900000Y-42500000D03*
X70900000Y-31500000D03*
X59650000Y-58500000D03*
X49200000Y-71100000D03*
X61000000Y-36100000D03*
X58000000Y-25000000D03*
X52700000Y-72200000D03*
X58100000Y-27000000D03*
X38000000Y-17500000D03*
X56850000Y-59900000D03*
X56845000Y-58500000D03*
X47700000Y-73100000D03*
X58900000Y-74900000D03*
X72400000Y-42100000D03*
X61000000Y-28000000D03*
X58250000Y-59900000D03*
X57000000Y-22000000D03*
X54600000Y-79500000D03*
X63000000Y-20000000D03*
X46000000Y-73400000D03*
X73100000Y-49300000D03*
X49200000Y-73100000D03*
X40500000Y-75000000D03*
X51000000Y-52000000D03*
X40500000Y-70500000D03*
X54500000Y-71800000D03*
X76000000Y-68000000D03*
X73100000Y-44100000D03*
X66300000Y-54400000D03*
X66300000Y-56800000D03*
X54200000Y-73800000D03*
X53000000Y-70400000D03*
X47000000Y-75900000D03*
X63800000Y-31900000D03*
X71000000Y-25500000D03*
X40500000Y-66000000D03*
X46100000Y-70300000D03*
X59650000Y-59900000D03*
X62400000Y-79500000D03*
X72500000Y-54600000D03*
X66300000Y-52100000D03*
X63200000Y-41700000D03*
X49000000Y-70000000D03*
X59800000Y-77000000D03*
X56850000Y-61300000D03*
X62300000Y-21700000D03*
X62500000Y-39800000D03*
X60000000Y-79700000D03*
X58500000Y-22000000D03*
X54800000Y-76100000D03*
X40500000Y-61500000D03*
X58250000Y-58500000D03*
X60000000Y-23500000D03*
X61100000Y-78300000D03*
X73100000Y-46800000D03*
X71000000Y-52000000D03*
X74000000Y-29500000D03*
X57000000Y-23500000D03*
X58250000Y-61300000D03*
X50200000Y-78900000D03*
X76000000Y-45500000D03*
X69000000Y-24500000D03*
X64200000Y-35600000D03*
%TO.N,VDD33*%
X79000000Y-54500000D03*
X51000000Y-53500000D03*
X79000000Y-63500000D03*
X79000000Y-59000000D03*
X79000000Y-50000000D03*
X56500000Y-25000000D03*
X80500000Y-32000000D03*
X50000000Y-41500000D03*
X74000000Y-32000000D03*
X79000000Y-45500000D03*
X41000000Y-21500000D03*
%TO.N,IO0*%
X68500000Y-68615000D03*
X43500000Y-75000000D03*
%TO.N,Net-(U1-32K_XN{slash}GPIO33{slash}ADC1_CH5)*%
X51000000Y-62265000D03*
X43500000Y-61500000D03*
%TO.N,CS*%
X68500000Y-71155000D03*
%TO.N,RTS*%
X43900000Y-21500000D03*
X62500000Y-35500000D03*
%TO.N,DTR*%
X50050000Y-23625000D03*
X63500000Y-29500000D03*
%TD*%
D19*
%TO.N,GND*%
X50500000Y-52500000D02*
X51000000Y-52000000D01*
X74000000Y-29500000D02*
X68160000Y-29500000D01*
D20*
X61000000Y-28000000D02*
X61500000Y-28000000D01*
D19*
X40500000Y-68000000D02*
X40500000Y-75000000D01*
D20*
X59650000Y-58500000D02*
X58250000Y-58500000D01*
D19*
X70000000Y-24500000D02*
X71000000Y-25500000D01*
X59350000Y-31850000D02*
X65810000Y-31850000D01*
X40500000Y-61500000D02*
X40500000Y-68000000D01*
X68160000Y-29500000D02*
X65810000Y-31850000D01*
X68000000Y-25500000D02*
X69000000Y-24500000D01*
X38000000Y-24500000D02*
X38000000Y-17500000D01*
X56250000Y-17350000D02*
X56250000Y-19750000D01*
X65500000Y-25500000D02*
X68000000Y-25500000D01*
X45000000Y-52500000D02*
X38500000Y-52500000D01*
X45000000Y-42000000D02*
X38500000Y-42000000D01*
X38500000Y-17500000D02*
X38650000Y-17350000D01*
X45000000Y-31500000D02*
X49460000Y-31500000D01*
X69000000Y-24500000D02*
X70000000Y-24500000D01*
D20*
X56845000Y-59895000D02*
X56850000Y-59900000D01*
D19*
X38650000Y-17350000D02*
X56250000Y-17350000D01*
X49000000Y-70000000D02*
X42500000Y-70000000D01*
D20*
X56850000Y-61300000D02*
X58250000Y-61300000D01*
D19*
X76000000Y-45500000D02*
X76000000Y-68000000D01*
X56250000Y-19750000D02*
X56000000Y-20000000D01*
X71000000Y-25500000D02*
X71000000Y-26500000D01*
X62850000Y-22850000D02*
X65500000Y-25500000D01*
D20*
X58250000Y-59900000D02*
X59650000Y-59900000D01*
D19*
X38000000Y-17500000D02*
X38500000Y-17500000D01*
X38500000Y-31500000D02*
X45000000Y-31500000D01*
X42500000Y-70000000D02*
X40500000Y-68000000D01*
X71000000Y-26500000D02*
X74000000Y-29500000D01*
X62850000Y-17350000D02*
X62850000Y-22850000D01*
X45000000Y-52500000D02*
X50500000Y-52500000D01*
X56000000Y-20000000D02*
X63000000Y-20000000D01*
D20*
X59650000Y-61300000D02*
X58250000Y-61300000D01*
D19*
X45000000Y-31500000D02*
X38000000Y-24500000D01*
X49460000Y-31500000D02*
X49810000Y-31850000D01*
D20*
X56845000Y-58500000D02*
X56845000Y-59895000D01*
%TD*%
%TA.AperFunction,Conductor*%
%TO.N,GND*%
G36*
X55454075Y-84307007D02*
G01*
X55420000Y-84434174D01*
X55420000Y-84565826D01*
X55454075Y-84692993D01*
X55486988Y-84750000D01*
X53813012Y-84750000D01*
X53845925Y-84692993D01*
X53880000Y-84565826D01*
X53880000Y-84434174D01*
X53845925Y-84307007D01*
X53813012Y-84250000D01*
X55486988Y-84250000D01*
X55454075Y-84307007D01*
G37*
%TD.AperFunction*%
%TA.AperFunction,Conductor*%
G36*
X57994075Y-84307007D02*
G01*
X57960000Y-84434174D01*
X57960000Y-84565826D01*
X57994075Y-84692993D01*
X58026988Y-84750000D01*
X56353012Y-84750000D01*
X56385925Y-84692993D01*
X56420000Y-84565826D01*
X56420000Y-84434174D01*
X56385925Y-84307007D01*
X56353012Y-84250000D01*
X58026988Y-84250000D01*
X57994075Y-84307007D01*
G37*
%TD.AperFunction*%
%TA.AperFunction,Conductor*%
G36*
X84442539Y-13520185D02*
G01*
X84488294Y-13572989D01*
X84499500Y-13624500D01*
X84499500Y-86375500D01*
X84479815Y-86442539D01*
X84427011Y-86488294D01*
X84375500Y-86499500D01*
X35624500Y-86499500D01*
X35557461Y-86479815D01*
X35511706Y-86427011D01*
X35500500Y-86375500D01*
X35500500Y-81853713D01*
X52029500Y-81853713D01*
X52029500Y-82066286D01*
X52062753Y-82276239D01*
X52128444Y-82478414D01*
X52224951Y-82667820D01*
X52349890Y-82839786D01*
X52500213Y-82990109D01*
X52672179Y-83115048D01*
X52672181Y-83115049D01*
X52672184Y-83115051D01*
X52681493Y-83119794D01*
X52732290Y-83167766D01*
X52749087Y-83235587D01*
X52726552Y-83301722D01*
X52681502Y-83340762D01*
X52672443Y-83345378D01*
X52500540Y-83470272D01*
X52500535Y-83470276D01*
X52350276Y-83620535D01*
X52350272Y-83620540D01*
X52225379Y-83792442D01*
X52128904Y-83981782D01*
X52063242Y-84183870D01*
X52063242Y-84183873D01*
X52052769Y-84250000D01*
X52946988Y-84250000D01*
X52914075Y-84307007D01*
X52880000Y-84434174D01*
X52880000Y-84565826D01*
X52914075Y-84692993D01*
X52946988Y-84750000D01*
X52052769Y-84750000D01*
X52063242Y-84816126D01*
X52063242Y-84816129D01*
X52128904Y-85018217D01*
X52225379Y-85207557D01*
X52350272Y-85379459D01*
X52350276Y-85379464D01*
X52500535Y-85529723D01*
X52500540Y-85529727D01*
X52672442Y-85654620D01*
X52861782Y-85751095D01*
X53063871Y-85816757D01*
X53130000Y-85827231D01*
X53130000Y-84933012D01*
X53187007Y-84965925D01*
X53314174Y-85000000D01*
X53445826Y-85000000D01*
X53572993Y-84965925D01*
X53630000Y-84933012D01*
X53630000Y-85827230D01*
X53696126Y-85816757D01*
X53696129Y-85816757D01*
X53898217Y-85751095D01*
X54087557Y-85654620D01*
X54259459Y-85529727D01*
X54259464Y-85529723D01*
X54409723Y-85379464D01*
X54409727Y-85379459D01*
X54534620Y-85207558D01*
X54539514Y-85197954D01*
X54587488Y-85147157D01*
X54655308Y-85130361D01*
X54721444Y-85152897D01*
X54760486Y-85197954D01*
X54765379Y-85207558D01*
X54890272Y-85379459D01*
X54890276Y-85379464D01*
X55040535Y-85529723D01*
X55040540Y-85529727D01*
X55212442Y-85654620D01*
X55401782Y-85751095D01*
X55603871Y-85816757D01*
X55670000Y-85827231D01*
X55670000Y-84933012D01*
X55727007Y-84965925D01*
X55854174Y-85000000D01*
X55985826Y-85000000D01*
X56112993Y-84965925D01*
X56170000Y-84933012D01*
X56170000Y-85827230D01*
X56236126Y-85816757D01*
X56236129Y-85816757D01*
X56438217Y-85751095D01*
X56627557Y-85654620D01*
X56799459Y-85529727D01*
X56799464Y-85529723D01*
X56949723Y-85379464D01*
X56949727Y-85379459D01*
X57074620Y-85207558D01*
X57079514Y-85197954D01*
X57127488Y-85147157D01*
X57195308Y-85130361D01*
X57261444Y-85152897D01*
X57300486Y-85197954D01*
X57305379Y-85207558D01*
X57430272Y-85379459D01*
X57430276Y-85379464D01*
X57580535Y-85529723D01*
X57580540Y-85529727D01*
X57752442Y-85654620D01*
X57941782Y-85751095D01*
X58143871Y-85816757D01*
X58210000Y-85827231D01*
X58210000Y-84933012D01*
X58267007Y-84965925D01*
X58394174Y-85000000D01*
X58525826Y-85000000D01*
X58652993Y-84965925D01*
X58710000Y-84933012D01*
X58710000Y-85827230D01*
X58776126Y-85816757D01*
X58776129Y-85816757D01*
X58978217Y-85751095D01*
X59167557Y-85654620D01*
X59339459Y-85529727D01*
X59339464Y-85529723D01*
X59489723Y-85379464D01*
X59489727Y-85379459D01*
X59614620Y-85207558D01*
X59619232Y-85198507D01*
X59667205Y-85147709D01*
X59735025Y-85130912D01*
X59801161Y-85153447D01*
X59840204Y-85198504D01*
X59844949Y-85207817D01*
X59969890Y-85379786D01*
X60120213Y-85530109D01*
X60292179Y-85655048D01*
X60292181Y-85655049D01*
X60292184Y-85655051D01*
X60481588Y-85751557D01*
X60683757Y-85817246D01*
X60893713Y-85850500D01*
X60893714Y-85850500D01*
X61106286Y-85850500D01*
X61106287Y-85850500D01*
X61316243Y-85817246D01*
X61518412Y-85751557D01*
X61707816Y-85655051D01*
X61729789Y-85639086D01*
X61879786Y-85530109D01*
X61879788Y-85530106D01*
X61879792Y-85530104D01*
X62030104Y-85379792D01*
X62030106Y-85379788D01*
X62030109Y-85379786D01*
X62155048Y-85207820D01*
X62155050Y-85207817D01*
X62155051Y-85207816D01*
X62159514Y-85199054D01*
X62207488Y-85148259D01*
X62275308Y-85131463D01*
X62341444Y-85153999D01*
X62380486Y-85199056D01*
X62384951Y-85207820D01*
X62509890Y-85379786D01*
X62660213Y-85530109D01*
X62832179Y-85655048D01*
X62832181Y-85655049D01*
X62832184Y-85655051D01*
X63021588Y-85751557D01*
X63223757Y-85817246D01*
X63433713Y-85850500D01*
X63433714Y-85850500D01*
X63646286Y-85850500D01*
X63646287Y-85850500D01*
X63856243Y-85817246D01*
X64058412Y-85751557D01*
X64247816Y-85655051D01*
X64269789Y-85639086D01*
X64419786Y-85530109D01*
X64419788Y-85530106D01*
X64419792Y-85530104D01*
X64570104Y-85379792D01*
X64570106Y-85379788D01*
X64570109Y-85379786D01*
X64695048Y-85207820D01*
X64695050Y-85207817D01*
X64695051Y-85207816D01*
X64791557Y-85018412D01*
X64857246Y-84816243D01*
X64890500Y-84606287D01*
X64890500Y-84393713D01*
X64857246Y-84183757D01*
X64791557Y-83981588D01*
X64695051Y-83792184D01*
X64695049Y-83792181D01*
X64695048Y-83792179D01*
X64570109Y-83620213D01*
X64456569Y-83506673D01*
X64423084Y-83445350D01*
X64428068Y-83375658D01*
X64469940Y-83319725D01*
X64500915Y-83302810D01*
X64632331Y-83253796D01*
X64747546Y-83167546D01*
X64833796Y-83052331D01*
X64884091Y-82917483D01*
X64890500Y-82857873D01*
X64890499Y-81062128D01*
X64884091Y-81002517D01*
X64882810Y-80999083D01*
X64833797Y-80867671D01*
X64833793Y-80867664D01*
X64747547Y-80752455D01*
X64747544Y-80752452D01*
X64632335Y-80666206D01*
X64632328Y-80666202D01*
X64497482Y-80615908D01*
X64497483Y-80615908D01*
X64437883Y-80609501D01*
X64437881Y-80609500D01*
X64437873Y-80609500D01*
X64437864Y-80609500D01*
X62642129Y-80609500D01*
X62642123Y-80609501D01*
X62582516Y-80615908D01*
X62447671Y-80666202D01*
X62447664Y-80666206D01*
X62332455Y-80752452D01*
X62332452Y-80752455D01*
X62246206Y-80867664D01*
X62246203Y-80867669D01*
X62197189Y-80999083D01*
X62155317Y-81055016D01*
X62089853Y-81079433D01*
X62021580Y-81064581D01*
X61993326Y-81043430D01*
X61879786Y-80929890D01*
X61707820Y-80804951D01*
X61518414Y-80708444D01*
X61518413Y-80708443D01*
X61518412Y-80708443D01*
X61316243Y-80642754D01*
X61316241Y-80642753D01*
X61316240Y-80642753D01*
X61154957Y-80617208D01*
X61106287Y-80609500D01*
X60893713Y-80609500D01*
X60845042Y-80617208D01*
X60683760Y-80642753D01*
X60481585Y-80708444D01*
X60292179Y-80804951D01*
X60120213Y-80929890D01*
X59969890Y-81080213D01*
X59844949Y-81252182D01*
X59840484Y-81260946D01*
X59792509Y-81311742D01*
X59724688Y-81328536D01*
X59658553Y-81305998D01*
X59619516Y-81260946D01*
X59615050Y-81252182D01*
X59490109Y-81080213D01*
X59339786Y-80929890D01*
X59167820Y-80804951D01*
X58978414Y-80708444D01*
X58978413Y-80708443D01*
X58978412Y-80708443D01*
X58776243Y-80642754D01*
X58776241Y-80642753D01*
X58776240Y-80642753D01*
X58614957Y-80617208D01*
X58566287Y-80609500D01*
X58353713Y-80609500D01*
X58305042Y-80617208D01*
X58143760Y-80642753D01*
X57941585Y-80708444D01*
X57752179Y-80804951D01*
X57580213Y-80929890D01*
X57429890Y-81080213D01*
X57304949Y-81252182D01*
X57300484Y-81260946D01*
X57252509Y-81311742D01*
X57184688Y-81328536D01*
X57118553Y-81305998D01*
X57079516Y-81260946D01*
X57075050Y-81252182D01*
X56950109Y-81080213D01*
X56799786Y-80929890D01*
X56627820Y-80804951D01*
X56438414Y-80708444D01*
X56438413Y-80708443D01*
X56438412Y-80708443D01*
X56236243Y-80642754D01*
X56236241Y-80642753D01*
X56236240Y-80642753D01*
X56074957Y-80617208D01*
X56026287Y-80609500D01*
X55813713Y-80609500D01*
X55765042Y-80617208D01*
X55603760Y-80642753D01*
X55401585Y-80708444D01*
X55212179Y-80804951D01*
X55040213Y-80929890D01*
X54889890Y-81080213D01*
X54764949Y-81252182D01*
X54760484Y-81260946D01*
X54712509Y-81311742D01*
X54644688Y-81328536D01*
X54578553Y-81305998D01*
X54539516Y-81260946D01*
X54535050Y-81252182D01*
X54410109Y-81080213D01*
X54259786Y-80929890D01*
X54087820Y-80804951D01*
X53898414Y-80708444D01*
X53898413Y-80708443D01*
X53898412Y-80708443D01*
X53696243Y-80642754D01*
X53696241Y-80642753D01*
X53696240Y-80642753D01*
X53534957Y-80617208D01*
X53486287Y-80609500D01*
X53273713Y-80609500D01*
X53225042Y-80617208D01*
X53063760Y-80642753D01*
X52861585Y-80708444D01*
X52672179Y-80804951D01*
X52500213Y-80929890D01*
X52349890Y-81080213D01*
X52224951Y-81252179D01*
X52128444Y-81441585D01*
X52062753Y-81643760D01*
X52029500Y-81853713D01*
X35500500Y-81853713D01*
X35500500Y-74921153D01*
X42699500Y-74921153D01*
X42699500Y-75078846D01*
X42730261Y-75233489D01*
X42730264Y-75233501D01*
X42790602Y-75379172D01*
X42790609Y-75379185D01*
X42878210Y-75510288D01*
X42878213Y-75510292D01*
X42989707Y-75621786D01*
X42989711Y-75621789D01*
X43120814Y-75709390D01*
X43120827Y-75709397D01*
X43266498Y-75769735D01*
X43266503Y-75769737D01*
X43421153Y-75800499D01*
X43421156Y-75800500D01*
X43421158Y-75800500D01*
X43578844Y-75800500D01*
X43578845Y-75800499D01*
X43733497Y-75769737D01*
X43879179Y-75709394D01*
X44010289Y-75621789D01*
X44121789Y-75510289D01*
X44209394Y-75379179D01*
X44269737Y-75233497D01*
X44300500Y-75078842D01*
X44300500Y-74921158D01*
X44300500Y-74921155D01*
X44300499Y-74921153D01*
X44269738Y-74766510D01*
X44269737Y-74766503D01*
X44269735Y-74766498D01*
X44209397Y-74620827D01*
X44209390Y-74620814D01*
X44121789Y-74489711D01*
X44121786Y-74489707D01*
X44010292Y-74378213D01*
X44010288Y-74378210D01*
X43879185Y-74290609D01*
X43879172Y-74290602D01*
X43733501Y-74230264D01*
X43733489Y-74230261D01*
X43578845Y-74199500D01*
X43578842Y-74199500D01*
X43421158Y-74199500D01*
X43421155Y-74199500D01*
X43266510Y-74230261D01*
X43266498Y-74230264D01*
X43120827Y-74290602D01*
X43120814Y-74290609D01*
X42989711Y-74378210D01*
X42989707Y-74378213D01*
X42878213Y-74489707D01*
X42878210Y-74489711D01*
X42790609Y-74620814D01*
X42790602Y-74620827D01*
X42730264Y-74766498D01*
X42730261Y-74766510D01*
X42699500Y-74921153D01*
X35500500Y-74921153D01*
X35500500Y-68536153D01*
X67699500Y-68536153D01*
X67699500Y-68693846D01*
X67730261Y-68848489D01*
X67730264Y-68848501D01*
X67790602Y-68994172D01*
X67790609Y-68994185D01*
X67878210Y-69125288D01*
X67878213Y-69125292D01*
X67972854Y-69219933D01*
X68006339Y-69281256D01*
X68001355Y-69350948D01*
X67981033Y-69386271D01*
X67978212Y-69389708D01*
X67890609Y-69520814D01*
X67890602Y-69520827D01*
X67830264Y-69666498D01*
X67830261Y-69666510D01*
X67799500Y-69821153D01*
X67799500Y-69978846D01*
X67830261Y-70133489D01*
X67830264Y-70133501D01*
X67890602Y-70279172D01*
X67890609Y-70279185D01*
X67975515Y-70406254D01*
X67996393Y-70472931D01*
X67977909Y-70540311D01*
X67960095Y-70562826D01*
X67878210Y-70644711D01*
X67790609Y-70775814D01*
X67790602Y-70775827D01*
X67730264Y-70921498D01*
X67730261Y-70921510D01*
X67699500Y-71076153D01*
X67699500Y-71233846D01*
X67730261Y-71388489D01*
X67730264Y-71388501D01*
X67790602Y-71534172D01*
X67790609Y-71534185D01*
X67878210Y-71665288D01*
X67878213Y-71665292D01*
X67989707Y-71776786D01*
X67989711Y-71776789D01*
X68120814Y-71864390D01*
X68120827Y-71864397D01*
X68266498Y-71924735D01*
X68266503Y-71924737D01*
X68421153Y-71955499D01*
X68421156Y-71955500D01*
X68421158Y-71955500D01*
X68578844Y-71955500D01*
X68578845Y-71955499D01*
X68733497Y-71924737D01*
X68879179Y-71864394D01*
X69010289Y-71776789D01*
X69121789Y-71665289D01*
X69209394Y-71534179D01*
X69269737Y-71388497D01*
X69300500Y-71233842D01*
X69300500Y-71076158D01*
X69300500Y-71076155D01*
X69300499Y-71076153D01*
X69269738Y-70921510D01*
X69269737Y-70921503D01*
X69269735Y-70921498D01*
X69209397Y-70775827D01*
X69209395Y-70775823D01*
X69209394Y-70775821D01*
X69124483Y-70648743D01*
X69103606Y-70582068D01*
X69122090Y-70514688D01*
X69139901Y-70492176D01*
X69221789Y-70410289D01*
X69309394Y-70279179D01*
X69369737Y-70133497D01*
X69400500Y-69978842D01*
X69400500Y-69821158D01*
X69400500Y-69821155D01*
X69400499Y-69821153D01*
X69369738Y-69666510D01*
X69369737Y-69666503D01*
X69369735Y-69666498D01*
X69309397Y-69520827D01*
X69309390Y-69520814D01*
X69221789Y-69389711D01*
X69221786Y-69389707D01*
X69127144Y-69295065D01*
X69093659Y-69233742D01*
X69098643Y-69164050D01*
X69118986Y-69128702D01*
X69121781Y-69125296D01*
X69121789Y-69125289D01*
X69209394Y-68994179D01*
X69269737Y-68848497D01*
X69300500Y-68693842D01*
X69300500Y-68536158D01*
X69300500Y-68536155D01*
X69300499Y-68536153D01*
X69269738Y-68381510D01*
X69269737Y-68381503D01*
X69269735Y-68381498D01*
X69209397Y-68235827D01*
X69209390Y-68235814D01*
X69121789Y-68104711D01*
X69121786Y-68104707D01*
X69010292Y-67993213D01*
X69010288Y-67993210D01*
X68879185Y-67905609D01*
X68879172Y-67905602D01*
X68733501Y-67845264D01*
X68733489Y-67845261D01*
X68578845Y-67814500D01*
X68578842Y-67814500D01*
X68421158Y-67814500D01*
X68421155Y-67814500D01*
X68266510Y-67845261D01*
X68266498Y-67845264D01*
X68120827Y-67905602D01*
X68120814Y-67905609D01*
X67989711Y-67993210D01*
X67989707Y-67993213D01*
X67878213Y-68104707D01*
X67878210Y-68104711D01*
X67790609Y-68235814D01*
X67790602Y-68235827D01*
X67730264Y-68381498D01*
X67730261Y-68381510D01*
X67699500Y-68536153D01*
X35500500Y-68536153D01*
X35500500Y-63421153D01*
X78199500Y-63421153D01*
X78199500Y-63578846D01*
X78230261Y-63733489D01*
X78230264Y-63733501D01*
X78290602Y-63879172D01*
X78290609Y-63879185D01*
X78378210Y-64010288D01*
X78378213Y-64010292D01*
X78489707Y-64121786D01*
X78489711Y-64121789D01*
X78620814Y-64209390D01*
X78620827Y-64209397D01*
X78766498Y-64269735D01*
X78766503Y-64269737D01*
X78921153Y-64300499D01*
X78921156Y-64300500D01*
X78921158Y-64300500D01*
X79078844Y-64300500D01*
X79078845Y-64300499D01*
X79233497Y-64269737D01*
X79379179Y-64209394D01*
X79510289Y-64121789D01*
X79621789Y-64010289D01*
X79709394Y-63879179D01*
X79769737Y-63733497D01*
X79800500Y-63578842D01*
X79800500Y-63421158D01*
X79800500Y-63421155D01*
X79800499Y-63421153D01*
X79769738Y-63266510D01*
X79769737Y-63266503D01*
X79769735Y-63266498D01*
X79709397Y-63120827D01*
X79709390Y-63120814D01*
X79621789Y-62989711D01*
X79621786Y-62989707D01*
X79510292Y-62878213D01*
X79510288Y-62878210D01*
X79379185Y-62790609D01*
X79379172Y-62790602D01*
X79233501Y-62730264D01*
X79233489Y-62730261D01*
X79078845Y-62699500D01*
X79078842Y-62699500D01*
X78921158Y-62699500D01*
X78921155Y-62699500D01*
X78766510Y-62730261D01*
X78766498Y-62730264D01*
X78620827Y-62790602D01*
X78620814Y-62790609D01*
X78489711Y-62878210D01*
X78489707Y-62878213D01*
X78378213Y-62989707D01*
X78378210Y-62989711D01*
X78290609Y-63120814D01*
X78290602Y-63120827D01*
X78230264Y-63266498D01*
X78230261Y-63266510D01*
X78199500Y-63421153D01*
X35500500Y-63421153D01*
X35500500Y-61421153D01*
X42699500Y-61421153D01*
X42699500Y-61578846D01*
X42730261Y-61733489D01*
X42730264Y-61733501D01*
X42790602Y-61879172D01*
X42790609Y-61879185D01*
X42878210Y-62010288D01*
X42878213Y-62010292D01*
X42989707Y-62121786D01*
X42989711Y-62121789D01*
X43120814Y-62209390D01*
X43120827Y-62209397D01*
X43266498Y-62269735D01*
X43266503Y-62269737D01*
X43421153Y-62300499D01*
X43421156Y-62300500D01*
X43421158Y-62300500D01*
X43578844Y-62300500D01*
X43578845Y-62300499D01*
X43733497Y-62269737D01*
X43879179Y-62209394D01*
X43913962Y-62186153D01*
X50199500Y-62186153D01*
X50199500Y-62343846D01*
X50230261Y-62498489D01*
X50230264Y-62498501D01*
X50290602Y-62644172D01*
X50290609Y-62644185D01*
X50378210Y-62775288D01*
X50378213Y-62775292D01*
X50489707Y-62886786D01*
X50489711Y-62886789D01*
X50620814Y-62974390D01*
X50620827Y-62974397D01*
X50766498Y-63034735D01*
X50766503Y-63034737D01*
X50921153Y-63065499D01*
X50921156Y-63065500D01*
X50921158Y-63065500D01*
X51078844Y-63065500D01*
X51078845Y-63065499D01*
X51233497Y-63034737D01*
X51379179Y-62974394D01*
X51510289Y-62886789D01*
X51621789Y-62775289D01*
X51709394Y-62644179D01*
X51769737Y-62498497D01*
X51800500Y-62343842D01*
X51800500Y-62186158D01*
X51800500Y-62186155D01*
X51800499Y-62186153D01*
X51787696Y-62121789D01*
X51769737Y-62031503D01*
X51760950Y-62010288D01*
X51709397Y-61885827D01*
X51709390Y-61885814D01*
X51621789Y-61754711D01*
X51621786Y-61754707D01*
X51510292Y-61643213D01*
X51510288Y-61643210D01*
X51379185Y-61555609D01*
X51379172Y-61555602D01*
X51233501Y-61495264D01*
X51233489Y-61495261D01*
X51078845Y-61464500D01*
X51078842Y-61464500D01*
X50921158Y-61464500D01*
X50921155Y-61464500D01*
X50766510Y-61495261D01*
X50766498Y-61495264D01*
X50620827Y-61555602D01*
X50620814Y-61555609D01*
X50489711Y-61643210D01*
X50489707Y-61643213D01*
X50378213Y-61754707D01*
X50378210Y-61754711D01*
X50290609Y-61885814D01*
X50290602Y-61885827D01*
X50230264Y-62031498D01*
X50230261Y-62031510D01*
X50199500Y-62186153D01*
X43913962Y-62186153D01*
X44010289Y-62121789D01*
X44010292Y-62121786D01*
X44039694Y-62092385D01*
X44121786Y-62010292D01*
X44121789Y-62010289D01*
X44209394Y-61879179D01*
X44269737Y-61733497D01*
X44300500Y-61578842D01*
X44300500Y-61421158D01*
X44300500Y-61421155D01*
X44300499Y-61421153D01*
X44269738Y-61266510D01*
X44269737Y-61266503D01*
X44269735Y-61266498D01*
X44209397Y-61120827D01*
X44209390Y-61120814D01*
X44121789Y-60989711D01*
X44121786Y-60989707D01*
X44010292Y-60878213D01*
X44010288Y-60878210D01*
X43879185Y-60790609D01*
X43879172Y-60790602D01*
X43733501Y-60730264D01*
X43733489Y-60730261D01*
X43578845Y-60699500D01*
X43578842Y-60699500D01*
X43421158Y-60699500D01*
X43421155Y-60699500D01*
X43266510Y-60730261D01*
X43266498Y-60730264D01*
X43120827Y-60790602D01*
X43120814Y-60790609D01*
X42989711Y-60878210D01*
X42989707Y-60878213D01*
X42878213Y-60989707D01*
X42878210Y-60989711D01*
X42790609Y-61120814D01*
X42790602Y-61120827D01*
X42730264Y-61266498D01*
X42730261Y-61266510D01*
X42699500Y-61421153D01*
X35500500Y-61421153D01*
X35500500Y-58921153D01*
X78199500Y-58921153D01*
X78199500Y-59078846D01*
X78230261Y-59233489D01*
X78230264Y-59233501D01*
X78290602Y-59379172D01*
X78290609Y-59379185D01*
X78378210Y-59510288D01*
X78378213Y-59510292D01*
X78489707Y-59621786D01*
X78489711Y-59621789D01*
X78620814Y-59709390D01*
X78620827Y-59709397D01*
X78766498Y-59769735D01*
X78766503Y-59769737D01*
X78921153Y-59800499D01*
X78921156Y-59800500D01*
X78921158Y-59800500D01*
X79078844Y-59800500D01*
X79078845Y-59800499D01*
X79233497Y-59769737D01*
X79379179Y-59709394D01*
X79510289Y-59621789D01*
X79621789Y-59510289D01*
X79709394Y-59379179D01*
X79769737Y-59233497D01*
X79800500Y-59078842D01*
X79800500Y-58921158D01*
X79800500Y-58921155D01*
X79800499Y-58921153D01*
X79769738Y-58766510D01*
X79769737Y-58766503D01*
X79769735Y-58766498D01*
X79709397Y-58620827D01*
X79709390Y-58620814D01*
X79621789Y-58489711D01*
X79621786Y-58489707D01*
X79510292Y-58378213D01*
X79510288Y-58378210D01*
X79379185Y-58290609D01*
X79379172Y-58290602D01*
X79233501Y-58230264D01*
X79233489Y-58230261D01*
X79078845Y-58199500D01*
X79078842Y-58199500D01*
X78921158Y-58199500D01*
X78921155Y-58199500D01*
X78766510Y-58230261D01*
X78766498Y-58230264D01*
X78620827Y-58290602D01*
X78620814Y-58290609D01*
X78489711Y-58378210D01*
X78489707Y-58378213D01*
X78378213Y-58489707D01*
X78378210Y-58489711D01*
X78290609Y-58620814D01*
X78290602Y-58620827D01*
X78230264Y-58766498D01*
X78230261Y-58766510D01*
X78199500Y-58921153D01*
X35500500Y-58921153D01*
X35500500Y-56881902D01*
X36999500Y-56881902D01*
X36999500Y-57118097D01*
X37036446Y-57351368D01*
X37109433Y-57575996D01*
X37216657Y-57786433D01*
X37355483Y-57977510D01*
X37522490Y-58144517D01*
X37713567Y-58283343D01*
X37812991Y-58334002D01*
X37924003Y-58390566D01*
X37924005Y-58390566D01*
X37924008Y-58390568D01*
X38044412Y-58429689D01*
X38148631Y-58463553D01*
X38381903Y-58500500D01*
X38381908Y-58500500D01*
X38618097Y-58500500D01*
X38851368Y-58463553D01*
X39075992Y-58390568D01*
X39286433Y-58283343D01*
X39477510Y-58144517D01*
X39644517Y-57977510D01*
X39783343Y-57786433D01*
X39890568Y-57575992D01*
X39963553Y-57351368D01*
X40000500Y-57118097D01*
X40000500Y-56881902D01*
X43499500Y-56881902D01*
X43499500Y-57118097D01*
X43536446Y-57351368D01*
X43609433Y-57575996D01*
X43716657Y-57786433D01*
X43855483Y-57977510D01*
X44022490Y-58144517D01*
X44213567Y-58283343D01*
X44312991Y-58334002D01*
X44424003Y-58390566D01*
X44424005Y-58390566D01*
X44424008Y-58390568D01*
X44544412Y-58429689D01*
X44648631Y-58463553D01*
X44881903Y-58500500D01*
X44881908Y-58500500D01*
X45118097Y-58500500D01*
X45351368Y-58463553D01*
X45575992Y-58390568D01*
X45786433Y-58283343D01*
X45977510Y-58144517D01*
X46144517Y-57977510D01*
X46283343Y-57786433D01*
X46390568Y-57575992D01*
X46463553Y-57351368D01*
X46500500Y-57118097D01*
X46500500Y-56881902D01*
X46463553Y-56648631D01*
X46390566Y-56424003D01*
X46283342Y-56213566D01*
X46144517Y-56022490D01*
X45977510Y-55855483D01*
X45786433Y-55716657D01*
X45575996Y-55609433D01*
X45351368Y-55536446D01*
X45118097Y-55499500D01*
X45118092Y-55499500D01*
X44881908Y-55499500D01*
X44881903Y-55499500D01*
X44648631Y-55536446D01*
X44424003Y-55609433D01*
X44213566Y-55716657D01*
X44104550Y-55795862D01*
X44022490Y-55855483D01*
X44022488Y-55855485D01*
X44022487Y-55855485D01*
X43855485Y-56022487D01*
X43855485Y-56022488D01*
X43855483Y-56022490D01*
X43795862Y-56104550D01*
X43716657Y-56213566D01*
X43609433Y-56424003D01*
X43536446Y-56648631D01*
X43499500Y-56881902D01*
X40000500Y-56881902D01*
X39963553Y-56648631D01*
X39890566Y-56424003D01*
X39783342Y-56213566D01*
X39644517Y-56022490D01*
X39477510Y-55855483D01*
X39286433Y-55716657D01*
X39075996Y-55609433D01*
X38851368Y-55536446D01*
X38618097Y-55499500D01*
X38618092Y-55499500D01*
X38381908Y-55499500D01*
X38381903Y-55499500D01*
X38148631Y-55536446D01*
X37924003Y-55609433D01*
X37713566Y-55716657D01*
X37604550Y-55795862D01*
X37522490Y-55855483D01*
X37522488Y-55855485D01*
X37522487Y-55855485D01*
X37355485Y-56022487D01*
X37355485Y-56022488D01*
X37355483Y-56022490D01*
X37295862Y-56104550D01*
X37216657Y-56213566D01*
X37109433Y-56424003D01*
X37036446Y-56648631D01*
X36999500Y-56881902D01*
X35500500Y-56881902D01*
X35500500Y-54421153D01*
X78199500Y-54421153D01*
X78199500Y-54578846D01*
X78230261Y-54733489D01*
X78230264Y-54733501D01*
X78290602Y-54879172D01*
X78290609Y-54879185D01*
X78378210Y-55010288D01*
X78378213Y-55010292D01*
X78489707Y-55121786D01*
X78489711Y-55121789D01*
X78620814Y-55209390D01*
X78620827Y-55209397D01*
X78766498Y-55269735D01*
X78766503Y-55269737D01*
X78921153Y-55300499D01*
X78921156Y-55300500D01*
X78921158Y-55300500D01*
X79078844Y-55300500D01*
X79078845Y-55300499D01*
X79233497Y-55269737D01*
X79379179Y-55209394D01*
X79510289Y-55121789D01*
X79621789Y-55010289D01*
X79709394Y-54879179D01*
X79769737Y-54733497D01*
X79800500Y-54578842D01*
X79800500Y-54421158D01*
X79800500Y-54421155D01*
X79800499Y-54421153D01*
X79769738Y-54266510D01*
X79769737Y-54266503D01*
X79709794Y-54121786D01*
X79709397Y-54120827D01*
X79709390Y-54120814D01*
X79621789Y-53989711D01*
X79621786Y-53989707D01*
X79510292Y-53878213D01*
X79510288Y-53878210D01*
X79379185Y-53790609D01*
X79379172Y-53790602D01*
X79233501Y-53730264D01*
X79233489Y-53730261D01*
X79078845Y-53699500D01*
X79078842Y-53699500D01*
X78921158Y-53699500D01*
X78921155Y-53699500D01*
X78766510Y-53730261D01*
X78766498Y-53730264D01*
X78620827Y-53790602D01*
X78620814Y-53790609D01*
X78489711Y-53878210D01*
X78489707Y-53878213D01*
X78378213Y-53989707D01*
X78378210Y-53989711D01*
X78290609Y-54120814D01*
X78290602Y-54120827D01*
X78230264Y-54266498D01*
X78230261Y-54266510D01*
X78199500Y-54421153D01*
X35500500Y-54421153D01*
X35500500Y-52381947D01*
X37000000Y-52381947D01*
X37000000Y-52618052D01*
X37036934Y-52851247D01*
X37109897Y-53075802D01*
X37217087Y-53286174D01*
X37277338Y-53369104D01*
X37277340Y-53369105D01*
X37976212Y-52670233D01*
X37987482Y-52712292D01*
X38059890Y-52837708D01*
X38162292Y-52940110D01*
X38287708Y-53012518D01*
X38329765Y-53023787D01*
X37630893Y-53722658D01*
X37713828Y-53782914D01*
X37924197Y-53890102D01*
X38148752Y-53963065D01*
X38148751Y-53963065D01*
X38381948Y-54000000D01*
X38618052Y-54000000D01*
X38851247Y-53963065D01*
X39075802Y-53890102D01*
X39286163Y-53782918D01*
X39286169Y-53782914D01*
X39369104Y-53722658D01*
X39369105Y-53722658D01*
X38670233Y-53023787D01*
X38712292Y-53012518D01*
X38837708Y-52940110D01*
X38940110Y-52837708D01*
X39012518Y-52712292D01*
X39023787Y-52670233D01*
X39722658Y-53369105D01*
X39722658Y-53369104D01*
X39782914Y-53286169D01*
X39782918Y-53286163D01*
X39890102Y-53075802D01*
X39963065Y-52851247D01*
X40000000Y-52618052D01*
X40000000Y-52381947D01*
X43500000Y-52381947D01*
X43500000Y-52618052D01*
X43536934Y-52851247D01*
X43609897Y-53075802D01*
X43717087Y-53286174D01*
X43777338Y-53369104D01*
X43777340Y-53369105D01*
X44476212Y-52670233D01*
X44487482Y-52712292D01*
X44559890Y-52837708D01*
X44662292Y-52940110D01*
X44787708Y-53012518D01*
X44829765Y-53023787D01*
X44130893Y-53722658D01*
X44213828Y-53782914D01*
X44424197Y-53890102D01*
X44648752Y-53963065D01*
X44648751Y-53963065D01*
X44881948Y-54000000D01*
X45118052Y-54000000D01*
X45351247Y-53963065D01*
X45575802Y-53890102D01*
X45786163Y-53782918D01*
X45786169Y-53782914D01*
X45869104Y-53722658D01*
X45869105Y-53722658D01*
X45567600Y-53421153D01*
X50199500Y-53421153D01*
X50199500Y-53578846D01*
X50230261Y-53733489D01*
X50230264Y-53733501D01*
X50290602Y-53879172D01*
X50290609Y-53879185D01*
X50378210Y-54010288D01*
X50378213Y-54010292D01*
X50489707Y-54121786D01*
X50489711Y-54121789D01*
X50620814Y-54209390D01*
X50620827Y-54209397D01*
X50758683Y-54266498D01*
X50766503Y-54269737D01*
X50921153Y-54300499D01*
X50921156Y-54300500D01*
X50921158Y-54300500D01*
X51078844Y-54300500D01*
X51078845Y-54300499D01*
X51089179Y-54298443D01*
X51114287Y-54293450D01*
X51114292Y-54293449D01*
X51199800Y-54276439D01*
X51233497Y-54269737D01*
X51379179Y-54209394D01*
X51510289Y-54121789D01*
X51621789Y-54010289D01*
X51709394Y-53879179D01*
X51769737Y-53733497D01*
X51800500Y-53578842D01*
X51800500Y-53421158D01*
X51800500Y-53421155D01*
X51800499Y-53421153D01*
X51773650Y-53286176D01*
X51769737Y-53266503D01*
X51769735Y-53266498D01*
X51709397Y-53120827D01*
X51709390Y-53120814D01*
X51621789Y-52989711D01*
X51621786Y-52989707D01*
X51510292Y-52878213D01*
X51510288Y-52878210D01*
X51379185Y-52790609D01*
X51379172Y-52790602D01*
X51233501Y-52730264D01*
X51233489Y-52730261D01*
X51078845Y-52699500D01*
X51078842Y-52699500D01*
X50921158Y-52699500D01*
X50921155Y-52699500D01*
X50766510Y-52730261D01*
X50766498Y-52730264D01*
X50620827Y-52790602D01*
X50620814Y-52790609D01*
X50489711Y-52878210D01*
X50489707Y-52878213D01*
X50378213Y-52989707D01*
X50378210Y-52989711D01*
X50290609Y-53120814D01*
X50290602Y-53120827D01*
X50230264Y-53266498D01*
X50230261Y-53266510D01*
X50199500Y-53421153D01*
X45567600Y-53421153D01*
X45170233Y-53023787D01*
X45212292Y-53012518D01*
X45337708Y-52940110D01*
X45440110Y-52837708D01*
X45512518Y-52712292D01*
X45523787Y-52670234D01*
X46222658Y-53369105D01*
X46222658Y-53369104D01*
X46242221Y-53342180D01*
X46242222Y-53342178D01*
X46282910Y-53286176D01*
X46282918Y-53286163D01*
X46390102Y-53075802D01*
X46463065Y-52851247D01*
X46500000Y-52618052D01*
X46500000Y-52381947D01*
X46463065Y-52148752D01*
X46390102Y-51924197D01*
X46282914Y-51713828D01*
X46222658Y-51630894D01*
X46222658Y-51630893D01*
X45523787Y-52329765D01*
X45512518Y-52287708D01*
X45440110Y-52162292D01*
X45337708Y-52059890D01*
X45212292Y-51987482D01*
X45170234Y-51976212D01*
X45869105Y-51277340D01*
X45869104Y-51277338D01*
X45786174Y-51217087D01*
X45575802Y-51109897D01*
X45351247Y-51036934D01*
X45351248Y-51036934D01*
X45118052Y-51000000D01*
X44881948Y-51000000D01*
X44648752Y-51036934D01*
X44424197Y-51109897D01*
X44213830Y-51217084D01*
X44130894Y-51277340D01*
X44829766Y-51976212D01*
X44787708Y-51987482D01*
X44662292Y-52059890D01*
X44559890Y-52162292D01*
X44487482Y-52287708D01*
X44476212Y-52329766D01*
X43777340Y-51630894D01*
X43717084Y-51713830D01*
X43609897Y-51924197D01*
X43536934Y-52148752D01*
X43500000Y-52381947D01*
X40000000Y-52381947D01*
X39963065Y-52148752D01*
X39890102Y-51924197D01*
X39782914Y-51713828D01*
X39722658Y-51630894D01*
X39722658Y-51630893D01*
X39023787Y-52329765D01*
X39012518Y-52287708D01*
X38940110Y-52162292D01*
X38837708Y-52059890D01*
X38712292Y-51987482D01*
X38670234Y-51976212D01*
X39369105Y-51277340D01*
X39369104Y-51277339D01*
X39286174Y-51217087D01*
X39075802Y-51109897D01*
X38851247Y-51036934D01*
X38851248Y-51036934D01*
X38618052Y-51000000D01*
X38381948Y-51000000D01*
X38148752Y-51036934D01*
X37924197Y-51109897D01*
X37713830Y-51217084D01*
X37630894Y-51277340D01*
X38329766Y-51976212D01*
X38287708Y-51987482D01*
X38162292Y-52059890D01*
X38059890Y-52162292D01*
X37987482Y-52287708D01*
X37976212Y-52329766D01*
X37277340Y-51630894D01*
X37217084Y-51713830D01*
X37109897Y-51924197D01*
X37036934Y-52148752D01*
X37000000Y-52381947D01*
X35500500Y-52381947D01*
X35500500Y-50965000D01*
X50750000Y-50965000D01*
X68750000Y-50965000D01*
X68750000Y-49921153D01*
X78199500Y-49921153D01*
X78199500Y-50078846D01*
X78230261Y-50233489D01*
X78230264Y-50233501D01*
X78290602Y-50379172D01*
X78290609Y-50379185D01*
X78378210Y-50510288D01*
X78378213Y-50510292D01*
X78489707Y-50621786D01*
X78489711Y-50621789D01*
X78620814Y-50709390D01*
X78620827Y-50709397D01*
X78766498Y-50769735D01*
X78766503Y-50769737D01*
X78921153Y-50800499D01*
X78921156Y-50800500D01*
X78921158Y-50800500D01*
X79078844Y-50800500D01*
X79078845Y-50800499D01*
X79233497Y-50769737D01*
X79379179Y-50709394D01*
X79510289Y-50621789D01*
X79621789Y-50510289D01*
X79709394Y-50379179D01*
X79769737Y-50233497D01*
X79800500Y-50078842D01*
X79800500Y-49921158D01*
X79800500Y-49921155D01*
X79800499Y-49921153D01*
X79769738Y-49766510D01*
X79769737Y-49766503D01*
X79769735Y-49766498D01*
X79709397Y-49620827D01*
X79709390Y-49620814D01*
X79621789Y-49489711D01*
X79621786Y-49489707D01*
X79510292Y-49378213D01*
X79510288Y-49378210D01*
X79379185Y-49290609D01*
X79379172Y-49290602D01*
X79233501Y-49230264D01*
X79233489Y-49230261D01*
X79078845Y-49199500D01*
X79078842Y-49199500D01*
X78921158Y-49199500D01*
X78921155Y-49199500D01*
X78766510Y-49230261D01*
X78766498Y-49230264D01*
X78620827Y-49290602D01*
X78620814Y-49290609D01*
X78489711Y-49378210D01*
X78489707Y-49378213D01*
X78378213Y-49489707D01*
X78378210Y-49489711D01*
X78290609Y-49620814D01*
X78290602Y-49620827D01*
X78230264Y-49766498D01*
X78230261Y-49766510D01*
X78199500Y-49921153D01*
X68750000Y-49921153D01*
X68750000Y-45421153D01*
X78199500Y-45421153D01*
X78199500Y-45578846D01*
X78230261Y-45733489D01*
X78230264Y-45733501D01*
X78290602Y-45879172D01*
X78290609Y-45879185D01*
X78378210Y-46010288D01*
X78378213Y-46010292D01*
X78489707Y-46121786D01*
X78489711Y-46121789D01*
X78620814Y-46209390D01*
X78620827Y-46209397D01*
X78766498Y-46269735D01*
X78766503Y-46269737D01*
X78921153Y-46300499D01*
X78921156Y-46300500D01*
X78921158Y-46300500D01*
X79078844Y-46300500D01*
X79078845Y-46300499D01*
X79233497Y-46269737D01*
X79379179Y-46209394D01*
X79510289Y-46121789D01*
X79621789Y-46010289D01*
X79709394Y-45879179D01*
X79769737Y-45733497D01*
X79800500Y-45578842D01*
X79800500Y-45421158D01*
X79800500Y-45421155D01*
X79800499Y-45421153D01*
X79769738Y-45266510D01*
X79769737Y-45266503D01*
X79749090Y-45216657D01*
X79709397Y-45120827D01*
X79709390Y-45120814D01*
X79621789Y-44989711D01*
X79621786Y-44989707D01*
X79510292Y-44878213D01*
X79510288Y-44878210D01*
X79379185Y-44790609D01*
X79379172Y-44790602D01*
X79233501Y-44730264D01*
X79233489Y-44730261D01*
X79078845Y-44699500D01*
X79078842Y-44699500D01*
X78921158Y-44699500D01*
X78921155Y-44699500D01*
X78766510Y-44730261D01*
X78766498Y-44730264D01*
X78620827Y-44790602D01*
X78620814Y-44790609D01*
X78489711Y-44878210D01*
X78489707Y-44878213D01*
X78378213Y-44989707D01*
X78378210Y-44989711D01*
X78290609Y-45120814D01*
X78290602Y-45120827D01*
X78230264Y-45266498D01*
X78230261Y-45266510D01*
X78199500Y-45421153D01*
X68750000Y-45421153D01*
X68750000Y-44665000D01*
X50750000Y-44665000D01*
X50750000Y-50965000D01*
X35500500Y-50965000D01*
X35500500Y-46381902D01*
X36999500Y-46381902D01*
X36999500Y-46618097D01*
X37036446Y-46851368D01*
X37109433Y-47075996D01*
X37216657Y-47286433D01*
X37355483Y-47477510D01*
X37522490Y-47644517D01*
X37713567Y-47783343D01*
X37812991Y-47834002D01*
X37924003Y-47890566D01*
X37924005Y-47890566D01*
X37924008Y-47890568D01*
X38044412Y-47929689D01*
X38148631Y-47963553D01*
X38381903Y-48000500D01*
X38381908Y-48000500D01*
X38618097Y-48000500D01*
X38851368Y-47963553D01*
X39075992Y-47890568D01*
X39286433Y-47783343D01*
X39477510Y-47644517D01*
X39644517Y-47477510D01*
X39783343Y-47286433D01*
X39890568Y-47075992D01*
X39963553Y-46851368D01*
X40000500Y-46618097D01*
X40000500Y-46381902D01*
X43499500Y-46381902D01*
X43499500Y-46618097D01*
X43536446Y-46851368D01*
X43609433Y-47075996D01*
X43716657Y-47286433D01*
X43855483Y-47477510D01*
X44022490Y-47644517D01*
X44213567Y-47783343D01*
X44312991Y-47834002D01*
X44424003Y-47890566D01*
X44424005Y-47890566D01*
X44424008Y-47890568D01*
X44544412Y-47929689D01*
X44648631Y-47963553D01*
X44881903Y-48000500D01*
X44881908Y-48000500D01*
X45118097Y-48000500D01*
X45351368Y-47963553D01*
X45575992Y-47890568D01*
X45786433Y-47783343D01*
X45977510Y-47644517D01*
X46144517Y-47477510D01*
X46283343Y-47286433D01*
X46390568Y-47075992D01*
X46463553Y-46851368D01*
X46500500Y-46618097D01*
X46500500Y-46381902D01*
X46463553Y-46148631D01*
X46390566Y-45924003D01*
X46334002Y-45812991D01*
X46283343Y-45713567D01*
X46144517Y-45522490D01*
X45977510Y-45355483D01*
X45786433Y-45216657D01*
X45575996Y-45109433D01*
X45351368Y-45036446D01*
X45118097Y-44999500D01*
X45118092Y-44999500D01*
X44881908Y-44999500D01*
X44881903Y-44999500D01*
X44648631Y-45036446D01*
X44424003Y-45109433D01*
X44213566Y-45216657D01*
X44144967Y-45266498D01*
X44022490Y-45355483D01*
X44022488Y-45355485D01*
X44022487Y-45355485D01*
X43855485Y-45522487D01*
X43855485Y-45522488D01*
X43855483Y-45522490D01*
X43814541Y-45578842D01*
X43716657Y-45713566D01*
X43609433Y-45924003D01*
X43536446Y-46148631D01*
X43499500Y-46381902D01*
X40000500Y-46381902D01*
X39963553Y-46148631D01*
X39890566Y-45924003D01*
X39834002Y-45812991D01*
X39783343Y-45713567D01*
X39644517Y-45522490D01*
X39477510Y-45355483D01*
X39286433Y-45216657D01*
X39075996Y-45109433D01*
X38851368Y-45036446D01*
X38618097Y-44999500D01*
X38618092Y-44999500D01*
X38381908Y-44999500D01*
X38381903Y-44999500D01*
X38148631Y-45036446D01*
X37924003Y-45109433D01*
X37713566Y-45216657D01*
X37644967Y-45266498D01*
X37522490Y-45355483D01*
X37522488Y-45355485D01*
X37522487Y-45355485D01*
X37355485Y-45522487D01*
X37355485Y-45522488D01*
X37355483Y-45522490D01*
X37314541Y-45578842D01*
X37216657Y-45713566D01*
X37109433Y-45924003D01*
X37036446Y-46148631D01*
X36999500Y-46381902D01*
X35500500Y-46381902D01*
X35500500Y-41881947D01*
X37000000Y-41881947D01*
X37000000Y-42118052D01*
X37036934Y-42351247D01*
X37109897Y-42575802D01*
X37217087Y-42786174D01*
X37277338Y-42869104D01*
X37277340Y-42869105D01*
X37976212Y-42170233D01*
X37987482Y-42212292D01*
X38059890Y-42337708D01*
X38162292Y-42440110D01*
X38287708Y-42512518D01*
X38329765Y-42523787D01*
X37630893Y-43222658D01*
X37713828Y-43282914D01*
X37924197Y-43390102D01*
X38148752Y-43463065D01*
X38148751Y-43463065D01*
X38381948Y-43500000D01*
X38618052Y-43500000D01*
X38851247Y-43463065D01*
X39075802Y-43390102D01*
X39286163Y-43282918D01*
X39286169Y-43282914D01*
X39369104Y-43222658D01*
X39369105Y-43222658D01*
X38670233Y-42523787D01*
X38712292Y-42512518D01*
X38837708Y-42440110D01*
X38940110Y-42337708D01*
X39012518Y-42212292D01*
X39023787Y-42170233D01*
X39722658Y-42869105D01*
X39722658Y-42869104D01*
X39782914Y-42786169D01*
X39782918Y-42786163D01*
X39890102Y-42575802D01*
X39963065Y-42351247D01*
X40000000Y-42118052D01*
X40000000Y-41881947D01*
X43500000Y-41881947D01*
X43500000Y-42118052D01*
X43536934Y-42351247D01*
X43609897Y-42575802D01*
X43717087Y-42786174D01*
X43777338Y-42869104D01*
X43777340Y-42869105D01*
X44476212Y-42170233D01*
X44487482Y-42212292D01*
X44559890Y-42337708D01*
X44662292Y-42440110D01*
X44787708Y-42512518D01*
X44829765Y-42523787D01*
X44130893Y-43222658D01*
X44213828Y-43282914D01*
X44424197Y-43390102D01*
X44648752Y-43463065D01*
X44648751Y-43463065D01*
X44881948Y-43500000D01*
X45118052Y-43500000D01*
X45351247Y-43463065D01*
X45575802Y-43390102D01*
X45786163Y-43282918D01*
X45786169Y-43282914D01*
X45869104Y-43222658D01*
X45869105Y-43222658D01*
X45170233Y-42523787D01*
X45212292Y-42512518D01*
X45337708Y-42440110D01*
X45440110Y-42337708D01*
X45512518Y-42212292D01*
X45523787Y-42170234D01*
X46222658Y-42869105D01*
X46222658Y-42869104D01*
X46282914Y-42786169D01*
X46282918Y-42786163D01*
X46390102Y-42575802D01*
X46463065Y-42351247D01*
X46500000Y-42118052D01*
X46500000Y-41881947D01*
X46463065Y-41648752D01*
X46399586Y-41453384D01*
X46390102Y-41424197D01*
X46388551Y-41421153D01*
X49199500Y-41421153D01*
X49199500Y-41578846D01*
X49230261Y-41733489D01*
X49230264Y-41733501D01*
X49290602Y-41879172D01*
X49290609Y-41879185D01*
X49378210Y-42010288D01*
X49378213Y-42010292D01*
X49489707Y-42121786D01*
X49489711Y-42121789D01*
X49620814Y-42209390D01*
X49620827Y-42209397D01*
X49766498Y-42269735D01*
X49766503Y-42269737D01*
X49921153Y-42300499D01*
X49921156Y-42300500D01*
X49921158Y-42300500D01*
X50078844Y-42300500D01*
X50078845Y-42300499D01*
X50233497Y-42269737D01*
X50379179Y-42209394D01*
X50510289Y-42121789D01*
X50621789Y-42010289D01*
X50709394Y-41879179D01*
X50769737Y-41733497D01*
X50800500Y-41578842D01*
X50800500Y-41421158D01*
X50800500Y-41421155D01*
X50800499Y-41421153D01*
X50769738Y-41266510D01*
X50769737Y-41266503D01*
X50769735Y-41266498D01*
X50709397Y-41120827D01*
X50709390Y-41120814D01*
X50621789Y-40989711D01*
X50621786Y-40989707D01*
X50510292Y-40878213D01*
X50510288Y-40878210D01*
X50379185Y-40790609D01*
X50379172Y-40790602D01*
X50233501Y-40730264D01*
X50233489Y-40730261D01*
X50078845Y-40699500D01*
X50078842Y-40699500D01*
X49921158Y-40699500D01*
X49921155Y-40699500D01*
X49766510Y-40730261D01*
X49766498Y-40730264D01*
X49620827Y-40790602D01*
X49620814Y-40790609D01*
X49489711Y-40878210D01*
X49489707Y-40878213D01*
X49378213Y-40989707D01*
X49378210Y-40989711D01*
X49290609Y-41120814D01*
X49290602Y-41120827D01*
X49230264Y-41266498D01*
X49230261Y-41266510D01*
X49199500Y-41421153D01*
X46388551Y-41421153D01*
X46282914Y-41213828D01*
X46222658Y-41130894D01*
X46222658Y-41130893D01*
X45523787Y-41829765D01*
X45512518Y-41787708D01*
X45440110Y-41662292D01*
X45337708Y-41559890D01*
X45212292Y-41487482D01*
X45170234Y-41476212D01*
X45869105Y-40777340D01*
X45869104Y-40777338D01*
X45786174Y-40717087D01*
X45575802Y-40609897D01*
X45351247Y-40536934D01*
X45351248Y-40536934D01*
X45118052Y-40500000D01*
X44881948Y-40500000D01*
X44648752Y-40536934D01*
X44424197Y-40609897D01*
X44213830Y-40717084D01*
X44130894Y-40777340D01*
X44829766Y-41476212D01*
X44787708Y-41487482D01*
X44662292Y-41559890D01*
X44559890Y-41662292D01*
X44487482Y-41787708D01*
X44476212Y-41829766D01*
X43777340Y-41130894D01*
X43717084Y-41213830D01*
X43609897Y-41424197D01*
X43536934Y-41648752D01*
X43500000Y-41881947D01*
X40000000Y-41881947D01*
X39963065Y-41648752D01*
X39890102Y-41424197D01*
X39782914Y-41213828D01*
X39722658Y-41130894D01*
X39722658Y-41130893D01*
X39023787Y-41829765D01*
X39012518Y-41787708D01*
X38940110Y-41662292D01*
X38837708Y-41559890D01*
X38712292Y-41487482D01*
X38670234Y-41476212D01*
X39369105Y-40777340D01*
X39369104Y-40777339D01*
X39286174Y-40717087D01*
X39075802Y-40609897D01*
X38851247Y-40536934D01*
X38851248Y-40536934D01*
X38618052Y-40500000D01*
X38381948Y-40500000D01*
X38148752Y-40536934D01*
X37924197Y-40609897D01*
X37713830Y-40717084D01*
X37630894Y-40777340D01*
X38329766Y-41476212D01*
X38287708Y-41487482D01*
X38162292Y-41559890D01*
X38059890Y-41662292D01*
X37987482Y-41787708D01*
X37976212Y-41829766D01*
X37277340Y-41130894D01*
X37217084Y-41213830D01*
X37109897Y-41424197D01*
X37036934Y-41648752D01*
X37000000Y-41881947D01*
X35500500Y-41881947D01*
X35500500Y-35881902D01*
X36999500Y-35881902D01*
X36999500Y-36118097D01*
X37036446Y-36351368D01*
X37109433Y-36575996D01*
X37216657Y-36786433D01*
X37355483Y-36977510D01*
X37522490Y-37144517D01*
X37713567Y-37283343D01*
X37812991Y-37334002D01*
X37924003Y-37390566D01*
X37924005Y-37390566D01*
X37924008Y-37390568D01*
X38044412Y-37429689D01*
X38148631Y-37463553D01*
X38381903Y-37500500D01*
X38381908Y-37500500D01*
X38618097Y-37500500D01*
X38851368Y-37463553D01*
X39075992Y-37390568D01*
X39286433Y-37283343D01*
X39477510Y-37144517D01*
X39644517Y-36977510D01*
X39783343Y-36786433D01*
X39890568Y-36575992D01*
X39963553Y-36351368D01*
X39976482Y-36269737D01*
X40000500Y-36118097D01*
X40000500Y-35881902D01*
X43499500Y-35881902D01*
X43499500Y-36118097D01*
X43536446Y-36351368D01*
X43609433Y-36575996D01*
X43716657Y-36786433D01*
X43855483Y-36977510D01*
X44022490Y-37144517D01*
X44213567Y-37283343D01*
X44312991Y-37334002D01*
X44424003Y-37390566D01*
X44424005Y-37390566D01*
X44424008Y-37390568D01*
X44544412Y-37429689D01*
X44648631Y-37463553D01*
X44881903Y-37500500D01*
X44881908Y-37500500D01*
X45118097Y-37500500D01*
X45351368Y-37463553D01*
X45575992Y-37390568D01*
X45786433Y-37283343D01*
X45977510Y-37144517D01*
X46144517Y-36977510D01*
X46283343Y-36786433D01*
X46390568Y-36575992D01*
X46463553Y-36351368D01*
X46476482Y-36269737D01*
X46500500Y-36118097D01*
X46500500Y-35881902D01*
X46476993Y-35733489D01*
X46463553Y-35648632D01*
X46463552Y-35648628D01*
X46463552Y-35648627D01*
X46435165Y-35561263D01*
X46390568Y-35424008D01*
X46389113Y-35421153D01*
X61699500Y-35421153D01*
X61699500Y-35578846D01*
X61730261Y-35733489D01*
X61730264Y-35733501D01*
X61790602Y-35879172D01*
X61790609Y-35879185D01*
X61878210Y-36010288D01*
X61878213Y-36010292D01*
X61989707Y-36121786D01*
X61989711Y-36121789D01*
X62120814Y-36209390D01*
X62120827Y-36209397D01*
X62266498Y-36269735D01*
X62266503Y-36269737D01*
X62421153Y-36300499D01*
X62421156Y-36300500D01*
X62421158Y-36300500D01*
X62578844Y-36300500D01*
X62578845Y-36300499D01*
X62733497Y-36269737D01*
X62879179Y-36209394D01*
X63010289Y-36121789D01*
X63121789Y-36010289D01*
X63209394Y-35879179D01*
X63269737Y-35733497D01*
X63300500Y-35578842D01*
X63300500Y-35421158D01*
X63300500Y-35421155D01*
X63300499Y-35421153D01*
X63269738Y-35266510D01*
X63269737Y-35266503D01*
X63269735Y-35266498D01*
X63209397Y-35120827D01*
X63209390Y-35120814D01*
X63121789Y-34989711D01*
X63121786Y-34989707D01*
X63010292Y-34878213D01*
X63010288Y-34878210D01*
X62879185Y-34790609D01*
X62879172Y-34790602D01*
X62733501Y-34730264D01*
X62733489Y-34730261D01*
X62578845Y-34699500D01*
X62578842Y-34699500D01*
X62421158Y-34699500D01*
X62421155Y-34699500D01*
X62266510Y-34730261D01*
X62266498Y-34730264D01*
X62120827Y-34790602D01*
X62120814Y-34790609D01*
X61989711Y-34878210D01*
X61989707Y-34878213D01*
X61878213Y-34989707D01*
X61878210Y-34989711D01*
X61790609Y-35120814D01*
X61790602Y-35120827D01*
X61730264Y-35266498D01*
X61730261Y-35266510D01*
X61699500Y-35421153D01*
X46389113Y-35421153D01*
X46283343Y-35213567D01*
X46144517Y-35022490D01*
X45977510Y-34855483D01*
X45786433Y-34716657D01*
X45575996Y-34609433D01*
X45351368Y-34536446D01*
X45118097Y-34499500D01*
X45118092Y-34499500D01*
X44881908Y-34499500D01*
X44881903Y-34499500D01*
X44648631Y-34536446D01*
X44424003Y-34609433D01*
X44213566Y-34716657D01*
X44111791Y-34790602D01*
X44022490Y-34855483D01*
X44022488Y-34855485D01*
X44022487Y-34855485D01*
X43855485Y-35022487D01*
X43855485Y-35022488D01*
X43855483Y-35022490D01*
X43795862Y-35104550D01*
X43716657Y-35213566D01*
X43609433Y-35424003D01*
X43536446Y-35648631D01*
X43499500Y-35881902D01*
X40000500Y-35881902D01*
X39963553Y-35648631D01*
X39929689Y-35544412D01*
X39890568Y-35424008D01*
X39890566Y-35424005D01*
X39890566Y-35424003D01*
X39810315Y-35266503D01*
X39783343Y-35213567D01*
X39644517Y-35022490D01*
X39477510Y-34855483D01*
X39286433Y-34716657D01*
X39075996Y-34609433D01*
X38851368Y-34536446D01*
X38618097Y-34499500D01*
X38618092Y-34499500D01*
X38381908Y-34499500D01*
X38381903Y-34499500D01*
X38148631Y-34536446D01*
X37924003Y-34609433D01*
X37713566Y-34716657D01*
X37611791Y-34790602D01*
X37522490Y-34855483D01*
X37522488Y-34855485D01*
X37522487Y-34855485D01*
X37355485Y-35022487D01*
X37355485Y-35022488D01*
X37355483Y-35022490D01*
X37295862Y-35104550D01*
X37216657Y-35213566D01*
X37109433Y-35424003D01*
X37036446Y-35648631D01*
X36999500Y-35881902D01*
X35500500Y-35881902D01*
X35500500Y-31381947D01*
X37000000Y-31381947D01*
X37000000Y-31618052D01*
X37036934Y-31851247D01*
X37109897Y-32075802D01*
X37217087Y-32286174D01*
X37277338Y-32369104D01*
X37277340Y-32369105D01*
X37976212Y-31670233D01*
X37987482Y-31712292D01*
X38059890Y-31837708D01*
X38162292Y-31940110D01*
X38287708Y-32012518D01*
X38329765Y-32023787D01*
X37630893Y-32722658D01*
X37713828Y-32782914D01*
X37924197Y-32890102D01*
X38148752Y-32963065D01*
X38148751Y-32963065D01*
X38381948Y-33000000D01*
X38618052Y-33000000D01*
X38851247Y-32963065D01*
X39075802Y-32890102D01*
X39286163Y-32782918D01*
X39286169Y-32782914D01*
X39369104Y-32722658D01*
X39369105Y-32722658D01*
X38670233Y-32023787D01*
X38712292Y-32012518D01*
X38837708Y-31940110D01*
X38940110Y-31837708D01*
X39012518Y-31712292D01*
X39023787Y-31670233D01*
X39722658Y-32369105D01*
X39722658Y-32369104D01*
X39782914Y-32286169D01*
X39782918Y-32286163D01*
X39890102Y-32075802D01*
X39963065Y-31851247D01*
X40000000Y-31618052D01*
X40000000Y-31381947D01*
X43500000Y-31381947D01*
X43500000Y-31618052D01*
X43536934Y-31851247D01*
X43609897Y-32075802D01*
X43717087Y-32286174D01*
X43777338Y-32369104D01*
X43777340Y-32369105D01*
X44476212Y-31670233D01*
X44487482Y-31712292D01*
X44559890Y-31837708D01*
X44662292Y-31940110D01*
X44787708Y-32012518D01*
X44829765Y-32023787D01*
X44130893Y-32722658D01*
X44213828Y-32782914D01*
X44424197Y-32890102D01*
X44648752Y-32963065D01*
X44648751Y-32963065D01*
X44881948Y-33000000D01*
X45118052Y-33000000D01*
X45351247Y-32963065D01*
X45575802Y-32890102D01*
X45786163Y-32782918D01*
X45786169Y-32782914D01*
X45869104Y-32722658D01*
X45869105Y-32722658D01*
X45170233Y-32023787D01*
X45212292Y-32012518D01*
X45337708Y-31940110D01*
X45440110Y-31837708D01*
X45512518Y-31712292D01*
X45523787Y-31670234D01*
X46222658Y-32369105D01*
X46222658Y-32369104D01*
X46282914Y-32286169D01*
X46282918Y-32286163D01*
X46390102Y-32075804D01*
X46411380Y-32010319D01*
X46411380Y-32010318D01*
X46463065Y-31851248D01*
X46500000Y-31618052D01*
X46500000Y-31381947D01*
X46463065Y-31148751D01*
X46394318Y-30937169D01*
X46394317Y-30937168D01*
X46390103Y-30924198D01*
X46378872Y-30902155D01*
X48410000Y-30902155D01*
X48410000Y-31600000D01*
X49434722Y-31600000D01*
X49390667Y-31676306D01*
X49360000Y-31790756D01*
X49360000Y-31909244D01*
X49390667Y-32023694D01*
X49434722Y-32100000D01*
X48410000Y-32100000D01*
X48410000Y-32797844D01*
X48416401Y-32857372D01*
X48416403Y-32857379D01*
X48466645Y-32992086D01*
X48466649Y-32992093D01*
X48552809Y-33107187D01*
X48552812Y-33107190D01*
X48667906Y-33193350D01*
X48667913Y-33193354D01*
X48802620Y-33243596D01*
X48802627Y-33243598D01*
X48862155Y-33249999D01*
X48862172Y-33250000D01*
X49560000Y-33250000D01*
X49560000Y-32225277D01*
X49636306Y-32269333D01*
X49750756Y-32300000D01*
X49869244Y-32300000D01*
X49983694Y-32269333D01*
X50060000Y-32225277D01*
X50060000Y-33250000D01*
X50757828Y-33250000D01*
X50757844Y-33249999D01*
X50817372Y-33243598D01*
X50817379Y-33243596D01*
X50952086Y-33193354D01*
X50952093Y-33193350D01*
X51067187Y-33107190D01*
X51067190Y-33107187D01*
X51153350Y-32992093D01*
X51153354Y-32992086D01*
X51183213Y-32912031D01*
X51225084Y-32856097D01*
X51290548Y-32831680D01*
X51358821Y-32846531D01*
X51387076Y-32867683D01*
X51437636Y-32918243D01*
X51437641Y-32918247D01*
X51550166Y-33000000D01*
X51615978Y-33047815D01*
X51732501Y-33107187D01*
X51812393Y-33147895D01*
X51812396Y-33147896D01*
X51917221Y-33181955D01*
X52022049Y-33216015D01*
X52239778Y-33250500D01*
X52239779Y-33250500D01*
X52460221Y-33250500D01*
X52460222Y-33250500D01*
X52677951Y-33216015D01*
X52887606Y-33147895D01*
X53084022Y-33047815D01*
X53262365Y-32918242D01*
X53418242Y-32762365D01*
X53547815Y-32584022D01*
X53647895Y-32387606D01*
X53716015Y-32177951D01*
X53742566Y-32010319D01*
X53750500Y-31960222D01*
X53750500Y-31739778D01*
X53728361Y-31600000D01*
X53716015Y-31522049D01*
X53681955Y-31417221D01*
X53647896Y-31312396D01*
X53647895Y-31312393D01*
X53547815Y-31115978D01*
X53443018Y-30971736D01*
X53443017Y-30971735D01*
X53418243Y-30937636D01*
X53382762Y-30902155D01*
X64410000Y-30902155D01*
X64410000Y-31600000D01*
X65434722Y-31600000D01*
X65390667Y-31676306D01*
X65360000Y-31790756D01*
X65360000Y-31909244D01*
X65390667Y-32023694D01*
X65434722Y-32100000D01*
X64410000Y-32100000D01*
X64410000Y-32797844D01*
X64416401Y-32857372D01*
X64416403Y-32857379D01*
X64466645Y-32992086D01*
X64466649Y-32992093D01*
X64552809Y-33107187D01*
X64552812Y-33107190D01*
X64667906Y-33193350D01*
X64667913Y-33193354D01*
X64802620Y-33243596D01*
X64802627Y-33243598D01*
X64862155Y-33249999D01*
X64862172Y-33250000D01*
X65560000Y-33250000D01*
X65560000Y-32225277D01*
X65636306Y-32269333D01*
X65750756Y-32300000D01*
X65869244Y-32300000D01*
X65983694Y-32269333D01*
X66060000Y-32225277D01*
X66060000Y-33250000D01*
X66757828Y-33250000D01*
X66757844Y-33249999D01*
X66817372Y-33243598D01*
X66817379Y-33243596D01*
X66952086Y-33193354D01*
X66952093Y-33193350D01*
X67067187Y-33107190D01*
X67067190Y-33107187D01*
X67153350Y-32992093D01*
X67153354Y-32992086D01*
X67183213Y-32912031D01*
X67225084Y-32856097D01*
X67290548Y-32831680D01*
X67358821Y-32846531D01*
X67387076Y-32867683D01*
X67437636Y-32918243D01*
X67437641Y-32918247D01*
X67550166Y-33000000D01*
X67615978Y-33047815D01*
X67732501Y-33107187D01*
X67812393Y-33147895D01*
X67812396Y-33147896D01*
X67917221Y-33181955D01*
X68022049Y-33216015D01*
X68239778Y-33250500D01*
X68239779Y-33250500D01*
X68460221Y-33250500D01*
X68460222Y-33250500D01*
X68677951Y-33216015D01*
X68887606Y-33147895D01*
X69084022Y-33047815D01*
X69262365Y-32918242D01*
X69418242Y-32762365D01*
X69547815Y-32584022D01*
X69647895Y-32387606D01*
X69716015Y-32177951D01*
X69750500Y-31960222D01*
X69750500Y-31921153D01*
X73199500Y-31921153D01*
X73199500Y-32078846D01*
X73230261Y-32233489D01*
X73230264Y-32233501D01*
X73290602Y-32379172D01*
X73290609Y-32379185D01*
X73378210Y-32510288D01*
X73378213Y-32510292D01*
X73489707Y-32621786D01*
X73489711Y-32621789D01*
X73620814Y-32709390D01*
X73620827Y-32709397D01*
X73748688Y-32762358D01*
X73766503Y-32769737D01*
X73921153Y-32800499D01*
X73921156Y-32800500D01*
X73921158Y-32800500D01*
X74078844Y-32800500D01*
X74078845Y-32800499D01*
X74233497Y-32769737D01*
X74379179Y-32709394D01*
X74510289Y-32621789D01*
X74621789Y-32510289D01*
X74709394Y-32379179D01*
X74769737Y-32233497D01*
X74800500Y-32078842D01*
X74800500Y-31921158D01*
X74800500Y-31921155D01*
X74800499Y-31921153D01*
X79699500Y-31921153D01*
X79699500Y-32078846D01*
X79730261Y-32233489D01*
X79730264Y-32233501D01*
X79790602Y-32379172D01*
X79790609Y-32379185D01*
X79878210Y-32510288D01*
X79878213Y-32510292D01*
X79989707Y-32621786D01*
X79989711Y-32621789D01*
X80120814Y-32709390D01*
X80120827Y-32709397D01*
X80248688Y-32762358D01*
X80266503Y-32769737D01*
X80421153Y-32800499D01*
X80421156Y-32800500D01*
X80421158Y-32800500D01*
X80578844Y-32800500D01*
X80578845Y-32800499D01*
X80733497Y-32769737D01*
X80879179Y-32709394D01*
X81010289Y-32621789D01*
X81121789Y-32510289D01*
X81209394Y-32379179D01*
X81269737Y-32233497D01*
X81300500Y-32078842D01*
X81300500Y-31921158D01*
X81300500Y-31921155D01*
X81300499Y-31921153D01*
X81298130Y-31909244D01*
X81269737Y-31766503D01*
X81247282Y-31712292D01*
X81209397Y-31620827D01*
X81209390Y-31620814D01*
X81121789Y-31489711D01*
X81121786Y-31489707D01*
X81010292Y-31378213D01*
X81010288Y-31378210D01*
X80879185Y-31290609D01*
X80879172Y-31290602D01*
X80733501Y-31230264D01*
X80733489Y-31230261D01*
X80578845Y-31199500D01*
X80578842Y-31199500D01*
X80421158Y-31199500D01*
X80421155Y-31199500D01*
X80266510Y-31230261D01*
X80266498Y-31230264D01*
X80120827Y-31290602D01*
X80120814Y-31290609D01*
X79989711Y-31378210D01*
X79989707Y-31378213D01*
X79878213Y-31489707D01*
X79878210Y-31489711D01*
X79790609Y-31620814D01*
X79790602Y-31620827D01*
X79730264Y-31766498D01*
X79730261Y-31766510D01*
X79699500Y-31921153D01*
X74800499Y-31921153D01*
X74798130Y-31909244D01*
X74769737Y-31766503D01*
X74747282Y-31712292D01*
X74709397Y-31620827D01*
X74709390Y-31620814D01*
X74621789Y-31489711D01*
X74621786Y-31489707D01*
X74510292Y-31378213D01*
X74510288Y-31378210D01*
X74379185Y-31290609D01*
X74379172Y-31290602D01*
X74233501Y-31230264D01*
X74233489Y-31230261D01*
X74078845Y-31199500D01*
X74078842Y-31199500D01*
X73921158Y-31199500D01*
X73921155Y-31199500D01*
X73766510Y-31230261D01*
X73766498Y-31230264D01*
X73620827Y-31290602D01*
X73620814Y-31290609D01*
X73489711Y-31378210D01*
X73489707Y-31378213D01*
X73378213Y-31489707D01*
X73378210Y-31489711D01*
X73290609Y-31620814D01*
X73290602Y-31620827D01*
X73230264Y-31766498D01*
X73230261Y-31766510D01*
X73199500Y-31921153D01*
X69750500Y-31921153D01*
X69750500Y-31739778D01*
X69716015Y-31522049D01*
X69681955Y-31417221D01*
X69647896Y-31312396D01*
X69647895Y-31312393D01*
X69564514Y-31148752D01*
X69547815Y-31115978D01*
X69427226Y-30950000D01*
X69418247Y-30937641D01*
X69418243Y-30937636D01*
X69262363Y-30781756D01*
X69262358Y-30781752D01*
X69084025Y-30652187D01*
X69084024Y-30652186D01*
X69084022Y-30652185D01*
X69021096Y-30620122D01*
X68887606Y-30552104D01*
X68887603Y-30552103D01*
X68677952Y-30483985D01*
X68569086Y-30466742D01*
X68460222Y-30449500D01*
X68239778Y-30449500D01*
X68167201Y-30460995D01*
X68022047Y-30483985D01*
X67812396Y-30552103D01*
X67812393Y-30552104D01*
X67615974Y-30652187D01*
X67437641Y-30781752D01*
X67437636Y-30781756D01*
X67387075Y-30832317D01*
X67325752Y-30865801D01*
X67256060Y-30860816D01*
X67200127Y-30818945D01*
X67183213Y-30787968D01*
X67153354Y-30707913D01*
X67153350Y-30707906D01*
X67067190Y-30592812D01*
X67067187Y-30592809D01*
X66952093Y-30506649D01*
X66952086Y-30506645D01*
X66817379Y-30456403D01*
X66817372Y-30456401D01*
X66757844Y-30450000D01*
X66060000Y-30450000D01*
X66060000Y-31474722D01*
X65983694Y-31430667D01*
X65869244Y-31400000D01*
X65750756Y-31400000D01*
X65636306Y-31430667D01*
X65560000Y-31474722D01*
X65560000Y-30450000D01*
X64862155Y-30450000D01*
X64802627Y-30456401D01*
X64802620Y-30456403D01*
X64667913Y-30506645D01*
X64667906Y-30506649D01*
X64552812Y-30592809D01*
X64552809Y-30592812D01*
X64466649Y-30707906D01*
X64466645Y-30707913D01*
X64416403Y-30842620D01*
X64416401Y-30842627D01*
X64410000Y-30902155D01*
X53382762Y-30902155D01*
X53262363Y-30781756D01*
X53262358Y-30781752D01*
X53084025Y-30652187D01*
X53084024Y-30652186D01*
X53084022Y-30652185D01*
X53021096Y-30620122D01*
X52887606Y-30552104D01*
X52887603Y-30552103D01*
X52677952Y-30483985D01*
X52569086Y-30466742D01*
X52460222Y-30449500D01*
X52239778Y-30449500D01*
X52167201Y-30460995D01*
X52022047Y-30483985D01*
X51812396Y-30552103D01*
X51812393Y-30552104D01*
X51615974Y-30652187D01*
X51437641Y-30781752D01*
X51437636Y-30781756D01*
X51387075Y-30832317D01*
X51325752Y-30865801D01*
X51256060Y-30860816D01*
X51200127Y-30818945D01*
X51183213Y-30787968D01*
X51153354Y-30707913D01*
X51153350Y-30707906D01*
X51067190Y-30592812D01*
X51067187Y-30592809D01*
X50952093Y-30506649D01*
X50952086Y-30506645D01*
X50817379Y-30456403D01*
X50817372Y-30456401D01*
X50757844Y-30450000D01*
X50060000Y-30450000D01*
X50060000Y-31474722D01*
X49983694Y-31430667D01*
X49869244Y-31400000D01*
X49750756Y-31400000D01*
X49636306Y-31430667D01*
X49560000Y-31474722D01*
X49560000Y-30450000D01*
X48862155Y-30450000D01*
X48802627Y-30456401D01*
X48802620Y-30456403D01*
X48667913Y-30506645D01*
X48667906Y-30506649D01*
X48552812Y-30592809D01*
X48552809Y-30592812D01*
X48466649Y-30707906D01*
X48466645Y-30707913D01*
X48416403Y-30842620D01*
X48416401Y-30842627D01*
X48410000Y-30902155D01*
X46378872Y-30902155D01*
X46282914Y-30713828D01*
X46222658Y-30630894D01*
X46222658Y-30630893D01*
X45523787Y-31329765D01*
X45512518Y-31287708D01*
X45440110Y-31162292D01*
X45337708Y-31059890D01*
X45212292Y-30987482D01*
X45170234Y-30976212D01*
X45869105Y-30277340D01*
X45869104Y-30277338D01*
X45786174Y-30217087D01*
X45575802Y-30109897D01*
X45351247Y-30036934D01*
X45351248Y-30036934D01*
X45118052Y-30000000D01*
X44881948Y-30000000D01*
X44648752Y-30036934D01*
X44424197Y-30109897D01*
X44213830Y-30217084D01*
X44130894Y-30277340D01*
X44829766Y-30976212D01*
X44787708Y-30987482D01*
X44662292Y-31059890D01*
X44559890Y-31162292D01*
X44487482Y-31287708D01*
X44476212Y-31329766D01*
X43777340Y-30630894D01*
X43717084Y-30713830D01*
X43609897Y-30924197D01*
X43536934Y-31148752D01*
X43500000Y-31381947D01*
X40000000Y-31381947D01*
X39963065Y-31148752D01*
X39890102Y-30924197D01*
X39782914Y-30713828D01*
X39722658Y-30630894D01*
X39722658Y-30630893D01*
X39023787Y-31329765D01*
X39012518Y-31287708D01*
X38940110Y-31162292D01*
X38837708Y-31059890D01*
X38712292Y-30987482D01*
X38670234Y-30976212D01*
X39369105Y-30277340D01*
X39369104Y-30277339D01*
X39286174Y-30217087D01*
X39075802Y-30109897D01*
X38851247Y-30036934D01*
X38851248Y-30036934D01*
X38618052Y-30000000D01*
X38381948Y-30000000D01*
X38148752Y-30036934D01*
X37924197Y-30109897D01*
X37713830Y-30217084D01*
X37630894Y-30277340D01*
X38329766Y-30976212D01*
X38287708Y-30987482D01*
X38162292Y-31059890D01*
X38059890Y-31162292D01*
X37987482Y-31287708D01*
X37976212Y-31329766D01*
X37277340Y-30630894D01*
X37217084Y-30713830D01*
X37109897Y-30924197D01*
X37036934Y-31148752D01*
X37000000Y-31381947D01*
X35500500Y-31381947D01*
X35500500Y-29421153D01*
X62699500Y-29421153D01*
X62699500Y-29578846D01*
X62730261Y-29733489D01*
X62730264Y-29733501D01*
X62790602Y-29879172D01*
X62790609Y-29879185D01*
X62878210Y-30010288D01*
X62878213Y-30010292D01*
X62989707Y-30121786D01*
X62989711Y-30121789D01*
X63120814Y-30209390D01*
X63120827Y-30209397D01*
X63266498Y-30269735D01*
X63266503Y-30269737D01*
X63421153Y-30300499D01*
X63421156Y-30300500D01*
X63421158Y-30300500D01*
X63578844Y-30300500D01*
X63578845Y-30300499D01*
X63733497Y-30269737D01*
X63879179Y-30209394D01*
X64010289Y-30121789D01*
X64121789Y-30010289D01*
X64209394Y-29879179D01*
X64269737Y-29733497D01*
X64300500Y-29578842D01*
X64300500Y-29421158D01*
X64300500Y-29421155D01*
X64300499Y-29421153D01*
X64269738Y-29266510D01*
X64269737Y-29266503D01*
X64269735Y-29266498D01*
X64209397Y-29120827D01*
X64209390Y-29120814D01*
X64121789Y-28989711D01*
X64121786Y-28989707D01*
X64010292Y-28878213D01*
X64010288Y-28878210D01*
X63879185Y-28790609D01*
X63879172Y-28790602D01*
X63733501Y-28730264D01*
X63733489Y-28730261D01*
X63578845Y-28699500D01*
X63578842Y-28699500D01*
X63421158Y-28699500D01*
X63421155Y-28699500D01*
X63266510Y-28730261D01*
X63266498Y-28730264D01*
X63120827Y-28790602D01*
X63120814Y-28790609D01*
X62989711Y-28878210D01*
X62989707Y-28878213D01*
X62878213Y-28989707D01*
X62878210Y-28989711D01*
X62790609Y-29120814D01*
X62790602Y-29120827D01*
X62730264Y-29266498D01*
X62730261Y-29266510D01*
X62699500Y-29421153D01*
X35500500Y-29421153D01*
X35500500Y-24921153D01*
X55699500Y-24921153D01*
X55699500Y-25078846D01*
X55730261Y-25233489D01*
X55730264Y-25233501D01*
X55790602Y-25379172D01*
X55790609Y-25379185D01*
X55878210Y-25510288D01*
X55878213Y-25510292D01*
X55989707Y-25621786D01*
X55989711Y-25621789D01*
X56120814Y-25709390D01*
X56120827Y-25709397D01*
X56218853Y-25750000D01*
X56266503Y-25769737D01*
X56421153Y-25800499D01*
X56421156Y-25800500D01*
X56421158Y-25800500D01*
X56578844Y-25800500D01*
X56578845Y-25800499D01*
X56733497Y-25769737D01*
X56879179Y-25709394D01*
X57010289Y-25621789D01*
X57121789Y-25510289D01*
X57209394Y-25379179D01*
X57269737Y-25233497D01*
X57300500Y-25078842D01*
X57300500Y-24921158D01*
X57300500Y-24921155D01*
X57300499Y-24921153D01*
X60199500Y-24921153D01*
X60199500Y-25078846D01*
X60230261Y-25233489D01*
X60230264Y-25233501D01*
X60290602Y-25379172D01*
X60290609Y-25379185D01*
X60378210Y-25510288D01*
X60378213Y-25510292D01*
X60489707Y-25621786D01*
X60489710Y-25621788D01*
X60489711Y-25621789D01*
X60515219Y-25638833D01*
X60527289Y-25646898D01*
X60572093Y-25700511D01*
X60580800Y-25769836D01*
X60550645Y-25832863D01*
X60527289Y-25853102D01*
X60489707Y-25878213D01*
X60378213Y-25989707D01*
X60378210Y-25989711D01*
X60290609Y-26120814D01*
X60290602Y-26120827D01*
X60230264Y-26266498D01*
X60230261Y-26266510D01*
X60199500Y-26421153D01*
X60199500Y-26578846D01*
X60230261Y-26733489D01*
X60230264Y-26733501D01*
X60290602Y-26879172D01*
X60290609Y-26879185D01*
X60378210Y-27010288D01*
X60378213Y-27010292D01*
X60489707Y-27121786D01*
X60489711Y-27121789D01*
X60620814Y-27209390D01*
X60620827Y-27209397D01*
X60766498Y-27269735D01*
X60766503Y-27269737D01*
X60921153Y-27300499D01*
X60921156Y-27300500D01*
X60921158Y-27300500D01*
X61078844Y-27300500D01*
X61078845Y-27300499D01*
X61233497Y-27269737D01*
X61379179Y-27209394D01*
X61510289Y-27121789D01*
X61621789Y-27010289D01*
X61709394Y-26879179D01*
X61769737Y-26733497D01*
X61800500Y-26578842D01*
X61800500Y-26421158D01*
X61800500Y-26421155D01*
X61800499Y-26421153D01*
X61769738Y-26266510D01*
X61769737Y-26266503D01*
X61769735Y-26266498D01*
X61709397Y-26120827D01*
X61709390Y-26120814D01*
X61621789Y-25989711D01*
X61621786Y-25989707D01*
X61510292Y-25878213D01*
X61510284Y-25878207D01*
X61472712Y-25853102D01*
X61427906Y-25799490D01*
X61419199Y-25730165D01*
X61449353Y-25667138D01*
X61472712Y-25646898D01*
X61499279Y-25629145D01*
X61510289Y-25621789D01*
X61621789Y-25510289D01*
X61709394Y-25379179D01*
X61769737Y-25233497D01*
X61800500Y-25078842D01*
X61800500Y-24921158D01*
X61800500Y-24921155D01*
X61800499Y-24921153D01*
X61769738Y-24766510D01*
X61769737Y-24766503D01*
X61769735Y-24766498D01*
X61709397Y-24620827D01*
X61709390Y-24620814D01*
X61621789Y-24489711D01*
X61621786Y-24489707D01*
X61510292Y-24378213D01*
X61510288Y-24378210D01*
X61379185Y-24290609D01*
X61379172Y-24290602D01*
X61233501Y-24230264D01*
X61233489Y-24230261D01*
X61078845Y-24199500D01*
X61078842Y-24199500D01*
X60921158Y-24199500D01*
X60921155Y-24199500D01*
X60766510Y-24230261D01*
X60766498Y-24230264D01*
X60620827Y-24290602D01*
X60620814Y-24290609D01*
X60489711Y-24378210D01*
X60489707Y-24378213D01*
X60378213Y-24489707D01*
X60378210Y-24489711D01*
X60290609Y-24620814D01*
X60290602Y-24620827D01*
X60230264Y-24766498D01*
X60230261Y-24766510D01*
X60199500Y-24921153D01*
X57300499Y-24921153D01*
X57269738Y-24766510D01*
X57269737Y-24766503D01*
X57269735Y-24766498D01*
X57209397Y-24620827D01*
X57209390Y-24620814D01*
X57121789Y-24489711D01*
X57121786Y-24489707D01*
X57010292Y-24378213D01*
X57010288Y-24378210D01*
X56879185Y-24290609D01*
X56879172Y-24290602D01*
X56733501Y-24230264D01*
X56733489Y-24230261D01*
X56578845Y-24199500D01*
X56578842Y-24199500D01*
X56421158Y-24199500D01*
X56421155Y-24199500D01*
X56266510Y-24230261D01*
X56266498Y-24230264D01*
X56120827Y-24290602D01*
X56120814Y-24290609D01*
X55989711Y-24378210D01*
X55989707Y-24378213D01*
X55878213Y-24489707D01*
X55878210Y-24489711D01*
X55790609Y-24620814D01*
X55790602Y-24620827D01*
X55730264Y-24766498D01*
X55730261Y-24766510D01*
X55699500Y-24921153D01*
X35500500Y-24921153D01*
X35500500Y-23546153D01*
X49249500Y-23546153D01*
X49249500Y-23703846D01*
X49280261Y-23858489D01*
X49280264Y-23858501D01*
X49340602Y-24004172D01*
X49340609Y-24004185D01*
X49428210Y-24135288D01*
X49428213Y-24135292D01*
X49539707Y-24246786D01*
X49539711Y-24246789D01*
X49670814Y-24334390D01*
X49670827Y-24334397D01*
X49776603Y-24378210D01*
X49816503Y-24394737D01*
X49971153Y-24425499D01*
X49971156Y-24425500D01*
X49971158Y-24425500D01*
X50128844Y-24425500D01*
X50128845Y-24425499D01*
X50283497Y-24394737D01*
X50429179Y-24334394D01*
X50560289Y-24246789D01*
X50671789Y-24135289D01*
X50759394Y-24004179D01*
X50819737Y-23858497D01*
X50850500Y-23703842D01*
X50850500Y-23546158D01*
X50850500Y-23546155D01*
X50850499Y-23546153D01*
X50819738Y-23391510D01*
X50819737Y-23391503D01*
X50819735Y-23391498D01*
X50759397Y-23245827D01*
X50759390Y-23245814D01*
X50671789Y-23114711D01*
X50671786Y-23114707D01*
X50560292Y-23003213D01*
X50560288Y-23003210D01*
X50429185Y-22915609D01*
X50429172Y-22915602D01*
X50283501Y-22855264D01*
X50283489Y-22855261D01*
X50128845Y-22824500D01*
X50128842Y-22824500D01*
X49971158Y-22824500D01*
X49971155Y-22824500D01*
X49816510Y-22855261D01*
X49816498Y-22855264D01*
X49670827Y-22915602D01*
X49670814Y-22915609D01*
X49539711Y-23003210D01*
X49539707Y-23003213D01*
X49428213Y-23114707D01*
X49428210Y-23114711D01*
X49340609Y-23245814D01*
X49340602Y-23245827D01*
X49280264Y-23391498D01*
X49280261Y-23391510D01*
X49249500Y-23546153D01*
X35500500Y-23546153D01*
X35500500Y-21421153D01*
X40199500Y-21421153D01*
X40199500Y-21578846D01*
X40230261Y-21733489D01*
X40230264Y-21733501D01*
X40290602Y-21879172D01*
X40290609Y-21879185D01*
X40378210Y-22010288D01*
X40378213Y-22010292D01*
X40489707Y-22121786D01*
X40489711Y-22121789D01*
X40620814Y-22209390D01*
X40620827Y-22209397D01*
X40766498Y-22269735D01*
X40766503Y-22269737D01*
X40921153Y-22300499D01*
X40921156Y-22300500D01*
X40921158Y-22300500D01*
X41078844Y-22300500D01*
X41078845Y-22300499D01*
X41233497Y-22269737D01*
X41379179Y-22209394D01*
X41510289Y-22121789D01*
X41621789Y-22010289D01*
X41709394Y-21879179D01*
X41769737Y-21733497D01*
X41800500Y-21578842D01*
X41800500Y-21421158D01*
X41800500Y-21421155D01*
X41800499Y-21421153D01*
X43099500Y-21421153D01*
X43099500Y-21578846D01*
X43130261Y-21733489D01*
X43130264Y-21733501D01*
X43190602Y-21879172D01*
X43190609Y-21879185D01*
X43278210Y-22010288D01*
X43278213Y-22010292D01*
X43389707Y-22121786D01*
X43389711Y-22121789D01*
X43520814Y-22209390D01*
X43520827Y-22209397D01*
X43666498Y-22269735D01*
X43666503Y-22269737D01*
X43821153Y-22300499D01*
X43821156Y-22300500D01*
X43821158Y-22300500D01*
X43978844Y-22300500D01*
X43978845Y-22300499D01*
X44133497Y-22269737D01*
X44279179Y-22209394D01*
X44410289Y-22121789D01*
X44521789Y-22010289D01*
X44609394Y-21879179D01*
X44669737Y-21733497D01*
X44700500Y-21578842D01*
X44700500Y-21421158D01*
X44700500Y-21421155D01*
X44700499Y-21421153D01*
X44669738Y-21266510D01*
X44669737Y-21266503D01*
X44669735Y-21266498D01*
X44609397Y-21120827D01*
X44609390Y-21120814D01*
X44521789Y-20989711D01*
X44521786Y-20989707D01*
X44410292Y-20878213D01*
X44410288Y-20878210D01*
X44279185Y-20790609D01*
X44279172Y-20790602D01*
X44133501Y-20730264D01*
X44133489Y-20730261D01*
X43978845Y-20699500D01*
X43978842Y-20699500D01*
X43821158Y-20699500D01*
X43821155Y-20699500D01*
X43666510Y-20730261D01*
X43666498Y-20730264D01*
X43520827Y-20790602D01*
X43520814Y-20790609D01*
X43389711Y-20878210D01*
X43389707Y-20878213D01*
X43278213Y-20989707D01*
X43278210Y-20989711D01*
X43190609Y-21120814D01*
X43190602Y-21120827D01*
X43130264Y-21266498D01*
X43130261Y-21266510D01*
X43099500Y-21421153D01*
X41800499Y-21421153D01*
X41769738Y-21266510D01*
X41769737Y-21266503D01*
X41769735Y-21266498D01*
X41709397Y-21120827D01*
X41709390Y-21120814D01*
X41621789Y-20989711D01*
X41621786Y-20989707D01*
X41510292Y-20878213D01*
X41510288Y-20878210D01*
X41379185Y-20790609D01*
X41379172Y-20790602D01*
X41233501Y-20730264D01*
X41233489Y-20730261D01*
X41078845Y-20699500D01*
X41078842Y-20699500D01*
X40921158Y-20699500D01*
X40921155Y-20699500D01*
X40766510Y-20730261D01*
X40766498Y-20730264D01*
X40620827Y-20790602D01*
X40620814Y-20790609D01*
X40489711Y-20878210D01*
X40489707Y-20878213D01*
X40378213Y-20989707D01*
X40378210Y-20989711D01*
X40290609Y-21120814D01*
X40290602Y-21120827D01*
X40230264Y-21266498D01*
X40230261Y-21266510D01*
X40199500Y-21421153D01*
X35500500Y-21421153D01*
X35500500Y-16906428D01*
X55300000Y-16906428D01*
X55300000Y-17100000D01*
X56000000Y-17100000D01*
X56000000Y-17600000D01*
X55300000Y-17600000D01*
X55300000Y-17793571D01*
X55336506Y-17977097D01*
X55336508Y-17977105D01*
X55408119Y-18149991D01*
X55408124Y-18150000D01*
X55512086Y-18305589D01*
X55512089Y-18305593D01*
X55644406Y-18437910D01*
X55644410Y-18437913D01*
X55799999Y-18541875D01*
X55800012Y-18541882D01*
X55972889Y-18613489D01*
X55972896Y-18613491D01*
X56000000Y-18618882D01*
X56000000Y-17749728D01*
X56038060Y-17841614D01*
X56108386Y-17911940D01*
X56200272Y-17950000D01*
X56299728Y-17950000D01*
X56391614Y-17911940D01*
X56461940Y-17841614D01*
X56500000Y-17749728D01*
X56500000Y-18618881D01*
X56527103Y-18613491D01*
X56527110Y-18613489D01*
X56699987Y-18541882D01*
X56700000Y-18541875D01*
X56855589Y-18437913D01*
X56855593Y-18437910D01*
X56987910Y-18305593D01*
X56987913Y-18305589D01*
X57091875Y-18150000D01*
X57091880Y-18149991D01*
X57163491Y-17977105D01*
X57163493Y-17977097D01*
X57199999Y-17793571D01*
X57200000Y-17793569D01*
X57200000Y-17600000D01*
X56500000Y-17600000D01*
X56500000Y-17100000D01*
X57200000Y-17100000D01*
X57200000Y-16906430D01*
X57199999Y-16906428D01*
X61900000Y-16906428D01*
X61900000Y-17100000D01*
X62600000Y-17100000D01*
X62600000Y-17600000D01*
X61900000Y-17600000D01*
X61900000Y-17793571D01*
X61936506Y-17977097D01*
X61936508Y-17977105D01*
X62008119Y-18149991D01*
X62008124Y-18150000D01*
X62112086Y-18305589D01*
X62112089Y-18305593D01*
X62244406Y-18437910D01*
X62244410Y-18437913D01*
X62399999Y-18541875D01*
X62400012Y-18541882D01*
X62572889Y-18613489D01*
X62572896Y-18613491D01*
X62600000Y-18618882D01*
X62600000Y-17749728D01*
X62638060Y-17841614D01*
X62708386Y-17911940D01*
X62800272Y-17950000D01*
X62899728Y-17950000D01*
X62991614Y-17911940D01*
X63061940Y-17841614D01*
X63100000Y-17749728D01*
X63100000Y-18618881D01*
X63127103Y-18613491D01*
X63127110Y-18613489D01*
X63299987Y-18541882D01*
X63300000Y-18541875D01*
X63455589Y-18437913D01*
X63455593Y-18437910D01*
X63587910Y-18305593D01*
X63587913Y-18305589D01*
X63691875Y-18150000D01*
X63691880Y-18149991D01*
X63763491Y-17977105D01*
X63763493Y-17977097D01*
X63799999Y-17793571D01*
X63800000Y-17793569D01*
X63800000Y-17600000D01*
X63100000Y-17600000D01*
X63100000Y-17374038D01*
X67239500Y-17374038D01*
X67239500Y-17625961D01*
X67278910Y-17874785D01*
X67356760Y-18114383D01*
X67435413Y-18268747D01*
X67454187Y-18305593D01*
X67471132Y-18338848D01*
X67619201Y-18542649D01*
X67619205Y-18542654D01*
X67797345Y-18720794D01*
X67797350Y-18720798D01*
X67964623Y-18842328D01*
X68001155Y-18868870D01*
X68144184Y-18941747D01*
X68225616Y-18983239D01*
X68225618Y-18983239D01*
X68225621Y-18983241D01*
X68465215Y-19061090D01*
X68714038Y-19100500D01*
X68714039Y-19100500D01*
X68965961Y-19100500D01*
X68965962Y-19100500D01*
X69214785Y-19061090D01*
X69454379Y-18983241D01*
X69678845Y-18868870D01*
X69882656Y-18720793D01*
X70060793Y-18542656D01*
X70208870Y-18338845D01*
X70323241Y-18114379D01*
X70401090Y-17874785D01*
X70440500Y-17625962D01*
X70440500Y-17374038D01*
X70401090Y-17125215D01*
X70323241Y-16885621D01*
X70323239Y-16885618D01*
X70323239Y-16885616D01*
X70273531Y-16788060D01*
X70208870Y-16661155D01*
X70128111Y-16549999D01*
X70060798Y-16457350D01*
X70060794Y-16457345D01*
X69955584Y-16352135D01*
X77399500Y-16352135D01*
X77399500Y-18647870D01*
X77399501Y-18647876D01*
X77405908Y-18707483D01*
X77456202Y-18842328D01*
X77456206Y-18842335D01*
X77542452Y-18957544D01*
X77542455Y-18957547D01*
X77657664Y-19043793D01*
X77657671Y-19043797D01*
X77792517Y-19094091D01*
X77792516Y-19094091D01*
X77799444Y-19094835D01*
X77852127Y-19100500D01*
X80147872Y-19100499D01*
X80207483Y-19094091D01*
X80342331Y-19043796D01*
X80457546Y-18957546D01*
X80543796Y-18842331D01*
X80594091Y-18707483D01*
X80600500Y-18647873D01*
X80600499Y-16352128D01*
X80594091Y-16292517D01*
X80589124Y-16279201D01*
X80543797Y-16157671D01*
X80543793Y-16157664D01*
X80457547Y-16042455D01*
X80457544Y-16042452D01*
X80342335Y-15956206D01*
X80342328Y-15956202D01*
X80207482Y-15905908D01*
X80207483Y-15905908D01*
X80147883Y-15899501D01*
X80147881Y-15899500D01*
X80147873Y-15899500D01*
X80147864Y-15899500D01*
X77852129Y-15899500D01*
X77852123Y-15899501D01*
X77792516Y-15905908D01*
X77657671Y-15956202D01*
X77657664Y-15956206D01*
X77542455Y-16042452D01*
X77542452Y-16042455D01*
X77456206Y-16157664D01*
X77456202Y-16157671D01*
X77405908Y-16292517D01*
X77399501Y-16352116D01*
X77399501Y-16352123D01*
X77399500Y-16352135D01*
X69955584Y-16352135D01*
X69882654Y-16279205D01*
X69882649Y-16279201D01*
X69678848Y-16131132D01*
X69678847Y-16131131D01*
X69678845Y-16131130D01*
X69608747Y-16095413D01*
X69454383Y-16016760D01*
X69214785Y-15938910D01*
X68965962Y-15899500D01*
X68714038Y-15899500D01*
X68589626Y-15919205D01*
X68465214Y-15938910D01*
X68225616Y-16016760D01*
X68001151Y-16131132D01*
X67797350Y-16279201D01*
X67797345Y-16279205D01*
X67619205Y-16457345D01*
X67619201Y-16457350D01*
X67471132Y-16661151D01*
X67356760Y-16885616D01*
X67278910Y-17125214D01*
X67239500Y-17374038D01*
X63100000Y-17374038D01*
X63100000Y-17100000D01*
X63800000Y-17100000D01*
X63800000Y-16906430D01*
X63799999Y-16906428D01*
X63763493Y-16722902D01*
X63763491Y-16722894D01*
X63691880Y-16550008D01*
X63691875Y-16549999D01*
X63587913Y-16394410D01*
X63587910Y-16394406D01*
X63455593Y-16262089D01*
X63455589Y-16262086D01*
X63300000Y-16158124D01*
X63299991Y-16158119D01*
X63127103Y-16086507D01*
X63127100Y-16086506D01*
X63100000Y-16081115D01*
X63100000Y-16950272D01*
X63061940Y-16858386D01*
X62991614Y-16788060D01*
X62899728Y-16750000D01*
X62800272Y-16750000D01*
X62708386Y-16788060D01*
X62638060Y-16858386D01*
X62600000Y-16950272D01*
X62600000Y-16081116D01*
X62599999Y-16081115D01*
X62572899Y-16086506D01*
X62572896Y-16086507D01*
X62400008Y-16158119D01*
X62399999Y-16158124D01*
X62244410Y-16262086D01*
X62244406Y-16262089D01*
X62112089Y-16394406D01*
X62112086Y-16394410D01*
X62008124Y-16549999D01*
X62008119Y-16550008D01*
X61936508Y-16722894D01*
X61936506Y-16722902D01*
X61900000Y-16906428D01*
X57199999Y-16906428D01*
X57163493Y-16722902D01*
X57163491Y-16722894D01*
X57091880Y-16550008D01*
X57091875Y-16549999D01*
X56987913Y-16394410D01*
X56987910Y-16394406D01*
X56855593Y-16262089D01*
X56855589Y-16262086D01*
X56700000Y-16158124D01*
X56699991Y-16158119D01*
X56527103Y-16086507D01*
X56527100Y-16086506D01*
X56500000Y-16081115D01*
X56500000Y-16950272D01*
X56461940Y-16858386D01*
X56391614Y-16788060D01*
X56299728Y-16750000D01*
X56200272Y-16750000D01*
X56108386Y-16788060D01*
X56038060Y-16858386D01*
X56000000Y-16950272D01*
X56000000Y-16081116D01*
X55999999Y-16081115D01*
X55972899Y-16086506D01*
X55972896Y-16086507D01*
X55800008Y-16158119D01*
X55799999Y-16158124D01*
X55644410Y-16262086D01*
X55644406Y-16262089D01*
X55512089Y-16394406D01*
X55512086Y-16394410D01*
X55408124Y-16549999D01*
X55408119Y-16550008D01*
X55336508Y-16722894D01*
X55336506Y-16722902D01*
X55300000Y-16906428D01*
X35500500Y-16906428D01*
X35500500Y-13624500D01*
X35520185Y-13557461D01*
X35572989Y-13511706D01*
X35624500Y-13500500D01*
X84375500Y-13500500D01*
X84442539Y-13520185D01*
G37*
%TD.AperFunction*%
%TD*%
M02*
