M48
; DRILL file {KiCad 9.0.0} date 2025-03-28T11:36:00-0400
; FORMAT={-:-/ absolute / metric / decimal}
; #@! TF.CreationDate,2025-03-28T11:36:00-04:00
; #@! TF.GenerationSoftware,Kicad,Pcbnew,9.0.0
; #@! TF.FileFunction,Plated,1,2,Blind
FMAT,2
METRIC
; #@! TA.AperFunction,Plated,Buried,ViaDrill
T1C0.300
%
G90
G05
T1
X38.0Y-17.5
X40.5Y-61.5
X40.5Y-66.0
X40.5Y-70.5
X40.5Y-75.0
X46.0Y-73.4
X46.1Y-70.3
X47.0Y-68.0
X47.0Y-75.9
X47.7Y-73.1
X47.8Y-71.1
X48.5Y-77.5
X49.0Y-70.0
X49.1Y-66.5
X49.2Y-71.1
X49.2Y-73.1
X50.2Y-78.9
X51.0Y-52.0
X52.6Y-76.1
X52.7Y-72.2
X52.8Y-79.0
X53.0Y-70.4
X54.2Y-73.8
X54.5Y-71.8
X54.6Y-79.5
X54.8Y-76.1
X56.0Y-20.0
X56.4Y-73.5
X56.845Y-58.5
X56.85Y-59.9
X56.85Y-61.3
X57.0Y-22.0
X57.0Y-23.5
X57.4Y-79.6
X58.0Y-25.0
X58.1Y-27.0
X58.25Y-58.5
X58.25Y-59.9
X58.25Y-61.3
X58.5Y-23.5
X58.7Y-78.4
X58.9Y-74.9
X59.35Y-31.85
X59.65Y-58.5
X59.65Y-59.9
X59.65Y-61.3
X59.8Y-77.0
X60.0Y-23.5
X60.0Y-79.7
X61.0Y-25.0
X61.0Y-26.5
X61.0Y-28.0
X61.1Y-78.3
X62.3Y-21.7
X62.4Y-79.5
X62.5Y-36.7
X62.5Y-39.8
X63.0Y-20.0
X63.2Y-41.7
X63.8Y-31.9
X64.2Y-35.6
X64.6Y-43.7
X65.5Y-25.5
X66.3Y-52.1
X66.3Y-54.4
X66.3Y-56.8
X68.9Y-42.5
X69.0Y-24.5
X70.8Y-56.3
X70.9Y-31.5
X70.9Y-34.8
X70.9Y-40.4
X71.0Y-25.5
X71.0Y-52.0
X72.4Y-42.1
X72.5Y-54.6
X73.1Y-44.1
X73.1Y-46.8
X73.1Y-49.3
X73.1Y-52.0
X74.0Y-29.5
X76.0Y-45.5
X76.0Y-50.0
X76.0Y-54.5
X76.0Y-59.0
X76.0Y-63.5
X76.0Y-68.0
M30
