%TF.GenerationSoftware,KiCad,Pcbnew,9.0.0*%
%TF.CreationDate,2025-03-28T11:35:54-04:00*%
%TF.ProjectId,Compute Node,436f6d70-7574-4652-904e-6f64652e6b69,rev?*%
%TF.SameCoordinates,Original*%
%TF.FileFunction,Soldermask,Top*%
%TF.FilePolarity,Negative*%
%FSLAX46Y46*%
G04 Gerber Fmt 4.6, Leading zero omitted, Abs format (unit mm)*
G04 Created by KiCad (PCBNEW 9.0.0) date 2025-03-28 11:35:54*
%MOMM*%
%LPD*%
G01*
G04 APERTURE LIST*
G04 Aperture macros list*
%AMRoundRect*
0 Rectangle with rounded corners*
0 $1 Rounding radius*
0 $2 $3 $4 $5 $6 $7 $8 $9 X,Y pos of 4 corners*
0 Add a 4 corners polygon primitive as box body*
4,1,4,$2,$3,$4,$5,$6,$7,$8,$9,$2,$3,0*
0 Add four circle primitives for the rounded corners*
1,1,$1+$1,$2,$3*
1,1,$1+$1,$4,$5*
1,1,$1+$1,$6,$7*
1,1,$1+$1,$8,$9*
0 Add four rect primitives between the rounded corners*
20,1,$1+$1,$2,$3,$4,$5,0*
20,1,$1+$1,$4,$5,$6,$7,0*
20,1,$1+$1,$6,$7,$8,$9,0*
20,1,$1+$1,$8,$9,$2,$3,0*%
G04 Aperture macros list end*
%ADD10R,1.700000X1.700000*%
%ADD11O,1.700000X1.700000*%
%ADD12RoundRect,0.250000X-0.412500X-0.650000X0.412500X-0.650000X0.412500X0.650000X-0.412500X0.650000X0*%
%ADD13C,2.000000*%
%ADD14RoundRect,0.250000X-0.400000X-0.625000X0.400000X-0.625000X0.400000X0.625000X-0.400000X0.625000X0*%
%ADD15RoundRect,0.250000X0.400000X0.625000X-0.400000X0.625000X-0.400000X-0.625000X0.400000X-0.625000X0*%
%ADD16RoundRect,0.100000X0.100000X0.575000X-0.100000X0.575000X-0.100000X-0.575000X0.100000X-0.575000X0*%
%ADD17O,0.900000X1.600000*%
%ADD18RoundRect,0.250000X0.550000X0.450000X-0.550000X0.450000X-0.550000X-0.450000X0.550000X-0.450000X0*%
%ADD19RoundRect,0.250000X0.700000X0.700000X-0.700000X0.700000X-0.700000X-0.700000X0.700000X-0.700000X0*%
%ADD20RoundRect,0.250000X0.412500X0.650000X-0.412500X0.650000X-0.412500X-0.650000X0.412500X-0.650000X0*%
%ADD21RoundRect,0.150000X0.587500X0.150000X-0.587500X0.150000X-0.587500X-0.150000X0.587500X-0.150000X0*%
%ADD22R,1.625600X0.609600*%
%ADD23R,2.200000X2.200000*%
%ADD24O,2.200000X2.200000*%
%ADD25RoundRect,0.062500X-0.062500X0.337500X-0.062500X-0.337500X0.062500X-0.337500X0.062500X0.337500X0*%
%ADD26RoundRect,0.062500X-0.337500X0.062500X-0.337500X-0.062500X0.337500X-0.062500X0.337500X0.062500X0*%
%ADD27R,3.350000X3.350000*%
%ADD28R,1.500000X0.900000*%
%ADD29R,0.900000X0.900000*%
%ADD30RoundRect,0.375000X-0.625000X-0.375000X0.625000X-0.375000X0.625000X0.375000X-0.625000X0.375000X0*%
%ADD31RoundRect,0.500000X-0.500000X-1.400000X0.500000X-1.400000X0.500000X1.400000X-0.500000X1.400000X0*%
%ADD32R,1.800000X1.800000*%
%ADD33C,1.800000*%
%ADD34RoundRect,0.150000X-0.150000X0.587500X-0.150000X-0.587500X0.150000X-0.587500X0.150000X0.587500X0*%
G04 APERTURE END LIST*
D10*
%TO.C,J3*%
X63540000Y-81960000D03*
D11*
X63540000Y-84500000D03*
X61000000Y-81960000D03*
X61000000Y-84500000D03*
X58460000Y-81960000D03*
X58460000Y-84500000D03*
X55920000Y-81960000D03*
X55920000Y-84500000D03*
X53380000Y-81960000D03*
X53380000Y-84500000D03*
%TD*%
D12*
%TO.C,C9*%
X40375000Y-70500000D03*
X43500000Y-70500000D03*
%TD*%
D13*
%TO.C,SW2*%
X38500000Y-42000000D03*
X45000000Y-42000000D03*
X38500000Y-46500000D03*
X45000000Y-46500000D03*
%TD*%
D14*
%TO.C,R9*%
X49900000Y-38000000D03*
X53000000Y-38000000D03*
%TD*%
D15*
%TO.C,R2*%
X47000000Y-25500000D03*
X43900000Y-25500000D03*
%TD*%
D16*
%TO.C,J2*%
X60850000Y-20025000D03*
X60200000Y-20025000D03*
X59550000Y-20025000D03*
X58900000Y-20025000D03*
X58250000Y-20025000D03*
D17*
X62850000Y-17350000D03*
D18*
X62750000Y-19800000D03*
D19*
X60750000Y-17350000D03*
X58350000Y-17350000D03*
D18*
X56350000Y-19800000D03*
D17*
X56250000Y-17350000D03*
%TD*%
D12*
%TO.C,C10*%
X40375000Y-61500000D03*
X43500000Y-61500000D03*
%TD*%
D14*
%TO.C,R3*%
X43900000Y-21500000D03*
X47000000Y-21500000D03*
%TD*%
D20*
%TO.C,C5*%
X79000000Y-50000000D03*
X75875000Y-50000000D03*
%TD*%
D14*
%TO.C,R7*%
X57900000Y-38000000D03*
X61000000Y-38000000D03*
%TD*%
D20*
%TO.C,C2*%
X79000000Y-59000000D03*
X75875000Y-59000000D03*
%TD*%
D21*
%TO.C,Q1*%
X40000000Y-27000000D03*
X40000000Y-25100000D03*
X38125000Y-26050000D03*
%TD*%
D20*
%TO.C,C6*%
X79000000Y-45500000D03*
X75875000Y-45500000D03*
%TD*%
D13*
%TO.C,SW1*%
X38500000Y-31500000D03*
X45000000Y-31500000D03*
X38500000Y-36000000D03*
X45000000Y-36000000D03*
%TD*%
D22*
%TO.C,U5*%
X69105950Y-24547500D03*
X69105950Y-26452500D03*
X71000000Y-25500000D03*
%TD*%
D12*
%TO.C,C3*%
X40375000Y-66000000D03*
X43500000Y-66000000D03*
%TD*%
D23*
%TO.C,D2*%
X79000000Y-17500000D03*
D24*
X68840000Y-17500000D03*
%TD*%
D25*
%TO.C,U3*%
X60850000Y-29400000D03*
X60350000Y-29400000D03*
X59850000Y-29400000D03*
X59350000Y-29400000D03*
X58850000Y-29400000D03*
X58350000Y-29400000D03*
X57850000Y-29400000D03*
D26*
X56900000Y-30350000D03*
X56900000Y-30850000D03*
X56900000Y-31350000D03*
X56900000Y-31850000D03*
X56900000Y-32350000D03*
X56900000Y-32850000D03*
X56900000Y-33350000D03*
D25*
X57850000Y-34300000D03*
X58350000Y-34300000D03*
X58850000Y-34300000D03*
X59350000Y-34300000D03*
X59850000Y-34300000D03*
X60350000Y-34300000D03*
X60850000Y-34300000D03*
D26*
X61800000Y-33350000D03*
X61800000Y-32850000D03*
X61800000Y-32350000D03*
X61800000Y-31850000D03*
X61800000Y-31350000D03*
X61800000Y-30850000D03*
X61800000Y-30350000D03*
D27*
X59350000Y-31850000D03*
%TD*%
D20*
%TO.C,C7*%
X79000000Y-63500000D03*
X75875000Y-63500000D03*
%TD*%
D28*
%TO.C,U1*%
X51000000Y-52105000D03*
X51000000Y-53375000D03*
X51000000Y-54645000D03*
X51000000Y-55915000D03*
X51000000Y-57185000D03*
X51000000Y-58455000D03*
X51000000Y-59725000D03*
X51000000Y-60995000D03*
X51000000Y-62265000D03*
X51000000Y-63535000D03*
X51000000Y-64805000D03*
X51000000Y-66075000D03*
X51000000Y-67345000D03*
X51000000Y-68615000D03*
X51000000Y-69885000D03*
X51000000Y-71155000D03*
X51000000Y-72425000D03*
X51000000Y-73695000D03*
X51000000Y-74965000D03*
X68500000Y-74965000D03*
X68500000Y-73695000D03*
X68500000Y-72425000D03*
X68500000Y-71155000D03*
X68500000Y-69885000D03*
X68500000Y-68615000D03*
X68500000Y-67345000D03*
X68500000Y-66075000D03*
X68500000Y-64805000D03*
X68500000Y-63535000D03*
X68500000Y-62265000D03*
X68500000Y-60995000D03*
X68500000Y-59725000D03*
X68500000Y-58455000D03*
X68500000Y-57185000D03*
X68500000Y-55915000D03*
X68500000Y-54645000D03*
X68500000Y-53375000D03*
X68500000Y-52105000D03*
D29*
X56845000Y-58500000D03*
X56850000Y-59900000D03*
X56850000Y-61300000D03*
X58250000Y-58500000D03*
X58250000Y-59900000D03*
X58250000Y-61300000D03*
X59650000Y-58500000D03*
X59650000Y-59900000D03*
X59650000Y-61300000D03*
%TD*%
D20*
%TO.C,C1*%
X79000000Y-68000000D03*
X75875000Y-68000000D03*
%TD*%
D22*
%TO.C,U4*%
X63504000Y-24649450D03*
X63504000Y-26554450D03*
X65398050Y-25601950D03*
%TD*%
D30*
%TO.C,U2*%
X74200000Y-29700000D03*
X74200000Y-32000000D03*
D31*
X80500000Y-32000000D03*
D30*
X74200000Y-34300000D03*
%TD*%
D15*
%TO.C,R8*%
X41000000Y-21500000D03*
X37900000Y-21500000D03*
%TD*%
D14*
%TO.C,R6*%
X49900000Y-41500000D03*
X53000000Y-41500000D03*
%TD*%
D12*
%TO.C,C4*%
X40375000Y-75000000D03*
X43500000Y-75000000D03*
%TD*%
D14*
%TO.C,R5*%
X37900000Y-17500000D03*
X41000000Y-17500000D03*
%TD*%
D13*
%TO.C,SW3*%
X38500000Y-52500000D03*
X45000000Y-52500000D03*
X38500000Y-57000000D03*
X45000000Y-57000000D03*
%TD*%
D32*
%TO.C,D3*%
X49810000Y-31850000D03*
D33*
X52350000Y-31850000D03*
%TD*%
D34*
%TO.C,Q2*%
X51950000Y-23625000D03*
X50050000Y-23625000D03*
X51000000Y-25500000D03*
%TD*%
D20*
%TO.C,C8*%
X79000000Y-54500000D03*
X75875000Y-54500000D03*
%TD*%
D15*
%TO.C,R4*%
X47000000Y-17500000D03*
X43900000Y-17500000D03*
%TD*%
D32*
%TO.C,D1*%
X65810000Y-31850000D03*
D33*
X68350000Y-31850000D03*
%TD*%
D15*
%TO.C,R1*%
X68500000Y-38000000D03*
X65400000Y-38000000D03*
%TD*%
M02*
